<svg width="160" height="156" viewBox="0 0 160 156" fill="none" xmlns="http://www.w3.org/2000/svg">
<mask id="path-1-inside-1_1421_838" fill="white">
<path fill-rule="evenodd" clip-rule="evenodd" d="M89.8985 6.395C90.1395 9.912 90.5025 13.428 90.7055 14.208C90.9085 14.989 89.6265 16.564 87.8565 17.708C84.2875 20.017 83.0855 22.429 83.4665 26.516C83.6055 28.016 83.0125 30.253 82.1475 31.488C79.9285 34.656 80.1935 37.999 82.8755 40.681C84.6905 42.496 85.0005 43.511 84.3425 45.484C83.0265 49.434 84.9685 53.282 88.2995 53.324C89.8255 53.344 92.1995 53.989 93.5745 54.758L96.0745 56.156L92.3565 57.722C90.3115 58.584 87.9275 59.289 87.0595 59.289C84.1505 59.289 77.2015 50.752 71.5405 40.223C63.0455 24.422 58.7625 22.255 38.0745 23.289C28.5985 23.763 28.1915 23.872 30.3185 25.379C32.9525 27.245 32.3125 28.289 28.5325 28.289C27.0435 28.289 24.4065 28.573 22.6735 28.919C20.1685 29.42 19.6435 29.932 20.1155 31.418C20.8135 33.619 19.4935 34.236 8.57449 36.811C4.44949 37.784 0.688486 38.923 0.217486 39.342C-0.962513 40.39 2.81049 42.261 7.87149 43.137C11.4035 43.749 12.0265 44.204 11.7765 45.987C11.4505 48.313 14.8295 51.289 17.7975 51.289C19.8025 51.289 20.0915 52.372 18.5105 53.953C16.9295 55.534 20.1195 58.289 23.5295 58.289C25.4235 58.289 26.4995 58.892 26.8245 60.137C27.3715 62.228 32.4385 63.612 36.1425 62.683C37.6485 62.304 39.1005 62.672 40.1165 63.688C40.9965 64.569 42.5325 65.289 43.5295 65.289C44.5255 65.289 45.5765 66.189 45.8645 67.289C46.2115 68.616 47.2285 69.289 48.8875 69.289C50.8995 69.289 51.2845 69.681 50.8615 71.299C50.4525 72.864 51.0245 73.55 53.4405 74.392C56.1345 75.331 56.4045 75.737 55.4835 77.46C53.9875 80.255 54.9525 81.994 58.4235 82.756C60.0645 83.116 61.6775 84.116 62.0085 84.978C62.4625 86.16 63.4865 86.403 66.1805 85.965C68.9435 85.517 69.6325 85.694 69.2275 86.75C68.9405 87.5 68.1535 91.715 67.4795 96.118C65.0405 112.047 70.3045 127.994 79.5745 132.766C86.9615 136.568 98.4255 135.273 106.703 129.702L111.818 126.26L113.946 128.528C115.116 129.775 117.539 131.932 119.33 133.322C121.393 134.924 123.301 137.806 124.54 141.196C125.615 144.136 126.625 146.63 126.784 146.738C130.044 148.933 136.806 152.289 137.971 152.289C138.819 152.289 141.214 153.172 143.293 154.252C146.508 155.922 147.698 156.056 151.245 155.151C157.659 153.513 160.136 149.978 159.685 143.101C159.624 142.172 156.969 137.897 153.785 133.601C149.619 127.981 147.347 123.684 145.688 118.289C144.42 114.164 141.764 107.864 139.785 104.289C136.969 99.202 136.025 96.158 135.448 90.289C135.042 86.164 134.404 80.943 134.03 78.687C133.466 75.281 133.781 73.922 135.888 70.687C137.283 68.543 138.918 64.904 139.522 62.599C140.287 59.677 141.293 58.204 142.846 57.731C146.15 56.725 148.573 54.254 148.58 51.884C148.584 50.635 149.728 49.14 151.413 48.181L154.24 46.574L154.157 34.506L154.074 22.437L150.899 19.113C143.974 11.864 143.147 11.292 131.716 5.853C125.8 3.038 116.48 2.493 114.526 4.847C113.857 5.653 112.224 5.944 110.207 5.617C107.673 5.206 106.268 5.676 103.782 7.767L100.601 10.444L97.6665 8.355C96.0525 7.205 93.5465 4.856 92.0965 3.133L89.4605 0L89.8985 6.395ZM97.3685 11.108C96.7855 14.115 94.6405 13.339 92.6285 9.394C89.8645 3.976 89.9995 3.749 94.1185 6.89C96.0675 8.377 97.5305 10.275 97.3685 11.108ZM116.532 6.367C115.92 7.51 115.661 9.073 115.955 9.84C116.539 11.361 112.456 16.747 109.532 18.312C107.158 19.582 102.574 17.897 102.574 15.755C102.574 14.884 102.124 14.449 101.574 14.789C101.024 15.129 100.574 14.48 100.574 13.348C100.574 10.839 101.289 10.769 103.995 13.012C105.139 13.96 105.512 14.095 104.824 13.312C103.447 11.744 103.122 8.289 104.352 8.289C104.78 8.289 105.9 9.189 106.842 10.289C107.784 11.389 109.121 12.265 109.814 12.237C110.507 12.208 110.061 11.478 108.824 10.615C107.587 9.751 106.574 8.335 106.574 7.467C106.574 6.24 106.841 6.156 107.774 7.089C109.549 8.864 112.028 8.55 114.074 6.289C116.441 3.673 117.948 3.721 116.532 6.367ZM120.585 5.776C118.987 7.701 120.005 10.322 122.293 10.173C123.962 10.064 123.964 10.028 122.324 9.6C120.181 9.04 120.042 7.43 122.068 6.653C122.89 6.337 123.314 5.677 123.009 5.184C121.518 2.771 127.996 4.601 134.574 8.451C135.399 8.934 137.424 9.968 139.074 10.748C140.724 11.528 144.527 14.431 147.526 17.199L152.979 22.231L153.17 28.782C153.333 34.367 153.074 35.486 151.412 36.376C150.34 36.949 148.927 37.2 148.27 36.933C147.6 36.66 147.816 36.412 148.765 36.368C149.695 36.325 150.731 35.844 151.067 35.3C151.41 34.745 151.032 34.56 150.204 34.877C148.301 35.608 144.574 33.616 144.574 31.869C144.574 31.126 145.699 29.782 147.074 28.881C148.449 27.98 149.574 26.478 149.574 25.543C149.574 24.168 149.277 24.268 148.017 26.066C144.873 30.555 138.574 27.638 138.574 21.693C138.574 19.886 138.124 18.129 137.574 17.789C136.978 17.421 136.574 18.627 136.574 20.775C136.574 24.494 133.04 29.324 130.369 29.256C129.629 29.237 130.038 28.418 131.324 27.345C134.229 24.922 134.25 23.702 131.351 25.732C127.689 28.298 125.858 27.68 128.57 24.793C131.479 21.696 130.617 20.614 126.574 22.289C122.282 24.067 121.747 22.856 125.448 19.741C127.167 18.295 128.564 16.589 128.552 15.95C128.54 15.311 127.752 15.718 126.802 16.853C125.851 17.989 123.836 19.687 122.324 20.626C120.812 21.566 119.574 23.225 119.574 24.312C119.574 25.399 119.072 26.289 118.457 26.289C117.78 26.289 117.546 25.214 117.863 23.558C118.349 21.014 118.289 20.958 116.99 22.735C116.222 23.784 115.329 24.377 115.003 24.052C114.092 23.14 116.27 19.674 119.203 17.367C120.655 16.224 121.371 15.289 120.794 15.289C120.216 15.289 118.469 16.639 116.912 18.289C115.355 19.939 113.742 21.289 113.327 21.289C111.87 21.289 112.596 18.076 114.64 15.478C116.261 13.418 117.502 12.883 120.39 13.001C123.862 13.142 123.901 13.111 121.074 12.463C117.445 11.632 116.345 7.661 119.17 5.595C121.533 3.867 122.108 3.941 120.585 5.776ZM93.5745 12.789C94.5945 14.018 94.5255 14.289 93.1965 14.289C92.3045 14.289 91.5745 13.614 91.5745 12.789C91.5745 11.964 91.7445 11.289 91.9525 11.289C92.1595 11.289 92.8895 11.964 93.5745 12.789ZM99.5745 13.712C99.5745 14.495 98.2245 16.485 96.5745 18.135C93.4955 21.214 92.6985 25.013 94.7105 27.025C95.5575 27.872 95.4305 28.575 94.2105 29.796C92.6915 31.314 92.4175 32.867 92.0025 42.289C91.7825 47.26 90.4825 52.289 89.4175 52.289C88.9185 52.289 88.1035 51.276 87.6055 50.039C86.7725 47.966 86.6935 47.946 86.6075 49.789C86.5205 51.646 86.4405 51.663 85.4815 50.017C84.7355 48.734 84.8535 47.435 85.9115 45.316C87.2865 42.559 87.2355 42.297 85.0495 40.864C80.2005 37.687 81.1685 31.289 86.4985 31.289C89.1385 31.289 95.4655 27.397 92.9465 27.322C92.3265 27.304 91.2595 27.964 90.5745 28.789C89.2935 30.333 85.5745 30.883 85.5745 29.53C85.5745 29.112 86.4745 28.208 87.5745 27.521C89.6425 26.229 90.3375 23.289 88.5745 23.289C88.0245 23.289 87.5745 23.739 87.5745 24.289C87.5745 25.531 84.8925 25.613 84.1385 24.393C83.8345 23.9 84.4835 22.438 85.5815 21.143C87.3435 19.066 87.5085 19.025 86.9855 20.789C86.5485 22.264 87.1385 21.96 89.2335 19.631C90.7965 17.894 93.0455 16.19 94.2325 15.843C95.4185 15.497 96.6425 14.555 96.9505 13.751C97.6705 11.876 99.5745 11.848 99.5745 13.712ZM99.1635 20.366C97.7395 22.058 96.5745 24.083 96.5745 24.866C96.5745 25.649 96.1245 26.289 95.5745 26.289C93.7695 26.289 94.5285 21.967 96.7485 19.603C100.133 16.001 102.268 16.675 99.1635 20.366ZM111.325 21.041C111.529 21.653 110.83 22.617 109.772 23.183C108.714 23.749 107.257 25.64 106.534 27.385C105.36 30.22 105.419 30.702 107.088 31.923C108.611 33.037 108.666 33.289 107.388 33.289C105.382 33.289 103.889 31.46 103.306 28.289C102.863 25.88 102.841 25.891 102.71 28.598C102.553 31.833 100.634 31.306 100.458 27.98C100.367 26.27 100.241 26.176 99.8825 27.551C99.6295 28.52 99.0075 29.056 98.4985 28.742C96.8995 27.754 97.4925 23.754 99.5695 21.524C101.156 19.822 102.527 19.439 106.259 19.655C108.841 19.805 111.121 20.429 111.325 21.041ZM113.574 24.073C113.574 24.505 114.832 25.601 116.369 26.509C119.495 28.355 121.982 27.516 120.997 24.948C120.514 23.69 120.758 23.422 121.963 23.885C122.849 24.225 123.574 24.911 123.574 25.411C123.574 26.524 129.581 30.28 131.369 30.285C132.082 30.287 133.772 29.182 135.125 27.829L137.585 25.369L136.976 29.178C136.28 33.527 138.156 38.028 141.884 40.961C143.176 41.978 144.023 43.48 143.765 44.299C142.685 47.726 131.125 65.537 129.133 66.842C127.943 67.622 125.612 68.531 123.953 68.863C121.374 69.379 120.476 68.941 117.755 65.843C116.006 63.85 114.574 61.597 114.574 60.836C114.574 59.139 108.557 55.289 105.906 55.289C104.843 55.289 103.476 55.787 102.867 56.396C100.302 58.961 97.1815 49.622 98.9895 44.789C99.7145 42.851 99.6895 42.848 98.2045 44.664C95.3555 48.148 91.7435 44.737 92.9955 39.746C93.7955 36.562 95.4715 37.379 94.8465 40.648C94.3675 43.155 95.9705 45.075 97.0645 43.305C97.4095 42.746 97.2155 42.289 96.6335 42.289C93.9865 42.289 95.9305 40.689 98.8245 40.486C100.959 40.336 102.932 39.278 104.574 37.402C105.949 35.832 107.861 34.278 108.824 33.95C111.074 33.181 111.088 29.676 108.845 28.421C107.22 27.512 107.23 27.327 109 25.371C110.858 23.317 113.574 22.547 113.574 24.073ZM127.074 24.289C126.734 24.839 125.92 25.282 125.265 25.274C124.549 25.264 124.673 24.871 125.574 24.289C127.495 23.047 127.841 23.047 127.074 24.289ZM140.574 24.539C140.574 24.952 141.672 25.289 143.015 25.289C144.358 25.289 145.665 24.952 145.919 24.539C146.174 24.126 145.076 23.789 143.479 23.789C141.881 23.789 140.574 24.126 140.574 24.539ZM58.1155 26.169C63.3645 28.553 66.4985 32.387 72.1645 43.358C75.2875 49.406 78.3285 53.69 81.5135 56.534L86.2345 60.747L81.4625 65.595C78.0625 69.048 76.0485 70.349 74.4605 70.116C70.7025 69.565 71.2975 67.688 75.6445 66.386C77.9125 65.707 79.5625 64.944 79.3105 64.692C79.0585 64.439 77.6355 64.696 76.1485 65.261C72.5845 66.616 64.8715 66.578 64.0205 65.202C62.6145 62.926 65.6845 61.969 73.9995 62.091C78.6765 62.159 82.7435 61.824 83.0385 61.347C83.3335 60.87 81.7795 60.72 79.5845 61.015C75.8855 61.511 72.5745 60.249 72.5745 58.343C72.5745 57.957 74.2625 57.149 76.3245 56.547L80.0745 55.453L76.3315 55.981C74.2725 56.271 71.4595 56.226 70.0815 55.88C66.9395 55.091 66.7405 52.295 69.8245 52.274C71.0615 52.265 72.7265 51.846 73.5225 51.342C74.4775 50.738 73.6265 50.602 71.0225 50.943C66.3625 51.552 61.5745 49.966 61.5745 47.814C61.5745 46.834 62.5575 46.264 64.3245 46.219C65.8375 46.18 67.9745 45.766 69.0745 45.299C70.3805 44.744 69.3405 44.61 66.0745 44.915C60.5585 45.428 56.3005 43.818 55.7605 41.014C55.4925 39.626 56.1735 39.286 59.2515 39.274C61.3545 39.265 63.7405 38.837 64.5555 38.322C65.5275 37.707 64.1555 37.57 60.5555 37.923C56.6435 38.307 54.5265 38.048 53.1625 37.019C50.5465 35.048 51.7625 32.308 55.2935 32.219C56.8225 32.18 58.9745 31.773 60.0745 31.314C61.2945 30.805 59.8575 30.689 56.3925 31.017C53.2665 31.313 49.8915 31.236 48.8925 30.847C47.3685 30.254 47.6245 29.906 50.4755 28.699C55.2675 26.669 53.8855 26.071 48.6065 27.89C45.0405 29.119 43.3265 29.189 39.4765 28.266C36.8705 27.64 33.9135 26.504 32.9055 25.741C29.7835 23.374 52.8255 23.765 58.1155 26.169ZM143.574 31.327C143.574 32.271 144.27 33.622 145.121 34.328C146.313 35.318 146.383 35.789 145.423 36.382C144.605 36.888 145.188 37.376 147.126 37.808C151.999 38.892 152.238 39.127 148.574 39.225C145.93 39.297 145.441 39.557 146.574 40.289C147.782 41.07 147.627 41.261 145.776 41.274C141.442 41.303 135.808 31.956 138.011 28.392C138.971 26.838 143.574 29.266 143.574 31.327ZM45.3245 30.946C49.6635 32.282 50.5745 32.961 50.5745 34.859C50.5745 36.276 51.3395 37.397 52.5745 37.789C53.8445 38.192 54.5745 39.302 54.5745 40.831C54.5745 42.492 55.5015 43.717 57.5675 44.785C59.2135 45.636 60.5095 46.66 60.4485 47.061C60.0965 49.367 60.8875 50.502 63.4745 51.404C65.0695 51.96 66.6105 53.32 66.9005 54.426C67.1895 55.532 68.3595 56.682 69.5005 56.98C71.9505 57.621 72.2425 59.819 69.9925 60.682C67.3685 61.689 59.8365 61.365 57.1215 60.128C53.7325 58.584 53.8495 56.315 57.3245 56.189C58.8375 56.134 61.1995 55.695 62.5745 55.213C64.3895 54.577 63.7885 54.482 60.3785 54.866C54.0835 55.575 47.5745 53.801 47.5745 51.375C47.5745 49.525 51.0045 48.289 56.1405 48.289C57.4145 48.289 58.6665 47.951 58.9235 47.539C59.1805 47.126 55.7195 46.912 51.2325 47.062C42.6125 47.351 39.8895 46.515 40.8975 43.89C41.3465 42.719 42.8475 42.289 46.4845 42.289C49.2185 42.289 51.6665 41.952 51.9235 41.539C52.1805 41.126 49.1695 40.933 45.2325 41.109C32.8695 41.662 27.6605 37.492 38.9385 36.071C42.0735 35.676 45.4105 34.869 46.3565 34.278C47.6625 33.46 47.2355 33.392 44.5745 33.996C38.7935 35.306 28.3805 34.774 24.1705 32.952C22.0245 32.023 20.4785 31.052 20.7355 30.794C21.7525 29.777 32.3005 28.463 36.0745 28.883C38.2745 29.128 42.4365 30.056 45.3245 30.946ZM97.9945 31.16C98.2905 31.639 99.8925 32.303 101.553 32.635C105.125 33.349 105.474 34.992 102.324 36.258C100.322 37.063 100.289 37.169 102.024 37.226C103.392 37.27 103.659 37.604 102.919 38.344C101.436 39.827 97.0605 38.516 94.9245 35.949C93.9365 34.761 93.7685 34.352 94.5515 35.039C96.8165 37.028 98.0625 36.486 96.1315 34.352C95.1675 33.287 94.6745 31.937 95.0355 31.352C95.8315 30.065 97.2605 29.972 97.9945 31.16ZM95.5745 32.38C95.5745 33.552 99.4075 35.481 100.985 35.102C101.704 34.93 100.78 34.058 98.9335 33.165C97.0865 32.273 95.5745 31.919 95.5745 32.38ZM28.2075 35.322C31.4765 36.228 32.2395 36.852 31.8595 38.309C31.4805 39.757 32.2605 40.414 35.5175 41.39C38.1975 42.193 39.4815 43.089 39.1575 43.932C38.5725 45.457 42.2315 48.289 44.7855 48.289C46.0205 48.289 46.4795 48.965 46.3125 50.539C46.1305 52.255 46.9635 53.224 49.8245 54.621C51.8875 55.629 53.5745 57.066 53.5745 57.815C53.5745 58.563 54.4945 59.82 55.6195 60.608C57.5255 61.943 57.5435 62.087 55.8815 62.725C52.5935 63.986 41.8775 64.588 41.2345 63.547C40.8865 62.985 43.2815 61.57 46.6765 60.332C50.0115 59.116 52.5855 57.967 52.3965 57.778C52.2075 57.589 49.5825 58.287 46.5635 59.329C40.0995 61.56 27.1585 62.05 27.8175 60.039C28.0435 59.352 29.9935 58.223 32.1515 57.53C38.7535 55.412 44.7125 53.094 44.3855 52.771C44.2145 52.602 40.9245 53.538 37.0745 54.851C26.8685 58.33 18.3625 57.89 19.8705 53.96C20.2285 53.027 22.3355 52.175 25.2665 51.778C31.0405 50.996 36.3615 49.443 37.0435 48.34C37.3165 47.898 35.8595 48.136 33.8065 48.869C29.1585 50.528 18.5175 50.676 15.1215 49.128C10.2275 46.899 12.2205 45.291 21.9505 43.619C25.7325 42.969 29.3325 41.926 29.9505 41.3C30.7895 40.452 30.4395 40.401 28.5745 41.102C23.6675 42.944 15.9115 43.406 9.27649 42.251C5.58549 41.608 2.36349 40.756 2.11649 40.357C1.87049 39.959 4.91049 38.853 8.87149 37.9C12.8335 36.948 17.4245 35.559 19.0745 34.815C20.7245 34.07 22.5245 33.622 23.0745 33.818C23.6245 34.015 25.9345 34.691 28.2075 35.322ZM120.574 37.654C124.325 38.996 125.956 38.774 123.545 37.25C122.736 36.738 120.949 36.338 119.574 36.361C117.408 36.396 117.542 36.569 120.574 37.654ZM153.074 42.343C153.074 43.106 151.949 44.343 150.574 45.092C148.257 46.355 148.238 46.419 150.324 45.965C151.562 45.696 152.574 45.847 152.574 46.299C152.574 47.634 150.212 48.089 148.324 47.119C146.984 46.429 146.574 46.625 146.574 47.954C146.574 49.241 146.283 49.398 145.447 48.562C143.731 46.846 145.248 42.289 147.535 42.289C148.592 42.289 149.749 41.815 150.107 41.236C150.979 39.824 153.074 40.605 153.074 42.343ZM114.574 43.067C114.574 44.636 118.586 47.222 120.111 46.636C121.337 46.166 121.006 45.622 118.604 44.161C115.198 42.09 114.574 41.92 114.574 43.067ZM135.574 44.754C135.574 45.009 136.586 45.758 137.824 46.418C139.864 47.505 139.946 47.461 138.702 45.953C137.424 44.404 135.574 43.695 135.574 44.754ZM96.1285 48.376C96.4975 48.974 96.2995 49.964 95.6875 50.576C94.0155 52.248 94.3485 53.722 96.0745 52.289C96.9395 51.571 97.5745 51.474 97.5745 52.06C97.5745 53.768 94.5415 54.367 93.9315 52.778C93.6205 51.965 92.9625 51.549 92.4695 51.854C91.4415 52.489 91.2345 48.962 92.2415 47.956C93.2625 46.934 95.3785 47.163 96.1285 48.376ZM93.5745 50.348C93.5745 50.93 94.0245 51.129 94.5745 50.789C95.1245 50.449 95.5745 49.973 95.5745 49.73C95.5745 49.487 95.1245 49.289 94.5745 49.289C94.0245 49.289 93.5745 49.766 93.5745 50.348ZM121.574 50.789C121.574 51.614 121.751 52.289 121.967 52.289C122.183 52.289 122.619 51.614 122.936 50.789C123.252 49.964 123.075 49.289 122.543 49.289C122.01 49.289 121.574 49.964 121.574 50.789ZM146.431 50.179C147.883 51.099 147.15 55.289 145.538 55.289C145.042 55.289 144.932 54.501 145.293 53.539C145.86 52.025 145.727 51.969 144.309 53.122C143.408 53.854 141.961 54.304 141.095 54.122C139.663 53.819 139.664 53.584 141.104 51.539C142.786 49.15 144.226 48.782 146.431 50.179ZM131.326 50.87C130.413 51.783 131.638 54.368 132.679 53.724C133.171 53.42 133.574 53.648 133.574 54.23C133.574 55.846 136.283 55.491 136.936 53.789C137.314 52.804 136.904 52.289 135.743 52.289C134.77 52.289 133.516 51.832 132.957 51.272C132.398 50.713 131.664 50.532 131.326 50.87ZM128.305 54.209C127.87 55.872 128 56.263 128.742 55.521C129.324 54.939 129.602 53.874 129.362 53.152C129.112 52.403 128.659 52.857 128.305 54.209ZM101.552 61.071C101.589 64.874 104.117 69.727 107.58 72.641C110.795 75.346 110.834 75.478 109.628 79.505L108.397 83.61L106.617 79.634C104.816 75.611 98.6635 67.867 97.8865 68.644C97.6535 68.876 98.6605 70.354 100.123 71.928C103.381 75.433 107.574 83.495 107.574 86.256C107.574 90.177 109.154 88.238 110.195 83.039C110.773 80.151 111.57 77.061 111.966 76.171C112.492 74.991 111.757 74.004 109.254 72.528C105.016 70.027 101.892 62.884 103.156 58.582C103.908 56.025 104.029 56.211 104.583 60.789L105.19 65.789L105.632 61.367C105.875 58.934 106.597 56.773 107.236 56.563C108.043 56.298 108.237 57.38 107.872 60.105C107.582 62.264 107.765 64.289 108.279 64.607C108.805 64.932 109.031 63.95 108.797 62.355C108.569 60.799 108.875 59.221 109.478 58.848C110.18 58.415 110.574 59.25 110.574 61.171C110.574 62.821 111.042 64.46 111.614 64.814C112.289 65.231 112.426 64.548 112.006 62.873C111.6 61.258 111.773 60.289 112.466 60.289C113.075 60.289 113.574 60.758 113.574 61.332C113.574 61.906 115.359 64.739 117.541 67.629C124.327 76.617 125.353 88.872 120.073 97.882C115.936 104.941 110.152 105.048 99.6475 98.258C95.4955 95.574 92.4665 92.639 90.3725 89.27C88.6615 86.519 87.0565 84.474 86.8045 84.726C86.1195 85.41 90.0855 91.481 93.0145 94.233L95.5795 96.643L90.3465 99.505C87.4675 101.079 84.1345 102.612 82.9385 102.913C81.7425 103.213 79.7085 104.63 78.4195 106.061L76.0745 108.665L78.9595 106.477C83.3545 103.143 83.9135 103.824 81.0625 109.039C79.6345 111.651 79.0535 112.889 79.7705 111.789C80.4875 110.689 83.3345 107.461 86.0955 104.615C91.6455 98.897 95.6865 97.24 98.9755 99.332C107.114 104.511 114.168 105.871 117.458 102.894C119.27 101.254 119.448 101.304 121.343 103.982C122.435 105.526 125.842 111.811 128.914 117.949C134.428 128.964 140.216 136.016 152.387 146.547C154.14 148.063 155.574 150.201 155.574 151.297C155.574 153.797 153.97 153.911 153.328 151.456C153.064 150.447 152.122 149.622 151.234 149.622C150.03 149.622 149.752 150.28 150.14 152.206C150.624 154.612 150.557 154.583 149.158 151.789L147.656 148.789L148.183 151.789C148.686 154.648 148.637 154.698 147.142 152.848C146.28 151.78 145.574 150.543 145.574 150.098C145.574 149.653 145.034 149.289 144.374 149.289C143.441 149.289 143.441 149.556 144.374 150.489C146.756 152.871 145.785 154.28 142.824 152.736C141.312 151.947 139.245 151.299 138.232 151.295C137.218 151.292 135.245 150.389 133.847 149.289C132.448 148.189 130.715 147.289 129.996 147.289C128.127 147.289 125.574 143.283 125.574 140.351C125.574 138.604 123.815 136.202 119.694 132.324C113.449 126.445 112.151 124.503 110.076 117.924C109.359 115.65 108.727 114.632 108.673 115.661C108.587 117.289 108.357 117.355 106.91 116.161C105.414 114.927 105.358 114.999 106.356 116.871C106.966 118.016 108.164 119.534 109.019 120.244C111.674 122.447 110.815 125.594 106.803 128.362C101.124 132.281 97.1595 133.534 90.2315 133.599C78.3165 133.712 72.0275 127.691 68.9835 113.259C64.6985 92.942 75.1755 67.524 91.0335 59.765C93.9975 58.315 96.7095 56.38 97.0605 55.465C97.6095 54.033 97.9645 54.148 99.6145 56.296C100.667 57.667 101.54 59.816 101.552 61.071ZM118.683 55.732C120.523 57.571 126.574 61.032 126.574 60.244C126.574 59.206 120.722 55.299 119.157 55.293C118.653 55.291 118.44 55.488 118.683 55.732ZM142.574 56.289C142.574 56.839 141.647 57.289 140.515 57.289C139.383 57.289 138.734 57.739 139.074 58.289C139.414 58.839 138.987 59.289 138.125 59.289C136.807 59.289 136.757 58.97 137.806 57.289C139.09 55.234 142.574 54.503 142.574 56.289ZM121.307 60.413C121.986 61.097 122.793 61.404 123.1 61.096C123.408 60.788 122.853 60.229 121.867 59.853C120.442 59.311 120.327 59.425 121.307 60.413ZM138.504 61.539C138.465 62.227 138.047 63.689 137.574 64.789C136.854 66.465 136.704 66.263 136.645 63.539C136.607 61.752 137.024 60.289 137.574 60.289C138.124 60.289 138.542 60.852 138.504 61.539ZM62.5745 63.628C62.5745 66.474 48.6735 69.877 47.1465 67.405C46.7625 66.784 47.0385 66.09 47.7615 65.865C48.4835 65.64 51.0995 64.799 53.5745 63.998C59.4715 62.089 62.5745 61.961 62.5745 63.628ZM134.663 67.123C133.888 68.572 133.901 69.231 134.712 69.502C135.329 69.707 134.425 71.284 132.704 73.005C129.343 76.366 128.778 77.532 130.906 76.715C132.662 76.041 135.102 88.626 134.249 93.955C133.542 98.369 130.528 101.296 126.713 101.274C121.582 101.244 120.92 100.009 122.973 94.3C124.298 90.615 124.675 87.474 124.331 82.993C123.747 75.385 125.698 69.547 129.113 68.69C130.385 68.37 132.207 67.247 133.161 66.193C135.275 63.857 136.128 64.385 134.663 67.123ZM70.8095 68.691C72.4435 71.133 71.3105 72.202 65.8965 73.326C60.5375 74.438 53.1405 74.188 51.8015 72.849C50.7915 71.84 53.8345 69.444 58.0765 67.909C62.3535 66.36 69.5455 66.802 70.8095 68.691ZM124.559 71.039C124.539 71.996 122.61 75.015 122.589 74.121C122.581 73.753 122.301 72.741 121.967 71.871C121.569 70.833 121.912 70.289 122.967 70.289C123.851 70.289 124.567 70.627 124.559 71.039ZM74.8815 74.426C72.6835 78.241 66.5525 81.237 60.8835 81.267C52.6215 81.31 55.1145 75.964 63.8815 74.839C66.7375 74.472 70.1995 73.539 71.5745 72.766C75.8495 70.362 76.9135 70.896 74.8815 74.426ZM70.5805 82.277C69.3105 84.651 64.8705 85.985 63.3385 84.453C62.5525 83.667 62.9205 83.114 64.6615 82.47C65.9885 81.978 67.7495 81.322 68.5745 81.012C71.2585 80.001 71.6625 80.256 70.5805 82.277ZM139.417 106.039C141.543 110.302 144.23 116.949 145.388 120.812C146.668 125.082 148.805 129.394 150.839 131.812C157.766 140.047 159.009 142.363 157.66 144.523C156.982 145.609 156.797 146.269 157.25 145.99C157.703 145.71 158.139 146.563 158.218 147.885C158.298 149.207 158.231 150.289 158.071 150.289C157.911 150.289 152.896 145.609 146.927 139.889C136.492 129.89 135.794 128.951 128.812 115.511L121.549 101.532L125.945 102.027C129.488 102.427 130.702 102.128 132.207 100.489C133.234 99.371 134.406 98.418 134.813 98.372C135.219 98.326 137.291 101.776 139.417 106.039ZM126.574 136.539C126.574 137.437 127.054 138.468 127.641 138.83C129.356 139.89 129.524 138.941 127.992 136.846C126.806 135.224 126.574 135.174 126.574 136.539Z"/>
</mask>
<path fill-rule="evenodd" clip-rule="evenodd" d="M89.8985 6.395C90.1395 9.912 90.5025 13.428 90.7055 14.208C90.9085 14.989 89.6265 16.564 87.8565 17.708C84.2875 20.017 83.0855 22.429 83.4665 26.516C83.6055 28.016 83.0125 30.253 82.1475 31.488C79.9285 34.656 80.1935 37.999 82.8755 40.681C84.6905 42.496 85.0005 43.511 84.3425 45.484C83.0265 49.434 84.9685 53.282 88.2995 53.324C89.8255 53.344 92.1995 53.989 93.5745 54.758L96.0745 56.156L92.3565 57.722C90.3115 58.584 87.9275 59.289 87.0595 59.289C84.1505 59.289 77.2015 50.752 71.5405 40.223C63.0455 24.422 58.7625 22.255 38.0745 23.289C28.5985 23.763 28.1915 23.872 30.3185 25.379C32.9525 27.245 32.3125 28.289 28.5325 28.289C27.0435 28.289 24.4065 28.573 22.6735 28.919C20.1685 29.42 19.6435 29.932 20.1155 31.418C20.8135 33.619 19.4935 34.236 8.57449 36.811C4.44949 37.784 0.688486 38.923 0.217486 39.342C-0.962513 40.39 2.81049 42.261 7.87149 43.137C11.4035 43.749 12.0265 44.204 11.7765 45.987C11.4505 48.313 14.8295 51.289 17.7975 51.289C19.8025 51.289 20.0915 52.372 18.5105 53.953C16.9295 55.534 20.1195 58.289 23.5295 58.289C25.4235 58.289 26.4995 58.892 26.8245 60.137C27.3715 62.228 32.4385 63.612 36.1425 62.683C37.6485 62.304 39.1005 62.672 40.1165 63.688C40.9965 64.569 42.5325 65.289 43.5295 65.289C44.5255 65.289 45.5765 66.189 45.8645 67.289C46.2115 68.616 47.2285 69.289 48.8875 69.289C50.8995 69.289 51.2845 69.681 50.8615 71.299C50.4525 72.864 51.0245 73.55 53.4405 74.392C56.1345 75.331 56.4045 75.737 55.4835 77.46C53.9875 80.255 54.9525 81.994 58.4235 82.756C60.0645 83.116 61.6775 84.116 62.0085 84.978C62.4625 86.16 63.4865 86.403 66.1805 85.965C68.9435 85.517 69.6325 85.694 69.2275 86.75C68.9405 87.5 68.1535 91.715 67.4795 96.118C65.0405 112.047 70.3045 127.994 79.5745 132.766C86.9615 136.568 98.4255 135.273 106.703 129.702L111.818 126.26L113.946 128.528C115.116 129.775 117.539 131.932 119.33 133.322C121.393 134.924 123.301 137.806 124.54 141.196C125.615 144.136 126.625 146.63 126.784 146.738C130.044 148.933 136.806 152.289 137.971 152.289C138.819 152.289 141.214 153.172 143.293 154.252C146.508 155.922 147.698 156.056 151.245 155.151C157.659 153.513 160.136 149.978 159.685 143.101C159.624 142.172 156.969 137.897 153.785 133.601C149.619 127.981 147.347 123.684 145.688 118.289C144.42 114.164 141.764 107.864 139.785 104.289C136.969 99.202 136.025 96.158 135.448 90.289C135.042 86.164 134.404 80.943 134.03 78.687C133.466 75.281 133.781 73.922 135.888 70.687C137.283 68.543 138.918 64.904 139.522 62.599C140.287 59.677 141.293 58.204 142.846 57.731C146.15 56.725 148.573 54.254 148.58 51.884C148.584 50.635 149.728 49.14 151.413 48.181L154.24 46.574L154.157 34.506L154.074 22.437L150.899 19.113C143.974 11.864 143.147 11.292 131.716 5.853C125.8 3.038 116.48 2.493 114.526 4.847C113.857 5.653 112.224 5.944 110.207 5.617C107.673 5.206 106.268 5.676 103.782 7.767L100.601 10.444L97.6665 8.355C96.0525 7.205 93.5465 4.856 92.0965 3.133L89.4605 0L89.8985 6.395ZM97.3685 11.108C96.7855 14.115 94.6405 13.339 92.6285 9.394C89.8645 3.976 89.9995 3.749 94.1185 6.89C96.0675 8.377 97.5305 10.275 97.3685 11.108ZM116.532 6.367C115.92 7.51 115.661 9.073 115.955 9.84C116.539 11.361 112.456 16.747 109.532 18.312C107.158 19.582 102.574 17.897 102.574 15.755C102.574 14.884 102.124 14.449 101.574 14.789C101.024 15.129 100.574 14.48 100.574 13.348C100.574 10.839 101.289 10.769 103.995 13.012C105.139 13.96 105.512 14.095 104.824 13.312C103.447 11.744 103.122 8.289 104.352 8.289C104.78 8.289 105.9 9.189 106.842 10.289C107.784 11.389 109.121 12.265 109.814 12.237C110.507 12.208 110.061 11.478 108.824 10.615C107.587 9.751 106.574 8.335 106.574 7.467C106.574 6.24 106.841 6.156 107.774 7.089C109.549 8.864 112.028 8.55 114.074 6.289C116.441 3.673 117.948 3.721 116.532 6.367ZM120.585 5.776C118.987 7.701 120.005 10.322 122.293 10.173C123.962 10.064 123.964 10.028 122.324 9.6C120.181 9.04 120.042 7.43 122.068 6.653C122.89 6.337 123.314 5.677 123.009 5.184C121.518 2.771 127.996 4.601 134.574 8.451C135.399 8.934 137.424 9.968 139.074 10.748C140.724 11.528 144.527 14.431 147.526 17.199L152.979 22.231L153.17 28.782C153.333 34.367 153.074 35.486 151.412 36.376C150.34 36.949 148.927 37.2 148.27 36.933C147.6 36.66 147.816 36.412 148.765 36.368C149.695 36.325 150.731 35.844 151.067 35.3C151.41 34.745 151.032 34.56 150.204 34.877C148.301 35.608 144.574 33.616 144.574 31.869C144.574 31.126 145.699 29.782 147.074 28.881C148.449 27.98 149.574 26.478 149.574 25.543C149.574 24.168 149.277 24.268 148.017 26.066C144.873 30.555 138.574 27.638 138.574 21.693C138.574 19.886 138.124 18.129 137.574 17.789C136.978 17.421 136.574 18.627 136.574 20.775C136.574 24.494 133.04 29.324 130.369 29.256C129.629 29.237 130.038 28.418 131.324 27.345C134.229 24.922 134.25 23.702 131.351 25.732C127.689 28.298 125.858 27.68 128.57 24.793C131.479 21.696 130.617 20.614 126.574 22.289C122.282 24.067 121.747 22.856 125.448 19.741C127.167 18.295 128.564 16.589 128.552 15.95C128.54 15.311 127.752 15.718 126.802 16.853C125.851 17.989 123.836 19.687 122.324 20.626C120.812 21.566 119.574 23.225 119.574 24.312C119.574 25.399 119.072 26.289 118.457 26.289C117.78 26.289 117.546 25.214 117.863 23.558C118.349 21.014 118.289 20.958 116.99 22.735C116.222 23.784 115.329 24.377 115.003 24.052C114.092 23.14 116.27 19.674 119.203 17.367C120.655 16.224 121.371 15.289 120.794 15.289C120.216 15.289 118.469 16.639 116.912 18.289C115.355 19.939 113.742 21.289 113.327 21.289C111.87 21.289 112.596 18.076 114.64 15.478C116.261 13.418 117.502 12.883 120.39 13.001C123.862 13.142 123.901 13.111 121.074 12.463C117.445 11.632 116.345 7.661 119.17 5.595C121.533 3.867 122.108 3.941 120.585 5.776ZM93.5745 12.789C94.5945 14.018 94.5255 14.289 93.1965 14.289C92.3045 14.289 91.5745 13.614 91.5745 12.789C91.5745 11.964 91.7445 11.289 91.9525 11.289C92.1595 11.289 92.8895 11.964 93.5745 12.789ZM99.5745 13.712C99.5745 14.495 98.2245 16.485 96.5745 18.135C93.4955 21.214 92.6985 25.013 94.7105 27.025C95.5575 27.872 95.4305 28.575 94.2105 29.796C92.6915 31.314 92.4175 32.867 92.0025 42.289C91.7825 47.26 90.4825 52.289 89.4175 52.289C88.9185 52.289 88.1035 51.276 87.6055 50.039C86.7725 47.966 86.6935 47.946 86.6075 49.789C86.5205 51.646 86.4405 51.663 85.4815 50.017C84.7355 48.734 84.8535 47.435 85.9115 45.316C87.2865 42.559 87.2355 42.297 85.0495 40.864C80.2005 37.687 81.1685 31.289 86.4985 31.289C89.1385 31.289 95.4655 27.397 92.9465 27.322C92.3265 27.304 91.2595 27.964 90.5745 28.789C89.2935 30.333 85.5745 30.883 85.5745 29.53C85.5745 29.112 86.4745 28.208 87.5745 27.521C89.6425 26.229 90.3375 23.289 88.5745 23.289C88.0245 23.289 87.5745 23.739 87.5745 24.289C87.5745 25.531 84.8925 25.613 84.1385 24.393C83.8345 23.9 84.4835 22.438 85.5815 21.143C87.3435 19.066 87.5085 19.025 86.9855 20.789C86.5485 22.264 87.1385 21.96 89.2335 19.631C90.7965 17.894 93.0455 16.19 94.2325 15.843C95.4185 15.497 96.6425 14.555 96.9505 13.751C97.6705 11.876 99.5745 11.848 99.5745 13.712ZM99.1635 20.366C97.7395 22.058 96.5745 24.083 96.5745 24.866C96.5745 25.649 96.1245 26.289 95.5745 26.289C93.7695 26.289 94.5285 21.967 96.7485 19.603C100.133 16.001 102.268 16.675 99.1635 20.366ZM111.325 21.041C111.529 21.653 110.83 22.617 109.772 23.183C108.714 23.749 107.257 25.64 106.534 27.385C105.36 30.22 105.419 30.702 107.088 31.923C108.611 33.037 108.666 33.289 107.388 33.289C105.382 33.289 103.889 31.46 103.306 28.289C102.863 25.88 102.841 25.891 102.71 28.598C102.553 31.833 100.634 31.306 100.458 27.98C100.367 26.27 100.241 26.176 99.8825 27.551C99.6295 28.52 99.0075 29.056 98.4985 28.742C96.8995 27.754 97.4925 23.754 99.5695 21.524C101.156 19.822 102.527 19.439 106.259 19.655C108.841 19.805 111.121 20.429 111.325 21.041ZM113.574 24.073C113.574 24.505 114.832 25.601 116.369 26.509C119.495 28.355 121.982 27.516 120.997 24.948C120.514 23.69 120.758 23.422 121.963 23.885C122.849 24.225 123.574 24.911 123.574 25.411C123.574 26.524 129.581 30.28 131.369 30.285C132.082 30.287 133.772 29.182 135.125 27.829L137.585 25.369L136.976 29.178C136.28 33.527 138.156 38.028 141.884 40.961C143.176 41.978 144.023 43.48 143.765 44.299C142.685 47.726 131.125 65.537 129.133 66.842C127.943 67.622 125.612 68.531 123.953 68.863C121.374 69.379 120.476 68.941 117.755 65.843C116.006 63.85 114.574 61.597 114.574 60.836C114.574 59.139 108.557 55.289 105.906 55.289C104.843 55.289 103.476 55.787 102.867 56.396C100.302 58.961 97.1815 49.622 98.9895 44.789C99.7145 42.851 99.6895 42.848 98.2045 44.664C95.3555 48.148 91.7435 44.737 92.9955 39.746C93.7955 36.562 95.4715 37.379 94.8465 40.648C94.3675 43.155 95.9705 45.075 97.0645 43.305C97.4095 42.746 97.2155 42.289 96.6335 42.289C93.9865 42.289 95.9305 40.689 98.8245 40.486C100.959 40.336 102.932 39.278 104.574 37.402C105.949 35.832 107.861 34.278 108.824 33.95C111.074 33.181 111.088 29.676 108.845 28.421C107.22 27.512 107.23 27.327 109 25.371C110.858 23.317 113.574 22.547 113.574 24.073ZM127.074 24.289C126.734 24.839 125.92 25.282 125.265 25.274C124.549 25.264 124.673 24.871 125.574 24.289C127.495 23.047 127.841 23.047 127.074 24.289ZM140.574 24.539C140.574 24.952 141.672 25.289 143.015 25.289C144.358 25.289 145.665 24.952 145.919 24.539C146.174 24.126 145.076 23.789 143.479 23.789C141.881 23.789 140.574 24.126 140.574 24.539ZM58.1155 26.169C63.3645 28.553 66.4985 32.387 72.1645 43.358C75.2875 49.406 78.3285 53.69 81.5135 56.534L86.2345 60.747L81.4625 65.595C78.0625 69.048 76.0485 70.349 74.4605 70.116C70.7025 69.565 71.2975 67.688 75.6445 66.386C77.9125 65.707 79.5625 64.944 79.3105 64.692C79.0585 64.439 77.6355 64.696 76.1485 65.261C72.5845 66.616 64.8715 66.578 64.0205 65.202C62.6145 62.926 65.6845 61.969 73.9995 62.091C78.6765 62.159 82.7435 61.824 83.0385 61.347C83.3335 60.87 81.7795 60.72 79.5845 61.015C75.8855 61.511 72.5745 60.249 72.5745 58.343C72.5745 57.957 74.2625 57.149 76.3245 56.547L80.0745 55.453L76.3315 55.981C74.2725 56.271 71.4595 56.226 70.0815 55.88C66.9395 55.091 66.7405 52.295 69.8245 52.274C71.0615 52.265 72.7265 51.846 73.5225 51.342C74.4775 50.738 73.6265 50.602 71.0225 50.943C66.3625 51.552 61.5745 49.966 61.5745 47.814C61.5745 46.834 62.5575 46.264 64.3245 46.219C65.8375 46.18 67.9745 45.766 69.0745 45.299C70.3805 44.744 69.3405 44.61 66.0745 44.915C60.5585 45.428 56.3005 43.818 55.7605 41.014C55.4925 39.626 56.1735 39.286 59.2515 39.274C61.3545 39.265 63.7405 38.837 64.5555 38.322C65.5275 37.707 64.1555 37.57 60.5555 37.923C56.6435 38.307 54.5265 38.048 53.1625 37.019C50.5465 35.048 51.7625 32.308 55.2935 32.219C56.8225 32.18 58.9745 31.773 60.0745 31.314C61.2945 30.805 59.8575 30.689 56.3925 31.017C53.2665 31.313 49.8915 31.236 48.8925 30.847C47.3685 30.254 47.6245 29.906 50.4755 28.699C55.2675 26.669 53.8855 26.071 48.6065 27.89C45.0405 29.119 43.3265 29.189 39.4765 28.266C36.8705 27.64 33.9135 26.504 32.9055 25.741C29.7835 23.374 52.8255 23.765 58.1155 26.169ZM143.574 31.327C143.574 32.271 144.27 33.622 145.121 34.328C146.313 35.318 146.383 35.789 145.423 36.382C144.605 36.888 145.188 37.376 147.126 37.808C151.999 38.892 152.238 39.127 148.574 39.225C145.93 39.297 145.441 39.557 146.574 40.289C147.782 41.07 147.627 41.261 145.776 41.274C141.442 41.303 135.808 31.956 138.011 28.392C138.971 26.838 143.574 29.266 143.574 31.327ZM45.3245 30.946C49.6635 32.282 50.5745 32.961 50.5745 34.859C50.5745 36.276 51.3395 37.397 52.5745 37.789C53.8445 38.192 54.5745 39.302 54.5745 40.831C54.5745 42.492 55.5015 43.717 57.5675 44.785C59.2135 45.636 60.5095 46.66 60.4485 47.061C60.0965 49.367 60.8875 50.502 63.4745 51.404C65.0695 51.96 66.6105 53.32 66.9005 54.426C67.1895 55.532 68.3595 56.682 69.5005 56.98C71.9505 57.621 72.2425 59.819 69.9925 60.682C67.3685 61.689 59.8365 61.365 57.1215 60.128C53.7325 58.584 53.8495 56.315 57.3245 56.189C58.8375 56.134 61.1995 55.695 62.5745 55.213C64.3895 54.577 63.7885 54.482 60.3785 54.866C54.0835 55.575 47.5745 53.801 47.5745 51.375C47.5745 49.525 51.0045 48.289 56.1405 48.289C57.4145 48.289 58.6665 47.951 58.9235 47.539C59.1805 47.126 55.7195 46.912 51.2325 47.062C42.6125 47.351 39.8895 46.515 40.8975 43.89C41.3465 42.719 42.8475 42.289 46.4845 42.289C49.2185 42.289 51.6665 41.952 51.9235 41.539C52.1805 41.126 49.1695 40.933 45.2325 41.109C32.8695 41.662 27.6605 37.492 38.9385 36.071C42.0735 35.676 45.4105 34.869 46.3565 34.278C47.6625 33.46 47.2355 33.392 44.5745 33.996C38.7935 35.306 28.3805 34.774 24.1705 32.952C22.0245 32.023 20.4785 31.052 20.7355 30.794C21.7525 29.777 32.3005 28.463 36.0745 28.883C38.2745 29.128 42.4365 30.056 45.3245 30.946ZM97.9945 31.16C98.2905 31.639 99.8925 32.303 101.553 32.635C105.125 33.349 105.474 34.992 102.324 36.258C100.322 37.063 100.289 37.169 102.024 37.226C103.392 37.27 103.659 37.604 102.919 38.344C101.436 39.827 97.0605 38.516 94.9245 35.949C93.9365 34.761 93.7685 34.352 94.5515 35.039C96.8165 37.028 98.0625 36.486 96.1315 34.352C95.1675 33.287 94.6745 31.937 95.0355 31.352C95.8315 30.065 97.2605 29.972 97.9945 31.16ZM95.5745 32.38C95.5745 33.552 99.4075 35.481 100.985 35.102C101.704 34.93 100.78 34.058 98.9335 33.165C97.0865 32.273 95.5745 31.919 95.5745 32.38ZM28.2075 35.322C31.4765 36.228 32.2395 36.852 31.8595 38.309C31.4805 39.757 32.2605 40.414 35.5175 41.39C38.1975 42.193 39.4815 43.089 39.1575 43.932C38.5725 45.457 42.2315 48.289 44.7855 48.289C46.0205 48.289 46.4795 48.965 46.3125 50.539C46.1305 52.255 46.9635 53.224 49.8245 54.621C51.8875 55.629 53.5745 57.066 53.5745 57.815C53.5745 58.563 54.4945 59.82 55.6195 60.608C57.5255 61.943 57.5435 62.087 55.8815 62.725C52.5935 63.986 41.8775 64.588 41.2345 63.547C40.8865 62.985 43.2815 61.57 46.6765 60.332C50.0115 59.116 52.5855 57.967 52.3965 57.778C52.2075 57.589 49.5825 58.287 46.5635 59.329C40.0995 61.56 27.1585 62.05 27.8175 60.039C28.0435 59.352 29.9935 58.223 32.1515 57.53C38.7535 55.412 44.7125 53.094 44.3855 52.771C44.2145 52.602 40.9245 53.538 37.0745 54.851C26.8685 58.33 18.3625 57.89 19.8705 53.96C20.2285 53.027 22.3355 52.175 25.2665 51.778C31.0405 50.996 36.3615 49.443 37.0435 48.34C37.3165 47.898 35.8595 48.136 33.8065 48.869C29.1585 50.528 18.5175 50.676 15.1215 49.128C10.2275 46.899 12.2205 45.291 21.9505 43.619C25.7325 42.969 29.3325 41.926 29.9505 41.3C30.7895 40.452 30.4395 40.401 28.5745 41.102C23.6675 42.944 15.9115 43.406 9.27649 42.251C5.58549 41.608 2.36349 40.756 2.11649 40.357C1.87049 39.959 4.91049 38.853 8.87149 37.9C12.8335 36.948 17.4245 35.559 19.0745 34.815C20.7245 34.07 22.5245 33.622 23.0745 33.818C23.6245 34.015 25.9345 34.691 28.2075 35.322ZM120.574 37.654C124.325 38.996 125.956 38.774 123.545 37.25C122.736 36.738 120.949 36.338 119.574 36.361C117.408 36.396 117.542 36.569 120.574 37.654ZM153.074 42.343C153.074 43.106 151.949 44.343 150.574 45.092C148.257 46.355 148.238 46.419 150.324 45.965C151.562 45.696 152.574 45.847 152.574 46.299C152.574 47.634 150.212 48.089 148.324 47.119C146.984 46.429 146.574 46.625 146.574 47.954C146.574 49.241 146.283 49.398 145.447 48.562C143.731 46.846 145.248 42.289 147.535 42.289C148.592 42.289 149.749 41.815 150.107 41.236C150.979 39.824 153.074 40.605 153.074 42.343ZM114.574 43.067C114.574 44.636 118.586 47.222 120.111 46.636C121.337 46.166 121.006 45.622 118.604 44.161C115.198 42.09 114.574 41.92 114.574 43.067ZM135.574 44.754C135.574 45.009 136.586 45.758 137.824 46.418C139.864 47.505 139.946 47.461 138.702 45.953C137.424 44.404 135.574 43.695 135.574 44.754ZM96.1285 48.376C96.4975 48.974 96.2995 49.964 95.6875 50.576C94.0155 52.248 94.3485 53.722 96.0745 52.289C96.9395 51.571 97.5745 51.474 97.5745 52.06C97.5745 53.768 94.5415 54.367 93.9315 52.778C93.6205 51.965 92.9625 51.549 92.4695 51.854C91.4415 52.489 91.2345 48.962 92.2415 47.956C93.2625 46.934 95.3785 47.163 96.1285 48.376ZM93.5745 50.348C93.5745 50.93 94.0245 51.129 94.5745 50.789C95.1245 50.449 95.5745 49.973 95.5745 49.73C95.5745 49.487 95.1245 49.289 94.5745 49.289C94.0245 49.289 93.5745 49.766 93.5745 50.348ZM121.574 50.789C121.574 51.614 121.751 52.289 121.967 52.289C122.183 52.289 122.619 51.614 122.936 50.789C123.252 49.964 123.075 49.289 122.543 49.289C122.01 49.289 121.574 49.964 121.574 50.789ZM146.431 50.179C147.883 51.099 147.15 55.289 145.538 55.289C145.042 55.289 144.932 54.501 145.293 53.539C145.86 52.025 145.727 51.969 144.309 53.122C143.408 53.854 141.961 54.304 141.095 54.122C139.663 53.819 139.664 53.584 141.104 51.539C142.786 49.15 144.226 48.782 146.431 50.179ZM131.326 50.87C130.413 51.783 131.638 54.368 132.679 53.724C133.171 53.42 133.574 53.648 133.574 54.23C133.574 55.846 136.283 55.491 136.936 53.789C137.314 52.804 136.904 52.289 135.743 52.289C134.77 52.289 133.516 51.832 132.957 51.272C132.398 50.713 131.664 50.532 131.326 50.87ZM128.305 54.209C127.87 55.872 128 56.263 128.742 55.521C129.324 54.939 129.602 53.874 129.362 53.152C129.112 52.403 128.659 52.857 128.305 54.209ZM101.552 61.071C101.589 64.874 104.117 69.727 107.58 72.641C110.795 75.346 110.834 75.478 109.628 79.505L108.397 83.61L106.617 79.634C104.816 75.611 98.6635 67.867 97.8865 68.644C97.6535 68.876 98.6605 70.354 100.123 71.928C103.381 75.433 107.574 83.495 107.574 86.256C107.574 90.177 109.154 88.238 110.195 83.039C110.773 80.151 111.57 77.061 111.966 76.171C112.492 74.991 111.757 74.004 109.254 72.528C105.016 70.027 101.892 62.884 103.156 58.582C103.908 56.025 104.029 56.211 104.583 60.789L105.19 65.789L105.632 61.367C105.875 58.934 106.597 56.773 107.236 56.563C108.043 56.298 108.237 57.38 107.872 60.105C107.582 62.264 107.765 64.289 108.279 64.607C108.805 64.932 109.031 63.95 108.797 62.355C108.569 60.799 108.875 59.221 109.478 58.848C110.18 58.415 110.574 59.25 110.574 61.171C110.574 62.821 111.042 64.46 111.614 64.814C112.289 65.231 112.426 64.548 112.006 62.873C111.6 61.258 111.773 60.289 112.466 60.289C113.075 60.289 113.574 60.758 113.574 61.332C113.574 61.906 115.359 64.739 117.541 67.629C124.327 76.617 125.353 88.872 120.073 97.882C115.936 104.941 110.152 105.048 99.6475 98.258C95.4955 95.574 92.4665 92.639 90.3725 89.27C88.6615 86.519 87.0565 84.474 86.8045 84.726C86.1195 85.41 90.0855 91.481 93.0145 94.233L95.5795 96.643L90.3465 99.505C87.4675 101.079 84.1345 102.612 82.9385 102.913C81.7425 103.213 79.7085 104.63 78.4195 106.061L76.0745 108.665L78.9595 106.477C83.3545 103.143 83.9135 103.824 81.0625 109.039C79.6345 111.651 79.0535 112.889 79.7705 111.789C80.4875 110.689 83.3345 107.461 86.0955 104.615C91.6455 98.897 95.6865 97.24 98.9755 99.332C107.114 104.511 114.168 105.871 117.458 102.894C119.27 101.254 119.448 101.304 121.343 103.982C122.435 105.526 125.842 111.811 128.914 117.949C134.428 128.964 140.216 136.016 152.387 146.547C154.14 148.063 155.574 150.201 155.574 151.297C155.574 153.797 153.97 153.911 153.328 151.456C153.064 150.447 152.122 149.622 151.234 149.622C150.03 149.622 149.752 150.28 150.14 152.206C150.624 154.612 150.557 154.583 149.158 151.789L147.656 148.789L148.183 151.789C148.686 154.648 148.637 154.698 147.142 152.848C146.28 151.78 145.574 150.543 145.574 150.098C145.574 149.653 145.034 149.289 144.374 149.289C143.441 149.289 143.441 149.556 144.374 150.489C146.756 152.871 145.785 154.28 142.824 152.736C141.312 151.947 139.245 151.299 138.232 151.295C137.218 151.292 135.245 150.389 133.847 149.289C132.448 148.189 130.715 147.289 129.996 147.289C128.127 147.289 125.574 143.283 125.574 140.351C125.574 138.604 123.815 136.202 119.694 132.324C113.449 126.445 112.151 124.503 110.076 117.924C109.359 115.65 108.727 114.632 108.673 115.661C108.587 117.289 108.357 117.355 106.91 116.161C105.414 114.927 105.358 114.999 106.356 116.871C106.966 118.016 108.164 119.534 109.019 120.244C111.674 122.447 110.815 125.594 106.803 128.362C101.124 132.281 97.1595 133.534 90.2315 133.599C78.3165 133.712 72.0275 127.691 68.9835 113.259C64.6985 92.942 75.1755 67.524 91.0335 59.765C93.9975 58.315 96.7095 56.38 97.0605 55.465C97.6095 54.033 97.9645 54.148 99.6145 56.296C100.667 57.667 101.54 59.816 101.552 61.071ZM118.683 55.732C120.523 57.571 126.574 61.032 126.574 60.244C126.574 59.206 120.722 55.299 119.157 55.293C118.653 55.291 118.44 55.488 118.683 55.732ZM142.574 56.289C142.574 56.839 141.647 57.289 140.515 57.289C139.383 57.289 138.734 57.739 139.074 58.289C139.414 58.839 138.987 59.289 138.125 59.289C136.807 59.289 136.757 58.97 137.806 57.289C139.09 55.234 142.574 54.503 142.574 56.289ZM121.307 60.413C121.986 61.097 122.793 61.404 123.1 61.096C123.408 60.788 122.853 60.229 121.867 59.853C120.442 59.311 120.327 59.425 121.307 60.413ZM138.504 61.539C138.465 62.227 138.047 63.689 137.574 64.789C136.854 66.465 136.704 66.263 136.645 63.539C136.607 61.752 137.024 60.289 137.574 60.289C138.124 60.289 138.542 60.852 138.504 61.539ZM62.5745 63.628C62.5745 66.474 48.6735 69.877 47.1465 67.405C46.7625 66.784 47.0385 66.09 47.7615 65.865C48.4835 65.64 51.0995 64.799 53.5745 63.998C59.4715 62.089 62.5745 61.961 62.5745 63.628ZM134.663 67.123C133.888 68.572 133.901 69.231 134.712 69.502C135.329 69.707 134.425 71.284 132.704 73.005C129.343 76.366 128.778 77.532 130.906 76.715C132.662 76.041 135.102 88.626 134.249 93.955C133.542 98.369 130.528 101.296 126.713 101.274C121.582 101.244 120.92 100.009 122.973 94.3C124.298 90.615 124.675 87.474 124.331 82.993C123.747 75.385 125.698 69.547 129.113 68.69C130.385 68.37 132.207 67.247 133.161 66.193C135.275 63.857 136.128 64.385 134.663 67.123ZM70.8095 68.691C72.4435 71.133 71.3105 72.202 65.8965 73.326C60.5375 74.438 53.1405 74.188 51.8015 72.849C50.7915 71.84 53.8345 69.444 58.0765 67.909C62.3535 66.36 69.5455 66.802 70.8095 68.691ZM124.559 71.039C124.539 71.996 122.61 75.015 122.589 74.121C122.581 73.753 122.301 72.741 121.967 71.871C121.569 70.833 121.912 70.289 122.967 70.289C123.851 70.289 124.567 70.627 124.559 71.039ZM74.8815 74.426C72.6835 78.241 66.5525 81.237 60.8835 81.267C52.6215 81.31 55.1145 75.964 63.8815 74.839C66.7375 74.472 70.1995 73.539 71.5745 72.766C75.8495 70.362 76.9135 70.896 74.8815 74.426ZM70.5805 82.277C69.3105 84.651 64.8705 85.985 63.3385 84.453C62.5525 83.667 62.9205 83.114 64.6615 82.47C65.9885 81.978 67.7495 81.322 68.5745 81.012C71.2585 80.001 71.6625 80.256 70.5805 82.277ZM139.417 106.039C141.543 110.302 144.23 116.949 145.388 120.812C146.668 125.082 148.805 129.394 150.839 131.812C157.766 140.047 159.009 142.363 157.66 144.523C156.982 145.609 156.797 146.269 157.25 145.99C157.703 145.71 158.139 146.563 158.218 147.885C158.298 149.207 158.231 150.289 158.071 150.289C157.911 150.289 152.896 145.609 146.927 139.889C136.492 129.89 135.794 128.951 128.812 115.511L121.549 101.532L125.945 102.027C129.488 102.427 130.702 102.128 132.207 100.489C133.234 99.371 134.406 98.418 134.813 98.372C135.219 98.326 137.291 101.776 139.417 106.039ZM126.574 136.539C126.574 137.437 127.054 138.468 127.641 138.83C129.356 139.89 129.524 138.941 127.992 136.846C126.806 135.224 126.574 135.174 126.574 136.539Z" stroke="black" stroke-width="2" mask="url(#path-1-inside-1_1421_838)"/>
</svg>
