<svg width="196" height="153" viewBox="0 0 196 153" fill="none" xmlns="http://www.w3.org/2000/svg">
<mask id="path-1-inside-1_1421_832" fill="white">
<path fill-rule="evenodd" clip-rule="evenodd" d="M80.3358 1.17585C78.8238 1.98685 77.5858 3.08585 77.5858 3.61785C77.5858 4.14985 76.8628 4.58585 75.9798 4.58585C75.0968 4.58585 72.6688 5.93585 70.5858 7.58585C68.5028 9.23585 66.4128 10.5919 65.9418 10.5979C64.4678 10.6199 60.5858 17.4399 60.5858 20.0069C60.5858 23.7719 62.4098 27.8129 63.7388 26.9919C64.3748 26.5989 64.6388 26.6909 64.3268 27.1959C62.6458 29.9159 62.4828 41.7209 64.0518 47.1169C64.9608 50.2429 65.5648 52.8879 65.3948 52.9949C64.0478 53.8389 53.0288 55.4079 52.5248 54.8269C50.3568 52.3269 32.7278 24.6069 32.1518 22.7929C31.1488 19.6339 29.9088 20.0689 29.1798 23.8359C28.8338 25.6239 26.0738 30.8749 23.0468 35.5059C16.2428 45.9149 14.1708 52.5369 14.8308 61.7609L15.3188 68.5859H11.5458C8.26578 68.5859 7.84078 68.3249 8.29578 66.5859C8.91778 64.2099 8.54977 64.1559 4.17577 65.9839C-0.211234 67.8169 -0.997223 69.2849 1.14278 71.6489C2.36378 72.9989 4.13777 73.5619 6.99077 73.5069C9.24277 73.4639 10.5238 73.2009 9.83577 72.9239C7.37377 71.9299 8.52277 69.5859 11.4718 69.5859C14.1248 69.5859 14.4128 69.9489 15.0298 74.0629C15.3988 76.5249 16.1238 78.7999 16.6398 79.1189C17.1548 79.4379 19.0808 82.9359 20.9188 86.8919C22.7568 90.8489 25.5818 95.4359 27.1958 97.0859C31.7438 101.734 46.5858 113.675 46.5858 112.687C46.5858 112.201 42.3038 108.36 37.0708 104.151C27.6978 96.6119 24.2328 92.4619 21.1498 85.0859C19.3058 80.6709 19.2948 80.5859 20.5758 80.5859C21.1208 80.5859 22.8558 83.4299 24.4318 86.9059C26.5478 91.5739 28.7028 94.3849 32.6738 97.6559C35.6308 100.093 40.1958 104.222 42.8178 106.833C45.4408 109.443 47.5838 111.243 47.5808 110.833C47.5728 109.526 41.5328 103.578 35.0008 98.4449C30.3088 94.7579 28.0078 92.0559 26.0718 87.9649C22.0968 79.5619 22.5098 79.0219 32.6078 79.4219C37.3368 79.6089 42.3688 79.2629 43.9868 78.6389C45.7188 77.9709 49.1668 77.7789 52.5478 78.1609L58.2068 78.8019L55.8288 87.9439C50.0878 110.014 49.3278 112.545 48.5828 112.084C47.2628 111.268 46.7298 114.07 47.5208 117.675L48.2698 121.086L49.3918 117.086C50.0088 114.886 52.5388 105.247 55.0148 95.6659C57.4908 86.0859 60.0948 77.8739 60.8008 77.4179C63.8368 75.4579 65.0788 77.0359 65.7388 83.6949C66.0968 87.3159 67.3748 92.2609 68.5788 94.6829C69.7818 97.1039 71.8458 102.188 73.1658 105.98C76.2328 114.794 79.6038 120.517 84.0058 124.382C85.9298 126.071 88.1318 128.945 88.9008 130.769C92.5728 139.481 103.145 149.175 111.805 151.77C117.518 153.482 127.518 149.985 134.999 143.659C139.965 139.461 141.271 138.823 143.995 139.265C145.812 139.56 148.825 139.095 151.006 138.184C153.109 137.305 156.327 136.586 158.157 136.586C159.986 136.586 165.068 135.454 169.449 134.069L177.415 131.553L180.797 133.548C182.656 134.645 185.183 136.903 186.412 138.564C187.641 140.226 189.077 141.586 189.603 141.586C190.13 141.586 191.751 139.701 193.206 137.396C195.612 133.585 195.739 132.899 194.618 129.798C192.823 124.834 187.825 117.797 185.591 117.088C184.53 116.751 182.757 116.959 181.652 117.551C180.108 118.377 178.187 118.136 173.364 116.51C165.212 113.761 157.59 112.978 154.594 114.582C152.594 115.652 152.054 115.549 150.68 113.838C148.752 111.435 132.991 101.063 128.386 99.1659C126.571 98.4189 122.497 97.2348 119.333 96.5368C112.162 94.9528 108.282 90.7049 108.776 84.9789L109.086 81.3949L117.01 81.0179C121.368 80.8099 125.193 80.2479 125.51 79.7669C125.827 79.2869 127.324 78.5909 128.836 78.2209C130.348 77.8509 131.586 77.0949 131.586 76.5419C131.586 75.9889 132.711 75.1089 134.086 74.5859C135.596 74.0119 136.586 72.8479 136.586 71.6459C136.586 70.5519 137.486 69.1749 138.586 68.5859C139.686 67.9969 140.586 67.0599 140.586 66.5029C140.586 65.0629 145.615 60.5859 147.232 60.5859C147.977 60.5859 148.586 59.7219 148.586 58.6649C148.586 57.3079 149.539 56.5409 151.836 56.0499C156.063 55.1459 157.761 53.7119 157.093 51.6079C156.683 50.3149 157.5 49.6289 160.528 48.7209C165.354 47.2759 166.499 45.7269 164.062 43.9449C162.041 42.4669 162.076 42.3829 165.422 40.6399C166.706 39.9709 167.576 39.2419 167.353 39.0199C167.131 38.7979 165.205 39.5059 163.073 40.5919C160.941 41.6789 157.035 42.8559 154.392 43.2059C151.748 43.5569 149.586 44.1779 149.586 44.5859C149.586 44.9939 151.723 44.9219 154.336 44.4259C159.358 43.4729 163.586 43.9939 163.586 45.5659C163.586 46.6049 154.431 49.5769 151.154 49.6009C150.017 49.6099 148.411 50.0569 147.586 50.5949C146.558 51.2649 147.582 51.3739 150.836 50.9429C154.855 50.4109 155.586 50.5709 155.586 51.9809C155.586 53.9769 154.237 54.5629 147.327 55.5719C144.445 55.9919 143.072 56.3929 144.277 56.4609C147.011 56.6169 148.302 58.5189 146.464 59.6819C145.706 60.1629 143.598 60.5619 141.779 60.5709C138.612 60.5849 138.535 60.4969 139.954 58.4709C140.769 57.3079 141.221 55.7999 140.96 55.1189C140.699 54.4389 141.668 53.1069 143.114 52.1589C144.821 51.0409 145.531 49.8839 145.138 48.8609C144.783 47.9349 145.397 46.4789 146.624 45.3359C148.642 43.4559 148.652 43.3169 146.922 41.4049C145.228 39.5329 145.224 39.3679 146.857 38.4539C148.981 37.2659 149.14 32.7359 147.086 31.9479C143.013 30.3849 147.275 27.0079 157.451 23.7349C168.099 20.3109 167.996 21.1599 156.862 28.6069C149.557 33.4929 148.265 35.4119 154.779 31.7019C157.824 29.9679 169.586 27.8919 169.586 29.0899C169.586 30.4189 158.32 36.6069 153.18 38.1019C150.022 39.0199 147.656 39.9889 147.922 40.2549C148.189 40.5219 151.145 39.9709 154.492 39.0319C158.169 38.0009 162.36 37.5259 165.082 37.8329C168.503 38.2179 169.586 38.0059 169.586 36.9509C169.586 35.8849 168.6 35.7089 165.336 36.1949L161.086 36.8279L166.022 33.2499C172.049 28.8809 174.048 26.0149 170.464 26.8769C169.156 27.1919 166.286 27.7349 164.086 28.0849L160.086 28.7209L165.586 23.6849C168.611 20.9159 170.608 18.6349 170.024 18.6179C169.439 18.5999 164.967 19.9359 160.086 21.5859C155.205 23.2359 150.845 24.5859 150.398 24.5859C149.952 24.5859 149.586 23.4609 149.586 22.0859C149.586 20.7109 149.342 19.5859 149.043 19.5859C148.744 19.5859 146.116 21.3859 143.202 23.5859C137.273 28.0629 136.586 28.3039 136.586 25.9119C136.586 24.4469 136.305 24.4889 134.336 26.2509C133.098 27.3589 129.331 30.1629 125.964 32.4809C122.596 34.7999 119.011 38.2389 117.996 40.1239C116.776 42.3879 115.814 43.2139 115.159 42.5589C114.504 41.9039 114.934 41.0299 116.429 39.9829C117.673 39.1119 118.518 37.8829 118.308 37.2529C118.098 36.6219 118.975 35.2819 120.256 34.2739C121.538 33.2659 122.586 31.6289 122.586 30.6359C122.586 29.6429 123.271 28.2619 124.109 27.5669C124.946 26.8719 125.386 25.5309 125.086 24.5859C124.786 23.6409 125.226 22.2999 126.063 21.6049C127.993 20.0029 128.023 17.6909 126.124 16.9619C124.863 16.4779 124.886 16.0569 126.295 13.9079C127.954 11.3749 127.53 10.4829 124.086 9.26486C123.442 9.03686 123.476 8.40785 124.181 7.49885C124.783 6.72185 125.556 5.29885 125.899 4.33585C126.991 1.27485 123.942 2.35885 118.117 7.10385L112.57 11.6219L107.908 6.96085C102.796 1.84785 99.6728 0.675855 89.5858 0.0838548C85.1358 -0.177145 82.2188 0.166855 80.3358 1.17585ZM90.8358 1.65085C91.7988 1.64085 93.1488 1.61485 93.8358 1.59285C98.5978 1.43885 102.517 3.29485 107.321 7.97985C111.537 12.0909 112.56 13.7309 112.571 16.3949C112.581 18.5659 112.969 19.4679 113.698 19.0169C114.871 18.2919 116.545 20.2249 116.571 22.3359C116.579 23.0239 115.841 23.5859 114.931 23.5859C113.391 23.5859 113.391 23.7129 114.931 25.4149C116.995 27.6959 117.213 33.0409 115.211 32.2719C114.279 31.9149 113.836 32.5199 113.836 34.1499C113.836 36.8119 111.092 41.5859 109.563 41.5859C109.026 41.5859 108.519 40.3489 108.436 38.8359L108.286 36.0859L107.87 38.8359C107.464 41.5149 104.47 44.1369 103.231 42.8979C102.892 42.5579 103.989 39.8769 105.67 36.9389C107.485 33.7669 108.55 30.6809 108.292 29.3409C107.929 27.4529 107.836 27.5459 107.722 29.9129C107.643 31.5599 106.385 33.9409 104.708 35.6179C103.125 37.2009 102.064 38.7309 102.35 39.0169C102.994 39.6599 100.656 42.5859 99.4988 42.5859C97.3878 42.5859 96.6538 38.7579 98.1778 35.7009C99.0288 33.9959 99.4388 31.6969 99.0878 30.5929C98.6348 29.1659 98.9038 28.5859 100.019 28.5859C100.881 28.5859 101.584 28.2489 101.582 27.8359C101.575 26.4369 97.4818 20.3569 96.9228 20.9159C96.6178 21.2209 97.3838 22.8989 98.6268 24.6429C100.806 27.7039 100.814 27.7929 98.8548 27.1719C96.9758 26.5749 96.8628 26.8599 97.3288 30.9999C97.7898 35.0899 97.5468 35.7339 94.4868 38.5289C90.7298 41.9599 88.4878 42.3449 86.1098 39.9669C84.6178 38.4749 84.6318 38.1889 86.2888 36.3219C88.0468 34.3389 88.0368 34.3209 85.8358 35.4759C84.2068 36.3299 83.0338 36.3609 81.5858 35.5859C79.1198 34.2659 78.9598 31.6269 81.3358 31.4699C83.0028 31.3599 83.0028 31.3319 81.3358 30.8969C80.3728 30.6449 79.5498 29.6849 79.5068 28.7629C79.4578 27.7229 79.2368 27.5609 78.9238 28.3359C77.9698 30.6989 75.5888 29.6589 75.4858 26.8359L75.3868 24.0859L74.6978 26.5569L74.0088 29.0289L72.2978 26.5849C70.1878 23.5729 70.1238 19.9959 72.1098 16.1869C73.8088 12.9299 73.5278 11.7459 71.6058 14.0619C69.7878 16.2519 69.1428 23.8899 70.5528 26.5239C71.2098 27.7509 73.2858 29.3979 75.1658 30.1839C78.9078 31.7479 79.8028 34.5859 76.5538 34.5859C75.3808 34.5859 74.1388 33.6349 73.6168 32.3359C73.1198 31.0979 72.6838 30.6489 72.6488 31.3359C72.5618 33.0659 71.0408 32.8979 69.0848 30.9419C68.0108 29.8679 67.6528 28.4529 68.0538 26.8579C68.5098 25.0399 68.3418 24.6189 67.3938 25.2049C64.4558 27.0199 62.6168 26.2689 62.0048 23.0049C61.3358 19.4389 62.1918 15.5859 63.6528 15.5859C64.1658 15.5859 64.5858 14.8999 64.5858 14.0609C64.5858 13.2229 65.7108 12.1089 67.0858 11.5859C68.4608 11.0629 69.5858 10.1739 69.5858 9.61085C69.5858 9.04685 70.2748 8.58585 71.1168 8.58585C71.9598 8.58585 72.9078 7.91085 73.2238 7.08585C73.5408 6.26085 74.6308 5.58585 75.6478 5.58585C76.6638 5.58585 78.6668 4.41386 80.0998 2.98086C82.2248 0.855855 83.2918 0.494855 85.8948 1.02185C87.6498 1.37685 89.8728 1.65985 90.8358 1.65085ZM84.5858 4.94385C84.5858 5.72885 83.9728 6.60685 83.2248 6.89385C81.6608 7.49385 80.3138 11.5859 81.6798 11.5859C82.1778 11.5859 82.5858 10.9809 82.5858 10.2409C82.5858 8.35586 86.2388 5.25285 87.5228 6.04685C88.1078 6.40785 88.5858 6.46785 88.5858 6.17985C88.5858 5.89185 87.6858 5.17485 86.5858 4.58585C85.0198 3.74785 84.5858 3.82585 84.5858 4.94385ZM123.233 7.24285C119.108 15.0549 113.586 18.7289 113.586 13.6619C113.586 12.0499 123.535 3.20085 124.388 4.05485C124.578 4.24485 124.058 5.67885 123.233 7.24285ZM103.079 10.6079C101.476 15.6589 105.966 23.0969 109.335 20.9729C110.233 20.4059 111.179 19.3079 111.437 18.5319C111.769 17.5379 111.408 17.6209 110.218 18.8109C109.288 19.7409 107.898 20.2589 107.127 19.9629C105.213 19.2289 103.475 13.8769 104.205 10.9669C104.931 8.07486 103.979 7.77085 103.079 10.6079ZM124.63 14.5239C122.824 17.0609 118.457 20.5859 117.121 20.5859C114.82 20.5859 119.997 12.7789 123.086 11.5899C126.223 10.3829 126.799 11.4779 124.63 14.5239ZM105.736 13.6359C105.591 16.0939 107.127 18.5859 108.786 18.5859C109.226 18.5859 109.586 18.1359 109.586 17.5859C109.586 17.0359 108.941 16.5859 108.152 16.5859C107.356 16.5859 106.534 15.3629 106.302 13.8359C105.891 11.1219 105.884 11.1199 105.736 13.6359ZM126.398 19.3229C126.214 20.2779 124.156 22.1109 121.825 23.3979C117.96 25.5299 117.586 25.5779 117.586 23.9479C117.586 22.9649 118.824 21.1479 120.336 19.9099C123.696 17.1579 126.874 16.8509 126.398 19.3229ZM147.076 25.9649C146.152 27.9129 143.424 31.3239 141.013 33.5459C135.962 38.2019 136.288 38.7579 141.82 34.9239C144.789 32.8659 145.932 32.5319 146.851 33.4509C148.766 35.3659 146.506 37.7879 140.492 40.2659C135.175 42.4559 134.885 43.5629 140.153 41.5609C143.331 40.3519 146.586 41.1409 146.586 43.1179C146.586 44.9129 144.128 46.1809 139.007 47.0289C133.518 47.9369 131.64 45.9599 134.233 42.0009C135.969 39.3519 135.96 39.2459 133.864 37.8539C131.755 36.4549 131.749 36.3669 133.514 33.4639C135.236 30.6329 147.502 21.1679 148.35 22.0169C148.574 22.2399 148.001 24.0169 147.076 25.9649ZM93.0468 25.2899C93.0738 27.1889 92.3418 28.3749 90.5858 29.2749C88.3448 30.4239 88.2988 30.5579 90.1358 30.5709C91.2638 30.5789 92.7258 30.0459 93.3858 29.3859C94.7148 28.0569 95.0448 22.5859 93.7968 22.5859C93.3618 22.5859 93.0248 23.8029 93.0468 25.2899ZM28.8608 31.4099C27.2438 34.5319 23.9938 40.6859 21.6378 45.0859C17.4198 52.9669 17.3638 53.2019 17.8758 60.8359C18.3958 68.5779 17.3918 71.3669 16.2108 65.4609C14.2998 55.9079 16.3678 47.8429 23.6318 36.5149C26.8828 31.4439 29.8488 26.3479 30.2218 25.1899C30.6578 23.8349 31.0598 23.5569 31.3508 24.4099C31.5988 25.1379 30.4788 28.2879 28.8608 31.4099ZM124.586 25.5599C124.586 26.4289 119.528 29.5859 118.136 29.5859C116.54 29.5859 117.908 26.3919 119.836 25.6169C122.861 24.4009 124.586 24.3809 124.586 25.5599ZM42.4558 41.6549C47.4768 49.3939 51.5858 56.0989 51.5858 56.5569C51.5858 58.2549 44.1188 61.7119 37.3948 63.1259C33.5768 63.9289 29.5768 65.0549 28.5058 65.6289C27.4348 66.2019 24.9848 66.3759 23.0628 66.0159C18.9068 65.2359 18.0258 62.9579 18.9308 55.3239C19.3368 51.8959 20.9078 47.9159 23.7338 43.1569C26.0428 39.2679 28.8668 34.1939 30.0098 31.8819C31.1518 29.5689 32.3648 27.6569 32.7058 27.6319C33.0458 27.6069 37.4338 33.9169 42.4558 41.6549ZM72.1748 34.1949C74.1088 35.1129 76.6808 35.9689 77.8888 36.0969C79.0968 36.2259 80.3568 36.3879 80.6878 36.4579C81.0188 36.5289 82.7018 37.9359 84.4288 39.5859C87.9668 42.9669 91.2108 43.4279 93.2258 40.8359C94.5138 39.1789 94.6658 39.1889 96.0858 41.0269C98.4058 44.0289 97.9548 45.3009 92.7558 50.4179C85.5488 57.5119 72.9468 60.9739 69.3928 56.8359C66.9958 54.0449 66.4258 51.5859 68.1758 51.5859C69.0168 51.5859 69.4448 52.0049 69.1288 52.5169C68.8118 53.0289 69.0108 53.7299 69.5698 54.0759C70.1288 54.4209 70.5858 54.2699 70.5858 53.7389C70.5858 53.2079 71.5978 52.9839 72.8358 53.2419C74.9688 53.6869 74.9558 53.6319 72.5858 52.1839C71.2108 51.3439 69.1278 50.6409 67.9578 50.6209C66.3208 50.5939 65.5948 49.6609 64.8138 46.5859C63.8958 42.9699 63.9798 42.5859 65.6918 42.5859C68.1228 42.5859 68.1118 41.3959 65.6678 39.8699C62.9818 38.1919 63.9578 34.1799 66.6958 35.6449C67.8838 36.2809 68.5858 36.2969 68.5858 35.6889C68.5858 35.1559 67.6858 34.4349 66.5858 34.0859C65.4858 33.7369 64.5858 32.6569 64.5858 31.6849C64.5858 28.9129 65.7788 28.4159 67.2818 30.5619C68.0378 31.6419 70.2398 33.2769 72.1748 34.1949ZM134.586 29.2479C134.586 30.8529 128.068 39.8569 125.22 42.1849C123.496 43.5949 122.991 44.3029 124.097 43.7599C125.203 43.2159 126.961 41.8299 128.002 40.6789C130.218 38.2309 133.586 37.9019 133.586 40.1339C133.586 42.0219 128.962 46.4709 125.697 47.7249C124.384 48.2289 123.577 48.9099 123.905 49.2379C124.232 49.5659 126.161 48.8539 128.19 47.6569C130.676 46.1899 132.21 45.8099 132.891 46.4909C134.239 47.8389 132.236 50.1859 127.657 52.6219L124.086 54.5229L127.437 53.9089C130.334 53.3789 130.74 53.5489 130.429 55.1609C130.204 56.3329 128.586 57.4739 126.078 58.2289C123.882 58.8909 122.874 59.4669 123.836 59.5089C126.071 59.6069 126.157 63.1529 123.945 64.0019C123.043 64.3479 121.528 64.3849 120.579 64.0839C119.2 63.6459 118.946 64.0189 119.314 65.9439C119.962 69.3349 117.667 70.4049 115.496 67.7239C113.741 65.5549 113.729 65.5549 113.408 67.6039C112.858 71.1249 111.102 70.2779 110.776 66.3339C110.501 63.0159 110.79 62.4589 113.274 61.5149C119.553 59.1269 121.056 55.3289 118.034 49.4859C115.375 44.3429 118.42 38.8679 127.411 32.6259C133.06 28.7049 134.586 27.9869 134.586 29.2479ZM121.586 31.5509C121.586 32.4079 118.472 34.5859 117.245 34.5859C116.986 34.5859 117.009 33.6859 117.296 32.5859C117.815 30.6019 121.586 29.6919 121.586 31.5509ZM116.357 37.7739C116.139 38.4269 115.426 39.1389 114.773 39.3569C114.042 39.6009 113.819 39.1429 114.192 38.1699C114.89 36.3519 116.957 35.9739 116.357 37.7739ZM77.5858 40.2949C78.4108 40.5989 79.8728 41.5329 80.8358 42.3709C81.7988 43.2099 82.5858 43.4659 82.5858 42.9409C82.5858 41.2889 80.2688 39.5829 78.1358 39.6649C76.6938 39.7199 76.5308 39.9079 77.5858 40.2949ZM114.297 43.8359C117.557 50.8249 118.722 54.5809 118.172 56.3159C117.521 58.3669 114.45 60.3089 111.086 60.7959C108.952 61.1049 108.784 59.9789 109.855 52.5859C110.134 50.6609 110.413 48.5239 110.474 47.8359C110.536 47.1489 111.234 46.5859 112.027 46.5859C112.82 46.5859 113.677 46.2489 113.932 45.8359C114.186 45.4229 112.413 45.2439 109.991 45.4369C105.026 45.8319 104.084 44.3009 108.336 42.7479C112.445 41.2469 113.15 41.3759 114.297 43.8359ZM93.8588 44.5639C93.9428 45.6759 94.3658 46.5859 94.7988 46.5859C95.9048 46.5859 95.7828 43.8259 94.6468 43.1229C94.1298 42.8039 93.7758 43.4519 93.8588 44.5639ZM103.284 45.1639C103.646 46.2659 98.7018 49.0349 97.8648 48.1989C97.6108 47.9449 97.7078 46.7769 98.0808 45.6029C98.7888 43.3719 102.589 43.0509 103.284 45.1639ZM74.5858 45.4789C74.5858 46.4729 75.3168 46.7559 77.2238 46.5009C77.5748 46.4539 78.1878 46.9409 78.5848 47.5839C79.0948 48.4099 79.4858 48.2879 79.9148 47.1699C80.2898 46.1939 79.9908 45.5859 79.1358 45.5859C78.3738 45.5859 77.0378 45.3129 76.1678 44.9789C75.2978 44.6449 74.5858 44.8699 74.5858 45.4789ZM109.055 47.5359C109.91 48.9189 106.239 50.5889 102.402 50.5639L99.0858 50.5419L101.586 48.5859C104.248 46.5039 108.084 45.9649 109.055 47.5359ZM67.5858 48.6079C67.5858 49.6799 71.4908 50.5489 72.0728 49.6059C72.3418 49.1709 71.4428 48.6009 70.0738 48.3389C68.7058 48.0769 67.5858 48.1979 67.5858 48.6079ZM144.18 48.7379C145.326 50.5919 141.57 52.5749 136.645 52.7179C132.254 52.8439 132.214 52.8719 135.575 53.4679C137.787 53.8599 139.186 54.7269 139.399 55.8389C139.803 57.9519 137.455 59.0209 134.2 58.2039C132.352 57.7399 131.855 56.9879 131.982 54.8459C132.233 50.5749 133.773 48.7829 137.586 48.3259C139.511 48.0949 141.622 47.8339 142.277 47.7459C142.932 47.6579 143.788 48.1039 144.18 48.7379ZM100.847 51.5859C108.181 56.4609 111.541 68.4879 108.669 79.5859C107.082 85.7179 106.714 93.7249 108.07 92.5989C108.9 91.9109 109.947 92.3419 111.525 94.0209C113.074 95.6699 116.119 96.9489 121.172 98.0729C126.163 99.1829 130.1 100.825 133.321 103.141C135.942 105.024 140.211 107.696 142.808 109.078C145.405 110.461 148.51 112.917 149.708 114.537C151.832 117.41 151.959 117.444 154.895 115.926C158.798 113.908 165.159 114.721 175.782 118.598C180.442 120.299 183.305 120.953 182.653 120.167C181.258 118.485 183.176 117.538 185.964 118.532C188.213 119.334 195.152 131.897 193.627 132.406C193.048 132.599 192.828 133.168 193.139 133.671C193.45 134.174 193.201 134.586 192.586 134.586C191.971 134.586 191.753 135.047 192.101 135.611C192.45 136.174 192.139 136.512 191.41 136.361C190.55 136.182 190.179 136.927 190.351 138.487C190.591 140.658 190.154 140.455 185.775 136.359C183.112 133.869 180.043 131.548 178.955 131.203C177.866 130.858 173.209 131.702 168.605 133.08C164.001 134.458 159.019 135.586 157.536 135.586C156.052 135.586 152.888 136.274 150.505 137.115C146.588 138.497 145.498 138.487 139.129 137.011C121.193 132.856 119.239 132.204 114.982 128.955C112.568 127.112 110.703 126.162 110.839 126.845C111.233 128.826 99.0498 130.076 93.5858 128.615C87.5468 127.001 78.7378 118.086 76.2638 111.086C75.2918 108.336 73.5568 103.836 72.4088 101.086C68.3838 91.4479 66.4798 85.3139 66.7818 82.9559C67.0558 80.8139 67.5068 81.1209 71.2918 86.0299C75.9778 92.1089 80.8278 94.2189 87.9218 93.2679C92.3938 92.6679 100.734 88.6409 101.354 86.7819C101.586 86.0869 100.104 86.6519 98.0618 88.0379C88.9328 94.2329 79.7168 93.8279 73.4758 86.9589C69.1548 82.2039 65.7058 76.4369 66.2828 74.9339C66.7388 73.7449 66.3888 73.7189 64.0878 74.7669C61.6238 75.8899 61.1578 75.7759 59.4188 73.6279C57.3318 71.0499 57.2738 65.9239 59.3358 66.3359C60.0238 66.4729 60.5858 66.1689 60.5858 65.6589C60.5858 65.1499 59.7988 64.5669 58.8358 64.3659C57.3228 64.0479 57.3908 63.8299 59.3358 62.7569C61.0668 61.8019 62.1048 61.7839 63.8358 62.6789C67.2418 64.4409 69.7218 66.8419 70.6558 69.2819C71.2438 70.8209 72.6318 71.6578 75.2908 72.0788C77.3778 72.4088 80.4608 73.3569 82.1408 74.1849C85.1208 75.6539 85.2868 75.6039 88.9618 72.1379C91.0328 70.1849 92.2018 68.5859 91.5578 68.5859C90.9148 68.5859 89.1748 69.8849 87.6928 71.4719C85.2628 74.0719 84.7548 74.2339 82.5418 73.1029C81.1908 72.4139 78.3778 71.5409 76.2898 71.1639C73.6378 70.6849 72.1628 69.7519 71.3968 68.0699C69.6678 64.2759 63.0008 60.3359 59.5808 61.0869C57.2958 61.5889 56.4908 61.2769 55.5518 59.5229C54.1028 56.8149 55.2478 55.9219 61.3618 54.9979C65.1268 54.4279 65.9288 54.6639 68.0648 56.9679C69.9038 58.9529 71.4598 59.5859 74.5008 59.5859C80.3278 59.5859 88.6748 56.1209 92.5968 52.0749C94.4708 50.1409 96.2478 48.6769 96.5448 48.8219C96.8428 48.9669 98.7778 50.2109 100.847 51.5859ZM108.09 53.2069C106.289 54.5239 104.586 54.2289 104.586 52.5999C104.586 51.5709 107.699 50.7329 108.987 51.4149C109.483 51.6769 109.08 52.4829 108.09 53.2069ZM108.586 55.5859C108.586 56.1359 108.109 56.5859 107.527 56.5859C106.945 56.5859 106.746 56.1359 107.086 55.5859C107.426 55.0359 107.902 54.5859 108.145 54.5859C108.388 54.5859 108.586 55.0359 108.586 55.5859ZM56.1938 64.4099C55.8928 64.8979 50.5698 65.6129 44.3658 65.9989C38.1618 66.3839 31.9608 66.9569 30.5858 67.2719C28.7838 67.6849 28.3738 67.5339 29.1168 66.7339C29.6838 66.1239 33.3368 65.0219 37.2348 64.2839C41.1338 63.5469 46.2948 61.7779 48.7048 60.3539L53.0858 57.7629L54.9138 60.6429C55.9198 62.2269 56.4958 63.9229 56.1938 64.4099ZM133.065 58.7579C137.331 60.7019 134.123 64.4399 129.241 63.2139C126.209 62.4529 125.754 60.1699 128.336 58.6659C130.521 57.3929 130.049 57.3839 133.065 58.7579ZM140.586 61.8069L143.086 62.2289L140.252 63.4149C136.807 64.8559 135.595 64.2659 136.319 61.4999C136.618 60.3549 137.139 59.8599 137.475 60.4009C137.811 60.9419 139.211 61.5739 140.586 61.8069ZM129.481 64.9589C130.92 66.6929 129.874 69.5859 127.808 69.5859C126.947 69.5859 125.355 68.7989 124.269 67.8359C122.353 66.1379 122.33 66.1529 123.476 68.3359C124.679 70.6289 123.538 74.5859 121.673 74.5859C119.435 74.5859 118.585 71.8159 119.992 69.1049C122.291 64.6729 127.393 62.4439 129.481 64.9589ZM137.586 65.4969L140.086 66.2089L137.902 67.3969C134.464 69.2679 131.586 68.8989 131.586 66.5859C131.586 64.4789 133.065 64.2099 137.586 65.4969ZM7.19177 69.5879C7.31077 72.9319 5.32777 73.5809 2.13277 71.2439C0.379767 69.9619 0.403773 69.8269 2.66377 68.2439C6.04677 65.8739 7.07077 66.1789 7.19177 69.5879ZM22.3148 67.1898C21.9828 67.5218 21.1198 67.5579 20.3988 67.2689C19.6008 66.9499 19.8378 66.7129 21.0028 66.6649C22.0568 66.6219 22.6468 66.8578 22.3148 67.1898ZM57.2478 71.3359C57.8618 73.9479 58.1858 76.2769 57.9678 76.5099C57.5048 77.0049 46.1908 77.6159 32.3498 77.8919C25.4038 78.0299 22.4768 77.7329 22.1368 76.8529C21.8738 76.1709 20.8628 75.8829 19.8738 76.2079C18.8908 76.5319 19.4358 75.8519 21.0858 74.6979L24.0858 72.5989L21.2768 72.5929C19.4878 72.5879 18.7148 72.9849 19.1478 73.6859C19.6248 74.4589 19.1968 74.4479 17.7068 73.6509C16.5398 73.0259 15.6218 71.9688 15.6648 71.3008C15.7238 70.3848 15.8678 70.3939 16.2478 71.3359C16.5258 72.0239 17.1648 72.5859 17.6688 72.5859C18.1728 72.5859 18.4728 72.0239 18.3358 71.3359C18.1738 70.5259 19.3188 70.0859 21.5858 70.0859C23.5108 70.0859 25.3278 69.7629 25.6248 69.3689C26.2118 68.5869 41.7628 66.9399 50.6088 66.7219L56.1308 66.5859L57.2478 71.3359ZM116.004 70.1929C117.819 70.8899 118.127 74.1339 116.474 75.1549C115.863 75.5329 114.987 75.2349 114.529 74.4929C114.07 73.7509 113.419 73.4189 113.083 73.7559C112.746 74.0919 113.847 75.3479 115.528 76.5449C118.92 78.9599 119.472 80.5859 116.9 80.5859C114.768 80.5859 110.586 76.7179 110.586 74.7459C110.586 73.9249 111.374 72.4549 112.336 71.4789C114.452 69.3339 114.093 69.4599 116.004 70.1929ZM135.586 71.0269C135.586 73.1719 133.913 73.8169 130.368 73.0379C127.392 72.3849 127.314 72.2579 129.084 70.9639C131.575 69.1429 135.586 69.1809 135.586 71.0269ZM129.048 73.9339C132.385 76.3749 128.287 78.9489 124.69 76.6719C123.048 75.6319 123.923 72.5859 125.863 72.5859C126.601 72.5859 128.033 73.1929 129.048 73.9339ZM124.586 78.6119C124.586 80.0309 121.266 79.8029 119.124 78.2379C118.11 77.4959 117.6 76.3729 117.99 75.7409C118.806 74.4209 124.586 76.9369 124.586 78.6119ZM84.3418 113.25C85.0328 113.529 85.3438 114.168 85.0328 114.671C84.7218 115.174 84.9448 115.586 85.5268 115.586C86.1088 115.586 86.5858 114.911 86.5858 114.086C86.5858 113.261 85.7988 112.622 84.8358 112.665C83.7798 112.713 83.5838 112.945 84.3418 113.25ZM103.586 130.108C112.923 130.134 114.699 130.436 119.617 132.835C122.659 134.318 128.219 135.967 131.973 136.499C135.727 137.03 138.987 137.653 139.217 137.883C139.447 138.113 137.186 140.394 134.192 142.951C128.027 148.218 117.655 152.121 112.874 150.974C106.004 149.326 97.4238 142.472 92.4238 134.64C89.1448 129.504 88.8448 128.011 91.3358 129.225C92.2988 129.694 97.8108 130.091 103.586 130.108Z"/>
</mask>
<path fill-rule="evenodd" clip-rule="evenodd" d="M80.3358 1.17585C78.8238 1.98685 77.5858 3.08585 77.5858 3.61785C77.5858 4.14985 76.8628 4.58585 75.9798 4.58585C75.0968 4.58585 72.6688 5.93585 70.5858 7.58585C68.5028 9.23585 66.4128 10.5919 65.9418 10.5979C64.4678 10.6199 60.5858 17.4399 60.5858 20.0069C60.5858 23.7719 62.4098 27.8129 63.7388 26.9919C64.3748 26.5989 64.6388 26.6909 64.3268 27.1959C62.6458 29.9159 62.4828 41.7209 64.0518 47.1169C64.9608 50.2429 65.5648 52.8879 65.3948 52.9949C64.0478 53.8389 53.0288 55.4079 52.5248 54.8269C50.3568 52.3269 32.7278 24.6069 32.1518 22.7929C31.1488 19.6339 29.9088 20.0689 29.1798 23.8359C28.8338 25.6239 26.0738 30.8749 23.0468 35.5059C16.2428 45.9149 14.1708 52.5369 14.8308 61.7609L15.3188 68.5859H11.5458C8.26578 68.5859 7.84078 68.3249 8.29578 66.5859C8.91778 64.2099 8.54977 64.1559 4.17577 65.9839C-0.211234 67.8169 -0.997223 69.2849 1.14278 71.6489C2.36378 72.9989 4.13777 73.5619 6.99077 73.5069C9.24277 73.4639 10.5238 73.2009 9.83577 72.9239C7.37377 71.9299 8.52277 69.5859 11.4718 69.5859C14.1248 69.5859 14.4128 69.9489 15.0298 74.0629C15.3988 76.5249 16.1238 78.7999 16.6398 79.1189C17.1548 79.4379 19.0808 82.9359 20.9188 86.8919C22.7568 90.8489 25.5818 95.4359 27.1958 97.0859C31.7438 101.734 46.5858 113.675 46.5858 112.687C46.5858 112.201 42.3038 108.36 37.0708 104.151C27.6978 96.6119 24.2328 92.4619 21.1498 85.0859C19.3058 80.6709 19.2948 80.5859 20.5758 80.5859C21.1208 80.5859 22.8558 83.4299 24.4318 86.9059C26.5478 91.5739 28.7028 94.3849 32.6738 97.6559C35.6308 100.093 40.1958 104.222 42.8178 106.833C45.4408 109.443 47.5838 111.243 47.5808 110.833C47.5728 109.526 41.5328 103.578 35.0008 98.4449C30.3088 94.7579 28.0078 92.0559 26.0718 87.9649C22.0968 79.5619 22.5098 79.0219 32.6078 79.4219C37.3368 79.6089 42.3688 79.2629 43.9868 78.6389C45.7188 77.9709 49.1668 77.7789 52.5478 78.1609L58.2068 78.8019L55.8288 87.9439C50.0878 110.014 49.3278 112.545 48.5828 112.084C47.2628 111.268 46.7298 114.07 47.5208 117.675L48.2698 121.086L49.3918 117.086C50.0088 114.886 52.5388 105.247 55.0148 95.6659C57.4908 86.0859 60.0948 77.8739 60.8008 77.4179C63.8368 75.4579 65.0788 77.0359 65.7388 83.6949C66.0968 87.3159 67.3748 92.2609 68.5788 94.6829C69.7818 97.1039 71.8458 102.188 73.1658 105.98C76.2328 114.794 79.6038 120.517 84.0058 124.382C85.9298 126.071 88.1318 128.945 88.9008 130.769C92.5728 139.481 103.145 149.175 111.805 151.77C117.518 153.482 127.518 149.985 134.999 143.659C139.965 139.461 141.271 138.823 143.995 139.265C145.812 139.56 148.825 139.095 151.006 138.184C153.109 137.305 156.327 136.586 158.157 136.586C159.986 136.586 165.068 135.454 169.449 134.069L177.415 131.553L180.797 133.548C182.656 134.645 185.183 136.903 186.412 138.564C187.641 140.226 189.077 141.586 189.603 141.586C190.13 141.586 191.751 139.701 193.206 137.396C195.612 133.585 195.739 132.899 194.618 129.798C192.823 124.834 187.825 117.797 185.591 117.088C184.53 116.751 182.757 116.959 181.652 117.551C180.108 118.377 178.187 118.136 173.364 116.51C165.212 113.761 157.59 112.978 154.594 114.582C152.594 115.652 152.054 115.549 150.68 113.838C148.752 111.435 132.991 101.063 128.386 99.1659C126.571 98.4189 122.497 97.2348 119.333 96.5368C112.162 94.9528 108.282 90.7049 108.776 84.9789L109.086 81.3949L117.01 81.0179C121.368 80.8099 125.193 80.2479 125.51 79.7669C125.827 79.2869 127.324 78.5909 128.836 78.2209C130.348 77.8509 131.586 77.0949 131.586 76.5419C131.586 75.9889 132.711 75.1089 134.086 74.5859C135.596 74.0119 136.586 72.8479 136.586 71.6459C136.586 70.5519 137.486 69.1749 138.586 68.5859C139.686 67.9969 140.586 67.0599 140.586 66.5029C140.586 65.0629 145.615 60.5859 147.232 60.5859C147.977 60.5859 148.586 59.7219 148.586 58.6649C148.586 57.3079 149.539 56.5409 151.836 56.0499C156.063 55.1459 157.761 53.7119 157.093 51.6079C156.683 50.3149 157.5 49.6289 160.528 48.7209C165.354 47.2759 166.499 45.7269 164.062 43.9449C162.041 42.4669 162.076 42.3829 165.422 40.6399C166.706 39.9709 167.576 39.2419 167.353 39.0199C167.131 38.7979 165.205 39.5059 163.073 40.5919C160.941 41.6789 157.035 42.8559 154.392 43.2059C151.748 43.5569 149.586 44.1779 149.586 44.5859C149.586 44.9939 151.723 44.9219 154.336 44.4259C159.358 43.4729 163.586 43.9939 163.586 45.5659C163.586 46.6049 154.431 49.5769 151.154 49.6009C150.017 49.6099 148.411 50.0569 147.586 50.5949C146.558 51.2649 147.582 51.3739 150.836 50.9429C154.855 50.4109 155.586 50.5709 155.586 51.9809C155.586 53.9769 154.237 54.5629 147.327 55.5719C144.445 55.9919 143.072 56.3929 144.277 56.4609C147.011 56.6169 148.302 58.5189 146.464 59.6819C145.706 60.1629 143.598 60.5619 141.779 60.5709C138.612 60.5849 138.535 60.4969 139.954 58.4709C140.769 57.3079 141.221 55.7999 140.96 55.1189C140.699 54.4389 141.668 53.1069 143.114 52.1589C144.821 51.0409 145.531 49.8839 145.138 48.8609C144.783 47.9349 145.397 46.4789 146.624 45.3359C148.642 43.4559 148.652 43.3169 146.922 41.4049C145.228 39.5329 145.224 39.3679 146.857 38.4539C148.981 37.2659 149.14 32.7359 147.086 31.9479C143.013 30.3849 147.275 27.0079 157.451 23.7349C168.099 20.3109 167.996 21.1599 156.862 28.6069C149.557 33.4929 148.265 35.4119 154.779 31.7019C157.824 29.9679 169.586 27.8919 169.586 29.0899C169.586 30.4189 158.32 36.6069 153.18 38.1019C150.022 39.0199 147.656 39.9889 147.922 40.2549C148.189 40.5219 151.145 39.9709 154.492 39.0319C158.169 38.0009 162.36 37.5259 165.082 37.8329C168.503 38.2179 169.586 38.0059 169.586 36.9509C169.586 35.8849 168.6 35.7089 165.336 36.1949L161.086 36.8279L166.022 33.2499C172.049 28.8809 174.048 26.0149 170.464 26.8769C169.156 27.1919 166.286 27.7349 164.086 28.0849L160.086 28.7209L165.586 23.6849C168.611 20.9159 170.608 18.6349 170.024 18.6179C169.439 18.5999 164.967 19.9359 160.086 21.5859C155.205 23.2359 150.845 24.5859 150.398 24.5859C149.952 24.5859 149.586 23.4609 149.586 22.0859C149.586 20.7109 149.342 19.5859 149.043 19.5859C148.744 19.5859 146.116 21.3859 143.202 23.5859C137.273 28.0629 136.586 28.3039 136.586 25.9119C136.586 24.4469 136.305 24.4889 134.336 26.2509C133.098 27.3589 129.331 30.1629 125.964 32.4809C122.596 34.7999 119.011 38.2389 117.996 40.1239C116.776 42.3879 115.814 43.2139 115.159 42.5589C114.504 41.9039 114.934 41.0299 116.429 39.9829C117.673 39.1119 118.518 37.8829 118.308 37.2529C118.098 36.6219 118.975 35.2819 120.256 34.2739C121.538 33.2659 122.586 31.6289 122.586 30.6359C122.586 29.6429 123.271 28.2619 124.109 27.5669C124.946 26.8719 125.386 25.5309 125.086 24.5859C124.786 23.6409 125.226 22.2999 126.063 21.6049C127.993 20.0029 128.023 17.6909 126.124 16.9619C124.863 16.4779 124.886 16.0569 126.295 13.9079C127.954 11.3749 127.53 10.4829 124.086 9.26486C123.442 9.03686 123.476 8.40785 124.181 7.49885C124.783 6.72185 125.556 5.29885 125.899 4.33585C126.991 1.27485 123.942 2.35885 118.117 7.10385L112.57 11.6219L107.908 6.96085C102.796 1.84785 99.6728 0.675855 89.5858 0.0838548C85.1358 -0.177145 82.2188 0.166855 80.3358 1.17585ZM90.8358 1.65085C91.7988 1.64085 93.1488 1.61485 93.8358 1.59285C98.5978 1.43885 102.517 3.29485 107.321 7.97985C111.537 12.0909 112.56 13.7309 112.571 16.3949C112.581 18.5659 112.969 19.4679 113.698 19.0169C114.871 18.2919 116.545 20.2249 116.571 22.3359C116.579 23.0239 115.841 23.5859 114.931 23.5859C113.391 23.5859 113.391 23.7129 114.931 25.4149C116.995 27.6959 117.213 33.0409 115.211 32.2719C114.279 31.9149 113.836 32.5199 113.836 34.1499C113.836 36.8119 111.092 41.5859 109.563 41.5859C109.026 41.5859 108.519 40.3489 108.436 38.8359L108.286 36.0859L107.87 38.8359C107.464 41.5149 104.47 44.1369 103.231 42.8979C102.892 42.5579 103.989 39.8769 105.67 36.9389C107.485 33.7669 108.55 30.6809 108.292 29.3409C107.929 27.4529 107.836 27.5459 107.722 29.9129C107.643 31.5599 106.385 33.9409 104.708 35.6179C103.125 37.2009 102.064 38.7309 102.35 39.0169C102.994 39.6599 100.656 42.5859 99.4988 42.5859C97.3878 42.5859 96.6538 38.7579 98.1778 35.7009C99.0288 33.9959 99.4388 31.6969 99.0878 30.5929C98.6348 29.1659 98.9038 28.5859 100.019 28.5859C100.881 28.5859 101.584 28.2489 101.582 27.8359C101.575 26.4369 97.4818 20.3569 96.9228 20.9159C96.6178 21.2209 97.3838 22.8989 98.6268 24.6429C100.806 27.7039 100.814 27.7929 98.8548 27.1719C96.9758 26.5749 96.8628 26.8599 97.3288 30.9999C97.7898 35.0899 97.5468 35.7339 94.4868 38.5289C90.7298 41.9599 88.4878 42.3449 86.1098 39.9669C84.6178 38.4749 84.6318 38.1889 86.2888 36.3219C88.0468 34.3389 88.0368 34.3209 85.8358 35.4759C84.2068 36.3299 83.0338 36.3609 81.5858 35.5859C79.1198 34.2659 78.9598 31.6269 81.3358 31.4699C83.0028 31.3599 83.0028 31.3319 81.3358 30.8969C80.3728 30.6449 79.5498 29.6849 79.5068 28.7629C79.4578 27.7229 79.2368 27.5609 78.9238 28.3359C77.9698 30.6989 75.5888 29.6589 75.4858 26.8359L75.3868 24.0859L74.6978 26.5569L74.0088 29.0289L72.2978 26.5849C70.1878 23.5729 70.1238 19.9959 72.1098 16.1869C73.8088 12.9299 73.5278 11.7459 71.6058 14.0619C69.7878 16.2519 69.1428 23.8899 70.5528 26.5239C71.2098 27.7509 73.2858 29.3979 75.1658 30.1839C78.9078 31.7479 79.8028 34.5859 76.5538 34.5859C75.3808 34.5859 74.1388 33.6349 73.6168 32.3359C73.1198 31.0979 72.6838 30.6489 72.6488 31.3359C72.5618 33.0659 71.0408 32.8979 69.0848 30.9419C68.0108 29.8679 67.6528 28.4529 68.0538 26.8579C68.5098 25.0399 68.3418 24.6189 67.3938 25.2049C64.4558 27.0199 62.6168 26.2689 62.0048 23.0049C61.3358 19.4389 62.1918 15.5859 63.6528 15.5859C64.1658 15.5859 64.5858 14.8999 64.5858 14.0609C64.5858 13.2229 65.7108 12.1089 67.0858 11.5859C68.4608 11.0629 69.5858 10.1739 69.5858 9.61085C69.5858 9.04685 70.2748 8.58585 71.1168 8.58585C71.9598 8.58585 72.9078 7.91085 73.2238 7.08585C73.5408 6.26085 74.6308 5.58585 75.6478 5.58585C76.6638 5.58585 78.6668 4.41386 80.0998 2.98086C82.2248 0.855855 83.2918 0.494855 85.8948 1.02185C87.6498 1.37685 89.8728 1.65985 90.8358 1.65085ZM84.5858 4.94385C84.5858 5.72885 83.9728 6.60685 83.2248 6.89385C81.6608 7.49385 80.3138 11.5859 81.6798 11.5859C82.1778 11.5859 82.5858 10.9809 82.5858 10.2409C82.5858 8.35586 86.2388 5.25285 87.5228 6.04685C88.1078 6.40785 88.5858 6.46785 88.5858 6.17985C88.5858 5.89185 87.6858 5.17485 86.5858 4.58585C85.0198 3.74785 84.5858 3.82585 84.5858 4.94385ZM123.233 7.24285C119.108 15.0549 113.586 18.7289 113.586 13.6619C113.586 12.0499 123.535 3.20085 124.388 4.05485C124.578 4.24485 124.058 5.67885 123.233 7.24285ZM103.079 10.6079C101.476 15.6589 105.966 23.0969 109.335 20.9729C110.233 20.4059 111.179 19.3079 111.437 18.5319C111.769 17.5379 111.408 17.6209 110.218 18.8109C109.288 19.7409 107.898 20.2589 107.127 19.9629C105.213 19.2289 103.475 13.8769 104.205 10.9669C104.931 8.07486 103.979 7.77085 103.079 10.6079ZM124.63 14.5239C122.824 17.0609 118.457 20.5859 117.121 20.5859C114.82 20.5859 119.997 12.7789 123.086 11.5899C126.223 10.3829 126.799 11.4779 124.63 14.5239ZM105.736 13.6359C105.591 16.0939 107.127 18.5859 108.786 18.5859C109.226 18.5859 109.586 18.1359 109.586 17.5859C109.586 17.0359 108.941 16.5859 108.152 16.5859C107.356 16.5859 106.534 15.3629 106.302 13.8359C105.891 11.1219 105.884 11.1199 105.736 13.6359ZM126.398 19.3229C126.214 20.2779 124.156 22.1109 121.825 23.3979C117.96 25.5299 117.586 25.5779 117.586 23.9479C117.586 22.9649 118.824 21.1479 120.336 19.9099C123.696 17.1579 126.874 16.8509 126.398 19.3229ZM147.076 25.9649C146.152 27.9129 143.424 31.3239 141.013 33.5459C135.962 38.2019 136.288 38.7579 141.82 34.9239C144.789 32.8659 145.932 32.5319 146.851 33.4509C148.766 35.3659 146.506 37.7879 140.492 40.2659C135.175 42.4559 134.885 43.5629 140.153 41.5609C143.331 40.3519 146.586 41.1409 146.586 43.1179C146.586 44.9129 144.128 46.1809 139.007 47.0289C133.518 47.9369 131.64 45.9599 134.233 42.0009C135.969 39.3519 135.96 39.2459 133.864 37.8539C131.755 36.4549 131.749 36.3669 133.514 33.4639C135.236 30.6329 147.502 21.1679 148.35 22.0169C148.574 22.2399 148.001 24.0169 147.076 25.9649ZM93.0468 25.2899C93.0738 27.1889 92.3418 28.3749 90.5858 29.2749C88.3448 30.4239 88.2988 30.5579 90.1358 30.5709C91.2638 30.5789 92.7258 30.0459 93.3858 29.3859C94.7148 28.0569 95.0448 22.5859 93.7968 22.5859C93.3618 22.5859 93.0248 23.8029 93.0468 25.2899ZM28.8608 31.4099C27.2438 34.5319 23.9938 40.6859 21.6378 45.0859C17.4198 52.9669 17.3638 53.2019 17.8758 60.8359C18.3958 68.5779 17.3918 71.3669 16.2108 65.4609C14.2998 55.9079 16.3678 47.8429 23.6318 36.5149C26.8828 31.4439 29.8488 26.3479 30.2218 25.1899C30.6578 23.8349 31.0598 23.5569 31.3508 24.4099C31.5988 25.1379 30.4788 28.2879 28.8608 31.4099ZM124.586 25.5599C124.586 26.4289 119.528 29.5859 118.136 29.5859C116.54 29.5859 117.908 26.3919 119.836 25.6169C122.861 24.4009 124.586 24.3809 124.586 25.5599ZM42.4558 41.6549C47.4768 49.3939 51.5858 56.0989 51.5858 56.5569C51.5858 58.2549 44.1188 61.7119 37.3948 63.1259C33.5768 63.9289 29.5768 65.0549 28.5058 65.6289C27.4348 66.2019 24.9848 66.3759 23.0628 66.0159C18.9068 65.2359 18.0258 62.9579 18.9308 55.3239C19.3368 51.8959 20.9078 47.9159 23.7338 43.1569C26.0428 39.2679 28.8668 34.1939 30.0098 31.8819C31.1518 29.5689 32.3648 27.6569 32.7058 27.6319C33.0458 27.6069 37.4338 33.9169 42.4558 41.6549ZM72.1748 34.1949C74.1088 35.1129 76.6808 35.9689 77.8888 36.0969C79.0968 36.2259 80.3568 36.3879 80.6878 36.4579C81.0188 36.5289 82.7018 37.9359 84.4288 39.5859C87.9668 42.9669 91.2108 43.4279 93.2258 40.8359C94.5138 39.1789 94.6658 39.1889 96.0858 41.0269C98.4058 44.0289 97.9548 45.3009 92.7558 50.4179C85.5488 57.5119 72.9468 60.9739 69.3928 56.8359C66.9958 54.0449 66.4258 51.5859 68.1758 51.5859C69.0168 51.5859 69.4448 52.0049 69.1288 52.5169C68.8118 53.0289 69.0108 53.7299 69.5698 54.0759C70.1288 54.4209 70.5858 54.2699 70.5858 53.7389C70.5858 53.2079 71.5978 52.9839 72.8358 53.2419C74.9688 53.6869 74.9558 53.6319 72.5858 52.1839C71.2108 51.3439 69.1278 50.6409 67.9578 50.6209C66.3208 50.5939 65.5948 49.6609 64.8138 46.5859C63.8958 42.9699 63.9798 42.5859 65.6918 42.5859C68.1228 42.5859 68.1118 41.3959 65.6678 39.8699C62.9818 38.1919 63.9578 34.1799 66.6958 35.6449C67.8838 36.2809 68.5858 36.2969 68.5858 35.6889C68.5858 35.1559 67.6858 34.4349 66.5858 34.0859C65.4858 33.7369 64.5858 32.6569 64.5858 31.6849C64.5858 28.9129 65.7788 28.4159 67.2818 30.5619C68.0378 31.6419 70.2398 33.2769 72.1748 34.1949ZM134.586 29.2479C134.586 30.8529 128.068 39.8569 125.22 42.1849C123.496 43.5949 122.991 44.3029 124.097 43.7599C125.203 43.2159 126.961 41.8299 128.002 40.6789C130.218 38.2309 133.586 37.9019 133.586 40.1339C133.586 42.0219 128.962 46.4709 125.697 47.7249C124.384 48.2289 123.577 48.9099 123.905 49.2379C124.232 49.5659 126.161 48.8539 128.19 47.6569C130.676 46.1899 132.21 45.8099 132.891 46.4909C134.239 47.8389 132.236 50.1859 127.657 52.6219L124.086 54.5229L127.437 53.9089C130.334 53.3789 130.74 53.5489 130.429 55.1609C130.204 56.3329 128.586 57.4739 126.078 58.2289C123.882 58.8909 122.874 59.4669 123.836 59.5089C126.071 59.6069 126.157 63.1529 123.945 64.0019C123.043 64.3479 121.528 64.3849 120.579 64.0839C119.2 63.6459 118.946 64.0189 119.314 65.9439C119.962 69.3349 117.667 70.4049 115.496 67.7239C113.741 65.5549 113.729 65.5549 113.408 67.6039C112.858 71.1249 111.102 70.2779 110.776 66.3339C110.501 63.0159 110.79 62.4589 113.274 61.5149C119.553 59.1269 121.056 55.3289 118.034 49.4859C115.375 44.3429 118.42 38.8679 127.411 32.6259C133.06 28.7049 134.586 27.9869 134.586 29.2479ZM121.586 31.5509C121.586 32.4079 118.472 34.5859 117.245 34.5859C116.986 34.5859 117.009 33.6859 117.296 32.5859C117.815 30.6019 121.586 29.6919 121.586 31.5509ZM116.357 37.7739C116.139 38.4269 115.426 39.1389 114.773 39.3569C114.042 39.6009 113.819 39.1429 114.192 38.1699C114.89 36.3519 116.957 35.9739 116.357 37.7739ZM77.5858 40.2949C78.4108 40.5989 79.8728 41.5329 80.8358 42.3709C81.7988 43.2099 82.5858 43.4659 82.5858 42.9409C82.5858 41.2889 80.2688 39.5829 78.1358 39.6649C76.6938 39.7199 76.5308 39.9079 77.5858 40.2949ZM114.297 43.8359C117.557 50.8249 118.722 54.5809 118.172 56.3159C117.521 58.3669 114.45 60.3089 111.086 60.7959C108.952 61.1049 108.784 59.9789 109.855 52.5859C110.134 50.6609 110.413 48.5239 110.474 47.8359C110.536 47.1489 111.234 46.5859 112.027 46.5859C112.82 46.5859 113.677 46.2489 113.932 45.8359C114.186 45.4229 112.413 45.2439 109.991 45.4369C105.026 45.8319 104.084 44.3009 108.336 42.7479C112.445 41.2469 113.15 41.3759 114.297 43.8359ZM93.8588 44.5639C93.9428 45.6759 94.3658 46.5859 94.7988 46.5859C95.9048 46.5859 95.7828 43.8259 94.6468 43.1229C94.1298 42.8039 93.7758 43.4519 93.8588 44.5639ZM103.284 45.1639C103.646 46.2659 98.7018 49.0349 97.8648 48.1989C97.6108 47.9449 97.7078 46.7769 98.0808 45.6029C98.7888 43.3719 102.589 43.0509 103.284 45.1639ZM74.5858 45.4789C74.5858 46.4729 75.3168 46.7559 77.2238 46.5009C77.5748 46.4539 78.1878 46.9409 78.5848 47.5839C79.0948 48.4099 79.4858 48.2879 79.9148 47.1699C80.2898 46.1939 79.9908 45.5859 79.1358 45.5859C78.3738 45.5859 77.0378 45.3129 76.1678 44.9789C75.2978 44.6449 74.5858 44.8699 74.5858 45.4789ZM109.055 47.5359C109.91 48.9189 106.239 50.5889 102.402 50.5639L99.0858 50.5419L101.586 48.5859C104.248 46.5039 108.084 45.9649 109.055 47.5359ZM67.5858 48.6079C67.5858 49.6799 71.4908 50.5489 72.0728 49.6059C72.3418 49.1709 71.4428 48.6009 70.0738 48.3389C68.7058 48.0769 67.5858 48.1979 67.5858 48.6079ZM144.18 48.7379C145.326 50.5919 141.57 52.5749 136.645 52.7179C132.254 52.8439 132.214 52.8719 135.575 53.4679C137.787 53.8599 139.186 54.7269 139.399 55.8389C139.803 57.9519 137.455 59.0209 134.2 58.2039C132.352 57.7399 131.855 56.9879 131.982 54.8459C132.233 50.5749 133.773 48.7829 137.586 48.3259C139.511 48.0949 141.622 47.8339 142.277 47.7459C142.932 47.6579 143.788 48.1039 144.18 48.7379ZM100.847 51.5859C108.181 56.4609 111.541 68.4879 108.669 79.5859C107.082 85.7179 106.714 93.7249 108.07 92.5989C108.9 91.9109 109.947 92.3419 111.525 94.0209C113.074 95.6699 116.119 96.9489 121.172 98.0729C126.163 99.1829 130.1 100.825 133.321 103.141C135.942 105.024 140.211 107.696 142.808 109.078C145.405 110.461 148.51 112.917 149.708 114.537C151.832 117.41 151.959 117.444 154.895 115.926C158.798 113.908 165.159 114.721 175.782 118.598C180.442 120.299 183.305 120.953 182.653 120.167C181.258 118.485 183.176 117.538 185.964 118.532C188.213 119.334 195.152 131.897 193.627 132.406C193.048 132.599 192.828 133.168 193.139 133.671C193.45 134.174 193.201 134.586 192.586 134.586C191.971 134.586 191.753 135.047 192.101 135.611C192.45 136.174 192.139 136.512 191.41 136.361C190.55 136.182 190.179 136.927 190.351 138.487C190.591 140.658 190.154 140.455 185.775 136.359C183.112 133.869 180.043 131.548 178.955 131.203C177.866 130.858 173.209 131.702 168.605 133.08C164.001 134.458 159.019 135.586 157.536 135.586C156.052 135.586 152.888 136.274 150.505 137.115C146.588 138.497 145.498 138.487 139.129 137.011C121.193 132.856 119.239 132.204 114.982 128.955C112.568 127.112 110.703 126.162 110.839 126.845C111.233 128.826 99.0498 130.076 93.5858 128.615C87.5468 127.001 78.7378 118.086 76.2638 111.086C75.2918 108.336 73.5568 103.836 72.4088 101.086C68.3838 91.4479 66.4798 85.3139 66.7818 82.9559C67.0558 80.8139 67.5068 81.1209 71.2918 86.0299C75.9778 92.1089 80.8278 94.2189 87.9218 93.2679C92.3938 92.6679 100.734 88.6409 101.354 86.7819C101.586 86.0869 100.104 86.6519 98.0618 88.0379C88.9328 94.2329 79.7168 93.8279 73.4758 86.9589C69.1548 82.2039 65.7058 76.4369 66.2828 74.9339C66.7388 73.7449 66.3888 73.7189 64.0878 74.7669C61.6238 75.8899 61.1578 75.7759 59.4188 73.6279C57.3318 71.0499 57.2738 65.9239 59.3358 66.3359C60.0238 66.4729 60.5858 66.1689 60.5858 65.6589C60.5858 65.1499 59.7988 64.5669 58.8358 64.3659C57.3228 64.0479 57.3908 63.8299 59.3358 62.7569C61.0668 61.8019 62.1048 61.7839 63.8358 62.6789C67.2418 64.4409 69.7218 66.8419 70.6558 69.2819C71.2438 70.8209 72.6318 71.6578 75.2908 72.0788C77.3778 72.4088 80.4608 73.3569 82.1408 74.1849C85.1208 75.6539 85.2868 75.6039 88.9618 72.1379C91.0328 70.1849 92.2018 68.5859 91.5578 68.5859C90.9148 68.5859 89.1748 69.8849 87.6928 71.4719C85.2628 74.0719 84.7548 74.2339 82.5418 73.1029C81.1908 72.4139 78.3778 71.5409 76.2898 71.1639C73.6378 70.6849 72.1628 69.7519 71.3968 68.0699C69.6678 64.2759 63.0008 60.3359 59.5808 61.0869C57.2958 61.5889 56.4908 61.2769 55.5518 59.5229C54.1028 56.8149 55.2478 55.9219 61.3618 54.9979C65.1268 54.4279 65.9288 54.6639 68.0648 56.9679C69.9038 58.9529 71.4598 59.5859 74.5008 59.5859C80.3278 59.5859 88.6748 56.1209 92.5968 52.0749C94.4708 50.1409 96.2478 48.6769 96.5448 48.8219C96.8428 48.9669 98.7778 50.2109 100.847 51.5859ZM108.09 53.2069C106.289 54.5239 104.586 54.2289 104.586 52.5999C104.586 51.5709 107.699 50.7329 108.987 51.4149C109.483 51.6769 109.08 52.4829 108.09 53.2069ZM108.586 55.5859C108.586 56.1359 108.109 56.5859 107.527 56.5859C106.945 56.5859 106.746 56.1359 107.086 55.5859C107.426 55.0359 107.902 54.5859 108.145 54.5859C108.388 54.5859 108.586 55.0359 108.586 55.5859ZM56.1938 64.4099C55.8928 64.8979 50.5698 65.6129 44.3658 65.9989C38.1618 66.3839 31.9608 66.9569 30.5858 67.2719C28.7838 67.6849 28.3738 67.5339 29.1168 66.7339C29.6838 66.1239 33.3368 65.0219 37.2348 64.2839C41.1338 63.5469 46.2948 61.7779 48.7048 60.3539L53.0858 57.7629L54.9138 60.6429C55.9198 62.2269 56.4958 63.9229 56.1938 64.4099ZM133.065 58.7579C137.331 60.7019 134.123 64.4399 129.241 63.2139C126.209 62.4529 125.754 60.1699 128.336 58.6659C130.521 57.3929 130.049 57.3839 133.065 58.7579ZM140.586 61.8069L143.086 62.2289L140.252 63.4149C136.807 64.8559 135.595 64.2659 136.319 61.4999C136.618 60.3549 137.139 59.8599 137.475 60.4009C137.811 60.9419 139.211 61.5739 140.586 61.8069ZM129.481 64.9589C130.92 66.6929 129.874 69.5859 127.808 69.5859C126.947 69.5859 125.355 68.7989 124.269 67.8359C122.353 66.1379 122.33 66.1529 123.476 68.3359C124.679 70.6289 123.538 74.5859 121.673 74.5859C119.435 74.5859 118.585 71.8159 119.992 69.1049C122.291 64.6729 127.393 62.4439 129.481 64.9589ZM137.586 65.4969L140.086 66.2089L137.902 67.3969C134.464 69.2679 131.586 68.8989 131.586 66.5859C131.586 64.4789 133.065 64.2099 137.586 65.4969ZM7.19177 69.5879C7.31077 72.9319 5.32777 73.5809 2.13277 71.2439C0.379767 69.9619 0.403773 69.8269 2.66377 68.2439C6.04677 65.8739 7.07077 66.1789 7.19177 69.5879ZM22.3148 67.1898C21.9828 67.5218 21.1198 67.5579 20.3988 67.2689C19.6008 66.9499 19.8378 66.7129 21.0028 66.6649C22.0568 66.6219 22.6468 66.8578 22.3148 67.1898ZM57.2478 71.3359C57.8618 73.9479 58.1858 76.2769 57.9678 76.5099C57.5048 77.0049 46.1908 77.6159 32.3498 77.8919C25.4038 78.0299 22.4768 77.7329 22.1368 76.8529C21.8738 76.1709 20.8628 75.8829 19.8738 76.2079C18.8908 76.5319 19.4358 75.8519 21.0858 74.6979L24.0858 72.5989L21.2768 72.5929C19.4878 72.5879 18.7148 72.9849 19.1478 73.6859C19.6248 74.4589 19.1968 74.4479 17.7068 73.6509C16.5398 73.0259 15.6218 71.9688 15.6648 71.3008C15.7238 70.3848 15.8678 70.3939 16.2478 71.3359C16.5258 72.0239 17.1648 72.5859 17.6688 72.5859C18.1728 72.5859 18.4728 72.0239 18.3358 71.3359C18.1738 70.5259 19.3188 70.0859 21.5858 70.0859C23.5108 70.0859 25.3278 69.7629 25.6248 69.3689C26.2118 68.5869 41.7628 66.9399 50.6088 66.7219L56.1308 66.5859L57.2478 71.3359ZM116.004 70.1929C117.819 70.8899 118.127 74.1339 116.474 75.1549C115.863 75.5329 114.987 75.2349 114.529 74.4929C114.07 73.7509 113.419 73.4189 113.083 73.7559C112.746 74.0919 113.847 75.3479 115.528 76.5449C118.92 78.9599 119.472 80.5859 116.9 80.5859C114.768 80.5859 110.586 76.7179 110.586 74.7459C110.586 73.9249 111.374 72.4549 112.336 71.4789C114.452 69.3339 114.093 69.4599 116.004 70.1929ZM135.586 71.0269C135.586 73.1719 133.913 73.8169 130.368 73.0379C127.392 72.3849 127.314 72.2579 129.084 70.9639C131.575 69.1429 135.586 69.1809 135.586 71.0269ZM129.048 73.9339C132.385 76.3749 128.287 78.9489 124.69 76.6719C123.048 75.6319 123.923 72.5859 125.863 72.5859C126.601 72.5859 128.033 73.1929 129.048 73.9339ZM124.586 78.6119C124.586 80.0309 121.266 79.8029 119.124 78.2379C118.11 77.4959 117.6 76.3729 117.99 75.7409C118.806 74.4209 124.586 76.9369 124.586 78.6119ZM84.3418 113.25C85.0328 113.529 85.3438 114.168 85.0328 114.671C84.7218 115.174 84.9448 115.586 85.5268 115.586C86.1088 115.586 86.5858 114.911 86.5858 114.086C86.5858 113.261 85.7988 112.622 84.8358 112.665C83.7798 112.713 83.5838 112.945 84.3418 113.25ZM103.586 130.108C112.923 130.134 114.699 130.436 119.617 132.835C122.659 134.318 128.219 135.967 131.973 136.499C135.727 137.03 138.987 137.653 139.217 137.883C139.447 138.113 137.186 140.394 134.192 142.951C128.027 148.218 117.655 152.121 112.874 150.974C106.004 149.326 97.4238 142.472 92.4238 134.64C89.1448 129.504 88.8448 128.011 91.3358 129.225C92.2988 129.694 97.8108 130.091 103.586 130.108Z" stroke="black" stroke-width="2" mask="url(#path-1-inside-1_1421_832)"/>
</svg>
