<svg width="1656" height="1290" viewBox="0 0 1656 1290" fill="none" xmlns="http://www.w3.org/2000/svg">
<mask id="path-1-inside-1_1450_950" fill="white">
<path fill-rule="evenodd" clip-rule="evenodd" d="M680.869 9.96571C668.054 16.8392 657.562 26.1535 657.562 30.6624C657.562 35.1712 651.434 38.8664 643.951 38.8664C636.467 38.8664 615.889 50.3081 598.235 64.2923C580.581 78.2765 562.868 89.769 558.876 89.8199C546.383 90.0063 513.482 147.808 513.482 169.564C513.482 201.473 528.941 235.722 540.205 228.764C545.595 225.433 547.832 226.213 545.188 230.493C530.941 253.546 529.56 353.596 542.857 399.329C550.561 425.823 555.681 448.24 554.24 449.147C542.823 456.3 449.434 469.598 445.163 464.674C426.788 443.485 277.377 208.55 272.496 193.176C263.995 166.403 253.485 170.089 247.307 202.016C244.375 217.17 220.983 261.673 195.328 300.922C137.662 389.142 120.101 445.265 125.695 523.441L129.831 581.285H97.8538C70.0549 581.285 66.4529 579.073 70.3091 564.334C75.5808 544.197 72.4618 543.74 35.3908 559.232C-1.79027 574.768 -8.45175 587.209 9.68537 607.245C20.0337 618.687 35.0688 623.458 59.2488 622.992C78.3352 622.627 89.192 620.398 83.361 618.051C62.4948 609.626 72.233 589.76 97.2266 589.76C119.712 589.76 122.152 592.837 127.382 627.704C130.509 648.57 136.654 667.852 141.027 670.555C145.392 673.259 161.715 702.905 177.293 736.434C192.87 769.97 216.813 808.847 230.492 822.831C269.038 862.224 394.828 963.427 394.828 955.054C394.828 950.935 358.537 918.381 314.186 882.709C234.747 818.814 205.38 783.641 179.25 721.127C163.622 683.709 163.529 682.989 174.386 682.989C179.005 682.989 193.709 707.092 207.066 736.552C225 776.115 243.264 799.939 276.92 827.662C301.981 848.316 340.671 883.31 362.893 905.439C385.124 927.56 403.286 942.815 403.261 939.341C403.193 928.263 352.002 877.852 296.642 834.349C256.876 803.1 237.374 780.2 220.966 745.528C187.276 674.31 190.777 669.733 276.36 673.123C316.44 674.708 359.088 671.776 372.801 666.487C387.48 660.826 416.703 659.198 445.358 662.436L493.319 667.869L473.165 745.35C424.508 932.399 418.067 953.85 411.753 949.943C400.566 943.027 396.048 966.775 402.752 997.329L409.1 1026.24L418.61 992.337C423.839 973.691 445.281 891.998 466.266 810.796C487.251 729.603 509.321 660.004 515.304 656.139C541.035 639.527 551.561 652.901 557.155 709.338C560.189 740.027 571.021 781.938 581.225 802.465C591.421 822.983 608.914 866.072 620.101 898.21C646.095 972.911 674.665 1021.42 711.973 1054.17C728.28 1068.49 746.942 1092.85 753.46 1108.3C784.581 1182.14 874.182 1264.3 947.578 1286.29C995.997 1300.8 1080.75 1271.17 1144.15 1217.55C1186.24 1181.97 1197.31 1176.56 1220.4 1180.31C1235.8 1182.81 1261.33 1178.87 1279.82 1171.15C1297.64 1163.7 1324.91 1157.6 1340.42 1157.6C1355.93 1157.6 1399 1148.01 1436.13 1136.27L1503.64 1114.95L1532.31 1131.86C1548.06 1141.15 1569.48 1160.29 1579.89 1174.37C1590.31 1188.45 1602.48 1199.98 1606.94 1199.98C1611.4 1199.98 1625.14 1184.01 1637.47 1164.47C1657.87 1132.17 1658.94 1126.36 1649.44 1100.07C1634.23 1058 1591.87 998.363 1572.94 992.354C1563.94 989.497 1548.92 991.26 1539.55 996.278C1526.47 1003.28 1510.18 1001.24 1469.31 987.455C1400.22 964.156 1335.62 957.52 1310.23 971.114C1293.28 980.183 1288.7 979.31 1277.05 964.809C1260.71 944.443 1127.14 856.537 1088.11 840.459C1072.72 834.128 1038.2 824.094 1011.38 818.178C950.604 804.753 917.72 768.75 921.906 720.22L924.534 689.845L991.692 686.65C1028.63 684.887 1061.05 680.124 1063.73 676.047C1066.42 671.979 1079.11 666.08 1091.92 662.944C1104.74 659.809 1115.23 653.401 1115.23 648.714C1115.23 644.028 1124.76 636.569 1136.42 632.137C1149.21 627.272 1157.6 617.407 1157.6 607.219C1157.6 597.947 1165.23 586.277 1174.55 581.285C1183.88 576.293 1191.51 568.352 1191.51 563.631C1191.51 551.427 1234.13 513.483 1247.83 513.483C1254.15 513.483 1259.31 506.16 1259.31 497.202C1259.31 485.701 1267.38 479.2 1286.85 475.039C1322.68 467.377 1337.07 455.224 1331.41 437.392C1327.93 426.433 1334.86 420.619 1360.52 412.923C1401.42 400.677 1411.13 387.548 1390.47 372.445C1373.34 359.919 1373.64 359.207 1402 344.435C1412.88 338.765 1420.25 332.586 1418.36 330.705C1416.48 328.823 1400.16 334.824 1382.09 344.028C1364.02 353.24 1330.92 363.216 1308.52 366.182C1286.11 369.157 1267.78 374.42 1267.78 377.878C1267.78 381.336 1285.89 380.726 1308.04 376.522C1350.6 368.445 1386.44 372.861 1386.44 386.184C1386.44 394.99 1308.85 420.178 1281.07 420.382C1271.44 420.458 1257.82 424.246 1250.83 428.806C1242.12 434.485 1250.8 435.408 1278.38 431.755C1312.44 427.247 1318.63 428.603 1318.63 440.553C1318.63 457.47 1307.2 462.436 1248.64 470.988C1224.21 474.547 1212.57 477.946 1222.79 478.522C1245.96 479.844 1256.9 495.964 1241.32 505.821C1234.9 509.898 1217.03 513.279 1201.62 513.356C1174.77 513.474 1174.12 512.728 1186.15 495.558C1193.06 485.701 1196.89 472.92 1194.67 467.148C1192.46 461.385 1200.68 450.096 1212.93 442.061C1227.4 432.586 1233.42 422.78 1230.08 414.11C1227.08 406.262 1232.28 393.922 1242.68 384.235C1259.78 368.301 1259.87 367.123 1245.2 350.918C1230.85 335.052 1230.81 333.654 1244.65 325.908C1262.66 315.839 1264 277.446 1246.59 270.767C1212.07 257.52 1248.2 228.899 1334.44 201.16C1424.69 172.14 1423.81 179.336 1329.45 242.451C1267.54 283.862 1256.59 300.126 1311.79 268.682C1337.6 253.986 1437.29 236.392 1437.29 246.545C1437.29 257.809 1341.81 310.254 1298.24 322.924C1271.48 330.705 1251.43 338.917 1253.68 341.172C1255.94 343.434 1281 338.765 1309.36 330.806C1340.53 322.068 1376.05 318.043 1399.12 320.644C1428.11 323.907 1437.29 322.111 1437.29 313.169C1437.29 304.135 1428.93 302.643 1401.27 306.762L1365.25 312.127L1407.08 281.802C1458.16 244.774 1475.11 220.483 1444.73 227.789C1433.64 230.459 1409.32 235.061 1390.67 238.027L1356.77 243.418L1403.39 200.736C1429.03 177.268 1445.95 157.936 1441 157.792C1436.04 157.639 1398.14 168.962 1356.77 182.946C1315.41 196.931 1278.45 208.372 1274.66 208.372C1270.88 208.372 1267.78 198.838 1267.78 187.184C1267.78 175.53 1265.71 165.996 1263.18 165.996C1260.65 165.996 1238.37 181.251 1213.68 199.897C1163.43 237.841 1157.6 239.883 1157.6 219.61C1157.6 207.194 1155.22 207.55 1138.53 222.484C1128.04 231.874 1096.12 255.639 1067.58 275.285C1039.03 294.939 1008.65 324.085 1000.05 340.061C989.709 359.249 981.555 366.25 976.004 360.699C970.453 355.147 974.097 347.74 986.768 338.866C997.311 331.484 1004.47 321.068 1002.69 315.729C1000.91 310.381 1008.35 299.024 1019.2 290.481C1030.07 281.938 1038.95 268.064 1038.95 259.648C1038.95 251.232 1044.76 239.527 1051.86 233.637C1058.95 227.747 1062.68 216.381 1060.14 208.372C1057.6 200.363 1061.32 188.998 1068.42 183.107C1084.78 169.53 1085.03 149.935 1068.94 143.757C1058.25 139.655 1058.44 136.087 1070.39 117.873C1084.45 96.4052 1080.85 88.8452 1051.66 78.5223C1046.2 76.59 1046.49 71.259 1052.47 63.555C1057.57 56.9697 1064.12 44.9093 1067.03 36.7476C1076.28 10.8048 1050.44 19.992 1001.07 60.2072L954.062 98.4986L914.55 58.9953C871.224 15.6611 844.756 5.72807 759.265 0.710694C721.55 -1.50136 696.828 1.41414 680.869 9.96571ZM769.86 13.9915C778.021 13.9067 789.463 13.6864 795.285 13.4999C835.645 12.1947 868.859 27.9248 909.575 67.6316C945.306 102.473 953.977 116.373 954.07 138.951C954.155 157.351 957.443 164.996 963.622 161.173C973.563 155.029 987.751 171.412 987.971 189.303C988.039 195.134 981.784 199.897 974.072 199.897C961.02 199.897 961.02 200.973 974.072 215.398C991.565 234.73 993.412 280.031 976.445 273.513C968.546 270.488 964.791 275.615 964.791 289.43C964.791 311.991 941.535 352.452 928.576 352.452C924.025 352.452 919.728 341.968 919.025 329.145L917.754 305.838L914.228 329.145C910.787 351.85 885.412 374.073 874.911 363.572C872.038 360.69 881.335 337.968 895.582 313.068C910.965 286.184 919.991 260.029 917.804 248.672C914.728 232.671 913.939 233.459 912.973 253.52C912.304 267.479 901.642 287.659 887.429 301.872C874.013 315.288 865.02 328.255 867.444 330.679C872.902 336.129 853.087 360.928 843.281 360.928C825.39 360.928 819.169 328.484 832.085 302.575C839.298 288.125 842.773 268.64 839.798 259.283C835.958 247.189 838.238 242.273 847.688 242.273C854.994 242.273 860.952 239.417 860.935 235.917C860.876 224.06 826.186 172.53 821.449 177.268C818.864 179.853 825.356 194.074 835.89 208.855C854.358 234.798 854.426 235.552 837.823 230.289C821.898 225.23 820.94 227.645 824.89 262.733C828.797 297.397 826.737 302.855 800.803 326.543C768.961 355.622 749.96 358.885 729.805 338.731C717.16 326.086 717.279 323.662 731.322 307.838C746.222 291.032 746.137 290.879 727.483 300.668C713.677 307.906 703.735 308.169 691.463 301.6C670.563 290.413 669.207 268.047 689.344 266.716C703.473 265.784 703.473 265.547 689.344 261.86C681.183 259.724 674.207 251.588 673.843 243.774C673.428 234.959 671.555 233.586 668.902 240.155C660.816 260.182 640.637 251.367 639.764 227.442L638.925 204.135L633.085 225.077L627.246 246.028L612.745 225.314C594.862 199.787 594.319 169.471 611.151 137.188C625.551 109.584 623.169 99.5495 606.88 119.178C591.472 137.739 586.005 202.473 597.955 224.797C603.523 235.197 621.118 249.155 637.052 255.817C668.766 269.072 676.352 293.125 648.815 293.125C638.874 293.125 628.348 285.065 623.924 274.056C619.711 263.563 616.016 259.758 615.719 265.58C614.982 280.243 602.091 278.819 585.513 262.241C576.411 253.139 573.377 241.146 576.775 227.628C580.64 212.22 579.216 208.652 571.182 213.618C546.281 229.001 530.695 222.636 525.508 194.973C519.838 164.75 527.093 132.095 539.476 132.095C543.824 132.095 547.383 126.281 547.383 119.17C547.383 112.068 556.918 102.626 568.571 98.1935C580.225 93.7609 589.76 86.2264 589.76 81.4548C589.76 76.6747 595.599 72.7676 602.735 72.7676C609.88 72.7676 617.915 67.0468 620.593 60.0547C623.279 53.0626 632.517 47.3417 641.137 47.3417C649.748 47.3417 666.724 37.4087 678.869 25.2636C696.879 7.25362 705.922 4.19404 727.983 8.66051C742.857 11.6692 761.698 14.0677 769.86 13.9915ZM716.889 41.9006C716.889 48.5537 711.694 55.995 705.354 58.4274C692.099 63.5126 680.682 98.1935 692.26 98.1935C696.48 98.1935 699.938 93.0659 699.938 86.7942C699.938 70.8183 730.899 44.5195 741.781 51.2488C746.739 54.3084 750.79 54.8169 750.79 52.3761C750.79 49.9352 743.162 43.8584 733.84 38.8664C720.567 31.7642 716.889 32.4252 716.889 41.9006ZM1044.43 61.3853C1009.47 127.594 962.672 158.732 962.672 115.788C962.672 102.126 1046.99 27.1282 1054.22 34.3661C1055.83 35.9764 1051.43 48.1299 1044.43 61.3853ZM873.623 89.9046C860.037 132.713 898.091 195.753 926.644 177.751C934.255 172.946 942.273 163.64 944.459 157.063C947.273 148.638 944.213 149.342 934.128 159.427C926.246 167.309 914.465 171.7 907.93 169.191C891.709 162.97 876.979 117.61 883.166 92.9473C889.319 68.4367 881.25 65.8602 873.623 89.9046ZM1056.27 123.094C1040.97 144.596 1003.96 174.471 992.633 174.471C973.131 174.471 1017.01 108.304 1043.19 98.2274C1069.77 87.9977 1074.66 97.2781 1056.27 123.094ZM896.141 115.568C894.912 136.4 907.931 157.521 921.991 157.521C925.72 157.521 928.771 153.707 928.771 149.045C928.771 144.384 923.305 140.57 916.618 140.57C909.871 140.57 902.905 130.205 900.938 117.263C897.455 94.2609 897.396 94.244 896.141 115.568ZM1071.26 163.767C1069.7 171.861 1052.26 187.396 1032.5 198.304C999.743 216.373 996.574 216.78 996.574 202.965C996.574 194.634 1007.07 179.234 1019.88 168.742C1048.36 145.418 1075.29 142.816 1071.26 163.767ZM1246.51 220.06C1238.68 236.57 1215.56 265.479 1195.12 284.311C1152.32 323.772 1155.08 328.484 1201.96 295.99C1227.13 278.548 1236.81 275.717 1244.6 283.506C1260.83 299.736 1241.68 320.263 1190.71 341.265C1145.65 359.826 1143.19 369.208 1187.84 352.24C1214.77 341.994 1242.36 348.681 1242.36 365.436C1242.36 380.65 1221.52 391.396 1178.12 398.583C1131.6 406.279 1115.69 389.523 1137.66 355.969C1152.37 333.518 1152.3 332.62 1134.53 320.822C1116.66 308.966 1116.61 308.22 1131.57 283.616C1146.16 259.622 1250.12 179.404 1257.31 186.599C1259.21 188.489 1254.35 203.55 1246.51 220.06ZM788.598 214.339C788.827 230.433 782.623 240.485 767.741 248.113C748.748 257.851 748.358 258.987 763.927 259.097C773.487 259.165 785.878 254.647 791.472 249.054C802.735 237.79 805.532 191.422 794.955 191.422C791.268 191.422 788.412 201.736 788.598 214.339ZM244.603 266.208C230.899 292.668 203.354 344.824 183.386 382.116C147.638 448.909 147.163 450.901 151.502 515.602C155.909 581.217 147.4 604.855 137.391 554.8C121.195 473.835 138.722 405.482 200.286 309.474C227.839 266.496 252.977 223.306 256.138 213.491C259.834 202.007 263.241 199.651 265.707 206.881C267.809 213.051 258.316 239.748 244.603 266.208ZM1055.9 216.627C1055.9 223.992 1013.03 250.749 1001.23 250.749C987.708 250.749 999.303 223.679 1015.64 217.11C1041.28 206.804 1055.9 206.635 1055.9 216.627ZM359.825 353.037C402.379 418.627 437.204 475.454 437.204 479.336C437.204 493.727 373.919 523.026 316.932 535.01C284.573 541.816 250.672 551.359 241.595 556.224C232.518 561.08 211.753 562.555 195.464 559.504C160.24 552.893 152.774 533.586 160.444 468.886C163.885 439.832 177.199 406.101 201.151 365.767C220.72 332.806 244.654 289.803 254.341 270.208C264.02 250.605 274.301 234.4 277.191 234.188C280.072 233.976 317.262 287.455 359.825 353.037ZM611.702 289.811C628.093 297.592 649.892 304.847 660.13 305.931C670.368 307.025 681.047 308.398 683.852 308.991C686.658 309.593 700.922 321.517 715.558 335.502C745.544 364.157 773.038 368.064 790.115 346.096C801.032 332.052 802.32 332.137 814.355 347.715C834.017 373.157 830.195 383.938 786.132 427.306C725.051 487.43 618.245 516.771 588.124 481.7C567.809 458.046 562.978 437.205 577.809 437.205C584.937 437.205 588.565 440.756 585.886 445.096C583.2 449.435 584.886 455.376 589.624 458.309C594.362 461.233 598.235 459.953 598.235 455.452C598.235 450.952 606.812 449.054 617.304 451.24C635.382 455.012 635.272 454.546 615.185 442.273C603.532 435.154 585.878 429.196 575.962 429.026C562.088 428.798 555.935 420.89 549.315 394.829C541.535 364.182 542.247 360.928 556.757 360.928C577.36 360.928 577.267 350.842 556.553 337.909C533.789 323.687 542.061 289.684 565.266 302.1C575.335 307.491 581.284 307.626 581.284 302.473C581.284 297.956 573.657 291.845 564.334 288.888C555.011 285.93 547.383 276.776 547.383 268.538C547.383 245.045 557.494 240.833 570.233 259.021C576.64 268.174 595.302 282.031 611.702 289.811ZM1140.65 247.884C1140.65 261.487 1085.41 337.798 1061.27 357.529C1046.66 369.479 1042.38 375.48 1051.76 370.877C1061.13 366.267 1076.03 354.52 1084.85 344.765C1103.63 324.018 1132.18 321.229 1132.18 340.146C1132.18 356.147 1092.99 393.854 1065.32 404.482C1054.19 408.754 1047.35 414.525 1050.13 417.305C1052.9 420.085 1069.25 414.051 1086.45 403.906C1107.52 391.472 1120.52 388.252 1126.29 394.024C1137.71 405.448 1120.74 425.34 1081.93 445.986L1051.66 462.097L1080.06 456.893C1104.62 452.401 1108.06 453.842 1105.42 467.504C1103.51 477.437 1089.8 487.108 1068.55 493.506C1049.93 499.117 1041.39 503.999 1049.54 504.355C1068.49 505.185 1069.22 535.239 1050.47 542.434C1042.82 545.367 1029.98 545.68 1021.94 543.129C1010.25 539.417 1008.1 542.578 1011.22 558.893C1016.71 587.633 997.26 596.702 978.86 573.979C963.986 555.596 963.884 555.596 961.164 572.962C956.502 602.804 941.62 595.625 938.857 562.199C936.526 534.078 938.975 529.357 960.028 521.356C1013.24 501.117 1025.98 468.928 1000.37 419.407C977.835 375.819 1003.64 329.416 1079.84 276.514C1127.72 243.282 1140.65 237.197 1140.65 247.884ZM1030.47 267.403C1030.47 274.666 1004.08 293.125 993.683 293.125C991.488 293.125 991.683 285.497 994.116 276.175C998.514 259.36 1030.47 251.647 1030.47 267.403ZM986.157 320.144C984.31 325.679 978.267 331.713 972.733 333.561C966.537 335.629 964.647 331.747 967.808 323.501C973.724 308.093 991.243 304.889 986.157 320.144ZM657.562 341.511C664.554 344.087 676.945 352.003 685.107 359.105C693.268 366.216 699.938 368.386 699.938 363.936C699.938 349.935 680.301 335.476 662.223 336.171C650.002 336.637 648.62 338.231 657.562 341.511ZM968.698 371.522C996.328 430.755 1006.2 462.589 1001.54 477.293C996.023 494.676 969.995 511.135 941.484 515.263C923.398 517.881 921.974 508.338 931.051 445.68C933.416 429.365 935.78 411.254 936.297 405.423C936.823 399.6 942.739 394.829 949.46 394.829C956.18 394.829 963.444 391.972 965.605 388.472C967.758 384.972 952.731 383.455 932.204 385.091C890.124 388.438 882.14 375.463 918.177 362.3C953.002 349.579 958.977 350.672 968.698 371.522ZM795.48 377.692C796.192 387.116 799.777 394.829 803.447 394.829C812.821 394.829 811.787 371.437 802.159 365.479C797.777 362.775 794.777 368.267 795.48 377.692ZM875.36 382.777C878.428 392.117 836.526 415.585 829.432 408.499C827.28 406.347 828.102 396.447 831.263 386.497C837.264 367.589 869.47 364.869 875.36 382.777ZM632.136 385.447C632.136 393.871 638.331 396.269 654.494 394.108C657.469 393.71 662.664 397.837 666.029 403.287C670.351 410.288 673.665 409.254 677.301 399.778C680.479 391.506 677.945 386.353 670.699 386.353C664.24 386.353 652.917 384.04 645.544 381.209C638.17 378.378 632.136 380.285 632.136 385.447ZM924.271 402.88C931.517 414.602 900.405 428.755 867.885 428.543L839.781 428.357L860.969 411.779C883.53 394.134 916.041 389.566 924.271 402.88ZM572.809 411.966C572.809 421.051 605.905 428.416 610.838 420.424C613.117 416.737 605.498 411.906 593.896 409.686C582.301 407.465 572.809 408.491 572.809 411.966ZM1221.97 413.067C1231.68 428.781 1199.84 445.587 1158.1 446.799C1120.89 447.867 1120.55 448.104 1149.04 453.156C1167.78 456.478 1179.64 463.826 1181.44 473.251C1184.87 491.159 1164.97 500.219 1137.38 493.295C1121.72 489.362 1117.51 482.989 1118.58 464.835C1120.71 428.637 1133.76 413.449 1166.08 409.576C1182.39 407.618 1200.29 405.406 1205.84 404.66C1211.39 403.914 1218.64 407.694 1221.97 413.067ZM854.706 437.205C916.863 478.522 945.341 580.454 921 674.513C907.549 726.484 904.43 794.345 915.923 784.802C922.957 778.971 931.831 782.624 945.205 796.854C958.333 810.83 984.14 821.67 1026.97 831.196C1069.27 840.603 1102.63 854.52 1129.93 874.149C1152.15 890.108 1188.33 912.754 1210.34 924.466C1232.35 936.188 1258.66 957.003 1268.82 970.733C1286.82 995.083 1287.89 995.371 1312.78 982.505C1345.86 965.402 1399.77 972.292 1489.8 1005.15C1529.3 1019.57 1553.56 1025.11 1548.04 1018.45C1536.21 1004.19 1552.47 996.167 1576.1 1004.59C1595.16 1011.39 1653.97 1117.86 1641.04 1122.18C1636.14 1123.81 1634.27 1128.64 1636.91 1132.9C1639.54 1137.16 1637.43 1140.65 1632.22 1140.65C1627.01 1140.65 1625.16 1144.56 1628.11 1149.34C1631.07 1154.11 1628.43 1156.98 1622.25 1155.7C1614.96 1154.18 1611.82 1160.49 1613.28 1173.72C1615.31 1192.12 1611.61 1190.4 1574.5 1155.68C1551.93 1134.58 1525.91 1114.91 1516.69 1111.98C1507.46 1109.06 1467.99 1116.21 1428.97 1127.89C1389.95 1139.57 1347.73 1149.13 1335.16 1149.13C1322.58 1149.13 1295.77 1154.96 1275.57 1162.09C1242.37 1173.8 1233.14 1173.72 1179.16 1161.21C1027.14 1125.99 1010.58 1120.47 974.504 1092.93C954.045 1077.31 938.238 1069.26 939.391 1075.05C942.73 1091.84 839.476 1102.43 793.167 1090.05C741.984 1076.37 667.325 1000.81 646.358 941.485C638.12 918.178 623.415 880.039 613.685 856.732C579.572 775.047 563.435 723.06 565.995 703.075C568.317 684.921 572.139 687.523 604.218 729.128C643.934 780.649 685.039 798.532 745.163 790.472C783.064 785.387 853.748 751.257 859.003 735.501C860.969 729.611 848.409 734.4 831.102 746.146C753.731 798.651 675.623 795.218 622.728 737.002C586.107 696.702 556.876 647.825 561.766 635.086C565.63 625.009 562.664 624.789 543.162 633.671C522.279 643.189 518.33 642.222 503.591 624.017C485.903 602.168 485.412 558.724 502.888 562.216C508.719 563.377 513.482 560.8 513.482 556.478C513.482 552.164 506.812 547.223 498.65 545.519C485.827 542.824 486.403 540.977 502.888 531.883C517.559 523.789 526.356 523.636 541.027 531.222C569.893 546.155 590.912 566.504 598.828 587.184C603.812 600.227 615.575 607.321 638.111 610.889C655.799 613.686 681.928 621.721 696.167 628.738C721.423 641.188 722.83 640.765 753.977 611.389C771.529 594.837 781.437 581.285 775.979 581.285C770.529 581.285 755.782 592.294 743.222 605.745C722.627 627.78 718.321 629.153 699.565 619.568C688.115 613.728 664.274 606.33 646.578 603.134C624.101 599.075 611.6 591.167 605.108 576.912C590.455 544.757 533.95 511.364 504.964 517.729C485.598 521.983 478.776 519.339 470.817 504.473C458.537 481.522 468.241 473.954 520.059 466.123C551.968 461.292 558.765 463.292 576.869 482.819C592.455 499.643 605.642 505.007 631.416 505.007C680.801 505.007 751.544 475.641 784.785 441.35C800.667 424.958 815.728 412.55 818.245 413.779C820.771 415.008 837.17 425.552 854.706 437.205ZM916.092 450.944C900.828 462.106 886.395 459.605 886.395 445.799C886.395 437.078 912.778 429.976 923.695 435.756C927.898 437.976 924.483 444.807 916.092 450.944ZM920.296 471.106C920.296 475.768 916.253 479.582 911.321 479.582C906.388 479.582 904.701 475.768 907.583 471.106C910.465 466.445 914.499 462.631 916.558 462.631C918.618 462.631 920.296 466.445 920.296 471.106ZM476.258 545.892C473.707 550.028 428.593 556.088 376.013 559.359C323.432 562.622 270.877 567.479 259.223 570.148C243.951 573.649 240.476 572.369 246.773 565.589C251.579 560.419 282.539 551.079 315.575 544.824C348.621 538.578 392.362 523.585 412.787 511.516L449.917 489.557L465.41 513.966C473.936 527.391 478.818 541.765 476.258 545.892ZM1127.76 497.99C1163.92 514.466 1136.73 546.146 1095.35 535.756C1069.66 529.306 1065.8 509.957 1087.68 497.21C1106.2 486.421 1102.2 486.345 1127.76 497.99ZM1191.51 523.831L1212.69 527.408L1188.67 537.459C1159.48 549.672 1149.21 544.672 1155.34 521.229C1157.88 511.525 1162.29 507.33 1165.14 511.915C1167.99 516.5 1179.85 521.856 1191.51 523.831ZM1097.39 550.545C1109.58 565.241 1100.72 589.76 1083.21 589.76C1075.91 589.76 1062.42 583.09 1053.21 574.929C1036.98 560.538 1036.78 560.665 1046.49 579.166C1056.69 598.6 1047.02 632.137 1031.21 632.137C1012.24 632.137 1005.04 608.66 1016.97 585.684C1036.45 548.121 1079.69 529.23 1097.39 550.545ZM1166.08 555.105L1187.27 561.139L1168.76 571.208C1139.62 587.065 1115.23 583.938 1115.23 564.334C1115.23 546.477 1127.76 544.197 1166.08 555.105ZM60.9524 589.777C61.9609 618.119 45.1544 623.619 18.0758 603.812C3.21864 592.947 3.4221 591.803 22.5763 578.386C51.2482 558.3 59.9269 560.885 60.9524 589.777ZM189.124 569.453C186.31 572.267 178.996 572.572 172.886 570.123C166.122 567.419 168.131 565.411 178.005 565.004C186.938 564.64 191.938 566.64 189.124 569.453ZM485.191 604.592C490.395 626.73 493.141 646.469 491.294 648.443C487.37 652.639 391.48 657.817 274.174 660.156C215.304 661.326 190.497 658.808 187.616 651.35C185.387 645.57 176.818 643.129 168.436 645.884C160.105 648.63 164.724 642.866 178.708 633.086L204.134 615.296L180.327 615.246C165.164 615.203 158.613 618.568 162.283 624.509C166.326 631.06 162.698 630.967 150.07 624.212C140.179 618.915 132.399 609.957 132.763 604.295C133.263 596.532 134.484 596.608 137.705 604.592C140.061 610.423 145.476 615.186 149.748 615.186C154.019 615.186 156.562 610.423 155.401 604.592C154.028 597.727 163.732 593.998 182.946 593.998C199.261 593.998 214.66 591.26 217.177 587.921C222.152 581.293 353.952 567.335 428.924 565.487L475.725 564.334L485.191 604.592ZM983.166 594.905C998.548 600.812 1001.16 628.306 987.149 636.959C981.971 640.163 974.546 637.637 970.665 631.349C966.774 625.06 961.257 622.246 958.409 625.102C955.553 627.95 964.884 638.595 979.131 648.74C1007.88 669.208 1012.56 682.989 990.76 682.989C972.69 682.989 937.247 650.206 937.247 633.493C937.247 626.535 943.925 614.076 952.078 605.804C970.012 587.625 966.969 588.692 983.166 594.905ZM1149.13 601.973C1149.13 620.153 1134.95 625.619 1104.9 619.017C1079.68 613.483 1079.02 612.406 1094.02 601.439C1115.13 586.006 1149.13 586.328 1149.13 601.973ZM1093.72 626.611C1122 647.299 1087.27 669.114 1056.78 649.816C1042.87 641.002 1050.28 615.186 1066.72 615.186C1072.98 615.186 1085.11 620.331 1093.72 626.611ZM1055.9 666.258C1055.9 678.285 1027.76 676.352 1009.61 663.089C1001.01 656.8 996.692 647.282 999.998 641.926C1006.91 630.738 1055.9 652.062 1055.9 666.258ZM714.821 959.825C720.677 962.19 723.313 967.606 720.677 971.869C718.042 976.132 719.932 979.624 724.864 979.624C729.797 979.624 733.84 973.903 733.84 966.911C733.84 959.919 727.169 954.503 719.008 954.867C710.058 955.274 708.397 957.24 714.821 959.825ZM877.92 1102.7C957.053 1102.92 972.105 1105.48 1013.79 1125.81C1039.57 1138.38 1086.69 1152.36 1118.51 1156.87C1150.32 1161.37 1177.95 1166.65 1179.9 1168.6C1181.85 1170.55 1162.69 1189.88 1137.31 1211.55C1085.06 1256.19 997.158 1289.27 956.638 1279.55C898.413 1265.58 825.695 1207.49 783.318 1141.11C755.528 1097.58 752.985 1084.93 774.097 1095.22C782.259 1099.19 828.975 1102.56 877.92 1102.7Z"/>
</mask>
<path fill-rule="evenodd" clip-rule="evenodd" d="M680.869 9.96571C668.054 16.8392 657.562 26.1535 657.562 30.6624C657.562 35.1712 651.434 38.8664 643.951 38.8664C636.467 38.8664 615.889 50.3081 598.235 64.2923C580.581 78.2765 562.868 89.769 558.876 89.8199C546.383 90.0063 513.482 147.808 513.482 169.564C513.482 201.473 528.941 235.722 540.205 228.764C545.595 225.433 547.832 226.213 545.188 230.493C530.941 253.546 529.56 353.596 542.857 399.329C550.561 425.823 555.681 448.24 554.24 449.147C542.823 456.3 449.434 469.598 445.163 464.674C426.788 443.485 277.377 208.55 272.496 193.176C263.995 166.403 253.485 170.089 247.307 202.016C244.375 217.17 220.983 261.673 195.328 300.922C137.662 389.142 120.101 445.265 125.695 523.441L129.831 581.285H97.8538C70.0549 581.285 66.4529 579.073 70.3091 564.334C75.5808 544.197 72.4618 543.74 35.3908 559.232C-1.79027 574.768 -8.45175 587.209 9.68537 607.245C20.0337 618.687 35.0688 623.458 59.2488 622.992C78.3352 622.627 89.192 620.398 83.361 618.051C62.4948 609.626 72.233 589.76 97.2266 589.76C119.712 589.76 122.152 592.837 127.382 627.704C130.509 648.57 136.654 667.852 141.027 670.555C145.392 673.259 161.715 702.905 177.293 736.434C192.87 769.97 216.813 808.847 230.492 822.831C269.038 862.224 394.828 963.427 394.828 955.054C394.828 950.935 358.537 918.381 314.186 882.709C234.747 818.814 205.38 783.641 179.25 721.127C163.622 683.709 163.529 682.989 174.386 682.989C179.005 682.989 193.709 707.092 207.066 736.552C225 776.115 243.264 799.939 276.92 827.662C301.981 848.316 340.671 883.31 362.893 905.439C385.124 927.56 403.286 942.815 403.261 939.341C403.193 928.263 352.002 877.852 296.642 834.349C256.876 803.1 237.374 780.2 220.966 745.528C187.276 674.31 190.777 669.733 276.36 673.123C316.44 674.708 359.088 671.776 372.801 666.487C387.48 660.826 416.703 659.198 445.358 662.436L493.319 667.869L473.165 745.35C424.508 932.399 418.067 953.85 411.753 949.943C400.566 943.027 396.048 966.775 402.752 997.329L409.1 1026.24L418.61 992.337C423.839 973.691 445.281 891.998 466.266 810.796C487.251 729.603 509.321 660.004 515.304 656.139C541.035 639.527 551.561 652.901 557.155 709.338C560.189 740.027 571.021 781.938 581.225 802.465C591.421 822.983 608.914 866.072 620.101 898.21C646.095 972.911 674.665 1021.42 711.973 1054.17C728.28 1068.49 746.942 1092.85 753.46 1108.3C784.581 1182.14 874.182 1264.3 947.578 1286.29C995.997 1300.8 1080.75 1271.17 1144.15 1217.55C1186.24 1181.97 1197.31 1176.56 1220.4 1180.31C1235.8 1182.81 1261.33 1178.87 1279.82 1171.15C1297.64 1163.7 1324.91 1157.6 1340.42 1157.6C1355.93 1157.6 1399 1148.01 1436.13 1136.27L1503.64 1114.95L1532.31 1131.86C1548.06 1141.15 1569.48 1160.29 1579.89 1174.37C1590.31 1188.45 1602.48 1199.98 1606.94 1199.98C1611.4 1199.98 1625.14 1184.01 1637.47 1164.47C1657.87 1132.17 1658.94 1126.36 1649.44 1100.07C1634.23 1058 1591.87 998.363 1572.94 992.354C1563.94 989.497 1548.92 991.26 1539.55 996.278C1526.47 1003.28 1510.18 1001.24 1469.31 987.455C1400.22 964.156 1335.62 957.52 1310.23 971.114C1293.28 980.183 1288.7 979.31 1277.05 964.809C1260.71 944.443 1127.14 856.537 1088.11 840.459C1072.72 834.128 1038.2 824.094 1011.38 818.178C950.604 804.753 917.72 768.75 921.906 720.22L924.534 689.845L991.692 686.65C1028.63 684.887 1061.05 680.124 1063.73 676.047C1066.42 671.979 1079.11 666.08 1091.92 662.944C1104.74 659.809 1115.23 653.401 1115.23 648.714C1115.23 644.028 1124.76 636.569 1136.42 632.137C1149.21 627.272 1157.6 617.407 1157.6 607.219C1157.6 597.947 1165.23 586.277 1174.55 581.285C1183.88 576.293 1191.51 568.352 1191.51 563.631C1191.51 551.427 1234.13 513.483 1247.83 513.483C1254.15 513.483 1259.31 506.16 1259.31 497.202C1259.31 485.701 1267.38 479.2 1286.85 475.039C1322.68 467.377 1337.07 455.224 1331.41 437.392C1327.93 426.433 1334.86 420.619 1360.52 412.923C1401.42 400.677 1411.13 387.548 1390.47 372.445C1373.34 359.919 1373.64 359.207 1402 344.435C1412.88 338.765 1420.25 332.586 1418.36 330.705C1416.48 328.823 1400.16 334.824 1382.09 344.028C1364.02 353.24 1330.92 363.216 1308.52 366.182C1286.11 369.157 1267.78 374.42 1267.78 377.878C1267.78 381.336 1285.89 380.726 1308.04 376.522C1350.6 368.445 1386.44 372.861 1386.44 386.184C1386.44 394.99 1308.85 420.178 1281.07 420.382C1271.44 420.458 1257.82 424.246 1250.83 428.806C1242.12 434.485 1250.8 435.408 1278.38 431.755C1312.44 427.247 1318.63 428.603 1318.63 440.553C1318.63 457.47 1307.2 462.436 1248.64 470.988C1224.21 474.547 1212.57 477.946 1222.79 478.522C1245.96 479.844 1256.9 495.964 1241.32 505.821C1234.9 509.898 1217.03 513.279 1201.62 513.356C1174.77 513.474 1174.12 512.728 1186.15 495.558C1193.06 485.701 1196.89 472.92 1194.67 467.148C1192.46 461.385 1200.68 450.096 1212.93 442.061C1227.4 432.586 1233.42 422.78 1230.08 414.11C1227.08 406.262 1232.28 393.922 1242.68 384.235C1259.78 368.301 1259.87 367.123 1245.2 350.918C1230.85 335.052 1230.81 333.654 1244.65 325.908C1262.66 315.839 1264 277.446 1246.59 270.767C1212.07 257.52 1248.2 228.899 1334.44 201.16C1424.69 172.14 1423.81 179.336 1329.45 242.451C1267.54 283.862 1256.59 300.126 1311.79 268.682C1337.6 253.986 1437.29 236.392 1437.29 246.545C1437.29 257.809 1341.81 310.254 1298.24 322.924C1271.48 330.705 1251.43 338.917 1253.68 341.172C1255.94 343.434 1281 338.765 1309.36 330.806C1340.53 322.068 1376.05 318.043 1399.12 320.644C1428.11 323.907 1437.29 322.111 1437.29 313.169C1437.29 304.135 1428.93 302.643 1401.27 306.762L1365.25 312.127L1407.08 281.802C1458.16 244.774 1475.11 220.483 1444.73 227.789C1433.64 230.459 1409.32 235.061 1390.67 238.027L1356.77 243.418L1403.39 200.736C1429.03 177.268 1445.95 157.936 1441 157.792C1436.04 157.639 1398.14 168.962 1356.77 182.946C1315.41 196.931 1278.45 208.372 1274.66 208.372C1270.88 208.372 1267.78 198.838 1267.78 187.184C1267.78 175.53 1265.71 165.996 1263.18 165.996C1260.65 165.996 1238.37 181.251 1213.68 199.897C1163.43 237.841 1157.6 239.883 1157.6 219.61C1157.6 207.194 1155.22 207.55 1138.53 222.484C1128.04 231.874 1096.12 255.639 1067.58 275.285C1039.03 294.939 1008.65 324.085 1000.05 340.061C989.709 359.249 981.555 366.25 976.004 360.699C970.453 355.147 974.097 347.74 986.768 338.866C997.311 331.484 1004.47 321.068 1002.69 315.729C1000.91 310.381 1008.35 299.024 1019.2 290.481C1030.07 281.938 1038.95 268.064 1038.95 259.648C1038.95 251.232 1044.76 239.527 1051.86 233.637C1058.95 227.747 1062.68 216.381 1060.14 208.372C1057.6 200.363 1061.32 188.998 1068.42 183.107C1084.78 169.53 1085.03 149.935 1068.94 143.757C1058.25 139.655 1058.44 136.087 1070.39 117.873C1084.45 96.4052 1080.85 88.8452 1051.66 78.5223C1046.2 76.59 1046.49 71.259 1052.47 63.555C1057.57 56.9697 1064.12 44.9093 1067.03 36.7476C1076.28 10.8048 1050.44 19.992 1001.07 60.2072L954.062 98.4986L914.55 58.9953C871.224 15.6611 844.756 5.72807 759.265 0.710694C721.55 -1.50136 696.828 1.41414 680.869 9.96571ZM769.86 13.9915C778.021 13.9067 789.463 13.6864 795.285 13.4999C835.645 12.1947 868.859 27.9248 909.575 67.6316C945.306 102.473 953.977 116.373 954.07 138.951C954.155 157.351 957.443 164.996 963.622 161.173C973.563 155.029 987.751 171.412 987.971 189.303C988.039 195.134 981.784 199.897 974.072 199.897C961.02 199.897 961.02 200.973 974.072 215.398C991.565 234.73 993.412 280.031 976.445 273.513C968.546 270.488 964.791 275.615 964.791 289.43C964.791 311.991 941.535 352.452 928.576 352.452C924.025 352.452 919.728 341.968 919.025 329.145L917.754 305.838L914.228 329.145C910.787 351.85 885.412 374.073 874.911 363.572C872.038 360.69 881.335 337.968 895.582 313.068C910.965 286.184 919.991 260.029 917.804 248.672C914.728 232.671 913.939 233.459 912.973 253.52C912.304 267.479 901.642 287.659 887.429 301.872C874.013 315.288 865.02 328.255 867.444 330.679C872.902 336.129 853.087 360.928 843.281 360.928C825.39 360.928 819.169 328.484 832.085 302.575C839.298 288.125 842.773 268.64 839.798 259.283C835.958 247.189 838.238 242.273 847.688 242.273C854.994 242.273 860.952 239.417 860.935 235.917C860.876 224.06 826.186 172.53 821.449 177.268C818.864 179.853 825.356 194.074 835.89 208.855C854.358 234.798 854.426 235.552 837.823 230.289C821.898 225.23 820.94 227.645 824.89 262.733C828.797 297.397 826.737 302.855 800.803 326.543C768.961 355.622 749.96 358.885 729.805 338.731C717.16 326.086 717.279 323.662 731.322 307.838C746.222 291.032 746.137 290.879 727.483 300.668C713.677 307.906 703.735 308.169 691.463 301.6C670.563 290.413 669.207 268.047 689.344 266.716C703.473 265.784 703.473 265.547 689.344 261.86C681.183 259.724 674.207 251.588 673.843 243.774C673.428 234.959 671.555 233.586 668.902 240.155C660.816 260.182 640.637 251.367 639.764 227.442L638.925 204.135L633.085 225.077L627.246 246.028L612.745 225.314C594.862 199.787 594.319 169.471 611.151 137.188C625.551 109.584 623.169 99.5495 606.88 119.178C591.472 137.739 586.005 202.473 597.955 224.797C603.523 235.197 621.118 249.155 637.052 255.817C668.766 269.072 676.352 293.125 648.815 293.125C638.874 293.125 628.348 285.065 623.924 274.056C619.711 263.563 616.016 259.758 615.719 265.58C614.982 280.243 602.091 278.819 585.513 262.241C576.411 253.139 573.377 241.146 576.775 227.628C580.64 212.22 579.216 208.652 571.182 213.618C546.281 229.001 530.695 222.636 525.508 194.973C519.838 164.75 527.093 132.095 539.476 132.095C543.824 132.095 547.383 126.281 547.383 119.17C547.383 112.068 556.918 102.626 568.571 98.1935C580.225 93.7609 589.76 86.2264 589.76 81.4548C589.76 76.6747 595.599 72.7676 602.735 72.7676C609.88 72.7676 617.915 67.0468 620.593 60.0547C623.279 53.0626 632.517 47.3417 641.137 47.3417C649.748 47.3417 666.724 37.4087 678.869 25.2636C696.879 7.25362 705.922 4.19404 727.983 8.66051C742.857 11.6692 761.698 14.0677 769.86 13.9915ZM716.889 41.9006C716.889 48.5537 711.694 55.995 705.354 58.4274C692.099 63.5126 680.682 98.1935 692.26 98.1935C696.48 98.1935 699.938 93.0659 699.938 86.7942C699.938 70.8183 730.899 44.5195 741.781 51.2488C746.739 54.3084 750.79 54.8169 750.79 52.3761C750.79 49.9352 743.162 43.8584 733.84 38.8664C720.567 31.7642 716.889 32.4252 716.889 41.9006ZM1044.43 61.3853C1009.47 127.594 962.672 158.732 962.672 115.788C962.672 102.126 1046.99 27.1282 1054.22 34.3661C1055.83 35.9764 1051.43 48.1299 1044.43 61.3853ZM873.623 89.9046C860.037 132.713 898.091 195.753 926.644 177.751C934.255 172.946 942.273 163.64 944.459 157.063C947.273 148.638 944.213 149.342 934.128 159.427C926.246 167.309 914.465 171.7 907.93 169.191C891.709 162.97 876.979 117.61 883.166 92.9473C889.319 68.4367 881.25 65.8602 873.623 89.9046ZM1056.27 123.094C1040.97 144.596 1003.96 174.471 992.633 174.471C973.131 174.471 1017.01 108.304 1043.19 98.2274C1069.77 87.9977 1074.66 97.2781 1056.27 123.094ZM896.141 115.568C894.912 136.4 907.931 157.521 921.991 157.521C925.72 157.521 928.771 153.707 928.771 149.045C928.771 144.384 923.305 140.57 916.618 140.57C909.871 140.57 902.905 130.205 900.938 117.263C897.455 94.2609 897.396 94.244 896.141 115.568ZM1071.26 163.767C1069.7 171.861 1052.26 187.396 1032.5 198.304C999.743 216.373 996.574 216.78 996.574 202.965C996.574 194.634 1007.07 179.234 1019.88 168.742C1048.36 145.418 1075.29 142.816 1071.26 163.767ZM1246.51 220.06C1238.68 236.57 1215.56 265.479 1195.12 284.311C1152.32 323.772 1155.08 328.484 1201.96 295.99C1227.13 278.548 1236.81 275.717 1244.6 283.506C1260.83 299.736 1241.68 320.263 1190.71 341.265C1145.65 359.826 1143.19 369.208 1187.84 352.24C1214.77 341.994 1242.36 348.681 1242.36 365.436C1242.36 380.65 1221.52 391.396 1178.12 398.583C1131.6 406.279 1115.69 389.523 1137.66 355.969C1152.37 333.518 1152.3 332.62 1134.53 320.822C1116.66 308.966 1116.61 308.22 1131.57 283.616C1146.16 259.622 1250.12 179.404 1257.31 186.599C1259.21 188.489 1254.35 203.55 1246.51 220.06ZM788.598 214.339C788.827 230.433 782.623 240.485 767.741 248.113C748.748 257.851 748.358 258.987 763.927 259.097C773.487 259.165 785.878 254.647 791.472 249.054C802.735 237.79 805.532 191.422 794.955 191.422C791.268 191.422 788.412 201.736 788.598 214.339ZM244.603 266.208C230.899 292.668 203.354 344.824 183.386 382.116C147.638 448.909 147.163 450.901 151.502 515.602C155.909 581.217 147.4 604.855 137.391 554.8C121.195 473.835 138.722 405.482 200.286 309.474C227.839 266.496 252.977 223.306 256.138 213.491C259.834 202.007 263.241 199.651 265.707 206.881C267.809 213.051 258.316 239.748 244.603 266.208ZM1055.9 216.627C1055.9 223.992 1013.03 250.749 1001.23 250.749C987.708 250.749 999.303 223.679 1015.64 217.11C1041.28 206.804 1055.9 206.635 1055.9 216.627ZM359.825 353.037C402.379 418.627 437.204 475.454 437.204 479.336C437.204 493.727 373.919 523.026 316.932 535.01C284.573 541.816 250.672 551.359 241.595 556.224C232.518 561.08 211.753 562.555 195.464 559.504C160.24 552.893 152.774 533.586 160.444 468.886C163.885 439.832 177.199 406.101 201.151 365.767C220.72 332.806 244.654 289.803 254.341 270.208C264.02 250.605 274.301 234.4 277.191 234.188C280.072 233.976 317.262 287.455 359.825 353.037ZM611.702 289.811C628.093 297.592 649.892 304.847 660.13 305.931C670.368 307.025 681.047 308.398 683.852 308.991C686.658 309.593 700.922 321.517 715.558 335.502C745.544 364.157 773.038 368.064 790.115 346.096C801.032 332.052 802.32 332.137 814.355 347.715C834.017 373.157 830.195 383.938 786.132 427.306C725.051 487.43 618.245 516.771 588.124 481.7C567.809 458.046 562.978 437.205 577.809 437.205C584.937 437.205 588.565 440.756 585.886 445.096C583.2 449.435 584.886 455.376 589.624 458.309C594.362 461.233 598.235 459.953 598.235 455.452C598.235 450.952 606.812 449.054 617.304 451.24C635.382 455.012 635.272 454.546 615.185 442.273C603.532 435.154 585.878 429.196 575.962 429.026C562.088 428.798 555.935 420.89 549.315 394.829C541.535 364.182 542.247 360.928 556.757 360.928C577.36 360.928 577.267 350.842 556.553 337.909C533.789 323.687 542.061 289.684 565.266 302.1C575.335 307.491 581.284 307.626 581.284 302.473C581.284 297.956 573.657 291.845 564.334 288.888C555.011 285.93 547.383 276.776 547.383 268.538C547.383 245.045 557.494 240.833 570.233 259.021C576.64 268.174 595.302 282.031 611.702 289.811ZM1140.65 247.884C1140.65 261.487 1085.41 337.798 1061.27 357.529C1046.66 369.479 1042.38 375.48 1051.76 370.877C1061.13 366.267 1076.03 354.52 1084.85 344.765C1103.63 324.018 1132.18 321.229 1132.18 340.146C1132.18 356.147 1092.99 393.854 1065.32 404.482C1054.19 408.754 1047.35 414.525 1050.13 417.305C1052.9 420.085 1069.25 414.051 1086.45 403.906C1107.52 391.472 1120.52 388.252 1126.29 394.024C1137.71 405.448 1120.74 425.34 1081.93 445.986L1051.66 462.097L1080.06 456.893C1104.62 452.401 1108.06 453.842 1105.42 467.504C1103.51 477.437 1089.8 487.108 1068.55 493.506C1049.93 499.117 1041.39 503.999 1049.54 504.355C1068.49 505.185 1069.22 535.239 1050.47 542.434C1042.82 545.367 1029.98 545.68 1021.94 543.129C1010.25 539.417 1008.1 542.578 1011.22 558.893C1016.71 587.633 997.26 596.702 978.86 573.979C963.986 555.596 963.884 555.596 961.164 572.962C956.502 602.804 941.62 595.625 938.857 562.199C936.526 534.078 938.975 529.357 960.028 521.356C1013.24 501.117 1025.98 468.928 1000.37 419.407C977.835 375.819 1003.64 329.416 1079.84 276.514C1127.72 243.282 1140.65 237.197 1140.65 247.884ZM1030.47 267.403C1030.47 274.666 1004.08 293.125 993.683 293.125C991.488 293.125 991.683 285.497 994.116 276.175C998.514 259.36 1030.47 251.647 1030.47 267.403ZM986.157 320.144C984.31 325.679 978.267 331.713 972.733 333.561C966.537 335.629 964.647 331.747 967.808 323.501C973.724 308.093 991.243 304.889 986.157 320.144ZM657.562 341.511C664.554 344.087 676.945 352.003 685.107 359.105C693.268 366.216 699.938 368.386 699.938 363.936C699.938 349.935 680.301 335.476 662.223 336.171C650.002 336.637 648.62 338.231 657.562 341.511ZM968.698 371.522C996.328 430.755 1006.2 462.589 1001.54 477.293C996.023 494.676 969.995 511.135 941.484 515.263C923.398 517.881 921.974 508.338 931.051 445.68C933.416 429.365 935.78 411.254 936.297 405.423C936.823 399.6 942.739 394.829 949.46 394.829C956.18 394.829 963.444 391.972 965.605 388.472C967.758 384.972 952.731 383.455 932.204 385.091C890.124 388.438 882.14 375.463 918.177 362.3C953.002 349.579 958.977 350.672 968.698 371.522ZM795.48 377.692C796.192 387.116 799.777 394.829 803.447 394.829C812.821 394.829 811.787 371.437 802.159 365.479C797.777 362.775 794.777 368.267 795.48 377.692ZM875.36 382.777C878.428 392.117 836.526 415.585 829.432 408.499C827.28 406.347 828.102 396.447 831.263 386.497C837.264 367.589 869.47 364.869 875.36 382.777ZM632.136 385.447C632.136 393.871 638.331 396.269 654.494 394.108C657.469 393.71 662.664 397.837 666.029 403.287C670.351 410.288 673.665 409.254 677.301 399.778C680.479 391.506 677.945 386.353 670.699 386.353C664.24 386.353 652.917 384.04 645.544 381.209C638.17 378.378 632.136 380.285 632.136 385.447ZM924.271 402.88C931.517 414.602 900.405 428.755 867.885 428.543L839.781 428.357L860.969 411.779C883.53 394.134 916.041 389.566 924.271 402.88ZM572.809 411.966C572.809 421.051 605.905 428.416 610.838 420.424C613.117 416.737 605.498 411.906 593.896 409.686C582.301 407.465 572.809 408.491 572.809 411.966ZM1221.97 413.067C1231.68 428.781 1199.84 445.587 1158.1 446.799C1120.89 447.867 1120.55 448.104 1149.04 453.156C1167.78 456.478 1179.64 463.826 1181.44 473.251C1184.87 491.159 1164.97 500.219 1137.38 493.295C1121.72 489.362 1117.51 482.989 1118.58 464.835C1120.71 428.637 1133.76 413.449 1166.08 409.576C1182.39 407.618 1200.29 405.406 1205.84 404.66C1211.39 403.914 1218.64 407.694 1221.97 413.067ZM854.706 437.205C916.863 478.522 945.341 580.454 921 674.513C907.549 726.484 904.43 794.345 915.923 784.802C922.957 778.971 931.831 782.624 945.205 796.854C958.333 810.83 984.14 821.67 1026.97 831.196C1069.27 840.603 1102.63 854.52 1129.93 874.149C1152.15 890.108 1188.33 912.754 1210.34 924.466C1232.35 936.188 1258.66 957.003 1268.82 970.733C1286.82 995.083 1287.89 995.371 1312.78 982.505C1345.86 965.402 1399.77 972.292 1489.8 1005.15C1529.3 1019.57 1553.56 1025.11 1548.04 1018.45C1536.21 1004.19 1552.47 996.167 1576.1 1004.59C1595.16 1011.39 1653.97 1117.86 1641.04 1122.18C1636.14 1123.81 1634.27 1128.64 1636.91 1132.9C1639.54 1137.16 1637.43 1140.65 1632.22 1140.65C1627.01 1140.65 1625.16 1144.56 1628.11 1149.34C1631.07 1154.11 1628.43 1156.98 1622.25 1155.7C1614.96 1154.18 1611.82 1160.49 1613.28 1173.72C1615.31 1192.12 1611.61 1190.4 1574.5 1155.68C1551.93 1134.58 1525.91 1114.91 1516.69 1111.98C1507.46 1109.06 1467.99 1116.21 1428.97 1127.89C1389.95 1139.57 1347.73 1149.13 1335.16 1149.13C1322.58 1149.13 1295.77 1154.96 1275.57 1162.09C1242.37 1173.8 1233.14 1173.72 1179.16 1161.21C1027.14 1125.99 1010.58 1120.47 974.504 1092.93C954.045 1077.31 938.238 1069.26 939.391 1075.05C942.73 1091.84 839.476 1102.43 793.167 1090.05C741.984 1076.37 667.325 1000.81 646.358 941.485C638.12 918.178 623.415 880.039 613.685 856.732C579.572 775.047 563.435 723.06 565.995 703.075C568.317 684.921 572.139 687.523 604.218 729.128C643.934 780.649 685.039 798.532 745.163 790.472C783.064 785.387 853.748 751.257 859.003 735.501C860.969 729.611 848.409 734.4 831.102 746.146C753.731 798.651 675.623 795.218 622.728 737.002C586.107 696.702 556.876 647.825 561.766 635.086C565.63 625.009 562.664 624.789 543.162 633.671C522.279 643.189 518.33 642.222 503.591 624.017C485.903 602.168 485.412 558.724 502.888 562.216C508.719 563.377 513.482 560.8 513.482 556.478C513.482 552.164 506.812 547.223 498.65 545.519C485.827 542.824 486.403 540.977 502.888 531.883C517.559 523.789 526.356 523.636 541.027 531.222C569.893 546.155 590.912 566.504 598.828 587.184C603.812 600.227 615.575 607.321 638.111 610.889C655.799 613.686 681.928 621.721 696.167 628.738C721.423 641.188 722.83 640.765 753.977 611.389C771.529 594.837 781.437 581.285 775.979 581.285C770.529 581.285 755.782 592.294 743.222 605.745C722.627 627.78 718.321 629.153 699.565 619.568C688.115 613.728 664.274 606.33 646.578 603.134C624.101 599.075 611.6 591.167 605.108 576.912C590.455 544.757 533.95 511.364 504.964 517.729C485.598 521.983 478.776 519.339 470.817 504.473C458.537 481.522 468.241 473.954 520.059 466.123C551.968 461.292 558.765 463.292 576.869 482.819C592.455 499.643 605.642 505.007 631.416 505.007C680.801 505.007 751.544 475.641 784.785 441.35C800.667 424.958 815.728 412.55 818.245 413.779C820.771 415.008 837.17 425.552 854.706 437.205ZM916.092 450.944C900.828 462.106 886.395 459.605 886.395 445.799C886.395 437.078 912.778 429.976 923.695 435.756C927.898 437.976 924.483 444.807 916.092 450.944ZM920.296 471.106C920.296 475.768 916.253 479.582 911.321 479.582C906.388 479.582 904.701 475.768 907.583 471.106C910.465 466.445 914.499 462.631 916.558 462.631C918.618 462.631 920.296 466.445 920.296 471.106ZM476.258 545.892C473.707 550.028 428.593 556.088 376.013 559.359C323.432 562.622 270.877 567.479 259.223 570.148C243.951 573.649 240.476 572.369 246.773 565.589C251.579 560.419 282.539 551.079 315.575 544.824C348.621 538.578 392.362 523.585 412.787 511.516L449.917 489.557L465.41 513.966C473.936 527.391 478.818 541.765 476.258 545.892ZM1127.76 497.99C1163.92 514.466 1136.73 546.146 1095.35 535.756C1069.66 529.306 1065.8 509.957 1087.68 497.21C1106.2 486.421 1102.2 486.345 1127.76 497.99ZM1191.51 523.831L1212.69 527.408L1188.67 537.459C1159.48 549.672 1149.21 544.672 1155.34 521.229C1157.88 511.525 1162.29 507.33 1165.14 511.915C1167.99 516.5 1179.85 521.856 1191.51 523.831ZM1097.39 550.545C1109.58 565.241 1100.72 589.76 1083.21 589.76C1075.91 589.76 1062.42 583.09 1053.21 574.929C1036.98 560.538 1036.78 560.665 1046.49 579.166C1056.69 598.6 1047.02 632.137 1031.21 632.137C1012.24 632.137 1005.04 608.66 1016.97 585.684C1036.45 548.121 1079.69 529.23 1097.39 550.545ZM1166.08 555.105L1187.27 561.139L1168.76 571.208C1139.62 587.065 1115.23 583.938 1115.23 564.334C1115.23 546.477 1127.76 544.197 1166.08 555.105ZM60.9524 589.777C61.9609 618.119 45.1544 623.619 18.0758 603.812C3.21864 592.947 3.4221 591.803 22.5763 578.386C51.2482 558.3 59.9269 560.885 60.9524 589.777ZM189.124 569.453C186.31 572.267 178.996 572.572 172.886 570.123C166.122 567.419 168.131 565.411 178.005 565.004C186.938 564.64 191.938 566.64 189.124 569.453ZM485.191 604.592C490.395 626.73 493.141 646.469 491.294 648.443C487.37 652.639 391.48 657.817 274.174 660.156C215.304 661.326 190.497 658.808 187.616 651.35C185.387 645.57 176.818 643.129 168.436 645.884C160.105 648.63 164.724 642.866 178.708 633.086L204.134 615.296L180.327 615.246C165.164 615.203 158.613 618.568 162.283 624.509C166.326 631.06 162.698 630.967 150.07 624.212C140.179 618.915 132.399 609.957 132.763 604.295C133.263 596.532 134.484 596.608 137.705 604.592C140.061 610.423 145.476 615.186 149.748 615.186C154.019 615.186 156.562 610.423 155.401 604.592C154.028 597.727 163.732 593.998 182.946 593.998C199.261 593.998 214.66 591.26 217.177 587.921C222.152 581.293 353.952 567.335 428.924 565.487L475.725 564.334L485.191 604.592ZM983.166 594.905C998.548 600.812 1001.16 628.306 987.149 636.959C981.971 640.163 974.546 637.637 970.665 631.349C966.774 625.06 961.257 622.246 958.409 625.102C955.553 627.95 964.884 638.595 979.131 648.74C1007.88 669.208 1012.56 682.989 990.76 682.989C972.69 682.989 937.247 650.206 937.247 633.493C937.247 626.535 943.925 614.076 952.078 605.804C970.012 587.625 966.969 588.692 983.166 594.905ZM1149.13 601.973C1149.13 620.153 1134.95 625.619 1104.9 619.017C1079.68 613.483 1079.02 612.406 1094.02 601.439C1115.13 586.006 1149.13 586.328 1149.13 601.973ZM1093.72 626.611C1122 647.299 1087.27 669.114 1056.78 649.816C1042.87 641.002 1050.28 615.186 1066.72 615.186C1072.98 615.186 1085.11 620.331 1093.72 626.611ZM1055.9 666.258C1055.9 678.285 1027.76 676.352 1009.61 663.089C1001.01 656.8 996.692 647.282 999.998 641.926C1006.91 630.738 1055.9 652.062 1055.9 666.258ZM714.821 959.825C720.677 962.19 723.313 967.606 720.677 971.869C718.042 976.132 719.932 979.624 724.864 979.624C729.797 979.624 733.84 973.903 733.84 966.911C733.84 959.919 727.169 954.503 719.008 954.867C710.058 955.274 708.397 957.24 714.821 959.825ZM877.92 1102.7C957.053 1102.92 972.105 1105.48 1013.79 1125.81C1039.57 1138.38 1086.69 1152.36 1118.51 1156.87C1150.32 1161.37 1177.95 1166.65 1179.9 1168.6C1181.85 1170.55 1162.69 1189.88 1137.31 1211.55C1085.06 1256.19 997.158 1289.27 956.638 1279.55C898.413 1265.58 825.695 1207.49 783.318 1141.11C755.528 1097.58 752.985 1084.93 774.097 1095.22C782.259 1099.19 828.975 1102.56 877.92 1102.7Z" stroke="black" stroke-width="16.9506" mask="url(#path-1-inside-1_1450_950)"/>
</svg>
