<svg width="309" height="78" viewBox="0 0 309 78" fill="none" xmlns="http://www.w3.org/2000/svg">
<path d="M13.0877 77.7655C8.97961 77.7655 5.68747 76.5274 3.21134 74.0513C1.46679 72.3067 0.594512 70.3652 0.594512 68.2267C0.594512 65.7506 1.69189 63.3307 3.88665 60.9672C6.75671 57.8157 11.512 54.3547 18.1526 50.5843L34.8665 41.1299C34.7539 40.2295 34.557 39.3291 34.2756 38.4287C34.0505 37.472 33.7691 36.459 33.4314 35.3898C33.4877 35.6712 32.4748 37.1906 30.3925 39.9481C27.9164 43.0996 25.9186 44.5628 24.3992 44.3377C22.5984 44.0563 21.6979 42.7901 21.6979 40.539C21.6979 37.1062 23.2737 33.3076 26.4251 29.1432C29.8017 24.7537 33.2063 22.5589 36.6392 22.5589C37.7647 22.5589 38.8058 22.8403 39.7625 23.4031C40.7754 23.9095 41.2819 24.7255 41.2819 25.8511C41.2819 27.1454 40.7473 27.877 39.6781 28.0458C40.0157 27.4831 40.1845 26.9203 40.1845 26.3575C40.1845 25.1195 39.4811 24.5004 38.0742 24.5004C36.7236 24.5004 35.2604 25.1757 33.6847 26.5264C29.8579 29.7904 27.0441 33.6453 25.2433 38.091C24.6243 39.6105 24.3148 40.736 24.3148 41.4676C24.3148 42.1992 24.568 42.565 25.0745 42.565C25.6372 42.565 26.6221 41.9178 28.029 40.6235C28.9857 39.723 31.0679 36.9937 34.2756 32.4353C35.1197 31.2535 35.795 30.6626 36.3015 30.6626C36.7517 30.6626 36.9768 31.1691 36.9768 32.1821C36.9768 32.9137 36.9487 33.6171 36.8924 34.2924C36.8924 34.9677 36.8924 35.6149 36.8924 36.2339C36.8924 37.472 36.9487 38.6538 37.0612 39.7793C37.7928 39.3291 38.5807 38.7664 39.4248 38.091C40.3252 37.4157 41.2538 36.6279 42.2105 35.7275C42.7732 35.221 43.1672 34.9677 43.3923 34.9677C43.5048 34.9677 43.5611 35.024 43.5611 35.1366C43.5611 35.5305 43.1672 36.1214 42.3793 36.9092C41.8165 37.5283 41.085 38.2317 40.1845 39.0196C39.3404 39.7512 38.3274 40.5953 37.1456 41.552C37.3707 43.3528 37.4833 45.1255 37.4833 46.8701C37.4833 56.4932 34.7539 64.2312 29.2952 70.0838C24.568 75.2049 19.1655 77.7655 13.0877 77.7655ZM11.0618 75.4019C14.1007 75.4019 17.0552 74.7829 19.9252 73.5448C23.6395 72.1379 26.819 69.9994 29.464 67.1294C33.6284 62.6273 35.7106 56.8027 35.7106 49.6557C35.7106 48.5302 35.6543 47.3765 35.5418 46.1948C35.4855 45.0692 35.3448 43.8874 35.1197 42.6494C19.475 51.8786 9.62678 58.688 5.57492 63.0775C3.43644 65.3848 2.3672 67.5514 2.3672 69.5774C2.3672 70.7591 2.84554 71.8847 3.80223 72.9539C5.43423 74.5859 7.85409 75.4019 11.0618 75.4019ZM51.0581 21.6304C50.6079 21.6304 50.1295 21.546 49.623 21.3771C49.1728 21.152 48.9477 20.9551 48.9477 20.7862C48.9477 20.6737 48.9759 20.5893 49.0321 20.533C51.0018 18.901 52.6338 18.085 53.9281 18.085C54.2658 18.085 54.4346 18.1975 54.4346 18.4226C54.4346 18.7603 54.0688 19.3231 53.3372 20.1109C52.6057 20.8988 52.0148 21.3771 51.5646 21.546C51.5083 21.546 51.4239 21.5741 51.3113 21.6304C51.255 21.6304 51.1706 21.6304 51.0581 21.6304ZM47.0906 43.9156C45.2898 43.9156 44.3894 42.3399 44.3894 39.1884V38.1755C44.3894 37.8378 44.4175 37.472 44.4738 37.0781C44.5864 36.3465 44.7552 35.4461 44.9803 34.3768C45.2054 33.3076 45.5149 32.0414 45.9088 30.5782L47.2595 25.7666C47.3157 25.3727 47.8785 25.1757 48.9477 25.1757C50.2421 25.1757 50.8892 25.4853 50.8892 26.1043C50.8892 26.8359 50.6923 27.6237 50.2984 28.4679C49.8481 29.6497 49.3417 30.2687 48.7789 30.325C48.4975 30.4375 48.0755 32.8574 47.5127 37.5846C47.4001 38.3724 47.3439 38.9915 47.3439 39.4417C47.3439 41.1862 47.7941 42.0585 48.6945 42.0585C49.3698 42.0585 50.2702 41.5801 51.3957 40.6235L56.545 36.3184C56.7701 36.1495 56.9389 36.1214 57.0514 36.2339C57.2203 36.2902 57.2484 36.459 57.1359 36.7404C56.1792 38.2036 54.4065 39.8919 51.8178 41.8052C49.9044 43.2121 48.3287 43.9156 47.0906 43.9156ZM55.5828 46.2792C53.4443 46.2792 52.3751 45.829 52.3751 44.9286C52.3751 43.8593 53.2755 43.2684 55.0763 43.1559C57.4399 43.0433 60.3662 42.7619 63.8553 42.3117C64.3055 41.5801 64.5306 40.933 64.5306 40.3702C64.5306 39.4698 63.8835 38.4568 62.5891 37.3313C59.494 34.6301 57.9464 32.0414 57.9464 29.5653C57.9464 28.7211 58.1433 27.9333 58.5373 27.2017C60.4506 23.9377 62.8142 22.3057 65.628 22.3057C66.8098 22.3057 67.8228 22.6152 68.6669 23.2342C69.511 23.8533 69.9331 24.5286 69.9331 25.2602C69.9331 25.4853 69.8768 25.7104 69.7643 25.9355C69.708 26.1043 69.6236 26.1887 69.511 26.1887C69.3985 26.1887 69.2578 26.0199 69.089 25.6822C68.9764 24.7255 68.4418 24.2472 67.4851 24.2472C66.0782 24.2472 64.615 25.0069 63.0956 26.5264C61.6324 28.1021 60.9008 29.5934 60.9008 31.0003C60.9008 32.2384 61.7168 33.8422 63.3488 35.8119C64.9808 37.7252 65.7968 39.1603 65.7968 40.117C65.7968 40.5672 65.6562 41.1299 65.3748 41.8052C66.1064 41.4676 67.0068 40.9892 68.076 40.3702C69.2015 39.7512 70.524 38.9915 72.0435 38.091C72.2123 38.2036 71.5651 38.907 70.1019 40.2014L64.6995 43.4091C64.2493 44.197 63.0675 44.8723 61.1541 45.435C59.4095 45.9978 57.5524 46.2792 55.5828 46.2792ZM78.2261 45.013C76.5378 45.013 75.1309 44.5065 74.0054 43.4935C72.8799 42.4243 72.3171 40.6235 72.3171 38.091C72.3171 37.4157 72.3734 36.6841 72.486 35.8963C72.9924 33.0262 74.1742 30.2968 76.0313 27.7082C78.3386 24.5567 80.7304 22.981 83.2065 22.981C84.5008 22.981 85.7108 23.3468 86.8363 24.0784C87.9618 24.7537 88.5246 25.7666 88.5246 27.1173C88.5246 28.6367 87.9055 30.2124 86.6675 31.8444H88.3557C88.6371 31.8444 88.8059 31.8726 88.8622 31.9288C88.8622 32.2665 87.8211 32.6323 85.7389 33.0262C84.5008 34.4331 83.5723 35.1366 82.9533 35.1366C82.8407 35.1366 82.7844 35.0803 82.7844 34.9677C82.7844 35.024 83.2065 34.4613 84.0506 33.2795C83.3191 33.2795 82.3342 33.3357 81.0962 33.4483C79.9144 33.5046 78.4793 33.6453 76.7911 33.8704C76.172 35.5586 75.8625 37.1344 75.8625 38.5975C75.8625 40.4546 76.369 41.8052 77.382 42.6494C78.001 43.2121 78.7607 43.4935 79.6611 43.4935C79.83 43.4935 79.9988 43.4935 80.1676 43.4935C80.3364 43.4935 80.5053 43.4654 80.6741 43.4091C84.2757 42.7901 87.7648 40.7079 91.1414 37.1625C91.4228 36.7686 91.6479 36.7123 91.8167 36.9937C91.873 37.0499 91.9011 37.1344 91.9011 37.2469C91.9011 37.472 91.7323 37.7534 91.3946 38.091C90.2128 39.6105 88.3557 41.1018 85.8233 42.565C83.0095 44.197 80.4771 45.013 78.2261 45.013ZM77.6352 32.0977C78.4231 32.0414 79.436 32.0133 80.6741 32.0133L84.8948 31.9288C85.5138 30.6908 85.9077 29.7059 86.0766 28.9744C86.2454 28.2428 86.3298 27.6519 86.3298 27.2017C86.3298 26.0199 85.8796 25.429 84.9792 25.429C83.8537 25.429 82.6156 26.1043 81.265 27.4549C80.4771 28.2428 79.7737 29.0306 79.1546 29.8185C78.5356 30.5501 78.0291 31.3098 77.6352 32.0977ZM96.4265 44.4221C93.6127 44.4221 92.2058 42.4524 92.2058 38.5131C92.2058 36.8811 92.459 34.827 92.9655 32.3509H92.7123C92.3183 32.3509 92.1214 32.2102 92.1214 31.9288C92.1214 31.4786 92.6279 30.6908 93.6408 29.5653C96.9611 15.5526 101.407 6.2108 106.978 1.53991C108.216 0.526944 109.511 0.0204619 110.861 0.0204619C112.718 0.0204619 113.647 0.977151 113.647 2.89053C113.647 7.05494 111.649 11.7821 107.653 17.072C105.402 19.8858 101.801 23.7688 96.8485 28.7211C95.5542 33.1106 94.907 36.5997 94.907 39.1884C94.907 41.6646 95.7512 42.9026 97.4394 42.9026C98.7338 42.9026 100.281 42.3961 102.082 41.3832C103.883 40.3702 105.29 39.2166 106.303 37.9222C106.697 37.4157 107.006 37.1625 107.231 37.1625C107.344 37.1625 107.4 37.275 107.4 37.5001C107.4 38.1192 107.231 38.6257 106.894 39.0196C105.881 40.2014 104.333 41.355 102.251 42.4806C99.8312 43.7749 97.8896 44.4221 96.4265 44.4221ZM97.1018 26.864C100.141 24.0502 103.208 20.5049 106.303 16.2279C110.242 10.7691 112.268 6.54845 112.381 3.56584V3.3126C112.381 1.96198 111.987 1.28667 111.199 1.28667C110.242 1.28667 109.145 2.07453 107.907 3.65025C107.119 4.60694 106.218 5.9857 105.206 7.78652C104.193 9.53107 103.067 11.754 101.829 14.4552C100.703 16.9313 99.7467 19.2105 98.9589 21.2927C98.171 23.3186 97.552 25.1757 97.1018 26.864ZM110.44 44.4221C107.627 44.4221 106.22 42.4524 106.22 38.5131C106.22 36.8811 106.473 34.827 106.98 32.3509H106.726C106.332 32.3509 106.135 32.2102 106.135 31.9288C106.135 31.4786 106.642 30.6908 107.655 29.5653C110.975 15.5526 115.421 6.2108 120.992 1.53991C122.23 0.526944 123.525 0.0204619 124.875 0.0204619C126.732 0.0204619 127.661 0.977151 127.661 2.89053C127.661 7.05494 125.663 11.7821 121.667 17.072C119.416 19.8858 115.815 23.7688 110.863 28.7211C109.568 33.1106 108.921 36.5997 108.921 39.1884C108.921 41.6646 109.765 42.9026 111.453 42.9026C112.748 42.9026 114.295 42.3961 116.096 41.3832C117.897 40.3702 119.304 39.2166 120.317 37.9222C120.711 37.4157 121.02 37.1625 121.245 37.1625C121.358 37.1625 121.414 37.275 121.414 37.5001C121.414 38.1192 121.245 38.6257 120.908 39.0196C119.895 40.2014 118.347 41.355 116.265 42.4806C113.845 43.7749 111.904 44.4221 110.44 44.4221ZM111.116 26.864C114.155 24.0502 117.222 20.5049 120.317 16.2279C124.256 10.7691 126.282 6.54845 126.395 3.56584V3.3126C126.395 1.96198 126.001 1.28667 125.213 1.28667C124.256 1.28667 123.159 2.07453 121.921 3.65025C121.133 4.60694 120.232 5.9857 119.219 7.78652C118.207 9.53107 117.081 11.754 115.843 14.4552C114.717 16.9313 113.761 19.2105 112.973 21.2927C112.185 23.3186 111.566 25.1757 111.116 26.864ZM125.214 45.013C123.526 45.013 122.119 44.5065 120.994 43.4935C119.868 42.4243 119.305 40.6235 119.305 38.091C119.305 37.4157 119.362 36.6841 119.474 35.8963C119.981 33.0262 121.162 30.2968 123.019 27.7082C125.327 24.5567 127.718 22.981 130.195 22.981C131.489 22.981 132.699 23.3468 133.824 24.0784C134.95 24.7537 135.513 25.7666 135.513 27.1173C135.513 28.6367 134.894 30.2124 133.656 31.8444H135.344C135.625 31.8444 135.794 31.8726 135.85 31.9288C135.85 32.2665 134.809 32.6323 132.727 33.0262C131.489 34.4331 130.56 35.1366 129.941 35.1366C129.829 35.1366 129.773 35.0803 129.773 34.9677C129.773 35.024 130.195 34.4613 131.039 33.2795C130.307 33.2795 129.322 33.3357 128.084 33.4483C126.902 33.5046 125.467 33.6453 123.779 33.8704C123.16 35.5586 122.851 37.1344 122.851 38.5975C122.851 40.4546 123.357 41.8052 124.37 42.6494C124.989 43.2121 125.749 43.4935 126.649 43.4935C126.818 43.4935 126.987 43.4935 127.156 43.4935C127.325 43.4935 127.493 43.4654 127.662 43.4091C131.264 42.7901 134.753 40.7079 138.129 37.1625C138.411 36.7686 138.636 36.7123 138.805 36.9937C138.861 37.0499 138.889 37.1344 138.889 37.2469C138.889 37.472 138.72 37.7534 138.383 38.091C137.201 39.6105 135.344 41.1018 132.811 42.565C129.998 44.197 127.465 45.013 125.214 45.013ZM124.623 32.0977C125.411 32.0414 126.424 32.0133 127.662 32.0133L131.883 31.9288C132.502 30.6908 132.896 29.7059 133.065 28.9744C133.233 28.2428 133.318 27.6519 133.318 27.2017C133.318 26.0199 132.868 25.429 131.967 25.429C130.842 25.429 129.604 26.1043 128.253 27.4549C127.465 28.2428 126.762 29.0306 126.143 29.8185C125.524 30.5501 125.017 31.3098 124.623 32.0977ZM167.438 41.1299C166.763 41.1299 166.481 40.8204 166.594 40.2014L168.536 32.6042C166.003 32.7167 163.358 32.8855 160.601 33.1106C160.207 33.1106 160.01 32.7167 160.01 31.9288C160.01 30.9159 160.432 30.4094 161.276 30.4094H162.88C163.499 30.4094 164.259 30.4375 165.159 30.4938L167.523 30.5782H169.126L171.068 22.3901C171.237 21.6022 171.631 21.2083 172.25 21.2083C172.7 21.2083 172.841 21.5178 172.672 22.1369C172.447 22.9247 172.193 24.0502 171.912 25.5134C171.631 26.9203 171.321 28.6086 170.984 30.5782H178.243C178.918 30.5782 179.256 30.8596 179.256 31.4224C179.256 31.9851 177.962 32.2946 175.373 32.3509C174.585 32.4072 173.797 32.4353 173.009 32.4353H170.646C170.421 33.392 170.224 34.5175 170.055 35.8119L169.295 40.2014C169.183 40.8204 168.564 41.1299 167.438 41.1299ZM195.572 44.1688C195.009 44.1688 194.756 43.8874 194.812 43.3247C194.981 42.5931 195.178 41.4957 195.403 40.0326C195.628 38.5131 195.881 36.5716 196.163 34.208C196.275 33.1388 196.388 32.1821 196.5 31.3379C196.613 30.4375 196.697 29.6215 196.753 28.8899L197.007 25.7666C197.063 25.1476 197.429 24.613 198.104 24.1628C198.836 23.7126 199.567 23.4875 200.299 23.4875C201.312 23.4875 201.678 23.9095 201.396 24.7537L200.214 29.1432C199.933 29.9311 199.68 30.747 199.455 31.5912C199.23 32.4353 198.976 33.3076 198.695 34.208C200.102 31.7882 201.79 29.509 203.76 27.3705C205.955 25.1195 207.587 23.994 208.656 23.994C210.006 23.994 210.963 24.7537 211.526 26.2731C212.145 27.7363 212.173 28.4679 211.61 28.4679C211.498 28.4679 211.301 28.2428 211.019 27.7926C210.513 26.7796 209.809 26.2731 208.909 26.2731C206.658 26.2731 203.872 28.7774 200.552 33.7859C198.695 36.5997 197.288 39.8356 196.331 43.4935C196.219 43.9437 195.966 44.1688 195.572 44.1688ZM212.12 44.3377C210.319 44.0563 209.419 42.7901 209.419 40.539C209.419 37.1062 210.995 33.3076 214.146 29.1432C217.41 24.7537 220.787 22.5589 224.276 22.5589C225.457 22.5589 226.527 22.8403 227.483 23.4031C228.496 23.9095 229.003 24.7255 229.003 25.8511C229.003 27.1454 228.468 27.877 227.399 28.0458C227.737 27.4831 227.905 26.9203 227.905 26.3575C227.905 25.1195 227.202 24.5004 225.795 24.5004C224.444 24.5004 222.981 25.1757 221.406 26.5264C217.523 29.8466 214.681 33.7015 212.88 38.091C212.317 39.4417 212.036 40.5672 212.036 41.4676C212.036 42.1992 212.289 42.565 212.795 42.565C213.358 42.565 214.343 41.9178 215.75 40.6235C216.707 39.723 218.789 36.9937 221.996 32.4353C222.841 31.2535 223.516 30.6626 224.022 30.6626C224.473 30.6626 224.698 31.8444 224.698 34.208V38.9352C225.204 41.4113 226.076 42.6494 227.315 42.6494C227.99 42.6494 228.806 42.4243 229.763 41.9741C230.775 41.4676 231.76 40.6797 232.717 39.6105L234.236 38.0066C234.405 37.9504 234.602 38.0629 234.827 38.3443C234.602 38.9633 233.617 40.0044 231.873 41.4676C229.678 43.3247 227.652 44.2532 225.795 44.2532C225.289 44.2532 224.782 44.1688 224.276 44C222.812 43.4935 221.856 41.9178 221.406 39.2728C221.293 38.5412 221.18 37.9222 221.068 37.4157C221.012 36.9092 220.984 36.4872 220.984 36.1495C220.984 35.9807 220.984 35.84 220.984 35.7275C220.646 36.4028 219.661 37.8097 218.029 39.9481C215.609 43.0996 213.64 44.5628 212.12 44.3377ZM237.322 61.7269C236.14 61.7269 235.015 61.3048 233.946 60.4607C232.651 59.3352 231.92 57.9564 231.751 56.3244C231.695 55.9305 231.666 55.5365 231.666 55.1426V53.9608C231.666 50.1341 232.342 45.0974 233.692 38.8508C234.199 36.3184 234.705 34.0392 235.212 32.0133C235.775 29.9873 236.337 28.1584 236.9 26.5264C236.731 26.5826 236.478 26.6108 236.14 26.6108C235.409 26.6108 234.846 26.4419 234.452 26.1043C234.058 25.7666 233.861 25.429 233.861 25.0913C233.861 24.81 234.002 24.6693 234.283 24.6693C234.733 24.6693 235.296 24.613 235.972 24.5004C236.647 24.3879 237.125 24.3316 237.407 24.3316C239.939 17.7473 241.965 13.1046 243.484 10.4033C247.03 4.04418 250.631 0.864598 254.289 0.864598C254.908 0.864598 255.527 0.949012 256.146 1.11784C257.497 1.56805 258.172 2.46846 258.172 3.81908C258.172 4.83204 257.778 5.50735 256.991 5.84501C257.103 5.3948 257.159 5.02901 257.159 4.74763C257.159 3.34073 256.428 2.69356 254.965 2.80611C252.432 2.86239 249.421 5.84501 245.932 11.754C244.638 13.8924 243.484 16.0309 242.471 18.1694C241.515 20.2516 240.699 22.2775 240.023 24.2472H247.452C247.902 24.2472 248.127 24.3316 248.127 24.5004C248.127 24.7255 247.621 24.9506 246.608 25.1757C243.906 25.8511 241.515 26.1887 239.433 26.1887C237.857 30.128 236.591 35.5868 235.634 42.565C235.071 47.067 234.79 50.3873 234.79 52.5258C234.79 56.4088 235.437 58.9975 236.731 60.2918C237.013 60.5169 237.378 60.7421 237.829 60.9672C238.223 61.2485 238.42 61.4174 238.42 61.4736C238.42 61.6425 238.054 61.7269 237.322 61.7269ZM247.567 44.3377C245.766 44.0563 244.866 42.7901 244.866 40.539C244.866 37.1062 246.442 33.3076 249.593 29.1432C252.857 24.7537 256.234 22.5589 259.723 22.5589C260.905 22.5589 261.974 22.8403 262.931 23.4031C263.943 23.9095 264.45 24.7255 264.45 25.8511C264.45 27.1454 263.915 27.877 262.846 28.0458C263.184 27.4831 263.353 26.9203 263.353 26.3575C263.353 25.1195 262.649 24.5004 261.242 24.5004C259.892 24.5004 258.428 25.1757 256.853 26.5264C252.97 29.8466 250.128 33.7015 248.327 38.091C247.764 39.4417 247.483 40.5672 247.483 41.4676C247.483 42.1992 247.736 42.565 248.243 42.565C248.805 42.565 249.79 41.9178 251.197 40.6235C252.154 39.723 254.236 36.9937 257.444 32.4353C258.288 31.2535 258.963 30.6626 259.47 30.6626C259.92 30.6626 260.145 31.8444 260.145 34.208V38.9352C260.651 41.4113 261.524 42.6494 262.762 42.6494C263.437 42.6494 264.253 42.4243 265.21 41.9741C266.223 41.4676 267.207 40.6797 268.164 39.6105L269.684 38.0066C269.852 37.9504 270.049 38.0629 270.275 38.3443C270.049 38.9633 269.065 40.0044 267.32 41.4676C265.125 43.3247 263.099 44.2532 261.242 44.2532C260.736 44.2532 260.229 44.1688 259.723 44C258.26 43.4935 257.303 41.9178 256.853 39.2728C256.74 38.5412 256.628 37.9222 256.515 37.4157C256.459 36.9092 256.431 36.4872 256.431 36.1495C256.431 35.9807 256.431 35.84 256.431 35.7275C256.093 36.4028 255.108 37.8097 253.476 39.9481C251.056 43.0996 249.087 44.5628 247.567 44.3377ZM272.938 45.013C271.25 45.013 269.843 44.5065 268.717 43.4935C267.592 42.4243 267.029 40.6235 267.029 38.091C267.029 37.4157 267.085 36.6841 267.198 35.8963C267.705 33.0262 268.886 30.2968 270.743 27.7082C273.051 24.5567 275.442 22.981 277.919 22.981C279.213 22.981 280.423 23.3468 281.548 24.0784C282.674 24.7537 283.237 25.7666 283.237 27.1173C283.237 28.6367 282.618 30.2124 281.38 31.8444H283.068C283.349 31.8444 283.518 31.8726 283.574 31.9288C283.574 32.2665 282.533 32.6323 280.451 33.0262C279.213 34.4331 278.284 35.1366 277.665 35.1366C277.553 35.1366 277.496 35.0803 277.496 34.9677C277.496 35.024 277.919 34.4613 278.763 33.2795C278.031 33.2795 277.046 33.3357 275.808 33.4483C274.626 33.5046 273.191 33.6453 271.503 33.8704C270.884 35.5586 270.575 37.1344 270.575 38.5975C270.575 40.4546 271.081 41.8052 272.094 42.6494C272.713 43.2121 273.473 43.4935 274.373 43.4935C274.542 43.4935 274.711 43.4935 274.88 43.4935C275.048 43.4935 275.217 43.4654 275.386 43.4091C278.988 42.7901 282.477 40.7079 285.853 37.1625C286.135 36.7686 286.36 36.7123 286.529 36.9937C286.585 37.0499 286.613 37.1344 286.613 37.2469C286.613 37.472 286.444 37.7534 286.107 38.091C284.925 39.6105 283.068 41.1018 280.535 42.565C277.722 44.197 275.189 45.013 272.938 45.013ZM272.347 32.0977C273.135 32.0414 274.148 32.0133 275.386 32.0133L279.607 31.9288C280.226 30.6908 280.62 29.7059 280.789 28.9744C280.957 28.2428 281.042 27.6519 281.042 27.2017C281.042 26.0199 280.592 25.429 279.691 25.429C278.566 25.429 277.328 26.1043 275.977 27.4549C275.189 28.2428 274.486 29.0306 273.867 29.8185C273.248 30.5501 272.741 31.3098 272.347 32.0977ZM291.139 44.4221C288.325 44.4221 286.918 42.4524 286.918 38.5131C286.918 36.8811 287.171 34.827 287.678 32.3509H287.424C287.03 32.3509 286.833 32.2102 286.833 31.9288C286.833 31.4786 287.34 30.6908 288.353 29.5653C291.673 15.5526 296.119 6.2108 301.69 1.53991C302.928 0.526944 304.223 0.0204619 305.573 0.0204619C307.43 0.0204619 308.359 0.977151 308.359 2.89053C308.359 7.05494 306.361 11.7821 302.366 17.072C300.115 19.8858 296.513 23.7688 291.561 28.7211C290.266 33.1106 289.619 36.5997 289.619 39.1884C289.619 41.6646 290.463 42.9026 292.151 42.9026C293.446 42.9026 294.993 42.3961 296.794 41.3832C298.595 40.3702 300.002 39.2166 301.015 37.9222C301.409 37.4157 301.718 37.1625 301.943 37.1625C302.056 37.1625 302.112 37.275 302.112 37.5001C302.112 38.1192 301.943 38.6257 301.606 39.0196C300.593 40.2014 299.045 41.355 296.963 42.4806C294.543 43.7749 292.602 44.4221 291.139 44.4221ZM291.814 26.864C294.853 24.0502 297.92 20.5049 301.015 16.2279C304.954 10.7691 306.98 6.54845 307.093 3.56584V3.3126C307.093 1.96198 306.699 1.28667 305.911 1.28667C304.954 1.28667 303.857 2.07453 302.619 3.65025C301.831 4.60694 300.931 5.9857 299.918 7.78652C298.905 9.53107 297.779 11.754 296.541 14.4552C295.415 16.9313 294.459 19.2105 293.671 21.2927C292.883 23.3186 292.264 25.1757 291.814 26.864Z" fill="black"/>
</svg>
