<svg width="1354" height="1320" viewBox="0 0 1354 1320" fill="none" xmlns="http://www.w3.org/2000/svg">
<mask id="path-1-inside-1_1450_952" fill="white">
<path fill-rule="evenodd" clip-rule="evenodd" d="M762.095 54.2112C764.138 84.0188 767.214 113.818 768.935 120.429C770.655 127.048 759.79 140.396 744.789 150.092C714.541 169.662 704.353 190.104 707.582 224.743C708.76 237.455 703.735 256.415 696.403 266.882C677.597 293.731 679.843 322.064 702.574 344.795C717.956 360.178 720.583 368.78 715.007 385.502C703.853 418.979 720.312 451.592 748.543 451.948C761.477 452.118 781.597 457.584 793.251 464.102L814.439 475.95L782.928 489.222C765.596 496.528 745.391 502.503 738.034 502.503C713.379 502.503 654.485 430.15 606.506 340.913C534.509 206.995 498.209 188.629 322.872 197.393C242.56 201.41 239.111 202.334 257.138 215.106C279.462 230.921 274.037 239.769 242.001 239.769C229.381 239.769 207.032 242.176 192.344 245.109C171.113 249.355 166.664 253.694 170.664 266.288C176.58 284.943 165.393 290.172 72.851 311.996C37.8904 320.242 6.01481 329.895 2.02295 333.447C-7.97789 342.329 23.9994 358.186 66.8928 365.61C96.8275 370.797 102.108 374.653 99.9888 389.765C97.2259 409.478 125.864 434.701 151.019 434.701C168.012 434.701 170.461 443.88 157.061 457.279C143.662 470.679 170.698 494.028 199.599 494.028C215.651 494.028 224.771 499.139 227.525 509.69C232.161 527.412 275.105 539.142 306.498 531.268C319.262 528.056 331.568 531.175 340.179 539.786C347.637 547.253 360.655 553.355 369.105 553.355C377.546 553.355 386.454 560.983 388.895 570.306C391.835 581.552 400.455 587.256 414.515 587.256C431.568 587.256 434.831 590.578 431.246 604.291C427.779 617.555 432.627 623.369 453.103 630.506C475.936 638.464 478.224 641.905 470.418 656.508C457.739 680.196 465.918 694.935 495.336 701.393C509.244 704.444 522.914 712.919 525.72 720.225C529.567 730.243 538.246 732.302 561.079 728.59C584.496 724.793 590.335 726.293 586.903 735.243C584.47 741.6 577.8 777.323 572.088 814.64C551.417 949.643 596.031 1084.8 674.597 1125.24C737.204 1157.47 834.364 1146.49 904.523 1099.27L947.874 1070.1L965.909 1089.32C975.825 1099.89 996.361 1118.17 1011.54 1129.95C1029.02 1143.53 1045.2 1167.96 1055.7 1196.69C1064.81 1221.61 1073.37 1242.74 1074.72 1243.66C1102.34 1262.26 1159.65 1290.71 1169.53 1290.71C1176.72 1290.71 1197.01 1298.19 1214.63 1307.34C1241.88 1321.5 1251.97 1322.63 1282.03 1314.96C1336.39 1301.08 1357.38 1271.12 1353.56 1212.83C1353.04 1204.96 1330.53 1168.73 1303.55 1132.32C1268.24 1084.69 1248.99 1048.27 1234.93 1002.55C1224.19 967.585 1201.67 914.19 1184.89 883.891C1161.03 840.777 1153.04 814.979 1148.14 765.237C1144.7 730.277 1139.3 686.027 1136.13 666.907C1131.35 638.04 1134.02 626.522 1151.87 599.105C1163.7 580.934 1177.55 550.092 1182.67 530.556C1189.16 505.792 1197.68 493.308 1210.85 489.299C1238.85 480.773 1259.38 459.83 1259.44 439.744C1259.48 429.158 1269.17 416.487 1283.45 408.36L1307.41 394.74L1306.71 292.46L1306.01 190.172L1279.1 162C1220.41 100.563 1213.4 95.7147 1116.52 49.6176C1066.38 25.7597 987.386 21.1406 970.825 41.0914C965.155 47.9225 951.315 50.3888 934.22 47.6174C912.744 44.1341 900.836 48.1175 879.766 65.8393L852.806 88.5277L827.932 70.8228C814.252 61.0762 793.013 41.1677 780.724 26.5648L758.383 0.0117188L762.095 54.2112ZM825.406 94.1552C820.465 119.64 802.285 113.064 785.233 79.6286C761.807 33.7095 762.951 31.7856 797.861 58.4065C814.38 71.0092 826.779 87.0953 825.406 94.1552ZM987.826 53.9739C982.639 63.6611 980.444 76.908 982.936 83.4086C987.886 96.2995 953.281 141.947 928.499 155.211C908.379 165.975 869.528 151.694 869.528 133.54C869.528 126.158 865.714 122.471 861.053 125.353C856.392 128.234 852.578 122.734 852.578 113.14C852.578 91.8754 858.637 91.2821 881.572 110.292C891.267 118.327 894.429 119.471 888.598 112.835C876.927 99.5455 874.173 70.2634 884.597 70.2634C888.225 70.2634 897.717 77.8912 905.701 87.214C913.684 96.5368 925.016 103.961 930.889 103.724C936.763 103.478 932.983 97.2911 922.499 89.9769C912.015 82.6543 903.429 70.6533 903.429 63.2967C903.429 52.8975 905.692 52.1856 913.6 60.0931C928.643 75.1367 949.654 72.4755 966.994 53.3128C987.055 31.1415 999.827 31.5483 987.826 53.9739ZM1022.18 48.965C1008.63 65.2799 1017.26 87.4937 1036.65 86.2308C1050.8 85.307 1050.81 85.0019 1036.92 81.3745C1018.75 76.6283 1017.57 62.9831 1034.75 56.3978C1041.71 53.7196 1045.31 48.1259 1042.72 43.9476C1030.08 23.4968 1084.99 39.0065 1140.74 71.6364C1147.73 75.73 1164.89 84.4934 1178.88 91.1041C1192.86 97.7149 1225.09 122.319 1250.51 145.778L1296.72 188.426L1298.34 243.948C1299.73 291.282 1297.53 300.766 1283.44 308.309C1274.36 313.165 1262.38 315.293 1256.81 313.03C1251.13 310.716 1252.97 308.614 1261.01 308.241C1268.89 307.877 1277.67 303.8 1280.52 299.189C1283.43 294.486 1280.22 292.918 1273.21 295.604C1257.08 301.8 1225.49 284.917 1225.49 270.111C1225.49 263.814 1235.03 252.423 1246.68 244.787C1258.33 237.15 1267.87 224.42 1267.87 216.496C1267.87 204.843 1265.35 205.69 1254.67 220.929C1228.02 258.974 1174.64 234.252 1174.64 183.866C1174.64 168.551 1170.82 153.66 1166.16 150.779C1161.11 147.66 1157.69 157.881 1157.69 176.086C1157.69 207.605 1127.74 248.541 1105.1 247.965C1098.83 247.804 1102.29 240.863 1113.19 231.769C1137.81 211.233 1137.99 200.893 1113.42 218.098C1082.39 239.845 1066.87 234.608 1089.85 210.14C1114.51 183.892 1107.2 174.721 1072.94 188.917C1036.56 203.987 1032.02 193.723 1063.39 167.322C1077.96 155.067 1089.8 140.608 1089.7 135.193C1089.6 129.777 1082.92 133.226 1074.87 142.846C1066.81 152.474 1049.73 166.865 1036.92 174.823C1024.1 182.79 1013.61 196.85 1013.61 206.063C1013.61 215.276 1009.35 222.819 1004.14 222.819C998.404 222.819 996.42 213.708 999.107 199.673C1003.23 178.111 1002.72 177.637 991.708 192.697C985.199 201.588 977.631 206.614 974.868 203.859C967.147 196.13 985.606 166.755 1010.46 147.202C1022.77 137.515 1028.84 129.59 1023.95 129.59C1019.05 129.59 1004.24 141.032 991.047 155.016C977.851 169.001 964.18 180.442 960.663 180.442C948.315 180.442 954.468 153.211 971.791 131.192C985.53 113.733 996.047 109.199 1020.52 110.199C1049.95 111.394 1050.28 111.131 1026.32 105.639C995.564 98.5963 986.241 64.9409 1010.18 47.431C1030.21 32.7857 1035.08 33.4128 1022.18 48.965ZM793.251 108.402C801.895 118.818 801.311 121.115 790.047 121.115C782.487 121.115 776.3 115.394 776.3 108.402C776.3 101.41 777.741 95.6893 779.504 95.6893C781.258 95.6893 787.445 101.41 793.251 108.402ZM844.102 116.225C844.102 122.861 832.661 139.727 818.676 153.711C792.581 179.807 785.826 212.004 802.879 229.056C810.057 236.235 808.981 242.193 798.641 252.541C785.767 265.407 783.445 278.569 779.927 358.423C778.063 400.554 767.045 443.176 758.019 443.176C753.79 443.176 746.882 434.591 742.662 424.107C735.602 406.538 734.932 406.368 734.203 421.988C733.466 437.727 732.788 437.871 724.66 423.92C718.338 413.047 719.338 402.037 728.304 384.078C739.958 360.712 739.526 358.491 720.999 346.346C679.902 319.42 688.106 265.195 733.279 265.195C755.654 265.195 809.277 232.209 787.928 231.574C782.673 231.421 773.63 237.015 767.825 244.007C756.968 257.093 725.448 261.754 725.448 250.287C725.448 246.744 733.076 239.083 742.399 233.26C759.926 222.31 765.816 197.393 750.874 197.393C746.213 197.393 742.399 201.207 742.399 205.868C742.399 216.394 719.668 217.089 713.278 206.749C710.701 202.571 716.202 190.18 725.508 179.205C740.441 161.602 741.84 161.254 737.407 176.205C733.703 188.706 738.704 186.129 756.459 166.39C769.706 151.669 788.767 137.227 798.827 134.286C808.879 131.353 819.253 123.37 821.863 116.555C827.965 100.664 844.102 100.427 844.102 116.225ZM840.619 172.619C828.55 186.96 818.676 204.122 818.676 210.758C818.676 217.394 814.863 222.819 810.201 222.819C794.903 222.819 801.336 186.188 820.151 166.153C848.84 135.625 866.935 141.337 840.619 172.619ZM943.695 178.34C945.424 183.527 939.5 191.697 930.533 196.494C921.566 201.291 909.218 217.318 903.09 232.108C893.14 256.135 893.64 260.22 907.786 270.568C920.694 280.01 921.16 282.146 910.328 282.146C893.327 282.146 880.673 266.644 875.732 239.769C871.978 219.352 871.791 219.445 870.681 242.388C869.35 269.806 853.086 265.339 851.595 237.15C850.823 222.658 849.755 221.861 846.713 233.514C844.568 241.727 839.297 246.27 834.983 243.609C821.431 235.235 826.457 201.334 844.06 182.434C857.51 168.009 869.13 164.763 900.76 166.594C922.643 167.865 941.967 173.153 943.695 178.34ZM962.756 204.037C962.756 207.699 973.418 216.988 986.445 224.683C1012.94 240.329 1034.02 233.218 1025.67 211.453C1021.57 200.791 1023.64 198.52 1033.86 202.444C1041.36 205.326 1047.51 211.14 1047.51 215.377C1047.51 224.81 1098.42 256.643 1113.57 256.686C1119.62 256.703 1133.94 247.338 1145.41 235.871L1166.26 215.021L1161.1 247.304C1155.2 284.163 1171.1 322.31 1202.69 347.168C1213.64 355.787 1220.82 368.517 1218.63 375.459C1209.48 404.503 1111.51 555.457 1094.62 566.517C1084.54 573.128 1064.78 580.832 1050.72 583.646C1028.86 588.019 1021.25 584.307 998.192 558.05C983.368 541.159 971.232 522.064 971.232 515.614C971.232 501.232 920.236 468.602 897.768 468.602C888.759 468.602 877.173 472.823 872.011 477.984C850.272 499.723 823.821 420.573 839.144 379.612C845.289 363.186 845.077 363.161 832.491 378.552C808.345 408.08 777.732 379.171 788.343 336.871C795.124 309.885 809.328 316.81 804.031 344.515C799.972 365.763 813.557 382.035 822.829 367.034C825.753 362.296 824.109 358.423 819.177 358.423C796.742 358.423 813.218 344.863 837.746 343.142C855.841 341.871 872.562 332.904 886.479 317.005C898.132 303.698 914.337 290.528 922.499 287.748C941.568 281.23 941.687 251.524 922.677 240.888C908.904 233.184 908.989 231.616 923.99 215.038C939.738 197.63 962.756 191.104 962.756 204.037ZM1077.17 205.868C1074.29 210.529 1067.39 214.284 1061.84 214.216C1055.77 214.131 1056.82 210.801 1064.46 205.868C1080.74 195.342 1083.67 195.342 1077.17 205.868ZM1191.59 207.987C1191.59 211.487 1200.9 214.343 1212.28 214.343C1223.66 214.343 1234.74 211.487 1236.89 207.987C1239.05 204.487 1229.75 201.63 1216.21 201.63C1202.67 201.63 1191.59 204.487 1191.59 207.987ZM492.725 221.802C537.212 242.007 563.774 274.501 611.795 367.483C638.263 418.742 664.036 455.05 691.03 479.154L731.042 514.86L690.598 555.948C661.782 585.214 644.713 596.24 631.254 594.265C599.404 589.595 604.447 573.687 641.289 562.652C660.511 556.898 674.495 550.431 672.359 548.295C670.223 546.151 658.163 548.329 645.56 553.118C615.354 564.602 549.984 564.28 542.772 552.618C530.856 533.328 556.875 525.217 627.347 526.251C666.986 526.827 701.455 523.988 703.955 519.945C706.455 515.903 693.285 514.631 674.681 517.132C643.331 521.335 615.27 510.64 615.27 494.486C615.27 491.214 629.576 484.366 647.052 479.264L678.834 469.992L647.111 474.467C629.661 476.925 605.82 476.543 594.141 473.611C567.511 466.924 565.825 443.227 591.962 443.049C602.446 442.973 616.558 439.422 623.304 435.15C631.398 430.031 624.186 428.878 602.116 431.768C562.621 436.93 522.041 423.488 522.041 405.249C522.041 396.943 530.373 392.113 545.348 391.731C558.171 391.401 576.283 387.892 585.606 383.934C596.675 379.23 587.86 378.094 560.18 380.679C513.43 385.027 477.343 371.382 472.766 347.617C470.495 335.854 476.266 332.972 502.353 332.87C520.177 332.794 540.399 329.167 547.306 324.802C555.544 319.59 543.916 318.428 513.405 321.42C480.25 324.675 462.307 322.48 450.747 313.758C428.576 297.054 438.882 273.831 468.808 273.077C481.767 272.747 500.006 269.297 509.328 265.407C519.668 261.093 507.489 260.11 478.122 262.89C451.629 265.398 423.025 264.746 414.558 261.449C401.641 256.423 403.811 253.474 427.974 243.244C468.588 226.039 456.875 220.971 412.134 236.388C381.911 246.804 367.384 247.397 334.754 239.574C312.668 234.269 287.606 224.641 279.063 218.174C252.603 198.113 447.891 201.427 492.725 221.802ZM1217.02 265.517C1217.02 273.518 1222.91 284.968 1230.13 290.952C1240.23 299.342 1240.82 303.334 1232.69 308.36C1225.75 312.648 1230.69 316.784 1247.12 320.446C1288.42 329.633 1290.45 331.624 1259.39 332.455C1236.98 333.065 1232.84 335.269 1242.44 341.473C1252.68 348.092 1251.37 349.711 1235.68 349.821C1198.95 350.067 1151.2 270.848 1169.87 240.642C1178 227.472 1217.02 248.05 1217.02 265.517ZM384.318 262.288C421.092 273.611 428.813 279.366 428.813 295.452C428.813 307.461 435.297 316.962 445.764 320.284C456.527 323.7 462.714 333.108 462.714 346.066C462.714 360.144 470.571 370.526 488.081 379.578C502.031 386.79 513.015 395.469 512.498 398.867C509.515 418.411 516.219 428.031 538.144 435.676C551.662 440.388 564.723 451.914 567.181 461.288C569.63 470.662 579.546 480.408 589.217 482.934C609.981 488.366 612.456 506.995 593.386 514.309C571.147 522.844 507.311 520.098 484.301 509.614C455.578 496.528 456.57 477.298 486.021 476.23C498.844 475.764 518.863 472.043 530.517 467.958C545.899 462.568 540.806 461.762 511.905 465.017C458.553 471.026 403.387 455.991 403.387 435.43C403.387 419.75 432.458 409.275 475.987 409.275C486.784 409.275 497.395 406.41 499.573 402.919C501.751 399.418 472.419 397.605 434.39 398.876C361.333 401.325 338.255 394.24 346.798 371.992C350.603 362.068 363.325 358.423 394.149 358.423C417.321 358.423 438.068 355.567 440.246 352.067C442.424 348.567 416.905 346.931 383.538 348.422C278.758 353.109 234.61 317.767 330.195 305.724C356.765 302.376 385.047 295.537 393.064 290.528C404.133 283.595 400.514 283.019 377.961 288.138C328.966 299.24 240.713 294.731 205.032 279.289C186.844 271.416 173.741 263.186 175.919 261C184.538 252.38 273.936 241.244 305.921 244.804C324.567 246.88 359.841 254.745 384.318 262.288ZM830.711 264.102C833.22 268.161 846.797 273.789 860.875 276.603C891.149 282.654 894.107 296.579 867.409 307.309C850.442 314.131 850.162 315.03 864.867 315.513C876.461 315.886 878.724 318.717 872.452 324.988C859.883 337.557 822.795 326.446 804.692 304.69C796.319 294.621 794.895 291.155 801.531 296.977C820.727 313.835 831.288 309.241 814.922 291.155C806.752 282.129 802.573 270.687 805.633 265.729C812.379 254.821 824.491 254.033 830.711 264.102ZM810.201 274.442C810.201 284.375 842.687 300.724 856.061 297.511C862.155 296.054 854.324 288.663 838.67 281.095C823.016 273.535 810.201 270.535 810.201 274.442ZM239.246 299.376C266.952 307.055 273.419 312.343 270.198 324.692C266.986 336.964 273.597 342.532 301.201 350.804C323.914 357.61 334.797 365.204 332.051 372.348C327.093 385.273 358.104 409.275 379.75 409.275C390.217 409.275 394.107 415.004 392.691 428.344C391.149 442.888 398.209 451.101 422.457 462.941C439.941 471.484 454.239 483.663 454.239 490.011C454.239 496.35 462.036 507.004 471.571 513.682C487.725 524.997 487.877 526.217 473.791 531.624C445.925 542.312 355.104 547.414 349.654 538.591C346.705 533.828 367.003 521.835 395.776 511.343C424.042 501.037 445.857 491.299 444.255 489.697C442.653 488.095 420.406 494.011 394.819 502.842C340.034 521.751 230.356 525.903 235.941 508.86C237.856 503.037 254.383 493.469 272.673 487.595C328.627 469.644 379.131 449.999 376.36 447.261C374.91 445.829 347.027 453.762 314.397 464.89C227.898 494.375 155.807 490.646 168.588 457.338C171.622 449.431 189.479 442.21 214.321 438.845C263.257 432.218 308.354 419.055 314.134 409.707C316.448 405.961 304.099 407.978 286.699 414.191C247.306 428.251 157.121 429.506 128.339 416.386C86.8606 397.494 103.752 383.866 186.216 369.695C218.27 364.186 248.781 355.347 254.019 350.041C261.13 342.854 258.163 342.422 242.357 348.363C200.768 363.975 135.034 367.89 78.8006 358.101C47.5183 352.652 20.2109 345.431 18.1175 342.049C16.0326 338.676 41.7975 329.302 75.3681 321.225C108.947 313.157 147.857 301.385 161.841 295.079C175.826 288.765 191.081 284.968 195.743 286.629C200.404 288.299 219.982 294.028 239.246 299.376ZM1022.08 319.14C1053.87 330.514 1067.7 328.633 1047.26 315.716C1040.41 311.377 1025.26 307.987 1013.61 308.182C995.251 308.478 996.386 309.945 1022.08 319.14ZM1297.53 358.881C1297.53 365.348 1288 375.832 1276.34 382.18C1256.7 392.884 1256.54 393.426 1274.22 389.578C1284.72 387.299 1293.29 388.578 1293.29 392.409C1293.29 403.724 1273.27 407.58 1257.27 399.359C1245.92 393.511 1242.44 395.172 1242.44 406.436C1242.44 417.344 1239.97 418.674 1232.89 411.589C1218.35 397.045 1231.19 358.423 1250.58 358.423C1259.54 358.423 1269.35 354.406 1272.38 349.499C1279.77 337.532 1297.53 344.151 1297.53 358.881ZM971.232 365.017C971.232 378.315 1005.23 400.232 1018.16 395.265C1028.55 391.282 1025.74 386.671 1005.39 374.289C976.52 356.737 971.232 355.296 971.232 365.017ZM1149.21 379.315C1149.21 381.476 1157.79 387.824 1168.28 393.418C1185.57 402.63 1186.27 402.257 1175.72 389.477C1164.89 376.349 1149.21 370.34 1149.21 379.315ZM814.897 410.012C818.024 415.081 816.346 423.471 811.159 428.658C796.988 442.829 799.81 455.321 814.439 443.176C821.77 437.091 827.152 436.269 827.152 441.235C827.152 455.711 801.446 460.788 796.276 447.321C793.641 440.43 788.064 436.904 783.885 439.489C775.173 444.871 773.418 414.979 781.953 406.453C790.606 397.791 808.54 399.732 814.897 410.012ZM793.251 426.726C793.251 431.658 797.064 433.345 801.726 430.463C806.387 427.582 810.201 423.547 810.201 421.488C810.201 419.428 806.387 417.75 801.726 417.75C797.064 417.75 793.251 421.793 793.251 426.726ZM1030.56 430.463C1030.56 437.455 1032.06 443.176 1033.89 443.176C1035.72 443.176 1039.42 437.455 1042.1 430.463C1044.78 423.471 1043.28 417.75 1038.77 417.75C1034.25 417.75 1030.56 423.471 1030.56 430.463ZM1241.23 425.293C1253.54 433.091 1247.32 468.602 1233.66 468.602C1229.46 468.602 1228.52 461.924 1231.58 453.77C1236.39 440.939 1235.26 440.464 1223.24 450.236C1215.61 456.44 1203.34 460.254 1196 458.711C1183.87 456.143 1183.87 454.152 1196.07 436.82C1210.33 416.572 1222.54 413.453 1241.23 425.293ZM1113.21 431.15C1105.47 438.888 1115.85 460.796 1124.68 455.338C1128.85 452.762 1132.26 454.694 1132.26 459.627C1132.26 473.323 1155.22 470.314 1160.76 455.889C1163.96 447.541 1160.49 443.176 1150.65 443.176C1142.4 443.176 1131.77 439.303 1127.03 434.557C1122.3 429.819 1116.07 428.285 1113.21 431.15ZM1087.61 459.449C1083.92 473.543 1085.02 476.857 1091.31 470.568C1096.24 465.636 1098.6 456.61 1096.56 450.49C1094.45 444.142 1090.61 447.99 1087.61 459.449ZM860.866 517.606C861.18 549.838 882.606 590.968 911.956 615.665C939.204 638.591 939.534 639.71 929.313 673.84L918.88 708.631L903.794 674.933C888.53 640.837 836.381 575.204 829.796 581.79C827.821 583.756 836.356 596.282 848.755 609.622C876.368 639.328 911.905 707.656 911.905 731.056C911.905 764.288 925.296 747.854 934.118 703.791C939.017 679.315 945.772 653.126 949.128 645.583C953.586 635.582 947.357 627.217 926.143 614.708C890.225 593.511 863.748 532.972 874.461 496.511C880.834 474.84 881.86 476.416 886.555 515.216L891.7 557.593L895.446 520.115C897.505 499.495 903.624 481.179 909.04 479.4C915.88 477.154 917.524 486.324 914.43 509.419C911.972 527.717 913.523 544.88 917.88 547.575C922.338 550.329 924.253 542.007 922.27 528.488C920.338 515.301 922.931 501.927 928.042 498.766C933.991 495.096 937.331 502.173 937.331 518.454C937.331 532.438 941.297 546.329 946.145 549.329C951.866 552.863 953.027 547.075 949.467 532.879C946.026 519.191 947.492 510.979 953.366 510.979C958.527 510.979 962.756 514.953 962.756 519.818C962.756 524.683 977.885 548.694 996.378 573.187C1053.89 649.363 1062.59 753.228 1017.84 829.59C982.775 889.417 933.754 890.324 844.721 832.777C809.532 810.029 783.86 785.154 766.113 756.601C751.611 733.285 738.009 715.953 735.873 718.089C730.067 723.886 763.68 775.34 788.504 798.664L810.244 819.089L765.892 843.346C741.492 856.686 713.244 869.678 703.107 872.229C692.971 874.772 675.732 886.781 664.808 898.91L644.933 920.979L669.384 902.435C706.633 874.179 711.371 879.95 687.208 924.149C675.105 946.286 670.181 956.779 676.258 947.456C682.334 938.133 706.464 910.775 729.864 886.654C776.902 838.192 811.15 824.149 839.026 841.879C908.006 885.773 967.791 897.299 995.674 872.068C1011.03 858.169 1012.54 858.593 1028.6 881.289C1037.86 894.375 1066.73 947.642 1092.77 999.664C1139.5 1093.02 1188.56 1152.79 1291.71 1242.04C1306.57 1254.89 1318.72 1273.01 1318.72 1282.3C1318.72 1303.49 1305.12 1304.45 1299.68 1283.65C1297.45 1275.09 1289.46 1268.1 1281.94 1268.1C1271.73 1268.1 1269.38 1273.68 1272.66 1290C1276.77 1310.39 1276.2 1310.15 1264.34 1286.47L1251.61 1261.04L1256.08 1286.47C1260.34 1310.7 1259.93 1311.12 1247.25 1295.44C1239.95 1286.39 1233.97 1275.91 1233.97 1272.14C1233.97 1268.36 1229.39 1265.28 1223.8 1265.28C1215.89 1265.28 1215.89 1267.54 1223.8 1275.45C1243.98 1295.64 1235.75 1307.58 1210.66 1294.49C1197.84 1287.81 1180.33 1282.31 1171.74 1282.28C1163.15 1282.26 1146.42 1274.6 1134.58 1265.28C1122.72 1255.96 1108.03 1248.33 1101.94 1248.33C1086.1 1248.33 1064.46 1214.38 1064.46 1189.53C1064.46 1174.72 1049.55 1154.36 1014.63 1121.5C961.697 1071.67 950.696 1055.21 933.11 999.452C927.033 980.179 921.677 971.551 921.219 980.272C920.49 994.07 918.541 994.629 906.277 984.51C893.598 974.051 893.123 974.662 901.582 990.527C906.752 1000.23 916.905 1013.1 924.151 1019.11C946.653 1037.79 939.373 1064.46 905.37 1087.92C857.239 1121.13 823.635 1131.75 764.918 1132.3C663.935 1133.26 610.634 1082.23 584.835 959.915C548.518 787.722 637.314 572.297 771.715 506.537C796.836 494.248 819.821 477.849 822.795 470.094C827.448 457.957 830.457 458.932 844.441 477.137C853.366 488.756 860.765 506.97 860.866 517.606ZM1006.06 472.357C1021.65 487.943 1072.94 517.276 1072.94 510.597C1072.94 501.8 1023.34 468.687 1010.07 468.636C1005.8 468.619 1004 470.289 1006.06 472.357ZM1208.54 477.077C1208.54 481.739 1200.68 485.553 1191.09 485.553C1181.5 485.553 1175.99 489.367 1178.88 494.028C1181.76 498.689 1178.14 502.503 1170.83 502.503C1159.66 502.503 1159.24 499.8 1168.13 485.553C1179.01 468.136 1208.54 461.94 1208.54 477.077ZM1028.3 512.029C1034.05 517.827 1040.89 520.428 1043.49 517.818C1046.1 515.208 1041.4 510.47 1033.04 507.283C1020.96 502.69 1019.99 503.656 1028.3 512.029ZM1174.05 521.573C1173.71 527.404 1170.17 539.794 1166.16 549.117C1160.06 563.322 1158.78 561.61 1158.28 538.523C1157.96 523.378 1161.5 510.979 1166.16 510.979C1170.82 510.979 1174.37 515.75 1174.05 521.573ZM530.517 539.277C530.517 563.398 412.702 592.24 399.76 571.289C396.505 566.025 398.845 560.144 404.972 558.237C411.091 556.33 433.263 549.202 454.239 542.413C504.218 526.234 530.517 525.149 530.517 539.277ZM1141.49 568.899C1134.92 581.179 1135.03 586.765 1141.91 589.061C1147.14 590.799 1139.47 604.164 1124.89 618.75C1096.4 647.236 1091.61 657.118 1109.65 650.194C1124.53 644.481 1145.21 751.143 1137.98 796.308C1131.99 833.718 1106.45 858.525 1074.11 858.338C1030.63 858.084 1025.02 847.617 1042.42 799.232C1053.65 768 1056.84 741.379 1053.93 703.402C1048.98 638.922 1065.51 589.443 1094.45 582.179C1105.23 579.467 1120.68 569.95 1128.76 561.017C1146.68 541.218 1153.91 545.693 1141.49 568.899ZM600.311 582.188C614.159 602.885 604.557 611.945 558.672 621.471C513.252 630.895 450.561 628.777 439.212 617.428C430.652 608.877 456.443 588.57 492.395 575.56C528.644 562.432 589.598 566.178 600.311 582.188ZM1055.86 602.088C1055.69 610.199 1039.34 635.786 1039.16 628.209C1039.09 625.09 1036.72 616.513 1033.89 609.139C1030.52 600.342 1033.42 595.731 1042.36 595.731C1049.86 595.731 1055.93 598.596 1055.86 602.088ZM634.822 630.794C616.193 663.127 564.231 688.519 516.185 688.773C446.162 689.138 467.291 643.829 541.594 634.294C565.799 631.184 595.141 623.276 606.794 616.725C643.026 596.35 652.044 600.876 634.822 630.794ZM598.37 697.333C587.606 717.454 549.976 728.76 536.992 715.775C530.33 709.114 533.449 704.427 548.205 698.969C559.451 694.799 574.376 689.239 581.368 686.612C604.116 678.043 607.54 680.205 598.37 697.333ZM1181.78 898.723C1199.8 934.853 1222.57 991.188 1232.39 1023.93C1243.24 1060.12 1261.35 1096.66 1278.59 1117.16C1337.3 1186.95 1347.83 1206.58 1336.4 1224.89C1330.65 1234.09 1329.08 1239.68 1332.92 1237.32C1336.76 1234.95 1340.46 1242.18 1341.13 1253.38C1341.81 1264.58 1341.24 1273.75 1339.88 1273.75C1338.53 1273.75 1296.02 1234.09 1245.43 1185.61C1156.99 1100.87 1151.08 1092.91 1091.9 979.001L1030.35 860.525L1067.6 864.72C1097.63 868.11 1107.92 865.576 1120.68 851.685C1129.38 842.21 1139.31 834.133 1142.76 833.743C1146.2 833.353 1163.76 862.593 1181.78 898.723ZM1072.94 1157.22C1072.94 1164.83 1077 1173.57 1081.98 1176.64C1096.51 1185.62 1097.94 1177.58 1084.95 1159.82C1074.9 1146.07 1072.94 1145.65 1072.94 1157.22Z"/>
</mask>
<path fill-rule="evenodd" clip-rule="evenodd" d="M762.095 54.2112C764.138 84.0188 767.214 113.818 768.935 120.429C770.655 127.048 759.79 140.396 744.789 150.092C714.541 169.662 704.353 190.104 707.582 224.743C708.76 237.455 703.735 256.415 696.403 266.882C677.597 293.731 679.843 322.064 702.574 344.795C717.956 360.178 720.583 368.78 715.007 385.502C703.853 418.979 720.312 451.592 748.543 451.948C761.477 452.118 781.597 457.584 793.251 464.102L814.439 475.95L782.928 489.222C765.596 496.528 745.391 502.503 738.034 502.503C713.379 502.503 654.485 430.15 606.506 340.913C534.509 206.995 498.209 188.629 322.872 197.393C242.56 201.41 239.111 202.334 257.138 215.106C279.462 230.921 274.037 239.769 242.001 239.769C229.381 239.769 207.032 242.176 192.344 245.109C171.113 249.355 166.664 253.694 170.664 266.288C176.58 284.943 165.393 290.172 72.851 311.996C37.8904 320.242 6.01481 329.895 2.02295 333.447C-7.97789 342.329 23.9994 358.186 66.8928 365.61C96.8275 370.797 102.108 374.653 99.9888 389.765C97.2259 409.478 125.864 434.701 151.019 434.701C168.012 434.701 170.461 443.88 157.061 457.279C143.662 470.679 170.698 494.028 199.599 494.028C215.651 494.028 224.771 499.139 227.525 509.69C232.161 527.412 275.105 539.142 306.498 531.268C319.262 528.056 331.568 531.175 340.179 539.786C347.637 547.253 360.655 553.355 369.105 553.355C377.546 553.355 386.454 560.983 388.895 570.306C391.835 581.552 400.455 587.256 414.515 587.256C431.568 587.256 434.831 590.578 431.246 604.291C427.779 617.555 432.627 623.369 453.103 630.506C475.936 638.464 478.224 641.905 470.418 656.508C457.739 680.196 465.918 694.935 495.336 701.393C509.244 704.444 522.914 712.919 525.72 720.225C529.567 730.243 538.246 732.302 561.079 728.59C584.496 724.793 590.335 726.293 586.903 735.243C584.47 741.6 577.8 777.323 572.088 814.64C551.417 949.643 596.031 1084.8 674.597 1125.24C737.204 1157.47 834.364 1146.49 904.523 1099.27L947.874 1070.1L965.909 1089.32C975.825 1099.89 996.361 1118.17 1011.54 1129.95C1029.02 1143.53 1045.2 1167.96 1055.7 1196.69C1064.81 1221.61 1073.37 1242.74 1074.72 1243.66C1102.34 1262.26 1159.65 1290.71 1169.53 1290.71C1176.72 1290.71 1197.01 1298.19 1214.63 1307.34C1241.88 1321.5 1251.97 1322.63 1282.03 1314.96C1336.39 1301.08 1357.38 1271.12 1353.56 1212.83C1353.04 1204.96 1330.53 1168.73 1303.55 1132.32C1268.24 1084.69 1248.99 1048.27 1234.93 1002.55C1224.19 967.585 1201.67 914.19 1184.89 883.891C1161.03 840.777 1153.04 814.979 1148.14 765.237C1144.7 730.277 1139.3 686.027 1136.13 666.907C1131.35 638.04 1134.02 626.522 1151.87 599.105C1163.7 580.934 1177.55 550.092 1182.67 530.556C1189.16 505.792 1197.68 493.308 1210.85 489.299C1238.85 480.773 1259.38 459.83 1259.44 439.744C1259.48 429.158 1269.17 416.487 1283.45 408.36L1307.41 394.74L1306.71 292.46L1306.01 190.172L1279.1 162C1220.41 100.563 1213.4 95.7147 1116.52 49.6176C1066.38 25.7597 987.386 21.1406 970.825 41.0914C965.155 47.9225 951.315 50.3888 934.22 47.6174C912.744 44.1341 900.836 48.1175 879.766 65.8393L852.806 88.5277L827.932 70.8228C814.252 61.0762 793.013 41.1677 780.724 26.5648L758.383 0.0117188L762.095 54.2112ZM825.406 94.1552C820.465 119.64 802.285 113.064 785.233 79.6286C761.807 33.7095 762.951 31.7856 797.861 58.4065C814.38 71.0092 826.779 87.0953 825.406 94.1552ZM987.826 53.9739C982.639 63.6611 980.444 76.908 982.936 83.4086C987.886 96.2995 953.281 141.947 928.499 155.211C908.379 165.975 869.528 151.694 869.528 133.54C869.528 126.158 865.714 122.471 861.053 125.353C856.392 128.234 852.578 122.734 852.578 113.14C852.578 91.8754 858.637 91.2821 881.572 110.292C891.267 118.327 894.429 119.471 888.598 112.835C876.927 99.5455 874.173 70.2634 884.597 70.2634C888.225 70.2634 897.717 77.8912 905.701 87.214C913.684 96.5368 925.016 103.961 930.889 103.724C936.763 103.478 932.983 97.2911 922.499 89.9769C912.015 82.6543 903.429 70.6533 903.429 63.2967C903.429 52.8975 905.692 52.1856 913.6 60.0931C928.643 75.1367 949.654 72.4755 966.994 53.3128C987.055 31.1415 999.827 31.5483 987.826 53.9739ZM1022.18 48.965C1008.63 65.2799 1017.26 87.4937 1036.65 86.2308C1050.8 85.307 1050.81 85.0019 1036.92 81.3745C1018.75 76.6283 1017.57 62.9831 1034.75 56.3978C1041.71 53.7196 1045.31 48.1259 1042.72 43.9476C1030.08 23.4968 1084.99 39.0065 1140.74 71.6364C1147.73 75.73 1164.89 84.4934 1178.88 91.1041C1192.86 97.7149 1225.09 122.319 1250.51 145.778L1296.72 188.426L1298.34 243.948C1299.73 291.282 1297.53 300.766 1283.44 308.309C1274.36 313.165 1262.38 315.293 1256.81 313.03C1251.13 310.716 1252.97 308.614 1261.01 308.241C1268.89 307.877 1277.67 303.8 1280.52 299.189C1283.43 294.486 1280.22 292.918 1273.21 295.604C1257.08 301.8 1225.49 284.917 1225.49 270.111C1225.49 263.814 1235.03 252.423 1246.68 244.787C1258.33 237.15 1267.87 224.42 1267.87 216.496C1267.87 204.843 1265.35 205.69 1254.67 220.929C1228.02 258.974 1174.64 234.252 1174.64 183.866C1174.64 168.551 1170.82 153.66 1166.16 150.779C1161.11 147.66 1157.69 157.881 1157.69 176.086C1157.69 207.605 1127.74 248.541 1105.1 247.965C1098.83 247.804 1102.29 240.863 1113.19 231.769C1137.81 211.233 1137.99 200.893 1113.42 218.098C1082.39 239.845 1066.87 234.608 1089.85 210.14C1114.51 183.892 1107.2 174.721 1072.94 188.917C1036.56 203.987 1032.02 193.723 1063.39 167.322C1077.96 155.067 1089.8 140.608 1089.7 135.193C1089.6 129.777 1082.92 133.226 1074.87 142.846C1066.81 152.474 1049.73 166.865 1036.92 174.823C1024.1 182.79 1013.61 196.85 1013.61 206.063C1013.61 215.276 1009.35 222.819 1004.14 222.819C998.404 222.819 996.42 213.708 999.107 199.673C1003.23 178.111 1002.72 177.637 991.708 192.697C985.199 201.588 977.631 206.614 974.868 203.859C967.147 196.13 985.606 166.755 1010.46 147.202C1022.77 137.515 1028.84 129.59 1023.95 129.59C1019.05 129.59 1004.24 141.032 991.047 155.016C977.851 169.001 964.18 180.442 960.663 180.442C948.315 180.442 954.468 153.211 971.791 131.192C985.53 113.733 996.047 109.199 1020.52 110.199C1049.95 111.394 1050.28 111.131 1026.32 105.639C995.564 98.5963 986.241 64.9409 1010.18 47.431C1030.21 32.7857 1035.08 33.4128 1022.18 48.965ZM793.251 108.402C801.895 118.818 801.311 121.115 790.047 121.115C782.487 121.115 776.3 115.394 776.3 108.402C776.3 101.41 777.741 95.6893 779.504 95.6893C781.258 95.6893 787.445 101.41 793.251 108.402ZM844.102 116.225C844.102 122.861 832.661 139.727 818.676 153.711C792.581 179.807 785.826 212.004 802.879 229.056C810.057 236.235 808.981 242.193 798.641 252.541C785.767 265.407 783.445 278.569 779.927 358.423C778.063 400.554 767.045 443.176 758.019 443.176C753.79 443.176 746.882 434.591 742.662 424.107C735.602 406.538 734.932 406.368 734.203 421.988C733.466 437.727 732.788 437.871 724.66 423.92C718.338 413.047 719.338 402.037 728.304 384.078C739.958 360.712 739.526 358.491 720.999 346.346C679.902 319.42 688.106 265.195 733.279 265.195C755.654 265.195 809.277 232.209 787.928 231.574C782.673 231.421 773.63 237.015 767.825 244.007C756.968 257.093 725.448 261.754 725.448 250.287C725.448 246.744 733.076 239.083 742.399 233.26C759.926 222.31 765.816 197.393 750.874 197.393C746.213 197.393 742.399 201.207 742.399 205.868C742.399 216.394 719.668 217.089 713.278 206.749C710.701 202.571 716.202 190.18 725.508 179.205C740.441 161.602 741.84 161.254 737.407 176.205C733.703 188.706 738.704 186.129 756.459 166.39C769.706 151.669 788.767 137.227 798.827 134.286C808.879 131.353 819.253 123.37 821.863 116.555C827.965 100.664 844.102 100.427 844.102 116.225ZM840.619 172.619C828.55 186.96 818.676 204.122 818.676 210.758C818.676 217.394 814.863 222.819 810.201 222.819C794.903 222.819 801.336 186.188 820.151 166.153C848.84 135.625 866.935 141.337 840.619 172.619ZM943.695 178.34C945.424 183.527 939.5 191.697 930.533 196.494C921.566 201.291 909.218 217.318 903.09 232.108C893.14 256.135 893.64 260.22 907.786 270.568C920.694 280.01 921.16 282.146 910.328 282.146C893.327 282.146 880.673 266.644 875.732 239.769C871.978 219.352 871.791 219.445 870.681 242.388C869.35 269.806 853.086 265.339 851.595 237.15C850.823 222.658 849.755 221.861 846.713 233.514C844.568 241.727 839.297 246.27 834.983 243.609C821.431 235.235 826.457 201.334 844.06 182.434C857.51 168.009 869.13 164.763 900.76 166.594C922.643 167.865 941.967 173.153 943.695 178.34ZM962.756 204.037C962.756 207.699 973.418 216.988 986.445 224.683C1012.94 240.329 1034.02 233.218 1025.67 211.453C1021.57 200.791 1023.64 198.52 1033.86 202.444C1041.36 205.326 1047.51 211.14 1047.51 215.377C1047.51 224.81 1098.42 256.643 1113.57 256.686C1119.62 256.703 1133.94 247.338 1145.41 235.871L1166.26 215.021L1161.1 247.304C1155.2 284.163 1171.1 322.31 1202.69 347.168C1213.64 355.787 1220.82 368.517 1218.63 375.459C1209.48 404.503 1111.51 555.457 1094.62 566.517C1084.54 573.128 1064.78 580.832 1050.72 583.646C1028.86 588.019 1021.25 584.307 998.192 558.05C983.368 541.159 971.232 522.064 971.232 515.614C971.232 501.232 920.236 468.602 897.768 468.602C888.759 468.602 877.173 472.823 872.011 477.984C850.272 499.723 823.821 420.573 839.144 379.612C845.289 363.186 845.077 363.161 832.491 378.552C808.345 408.08 777.732 379.171 788.343 336.871C795.124 309.885 809.328 316.81 804.031 344.515C799.972 365.763 813.557 382.035 822.829 367.034C825.753 362.296 824.109 358.423 819.177 358.423C796.742 358.423 813.218 344.863 837.746 343.142C855.841 341.871 872.562 332.904 886.479 317.005C898.132 303.698 914.337 290.528 922.499 287.748C941.568 281.23 941.687 251.524 922.677 240.888C908.904 233.184 908.989 231.616 923.99 215.038C939.738 197.63 962.756 191.104 962.756 204.037ZM1077.17 205.868C1074.29 210.529 1067.39 214.284 1061.84 214.216C1055.77 214.131 1056.82 210.801 1064.46 205.868C1080.74 195.342 1083.67 195.342 1077.17 205.868ZM1191.59 207.987C1191.59 211.487 1200.9 214.343 1212.28 214.343C1223.66 214.343 1234.74 211.487 1236.89 207.987C1239.05 204.487 1229.75 201.63 1216.21 201.63C1202.67 201.63 1191.59 204.487 1191.59 207.987ZM492.725 221.802C537.212 242.007 563.774 274.501 611.795 367.483C638.263 418.742 664.036 455.05 691.03 479.154L731.042 514.86L690.598 555.948C661.782 585.214 644.713 596.24 631.254 594.265C599.404 589.595 604.447 573.687 641.289 562.652C660.511 556.898 674.495 550.431 672.359 548.295C670.223 546.151 658.163 548.329 645.56 553.118C615.354 564.602 549.984 564.28 542.772 552.618C530.856 533.328 556.875 525.217 627.347 526.251C666.986 526.827 701.455 523.988 703.955 519.945C706.455 515.903 693.285 514.631 674.681 517.132C643.331 521.335 615.27 510.64 615.27 494.486C615.27 491.214 629.576 484.366 647.052 479.264L678.834 469.992L647.111 474.467C629.661 476.925 605.82 476.543 594.141 473.611C567.511 466.924 565.825 443.227 591.962 443.049C602.446 442.973 616.558 439.422 623.304 435.15C631.398 430.031 624.186 428.878 602.116 431.768C562.621 436.93 522.041 423.488 522.041 405.249C522.041 396.943 530.373 392.113 545.348 391.731C558.171 391.401 576.283 387.892 585.606 383.934C596.675 379.23 587.86 378.094 560.18 380.679C513.43 385.027 477.343 371.382 472.766 347.617C470.495 335.854 476.266 332.972 502.353 332.87C520.177 332.794 540.399 329.167 547.306 324.802C555.544 319.59 543.916 318.428 513.405 321.42C480.25 324.675 462.307 322.48 450.747 313.758C428.576 297.054 438.882 273.831 468.808 273.077C481.767 272.747 500.006 269.297 509.328 265.407C519.668 261.093 507.489 260.11 478.122 262.89C451.629 265.398 423.025 264.746 414.558 261.449C401.641 256.423 403.811 253.474 427.974 243.244C468.588 226.039 456.875 220.971 412.134 236.388C381.911 246.804 367.384 247.397 334.754 239.574C312.668 234.269 287.606 224.641 279.063 218.174C252.603 198.113 447.891 201.427 492.725 221.802ZM1217.02 265.517C1217.02 273.518 1222.91 284.968 1230.13 290.952C1240.23 299.342 1240.82 303.334 1232.69 308.36C1225.75 312.648 1230.69 316.784 1247.12 320.446C1288.42 329.633 1290.45 331.624 1259.39 332.455C1236.98 333.065 1232.84 335.269 1242.44 341.473C1252.68 348.092 1251.37 349.711 1235.68 349.821C1198.95 350.067 1151.2 270.848 1169.87 240.642C1178 227.472 1217.02 248.05 1217.02 265.517ZM384.318 262.288C421.092 273.611 428.813 279.366 428.813 295.452C428.813 307.461 435.297 316.962 445.764 320.284C456.527 323.7 462.714 333.108 462.714 346.066C462.714 360.144 470.571 370.526 488.081 379.578C502.031 386.79 513.015 395.469 512.498 398.867C509.515 418.411 516.219 428.031 538.144 435.676C551.662 440.388 564.723 451.914 567.181 461.288C569.63 470.662 579.546 480.408 589.217 482.934C609.981 488.366 612.456 506.995 593.386 514.309C571.147 522.844 507.311 520.098 484.301 509.614C455.578 496.528 456.57 477.298 486.021 476.23C498.844 475.764 518.863 472.043 530.517 467.958C545.899 462.568 540.806 461.762 511.905 465.017C458.553 471.026 403.387 455.991 403.387 435.43C403.387 419.75 432.458 409.275 475.987 409.275C486.784 409.275 497.395 406.41 499.573 402.919C501.751 399.418 472.419 397.605 434.39 398.876C361.333 401.325 338.255 394.24 346.798 371.992C350.603 362.068 363.325 358.423 394.149 358.423C417.321 358.423 438.068 355.567 440.246 352.067C442.424 348.567 416.905 346.931 383.538 348.422C278.758 353.109 234.61 317.767 330.195 305.724C356.765 302.376 385.047 295.537 393.064 290.528C404.133 283.595 400.514 283.019 377.961 288.138C328.966 299.24 240.713 294.731 205.032 279.289C186.844 271.416 173.741 263.186 175.919 261C184.538 252.38 273.936 241.244 305.921 244.804C324.567 246.88 359.841 254.745 384.318 262.288ZM830.711 264.102C833.22 268.161 846.797 273.789 860.875 276.603C891.149 282.654 894.107 296.579 867.409 307.309C850.442 314.131 850.162 315.03 864.867 315.513C876.461 315.886 878.724 318.717 872.452 324.988C859.883 337.557 822.795 326.446 804.692 304.69C796.319 294.621 794.895 291.155 801.531 296.977C820.727 313.835 831.288 309.241 814.922 291.155C806.752 282.129 802.573 270.687 805.633 265.729C812.379 254.821 824.491 254.033 830.711 264.102ZM810.201 274.442C810.201 284.375 842.687 300.724 856.061 297.511C862.155 296.054 854.324 288.663 838.67 281.095C823.016 273.535 810.201 270.535 810.201 274.442ZM239.246 299.376C266.952 307.055 273.419 312.343 270.198 324.692C266.986 336.964 273.597 342.532 301.201 350.804C323.914 357.61 334.797 365.204 332.051 372.348C327.093 385.273 358.104 409.275 379.75 409.275C390.217 409.275 394.107 415.004 392.691 428.344C391.149 442.888 398.209 451.101 422.457 462.941C439.941 471.484 454.239 483.663 454.239 490.011C454.239 496.35 462.036 507.004 471.571 513.682C487.725 524.997 487.877 526.217 473.791 531.624C445.925 542.312 355.104 547.414 349.654 538.591C346.705 533.828 367.003 521.835 395.776 511.343C424.042 501.037 445.857 491.299 444.255 489.697C442.653 488.095 420.406 494.011 394.819 502.842C340.034 521.751 230.356 525.903 235.941 508.86C237.856 503.037 254.383 493.469 272.673 487.595C328.627 469.644 379.131 449.999 376.36 447.261C374.91 445.829 347.027 453.762 314.397 464.89C227.898 494.375 155.807 490.646 168.588 457.338C171.622 449.431 189.479 442.21 214.321 438.845C263.257 432.218 308.354 419.055 314.134 409.707C316.448 405.961 304.099 407.978 286.699 414.191C247.306 428.251 157.121 429.506 128.339 416.386C86.8606 397.494 103.752 383.866 186.216 369.695C218.27 364.186 248.781 355.347 254.019 350.041C261.13 342.854 258.163 342.422 242.357 348.363C200.768 363.975 135.034 367.89 78.8006 358.101C47.5183 352.652 20.2109 345.431 18.1175 342.049C16.0326 338.676 41.7975 329.302 75.3681 321.225C108.947 313.157 147.857 301.385 161.841 295.079C175.826 288.765 191.081 284.968 195.743 286.629C200.404 288.299 219.982 294.028 239.246 299.376ZM1022.08 319.14C1053.87 330.514 1067.7 328.633 1047.26 315.716C1040.41 311.377 1025.26 307.987 1013.61 308.182C995.251 308.478 996.386 309.945 1022.08 319.14ZM1297.53 358.881C1297.53 365.348 1288 375.832 1276.34 382.18C1256.7 392.884 1256.54 393.426 1274.22 389.578C1284.72 387.299 1293.29 388.578 1293.29 392.409C1293.29 403.724 1273.27 407.58 1257.27 399.359C1245.92 393.511 1242.44 395.172 1242.44 406.436C1242.44 417.344 1239.97 418.674 1232.89 411.589C1218.35 397.045 1231.19 358.423 1250.58 358.423C1259.54 358.423 1269.35 354.406 1272.38 349.499C1279.77 337.532 1297.53 344.151 1297.53 358.881ZM971.232 365.017C971.232 378.315 1005.23 400.232 1018.16 395.265C1028.55 391.282 1025.74 386.671 1005.39 374.289C976.52 356.737 971.232 355.296 971.232 365.017ZM1149.21 379.315C1149.21 381.476 1157.79 387.824 1168.28 393.418C1185.57 402.63 1186.27 402.257 1175.72 389.477C1164.89 376.349 1149.21 370.34 1149.21 379.315ZM814.897 410.012C818.024 415.081 816.346 423.471 811.159 428.658C796.988 442.829 799.81 455.321 814.439 443.176C821.77 437.091 827.152 436.269 827.152 441.235C827.152 455.711 801.446 460.788 796.276 447.321C793.641 440.43 788.064 436.904 783.885 439.489C775.173 444.871 773.418 414.979 781.953 406.453C790.606 397.791 808.54 399.732 814.897 410.012ZM793.251 426.726C793.251 431.658 797.064 433.345 801.726 430.463C806.387 427.582 810.201 423.547 810.201 421.488C810.201 419.428 806.387 417.75 801.726 417.75C797.064 417.75 793.251 421.793 793.251 426.726ZM1030.56 430.463C1030.56 437.455 1032.06 443.176 1033.89 443.176C1035.72 443.176 1039.42 437.455 1042.1 430.463C1044.78 423.471 1043.28 417.75 1038.77 417.75C1034.25 417.75 1030.56 423.471 1030.56 430.463ZM1241.23 425.293C1253.54 433.091 1247.32 468.602 1233.66 468.602C1229.46 468.602 1228.52 461.924 1231.58 453.77C1236.39 440.939 1235.26 440.464 1223.24 450.236C1215.61 456.44 1203.34 460.254 1196 458.711C1183.87 456.143 1183.87 454.152 1196.07 436.82C1210.33 416.572 1222.54 413.453 1241.23 425.293ZM1113.21 431.15C1105.47 438.888 1115.85 460.796 1124.68 455.338C1128.85 452.762 1132.26 454.694 1132.26 459.627C1132.26 473.323 1155.22 470.314 1160.76 455.889C1163.96 447.541 1160.49 443.176 1150.65 443.176C1142.4 443.176 1131.77 439.303 1127.03 434.557C1122.3 429.819 1116.07 428.285 1113.21 431.15ZM1087.61 459.449C1083.92 473.543 1085.02 476.857 1091.31 470.568C1096.24 465.636 1098.6 456.61 1096.56 450.49C1094.45 444.142 1090.61 447.99 1087.61 459.449ZM860.866 517.606C861.18 549.838 882.606 590.968 911.956 615.665C939.204 638.591 939.534 639.71 929.313 673.84L918.88 708.631L903.794 674.933C888.53 640.837 836.381 575.204 829.796 581.79C827.821 583.756 836.356 596.282 848.755 609.622C876.368 639.328 911.905 707.656 911.905 731.056C911.905 764.288 925.296 747.854 934.118 703.791C939.017 679.315 945.772 653.126 949.128 645.583C953.586 635.582 947.357 627.217 926.143 614.708C890.225 593.511 863.748 532.972 874.461 496.511C880.834 474.84 881.86 476.416 886.555 515.216L891.7 557.593L895.446 520.115C897.505 499.495 903.624 481.179 909.04 479.4C915.88 477.154 917.524 486.324 914.43 509.419C911.972 527.717 913.523 544.88 917.88 547.575C922.338 550.329 924.253 542.007 922.27 528.488C920.338 515.301 922.931 501.927 928.042 498.766C933.991 495.096 937.331 502.173 937.331 518.454C937.331 532.438 941.297 546.329 946.145 549.329C951.866 552.863 953.027 547.075 949.467 532.879C946.026 519.191 947.492 510.979 953.366 510.979C958.527 510.979 962.756 514.953 962.756 519.818C962.756 524.683 977.885 548.694 996.378 573.187C1053.89 649.363 1062.59 753.228 1017.84 829.59C982.775 889.417 933.754 890.324 844.721 832.777C809.532 810.029 783.86 785.154 766.113 756.601C751.611 733.285 738.009 715.953 735.873 718.089C730.067 723.886 763.68 775.34 788.504 798.664L810.244 819.089L765.892 843.346C741.492 856.686 713.244 869.678 703.107 872.229C692.971 874.772 675.732 886.781 664.808 898.91L644.933 920.979L669.384 902.435C706.633 874.179 711.371 879.95 687.208 924.149C675.105 946.286 670.181 956.779 676.258 947.456C682.334 938.133 706.464 910.775 729.864 886.654C776.902 838.192 811.15 824.149 839.026 841.879C908.006 885.773 967.791 897.299 995.674 872.068C1011.03 858.169 1012.54 858.593 1028.6 881.289C1037.86 894.375 1066.73 947.642 1092.77 999.664C1139.5 1093.02 1188.56 1152.79 1291.71 1242.04C1306.57 1254.89 1318.72 1273.01 1318.72 1282.3C1318.72 1303.49 1305.12 1304.45 1299.68 1283.65C1297.45 1275.09 1289.46 1268.1 1281.94 1268.1C1271.73 1268.1 1269.38 1273.68 1272.66 1290C1276.77 1310.39 1276.2 1310.15 1264.34 1286.47L1251.61 1261.04L1256.08 1286.47C1260.34 1310.7 1259.93 1311.12 1247.25 1295.44C1239.95 1286.39 1233.97 1275.91 1233.97 1272.14C1233.97 1268.36 1229.39 1265.28 1223.8 1265.28C1215.89 1265.28 1215.89 1267.54 1223.8 1275.45C1243.98 1295.64 1235.75 1307.58 1210.66 1294.49C1197.84 1287.81 1180.33 1282.31 1171.74 1282.28C1163.15 1282.26 1146.42 1274.6 1134.58 1265.28C1122.72 1255.96 1108.03 1248.33 1101.94 1248.33C1086.1 1248.33 1064.46 1214.38 1064.46 1189.53C1064.46 1174.72 1049.55 1154.36 1014.63 1121.5C961.697 1071.67 950.696 1055.21 933.11 999.452C927.033 980.179 921.677 971.551 921.219 980.272C920.49 994.07 918.541 994.629 906.277 984.51C893.598 974.051 893.123 974.662 901.582 990.527C906.752 1000.23 916.905 1013.1 924.151 1019.11C946.653 1037.79 939.373 1064.46 905.37 1087.92C857.239 1121.13 823.635 1131.75 764.918 1132.3C663.935 1133.26 610.634 1082.23 584.835 959.915C548.518 787.722 637.314 572.297 771.715 506.537C796.836 494.248 819.821 477.849 822.795 470.094C827.448 457.957 830.457 458.932 844.441 477.137C853.366 488.756 860.765 506.97 860.866 517.606ZM1006.06 472.357C1021.65 487.943 1072.94 517.276 1072.94 510.597C1072.94 501.8 1023.34 468.687 1010.07 468.636C1005.8 468.619 1004 470.289 1006.06 472.357ZM1208.54 477.077C1208.54 481.739 1200.68 485.553 1191.09 485.553C1181.5 485.553 1175.99 489.367 1178.88 494.028C1181.76 498.689 1178.14 502.503 1170.83 502.503C1159.66 502.503 1159.24 499.8 1168.13 485.553C1179.01 468.136 1208.54 461.94 1208.54 477.077ZM1028.3 512.029C1034.05 517.827 1040.89 520.428 1043.49 517.818C1046.1 515.208 1041.4 510.47 1033.04 507.283C1020.96 502.69 1019.99 503.656 1028.3 512.029ZM1174.05 521.573C1173.71 527.404 1170.17 539.794 1166.16 549.117C1160.06 563.322 1158.78 561.61 1158.28 538.523C1157.96 523.378 1161.5 510.979 1166.16 510.979C1170.82 510.979 1174.37 515.75 1174.05 521.573ZM530.517 539.277C530.517 563.398 412.702 592.24 399.76 571.289C396.505 566.025 398.845 560.144 404.972 558.237C411.091 556.33 433.263 549.202 454.239 542.413C504.218 526.234 530.517 525.149 530.517 539.277ZM1141.49 568.899C1134.92 581.179 1135.03 586.765 1141.91 589.061C1147.14 590.799 1139.47 604.164 1124.89 618.75C1096.4 647.236 1091.61 657.118 1109.65 650.194C1124.53 644.481 1145.21 751.143 1137.98 796.308C1131.99 833.718 1106.45 858.525 1074.11 858.338C1030.63 858.084 1025.02 847.617 1042.42 799.232C1053.65 768 1056.84 741.379 1053.93 703.402C1048.98 638.922 1065.51 589.443 1094.45 582.179C1105.23 579.467 1120.68 569.95 1128.76 561.017C1146.68 541.218 1153.91 545.693 1141.49 568.899ZM600.311 582.188C614.159 602.885 604.557 611.945 558.672 621.471C513.252 630.895 450.561 628.777 439.212 617.428C430.652 608.877 456.443 588.57 492.395 575.56C528.644 562.432 589.598 566.178 600.311 582.188ZM1055.86 602.088C1055.69 610.199 1039.34 635.786 1039.16 628.209C1039.09 625.09 1036.72 616.513 1033.89 609.139C1030.52 600.342 1033.42 595.731 1042.36 595.731C1049.86 595.731 1055.93 598.596 1055.86 602.088ZM634.822 630.794C616.193 663.127 564.231 688.519 516.185 688.773C446.162 689.138 467.291 643.829 541.594 634.294C565.799 631.184 595.141 623.276 606.794 616.725C643.026 596.35 652.044 600.876 634.822 630.794ZM598.37 697.333C587.606 717.454 549.976 728.76 536.992 715.775C530.33 709.114 533.449 704.427 548.205 698.969C559.451 694.799 574.376 689.239 581.368 686.612C604.116 678.043 607.54 680.205 598.37 697.333ZM1181.78 898.723C1199.8 934.853 1222.57 991.188 1232.39 1023.93C1243.24 1060.12 1261.35 1096.66 1278.59 1117.16C1337.3 1186.95 1347.83 1206.58 1336.4 1224.89C1330.65 1234.09 1329.08 1239.68 1332.92 1237.32C1336.76 1234.95 1340.46 1242.18 1341.13 1253.38C1341.81 1264.58 1341.24 1273.75 1339.88 1273.75C1338.53 1273.75 1296.02 1234.09 1245.43 1185.61C1156.99 1100.87 1151.08 1092.91 1091.9 979.001L1030.35 860.525L1067.6 864.72C1097.63 868.11 1107.92 865.576 1120.68 851.685C1129.38 842.21 1139.31 834.133 1142.76 833.743C1146.2 833.353 1163.76 862.593 1181.78 898.723ZM1072.94 1157.22C1072.94 1164.83 1077 1173.57 1081.98 1176.64C1096.51 1185.62 1097.94 1177.58 1084.95 1159.82C1074.9 1146.07 1072.94 1145.65 1072.94 1157.22Z" stroke="black" stroke-width="16.9506" mask="url(#path-1-inside-1_1450_952)"/>
</svg>
