<svg width="198" height="135" viewBox="0 0 198 135" fill="none" xmlns="http://www.w3.org/2000/svg">
<mask id="path-1-inside-1_1421_837" fill="white">
<path fill-rule="evenodd" clip-rule="evenodd" d="M163.427 1.89645C160.127 3.08845 156.012 4.33445 154.283 4.66545C151.42 5.21345 151.189 5.06944 151.705 3.06344C152.131 1.40944 150.748 2.26645 146.164 6.49745C142.804 9.59745 138.789 12.7304 137.241 13.4584C135.693 14.1874 131.052 18.4614 126.927 22.9584C122.802 27.4544 119.14 31.1844 118.788 31.2464C118.437 31.3084 117.857 29.7975 117.499 27.8885C116.265 21.3125 107.537 14.1354 101.185 14.4734C99.6681 14.5544 96.2901 14.0184 93.6771 13.2824C87.1721 11.4504 80.961 13.1525 75.383 18.2935C73.091 20.4065 70.2521 22.6505 69.0751 23.2805C66.6601 24.5725 62.9271 31.2484 62.9271 34.2724C62.9271 35.3684 62.4181 37.3814 61.7971 38.7464C60.6811 41.1934 60.6321 41.2025 58.0471 39.4295C56.6061 38.4415 53.0561 36.1694 50.1581 34.3794C47.2601 32.5904 44.0161 30.0164 42.9481 28.6594C41.8811 27.3024 40.5701 26.4615 40.0361 26.7915C39.5021 27.1225 38.7791 26.9284 38.4281 26.3614C38.0781 25.7944 36.0021 24.4174 33.8141 23.3014C31.6271 22.1854 28.0571 19.6654 25.8821 17.6994C22.8521 14.9624 21.9271 14.5304 21.9271 15.8514C21.9271 17.1305 21.3461 17.4395 19.6771 17.0455C18.4391 16.7545 13.4901 16.2025 8.67706 15.8195C-0.801939 15.0645 -1.96993 15.7224 2.54407 19.2734C4.73907 20.9994 4.90007 21.4324 3.54407 21.9524C0.547066 23.1034 1.73507 26.2204 6.00107 28.3974C9.22807 30.0434 9.84106 30.7574 8.95006 31.8314C7.59806 33.4604 10.9841 37.0844 14.7401 38.0274C16.4481 38.4564 16.9561 39.1394 16.5951 40.5214C16.2551 41.8214 17.0311 43.1154 19.0391 44.6004C20.6571 45.7964 21.7651 47.3404 21.5001 48.0304C20.9751 49.3974 25.4131 53.3594 27.4681 53.3594C28.2601 53.3594 28.5361 54.1374 28.2011 55.4184C27.8111 56.9114 28.2241 57.6244 29.7021 58.0114C30.8241 58.3044 31.9601 59.3774 32.2261 60.3964C32.5921 61.7934 32.0121 62.4014 29.8611 62.8744C26.6881 63.5704 20.9271 69.5135 20.9271 72.0895C20.9271 73.0025 19.8341 74.8995 18.4981 76.3045C14.9001 80.0895 14.4001 83.4194 16.9431 86.6524C18.2131 88.2664 20.0521 89.3594 21.5001 89.3594C25.2831 89.3594 24.4511 92.2525 20.1771 93.9555C13.5621 96.5905 11.8021 97.7265 9.64906 100.749C3.12006 109.918 14.2061 123.552 26.9621 122.041C30.3661 121.638 32.7811 121.938 34.9861 123.038C37.1831 124.135 39.6071 124.439 42.9721 124.04C47.3711 123.519 47.8301 123.661 48.1151 125.629C48.2861 126.818 50.0021 128.862 51.9271 130.172C54.9881 132.254 56.2731 132.495 62.1621 132.091C65.8671 131.836 69.5301 131.104 70.3021 130.462C71.3951 129.556 72.4541 129.732 75.0671 131.255C83.1551 135.967 93.5811 134.705 100.058 128.228C102.186 126.1 104.737 124.359 105.727 124.359C106.717 124.359 108.067 123.819 108.728 123.158C109.647 122.239 110.689 122.227 113.178 123.111C125.791 127.586 146.751 123.249 153.792 114.707C156.343 111.611 156.765 111.452 159.972 112.372C176.503 117.113 197.927 105.9 197.927 92.5075C197.927 88.6075 197.426 87.5735 193.927 84.2445C191.727 82.1515 189.927 79.5144 189.927 78.3844C189.927 77.2544 188.423 74.6884 186.585 72.6824C182.798 68.5504 177.29 67.1655 170.446 68.6245C167.904 69.1665 166.344 69.1094 166.129 68.4664C165.368 66.1814 161.553 62.2174 158.692 60.7374C155.137 58.8994 145.961 58.7354 142.753 60.4524C140.99 61.3954 139.943 61.2845 137.324 59.8735C133.555 57.8445 133.795 55.9494 138.007 54.4814C139.873 53.8304 140.927 52.7674 140.927 51.5334C140.927 50.4724 141.602 49.0444 142.427 48.3594C143.252 47.6744 143.927 46.5384 143.927 45.8344C143.927 45.1314 145.327 44.0664 147.039 43.4704C149.337 42.6694 149.985 41.9524 149.515 40.7274C149.158 39.7984 149.591 38.2834 150.501 37.2774C151.393 36.2924 151.858 35.0564 151.534 34.5314C151.209 34.0074 152.065 32.8434 153.436 31.9454C154.806 31.0474 155.927 29.3824 155.927 28.2444C155.927 27.1064 156.827 25.0304 157.927 23.6324C159.027 22.2334 159.927 20.4574 159.927 19.6844C159.927 18.9114 160.888 16.9794 162.062 15.3914C163.305 13.7094 163.931 11.8135 163.562 10.8495C163.151 9.77945 164.213 7.62745 166.568 4.75245C168.571 2.30845 170.033 0.17845 169.818 0.0194501C169.603 -0.14055 166.727 0.704449 163.427 1.89645ZM163.927 5.85945C162.061 7.78445 158.896 10.4954 156.892 11.8834C153.629 14.1454 152.983 14.2704 150.696 13.0834C148.363 11.8734 148.255 11.5474 149.447 9.30944C150.428 7.46544 152.567 6.32945 158.089 4.71945C167.876 1.86445 167.811 1.85245 163.927 5.85945ZM147.446 10.3224C146.062 13.0524 143.476 16.9894 141.697 19.0724C138.891 22.3594 139.157 22.2255 143.708 18.0585C148.623 13.5565 150.927 12.8115 150.927 15.7225C150.927 17.2495 145.335 22.6494 141.927 24.4134C140.552 25.1254 137.953 25.7584 136.152 25.8204C133.589 25.9084 133.006 25.5984 133.472 24.3964C133.799 23.5514 134.319 21.6084 134.628 20.0804C135.003 18.2234 137.551 15.3265 142.308 11.3495C146.223 8.07645 149.547 5.38944 149.694 5.37844C149.841 5.36844 148.829 7.59244 147.446 10.3224ZM162.927 11.7814C162.927 13.7324 154.855 20.4925 152.96 20.1275C150.026 19.5625 151.458 16.8675 156.416 13.6235C161.977 9.98445 162.927 9.71644 162.927 11.7814ZM99.7791 16.9814C103.902 19.3694 104.212 19.4304 102.522 17.5164C100.838 15.6104 100.809 15.3594 102.272 15.3594C103.182 15.3594 103.927 15.8094 103.927 16.3594C103.927 16.9094 104.843 17.3594 105.962 17.3594C110.7 17.3594 115.8 23.4784 117.213 30.8594C117.528 32.5094 118.112 34.6994 118.509 35.7254C119.147 37.3764 118.981 37.4584 117.079 36.4404C115.895 35.8074 114.927 34.4314 114.927 33.3834C114.927 32.3354 114.429 31.1695 113.82 30.7935C113.098 30.3475 112.916 30.7624 113.297 31.9844C113.618 33.0154 113.449 34.5344 112.919 35.3594C112.143 36.5694 111.955 36.4244 111.942 34.6094C111.934 33.3714 111.477 32.3594 110.927 32.3594C110.377 32.3594 109.927 33.1114 109.927 34.0304C109.927 35.7654 107.184 39.3594 105.86 39.3594C105.443 39.3594 104.799 37.5594 104.427 35.3594C104.055 33.1594 103.355 31.3594 102.87 31.3594C102.386 31.3594 102.235 31.9994 102.535 32.7814C103.169 34.4324 101.308 38.3594 99.8921 38.3594C99.3611 38.3594 98.9271 37.2714 98.9271 35.9414C98.9271 33.1424 98.0011 30.3594 97.0701 30.3594C96.7161 30.3594 96.4671 32.8544 96.5151 35.9035C96.5991 41.1804 96.4181 41.5944 92.7651 44.4874C90.6541 46.1594 88.9271 48.2194 88.9271 49.0654C88.9271 50.3204 88.6501 50.3744 87.4271 49.3594C85.2271 47.5334 85.5991 43.7025 88.1501 41.9165C89.3721 41.0605 89.921 40.3594 89.37 40.3594C88.818 40.3594 86.9181 41.8954 85.1471 43.7734C81.2281 47.9284 80.584 53.3594 84.01 53.3594C85.233 53.3594 85.9211 53.8764 85.6771 54.6094C85.4481 55.2974 84.1731 55.8594 82.8441 55.8594C80.7231 55.8594 80.4271 55.4054 80.4271 52.1574C80.4271 48.6694 79.3311 48.0994 78.8921 51.3594C78.4181 54.8804 79.0741 56.4644 81.3661 57.3364C84.1331 58.3884 86.3601 61.8494 85.3361 63.5064C84.9351 64.1554 84.1101 63.3215 83.3381 61.4855C82.5121 59.5215 81.3081 58.3594 80.0981 58.3594C77.2571 58.3594 75.6011 55.8274 76.3461 52.6224C76.8221 50.5744 76.7251 50.2474 75.9731 51.3594C75.4141 52.1844 74.8911 53.7594 74.8111 54.8594C74.7301 55.9614 74.3161 55.2874 73.8891 53.3594L73.1151 49.8594L73.271 53.8594C73.36 56.1514 73.9251 57.8594 74.5941 57.8594C75.2351 57.8594 76.1351 58.2694 76.5941 58.7694C77.0781 59.2984 76.9031 59.3784 76.1771 58.9604C75.4901 58.5654 74.9271 58.6694 74.9271 59.1934C74.9271 60.5214 77.8701 61.5124 79.9011 60.8674C81.0421 60.5054 81.9661 61.1504 82.7391 62.8454C83.3691 64.2284 84.4341 65.3594 85.1061 65.3594C85.9491 65.3594 86.0061 65.6804 85.2901 66.3964C84.5831 67.1034 83.406 67.1115 81.59 66.4215C80.125 65.8645 78.9271 65.7744 78.9271 66.2204C78.9271 66.6664 81.7291 67.8105 85.1531 68.7625C93.5821 71.1065 105.322 77.3574 111.582 82.8374C116.453 87.0994 116.721 87.5844 116.426 91.6044C116.254 93.9444 116.052 96.0844 115.976 96.3594C115.9 96.6344 114.948 95.1724 113.859 93.1094C111.366 88.3864 110.561 88.2394 112.491 92.8594C114.377 97.3714 112.912 97.3394 109.445 92.7934C106.31 88.6834 105.21 88.7474 107.371 92.9154C109.178 96.3964 108.377 97.6014 106.08 94.8594C105.158 93.7594 102.236 91.1125 99.5871 88.9775C95.1371 85.3925 94.2601 85.0854 88.0981 84.9594C82.5321 84.8464 80.2621 84.2194 74.3951 81.1774C70.5281 79.1724 65.7291 77.2254 63.7311 76.8504C60.2191 76.1914 60.1311 76.0715 61.1161 73.2485C61.6751 71.6425 63.0871 69.6605 64.2531 68.8435C65.8871 67.6995 66.0061 67.3594 64.7721 67.3594C63.8921 67.3594 62.6121 68.0344 61.9271 68.8594C60.5551 70.5134 54.9271 70.9354 54.9271 69.3854C54.9271 68.8494 56.2481 67.7274 57.8641 66.8924C62.6891 64.3974 62.3541 63.2834 57.4331 65.4594C52.4181 67.6784 48.9271 67.2454 48.9271 64.4054C48.9271 63.0244 49.9781 62.4284 53.2921 61.9324C55.6931 61.5724 58.5051 60.5844 59.5421 59.7364C61.3741 58.2394 61.3701 58.2154 59.4271 58.8934C52.4161 61.3364 45.4271 61.0644 45.4271 58.3494C45.4271 57.2054 46.9961 56.7904 52.1771 56.5634C55.8901 56.4014 58.9271 55.9394 58.9271 55.5374C58.9271 55.1354 57.1761 54.9734 55.0351 55.1774C52.5821 55.4114 49.4411 54.7954 46.5351 53.5104C38.6501 50.0224 41.3981 47.0264 49.8941 49.8484C52.6671 50.7694 55.4961 51.2964 56.1811 51.0204C56.8671 50.7434 56.5271 50.4715 55.4271 50.4165C50.2351 50.1545 39.9271 43.6374 39.9271 40.6174C39.9271 38.6664 43.5601 39.8844 47.9271 43.2984C51.6631 46.2194 55.3121 48.3594 56.5571 48.3594C56.9761 48.3594 55.1991 47.0154 52.6091 45.3724C47.7171 42.2704 41.9271 34.4674 41.9271 30.9764C41.9271 29.1355 42.1341 29.1804 44.6771 31.5834C46.1891 33.0114 50.2031 35.7964 53.5971 37.7714C59.0681 40.9544 59.9371 41.8995 61.2701 46.1105C62.0971 48.7225 62.7281 51.7594 62.6721 52.8594C62.3661 58.8694 63.0931 61.6144 65.6621 64.1544C67.1661 65.6424 68.4041 67.3034 68.4121 67.8454C68.4361 69.4174 71.9741 69.6724 74.5581 68.2894C75.8611 67.5914 76.9271 66.2114 76.9271 65.2214C76.9271 62.8694 74.2991 63.8284 73.6191 66.4284C72.1871 71.9054 69.456 65.0624 70.426 58.4284C70.823 55.7144 70.723 55.3384 70.008 56.8594C69.133 58.7194 69.062 58.6844 68.982 56.3594C68.935 54.9844 68.4261 53.1844 67.8511 52.3594C67.0741 51.2444 66.9561 51.7574 67.3931 54.3594L67.9811 57.8594L65.5251 53.3594C62.3321 47.5084 61.4061 42.1794 63.0621 39.1844C63.7681 37.9054 64.226 36.2694 64.079 35.5494C63.148 30.9864 69.6771 22.3594 74.0631 22.3594C75.1851 22.3594 75.7651 21.9064 75.4001 21.3154C74.4511 19.7804 76.8841 17.2974 81.4271 15.1634C86.6611 12.7054 93.5801 13.3904 99.7791 16.9814ZM20.0471 18.5084C22.2881 19.3514 23.4981 20.8764 25.7631 25.7144C25.9831 26.1844 25.2081 26.2664 24.0401 25.8954C20.7961 24.8654 20.1801 27.9354 23.0241 30.9634C24.9691 33.0324 25.1271 33.6174 23.9411 34.3514C22.7341 35.0964 22.8181 35.5884 24.4671 37.4464L26.4271 39.6554L22.0851 38.9804C17.3821 38.2504 9.92706 34.8564 9.92706 33.4464C9.92706 32.2444 12.3531 31.4205 14.5811 31.8645C20.8451 33.1135 22.9741 33.2444 22.4181 32.3444C22.0831 31.8024 20.7921 31.3594 19.5491 31.3594C15.8851 31.3594 7.31306 28.4944 4.77606 26.4214C2.85806 24.8534 2.66306 24.2614 3.71206 23.1954C4.76706 22.1224 6.13706 22.2884 11.3991 24.1244C20.6691 27.3604 21.7241 26.7974 12.9271 23.3104C8.80206 21.6754 4.30206 19.4554 2.92706 18.3784L0.427061 16.4185L8.92706 16.9714C13.6021 17.2744 18.6061 17.9664 20.0471 18.5084ZM34.2191 24.7624C38.1231 26.9874 39.4691 28.5284 41.4821 33.0804C42.8411 36.1524 43.8241 38.7954 43.6661 38.9534C43.2741 39.3454 32.6331 35.7964 29.7551 34.3144C26.8511 32.8184 21.9271 28.2834 21.9271 27.1054C21.9271 25.5794 26.2181 27.5014 32.1591 31.6884C35.3121 33.9104 38.1451 35.4744 38.4541 35.1654C38.7641 34.8554 37.0851 33.4664 34.7221 32.0784C30.2921 29.4754 27.5131 26.3274 24.4961 20.4934L22.7551 17.1264L26.0911 19.5794C27.9261 20.9284 31.5831 23.2604 34.2191 24.7624ZM132.381 24.2034C131.534 27.0544 129.464 30.9565 127.78 32.8735C126.097 34.7905 125.195 36.3594 125.777 36.3594C126.358 36.3594 127.642 35.1794 128.63 33.7374C133.184 27.0934 136.927 24.5664 136.927 28.1364C136.927 30.7104 134.297 34.0794 129.671 37.4304C127.447 39.0414 126.064 40.3594 126.599 40.3594C127.133 40.3594 129.338 39.0224 131.499 37.3874C136.043 33.9484 137.927 33.6024 137.927 36.2044C137.927 38.7834 134.571 41.5654 129.09 43.5314C126.525 44.4514 125.229 45.2394 126.209 45.2814C127.189 45.3244 129.631 44.6744 131.636 43.8364C134.064 42.8214 135.615 42.6474 136.28 43.3124C137.872 44.9044 134.196 48.1664 129.553 49.2814C125.454 50.2664 125.461 50.2694 130.569 49.7374C134.068 49.3724 135.954 49.5944 136.472 50.4324C137.843 52.6504 133.831 54.3594 127.255 54.3594C121.371 54.3594 120.924 54.1974 120.334 51.8464C119.974 50.4124 120.229 48.7005 120.926 47.8605C121.705 46.9225 121.913 45.0185 121.5 42.6235C119.43 30.6305 119.044 31.9964 126.515 24.8844C130.254 21.3244 133.45 18.5484 133.617 18.7154C133.784 18.8824 133.227 21.3524 132.381 24.2034ZM157.927 20.8534C157.927 22.3024 150.519 28.3594 148.747 28.3594C147.272 28.3594 152.26 22.2624 154.927 20.8054C158.074 19.0864 157.927 19.0844 157.927 20.8534ZM150.927 21.6724C150.927 23.5144 146.09 27.9404 141.39 30.3994C137.26 32.5594 139.09 32.4704 144.639 30.2404C146.405 29.5304 148.103 29.2024 148.412 29.5114C149.523 30.6214 147.667 33.3564 144.46 35.3394C140.596 37.7274 138.927 37.8994 138.927 35.9094C138.927 35.1114 138.321 34.0994 137.581 33.6594C136.453 32.9894 136.453 32.3324 137.584 29.6094C138.326 27.8224 139.526 26.3594 140.252 26.3594C140.977 26.3594 143.338 25.0224 145.499 23.3874C149.874 20.0764 150.927 19.7444 150.927 21.6724ZM83.0001 27.9944C81.5091 29.8894 80.969 31.9244 81.077 35.2444C81.178 38.3744 81.3471 38.8944 81.6011 36.8594C82.3041 31.2234 82.978 29.3085 84.952 27.3345C86.038 26.2485 86.5101 25.3594 86.0001 25.3594C85.4891 25.3594 84.1391 26.5454 83.0001 27.9944ZM105.84 29.1874C106.523 30.4684 106.827 32.1784 106.515 32.9894C106.198 33.8174 106.383 34.1954 106.938 33.8524C108.48 32.8994 108.101 29.7484 106.263 28.2314C104.749 26.9834 104.711 27.0694 105.84 29.1874ZM154.927 28.0305C154.927 29.0395 151.74 32.3594 150.772 32.3594C149.138 32.3594 149.948 28.5004 151.677 28.0484C154.465 27.3204 154.927 27.3175 154.927 28.0305ZM92.6321 33.0484C91.7011 34.8024 89.9361 36.9404 88.7101 37.7984C87.4851 38.6574 86.8951 39.3594 87.4001 39.3594C87.9051 39.3594 89.5801 38.1504 91.1221 36.6724C93.7691 34.1364 95.2881 34.5984 92.7271 37.1594C91.8151 38.0714 91.8111 38.3594 92.7081 38.3594C94.0781 38.3594 95.282 34.3554 94.715 31.6884C94.403 30.2174 93.9951 30.4834 92.6321 33.0484ZM149.927 35.7524C149.927 36.5184 149.201 37.4234 148.314 37.7644C147.046 38.2514 146.953 38.6854 147.879 39.8014C148.814 40.9284 148.645 41.4394 147.057 42.2894C145.958 42.8784 144.579 43.3594 143.993 43.3594C142.15 43.3594 142.835 41.5234 144.926 40.8594C146.528 40.3514 146.726 39.8514 145.92 38.3454C145.144 36.8964 145.316 36.2314 146.67 35.4434C149.085 34.0374 149.927 34.1174 149.927 35.7524ZM33.3871 37.0654C38.0191 38.4914 38.9271 39.1504 38.9271 41.0844C38.9271 43.0964 38.5691 43.3144 36.1771 42.7554C32.3701 41.8674 25.6591 38.1214 25.1671 36.6094C24.6161 34.9164 26.8021 35.0374 33.3871 37.0654ZM73.4781 36.6094C72.6061 39.4314 72.1431 46.5384 72.8841 45.7304C73.7191 44.8204 74.986 35.3594 74.273 35.3594C74.048 35.3594 73.6901 35.9224 73.4781 36.6094ZM106.999 39.7904C109.495 37.3994 109.927 37.2574 109.927 38.8274C109.927 40.5524 110.044 40.5634 111.766 39.0054C113.52 37.4184 113.731 37.6644 116.364 44.3764C119.941 53.4944 120.556 58.2444 118.638 61.9464C115.981 67.0744 112.251 70.3594 109.086 70.3594C107.47 70.3594 105.093 71.2144 103.802 72.2594C101.54 74.0904 101.328 74.0954 97.9411 72.3944C96.0081 71.4244 92.6961 70.0694 90.5801 69.3854C87.0161 68.2324 86.768 67.9084 87.217 64.9994C87.517 63.0514 87.1441 61.2264 86.2341 60.1924C85.1151 58.9204 85.0241 58.0474 85.8471 56.5084C87.4361 53.5404 87.1741 52.3594 84.9271 52.3594C83.4731 52.3594 82.9271 51.6924 82.9271 49.9184C82.9271 46.4974 84.4221 45.9554 85.7591 48.8904C87.1631 51.9714 91.4081 52.4504 90.4461 49.4204C90.0071 48.0344 90.4871 47.1394 92.1291 46.2824C93.3931 45.6234 96.4521 43.0464 98.9271 40.5564L103.427 36.0294L103.749 39.3124L104.071 42.5954L106.999 39.7904ZM119.904 40.3164C121.211 42.7594 121.219 46.0614 119.919 46.8644C119.01 47.4264 114.927 39.5564 114.927 37.2414C114.927 35.7764 118.733 38.1284 119.904 40.3164ZM66.288 38.8614C65.514 40.8774 66.477 44.4124 68.465 46.8594L70.09 48.8594L69.3281 46.8594C68.9081 45.7594 68.5811 43.6354 68.6011 42.1404C68.6221 40.5304 68.2181 39.6795 67.6121 40.0545C66.9901 40.4385 66.8381 40.0344 67.2261 39.0234C67.5771 38.1084 67.6391 37.3594 67.3641 37.3594C67.0891 37.3594 66.605 38.0354 66.288 38.8614ZM144.357 38.2464C145.093 39.4374 143.024 41.0464 139.671 41.8874C136.057 42.7944 136.06 40.8934 139.677 38.9314C142.93 37.1664 143.627 37.0644 144.357 38.2464ZM29.3721 41.2704C29.5751 41.5994 28.9161 42.8894 27.9071 44.1354C26.1161 46.3474 25.9761 46.3624 22.0001 44.7714C15.9121 42.3364 16.6201 40.2654 23.4641 40.4894C26.5091 40.5894 29.1681 40.9404 29.3721 41.2704ZM93.368 41.8274C92.301 42.6354 91.9341 43.3104 92.5551 43.3274C93.1751 43.3454 94.2421 42.6844 94.9271 41.8594C96.5081 39.9544 95.862 39.9414 93.368 41.8274ZM41.9491 45.3714C45.5871 47.3184 42.7321 48.6584 35.9871 48.1704C29.6881 47.7144 27.1541 46.4194 28.4511 44.3204C29.3521 42.8634 38.6091 43.5834 41.9491 45.3714ZM142.743 45.0754C142.378 46.9704 137.412 50.1784 136.404 49.1694C136.054 48.8194 136.53 47.3684 137.462 45.9464C139.402 42.9864 143.268 42.3484 142.743 45.0754ZM107.907 45.8834C105.988 48.1964 107.125 48.4314 109.788 46.2734C111.396 44.9694 111.674 44.3594 110.66 44.3594C109.842 44.3594 108.603 45.0454 107.907 45.8834ZM29.6771 48.1834C30.6731 48.8164 30.6651 49.3354 29.6361 50.7424C28.5271 52.2594 27.9651 52.3344 25.6361 51.2724C22.0871 49.6554 22.1111 47.3544 25.6771 47.3744C27.1891 47.3834 28.9891 47.7474 29.6771 48.1834ZM111.066 50.4454C109.458 51.7494 109.18 52.3594 110.194 52.3594C111.691 52.3594 114.551 49.6474 113.82 48.9214C113.604 48.7074 112.365 49.3924 111.066 50.4454ZM41.6771 51.5714C44.3201 53.7554 42.9111 54.6364 37.7541 54.0254C31.9111 53.3334 29.5831 51.8414 31.9351 50.2964C33.6161 49.1924 39.7741 49.9984 41.6771 51.5714ZM139.927 51.3004C139.927 51.8184 139.477 52.5194 138.927 52.8594C138.377 53.1994 137.927 52.7754 137.927 51.9184C137.927 51.0614 138.377 50.3594 138.927 50.3594C139.477 50.3594 139.927 50.7824 139.927 51.3004ZM91.4271 54.3594C90.4011 55.4934 90.1171 56.3594 90.7721 56.3594C91.4071 56.3594 91.9271 55.9474 91.9271 55.4424C91.9271 54.9384 93.1651 54.0744 94.6771 53.5214C96.9711 52.6844 97.0791 52.5044 95.3321 52.4384C94.1801 52.3954 92.4221 53.2594 91.4271 54.3594ZM65.4141 56.3024C65.8891 58.4624 66.4851 59.0824 67.6551 58.6334C68.8731 58.1664 69.1241 58.4994 68.7191 60.0484C68.4271 61.1634 68.602 62.8144 69.107 63.7174C70.487 66.1824 68.5901 65.6934 65.9751 62.9104C64.5841 61.4294 63.9201 59.8194 64.2971 58.8374C64.6401 57.9454 64.4561 56.3474 63.8881 55.2874C63.2611 54.1144 63.2311 53.3594 63.8121 53.3594C64.3381 53.3594 65.0591 54.6834 65.4141 56.3024ZM35.7771 55.2454C36.5321 55.7234 38.9081 55.7014 41.1591 55.1954C46.1231 54.0804 46.9581 54.7304 43.9341 57.3534C41.3521 59.5924 36.9271 60.0534 36.9271 58.0834C36.9271 57.1974 35.7041 56.9234 32.9271 57.1884C29.2511 57.5384 27.9351 56.6855 29.5941 55.0265C30.5271 54.0935 34.1621 54.2224 35.7771 55.2454ZM136.244 60.7194C144.886 65.5534 148.885 69.0155 150.62 73.1665C152.741 78.2425 151.553 82.0754 147.612 82.8764C145.86 83.2324 143.036 84.0014 141.336 84.5844C138.89 85.4244 137.284 85.2795 133.638 83.8875C130.218 82.5805 127.152 82.2434 121.729 82.5774C114.544 83.0194 114.335 82.9624 108.677 79.0484C105.514 76.8604 102.927 74.7005 102.927 74.2495C102.927 71.5465 114.807 70.5004 115.683 73.1264C115.847 73.6194 118.557 72.7134 121.704 71.1124C126.753 68.5454 128.272 68.2434 134.607 68.5474C138.556 68.7364 141.256 68.5534 140.607 68.1404C139.958 67.7274 136.466 67.3835 132.846 67.3745C127.845 67.3635 125.118 67.9405 121.479 69.7835C117.379 71.8585 113.927 72.2755 113.927 70.6935C113.927 70.4455 115.249 68.5815 116.864 66.5505C118.48 64.5205 120.117 61.5094 120.502 59.8594C120.888 58.2094 121.357 56.5804 121.544 56.2394C122.288 54.8844 130.026 57.2424 136.244 60.7194ZM132.927 56.3594C132.927 56.9094 132.729 57.3594 132.486 57.3594C132.243 57.3594 131.767 56.9094 131.427 56.3594C131.087 55.8094 131.286 55.3594 131.868 55.3594C132.45 55.3594 132.927 55.8094 132.927 56.3594ZM98.437 57.3434C98.102 57.8844 96.3881 58.7444 94.6281 59.2534C92.3141 59.9224 92.0201 60.2044 93.5661 60.2694C94.7431 60.3184 96.7681 59.4744 98.0661 58.3924C99.3651 57.3114 100.116 56.4114 99.7361 56.3924C99.3561 56.3744 98.771 56.8024 98.437 57.3434ZM109.337 59.2134C109.769 59.9134 109.133 60.7465 107.741 61.3045C106.218 61.9155 105.983 62.2544 107.055 62.2964C109.356 62.3854 111.415 59.7784 109.821 58.7944C109.055 58.3204 108.879 58.4734 109.337 59.2134ZM37.4271 60.3594C37.7781 60.9264 36.9371 61.3594 35.4861 61.3594C34.0791 61.3594 32.9271 60.9094 32.9271 60.3594C32.9271 59.8094 33.8001 59.3594 34.8681 59.3594C35.9361 59.3594 37.0871 59.8094 37.4271 60.3594ZM47.9271 62.4134C47.9271 63.5414 45.1271 64.3594 41.2621 64.3594C37.2961 64.3594 37.1211 62.5954 40.8991 60.6964C43.2091 59.5344 47.9271 60.6874 47.9271 62.4134ZM102.927 61.3594C102.927 61.9094 103.404 62.3594 103.986 62.3594C104.568 62.3594 104.767 61.9094 104.427 61.3594C104.087 60.8094 103.611 60.3594 103.368 60.3594C103.125 60.3594 102.927 60.8094 102.927 61.3594ZM110.927 62.3605C107.319 64.1985 102.895 68.3594 104.55 68.3594C105.063 68.3594 106.28 67.4284 107.254 66.2904C108.229 65.1524 110.354 63.7584 111.977 63.1924C113.599 62.6264 114.927 61.7574 114.927 61.2614C114.927 60.7654 114.814 60.4084 114.677 60.4684C114.54 60.5284 112.852 61.3795 110.927 62.3605ZM161.555 64.6504C165.424 68.8724 165.687 69.9835 163.017 70.8305C161.967 71.1645 160.508 72.1595 159.776 73.0415C158.811 74.2035 159.663 74.0244 162.863 72.3924C168.32 69.6084 177.699 68.6084 181.926 70.3594C183.614 71.0584 185.88 72.7544 186.961 74.1294C189.462 77.3094 189.583 81.3575 187.177 81.3655C184.915 81.3725 177.625 83.3914 178.11 83.8764C178.314 84.0804 180.44 83.8064 182.835 83.2684C190.911 81.4544 196.927 85.2374 196.927 92.1314C196.927 98.6284 191.122 105.588 182.427 109.515C178.485 111.295 175.557 111.782 168.59 111.816C160.482 111.855 159.594 111.664 157.84 109.498C156.395 107.715 155.927 107.531 155.927 108.745C155.927 109.63 154.317 112.135 152.349 114.313C146.064 121.27 130.08 125.546 119.009 123.231C112.617 121.895 109.348 121.792 106.247 122.827C104.417 123.439 103.752 122.939 102.095 119.707C101.01 117.591 98.9531 114.768 97.5241 113.435C96.0961 112.101 94.9271 110.474 94.9271 109.82C94.9271 105.301 85.1161 99.8914 81.3031 102.307C79.5971 103.389 79.6451 103.45 81.8351 102.98C85.4541 102.204 90.7521 104.871 92.7001 108.45C93.6501 110.196 96.1151 113.617 98.1771 116.053C100.24 118.488 101.927 121.532 101.927 122.816C101.927 125.959 96.0591 130.977 90.6961 132.421C83.2231 134.434 71.3931 130.493 74.7691 127.117C77.2641 124.622 75.7621 124.143 73.1771 126.608C67.0031 132.498 55.8331 133.122 50.5821 127.871C48.6261 125.915 48.4101 121.353 50.1771 119.324C50.8651 118.535 50.2341 118.932 48.7751 120.206C43.9161 124.451 32.6781 123.923 34.4451 119.532C34.8161 118.612 35.3661 117.252 35.6681 116.509C35.9701 115.767 35.0661 116.311 33.6581 117.718C30.6141 120.763 27.0971 121.803 22.6701 120.966C15.1841 119.551 8.93806 113.032 8.93106 106.625C8.92606 102.458 13.0951 97.7404 18.4271 95.8794C21.9411 94.6524 22.5711 94.6694 23.6111 96.0214C24.5941 97.3004 24.8481 96.9264 25.1111 93.8114C25.5391 88.7304 30.8641 84.3464 37.5161 83.5964C41.4891 83.1484 42.1601 83.3094 41.6681 84.5914C41.2901 85.5764 43.0251 84.9504 46.5471 82.8294C54.3751 78.1154 60.18 76.9154 66.258 78.7524C72.102 80.5184 76.9951 83.7404 79.5051 87.4764C81.6221 90.6264 82.6631 90.6044 80.9731 87.4454C79.2281 84.1854 81.5551 84.8434 85.0931 88.6094C87.1641 90.8144 87.7891 91.1565 87.0371 89.6755C85.4191 86.4905 85.5361 86.3594 89.9941 86.3594C94.1261 86.3594 97.7211 88.3785 104.427 94.4645C106.921 96.7275 108.26 97.1594 112.364 97.0234C117.043 96.8684 117.345 96.6904 118.142 93.6134C118.739 91.3064 118.552 89.5345 117.495 87.4905C116.676 85.9075 116.289 84.3315 116.634 83.9865C117.87 82.7505 130.064 83.3894 133.625 84.8774C137.111 86.3344 137.181 86.4594 135.343 87.9404C133.076 89.7674 133.778 89.5485 140.427 86.3565C144.652 84.3275 146.9 83.9624 154.927 83.9974C160.152 84.0204 165.69 84.5594 167.234 85.1964C168.778 85.8324 169.787 85.9414 169.475 85.4374C168.78 84.3124 159.992 82.3594 155.628 82.3594C152.46 82.3594 152.427 82.3084 152.427 77.4324C152.427 71.8824 150.252 68.1334 145.132 64.8594C143.412 63.7594 141.987 62.5544 141.966 62.1824C141.897 60.9824 145.276 60.4844 151.805 60.7304C157.743 60.9534 158.415 61.2244 161.555 64.6504ZM37.0501 67.8584C38.8761 68.0004 39.3541 68.5444 39.1131 70.2074C38.9111 71.6024 39.4441 72.5804 40.6131 72.9564C41.6111 73.2784 43.4101 74.0104 44.6111 74.5834C45.8131 75.1574 47.7251 75.3844 48.8601 75.0874C49.9961 74.7904 51.2081 75.0045 51.5531 75.5635C51.8991 76.1225 53.6991 76.3334 55.5541 76.0324C57.4091 75.7314 58.9271 75.9064 58.9271 76.4224C58.9271 76.9374 58.1401 77.3635 57.1771 77.3695C56.2141 77.3745 52.9521 78.5474 49.9271 79.9754C46.2971 81.6884 42.5321 82.6204 38.8541 82.7154C34.6071 82.8254 32.2911 83.5144 29.1251 85.6094C23.1841 89.5414 18.5721 89.1875 16.8541 84.6665C15.8071 81.9135 17.8151 77.0005 20.3901 76.0125C21.2351 75.6875 21.9271 74.3834 21.9271 73.1134C21.9271 69.8934 24.6141 66.3984 28.3051 64.8184C31.1531 63.5994 31.5701 63.6664 33.0501 65.5784C33.9431 66.7314 35.7431 67.7574 37.0501 67.8584ZM38.9271 65.3594C40.0961 66.1144 39.8201 66.3324 37.6771 66.3444C36.1651 66.3524 34.9271 65.9094 34.9271 65.3594C34.9271 64.0954 36.9701 64.0954 38.9271 65.3594ZM47.9271 66.8594C47.9271 67.9074 46.8711 68.3594 44.4271 68.3594C39.0081 68.3594 40.1751 65.6315 45.6771 65.4385C47.0451 65.3905 47.9271 65.9474 47.9271 66.8594ZM109.799 67.0234C108.555 68.5314 108.637 68.5754 110.677 67.4884C113.004 66.2484 113.577 65.3594 112.049 65.3594C111.567 65.3594 110.554 66.1084 109.799 67.0234ZM53.9271 69.8334C53.9271 71.4044 49.0621 74.3594 46.4771 74.3594C44.1921 74.3594 44.5931 71.7065 47.1501 69.9165C49.9871 67.9285 53.9271 67.8804 53.9271 69.8334ZM43.9271 70.2524C43.9271 71.4794 41.1101 72.4645 40.4861 71.4555C40.2091 71.0065 40.2691 70.3505 40.6211 69.9985C41.5741 69.0455 43.9271 69.2264 43.9271 70.2524ZM59.9271 72.1984C59.9271 73.1964 55.4471 75.3594 53.3801 75.3594C51.3831 75.3594 51.5541 73.6764 53.6771 72.4394C55.8071 71.1994 59.9271 71.0404 59.9271 72.1984ZM114.427 89.3594C114.767 89.9094 115.243 90.3594 115.486 90.3594C115.729 90.3594 115.927 89.9094 115.927 89.3594C115.927 88.8094 115.45 88.3594 114.868 88.3594C114.286 88.3594 114.087 88.8094 114.427 89.3594Z"/>
</mask>
<path fill-rule="evenodd" clip-rule="evenodd" d="M163.427 1.89645C160.127 3.08845 156.012 4.33445 154.283 4.66545C151.42 5.21345 151.189 5.06944 151.705 3.06344C152.131 1.40944 150.748 2.26645 146.164 6.49745C142.804 9.59745 138.789 12.7304 137.241 13.4584C135.693 14.1874 131.052 18.4614 126.927 22.9584C122.802 27.4544 119.14 31.1844 118.788 31.2464C118.437 31.3084 117.857 29.7975 117.499 27.8885C116.265 21.3125 107.537 14.1354 101.185 14.4734C99.6681 14.5544 96.2901 14.0184 93.6771 13.2824C87.1721 11.4504 80.961 13.1525 75.383 18.2935C73.091 20.4065 70.2521 22.6505 69.0751 23.2805C66.6601 24.5725 62.9271 31.2484 62.9271 34.2724C62.9271 35.3684 62.4181 37.3814 61.7971 38.7464C60.6811 41.1934 60.6321 41.2025 58.0471 39.4295C56.6061 38.4415 53.0561 36.1694 50.1581 34.3794C47.2601 32.5904 44.0161 30.0164 42.9481 28.6594C41.8811 27.3024 40.5701 26.4615 40.0361 26.7915C39.5021 27.1225 38.7791 26.9284 38.4281 26.3614C38.0781 25.7944 36.0021 24.4174 33.8141 23.3014C31.6271 22.1854 28.0571 19.6654 25.8821 17.6994C22.8521 14.9624 21.9271 14.5304 21.9271 15.8514C21.9271 17.1305 21.3461 17.4395 19.6771 17.0455C18.4391 16.7545 13.4901 16.2025 8.67706 15.8195C-0.801939 15.0645 -1.96993 15.7224 2.54407 19.2734C4.73907 20.9994 4.90007 21.4324 3.54407 21.9524C0.547066 23.1034 1.73507 26.2204 6.00107 28.3974C9.22807 30.0434 9.84106 30.7574 8.95006 31.8314C7.59806 33.4604 10.9841 37.0844 14.7401 38.0274C16.4481 38.4564 16.9561 39.1394 16.5951 40.5214C16.2551 41.8214 17.0311 43.1154 19.0391 44.6004C20.6571 45.7964 21.7651 47.3404 21.5001 48.0304C20.9751 49.3974 25.4131 53.3594 27.4681 53.3594C28.2601 53.3594 28.5361 54.1374 28.2011 55.4184C27.8111 56.9114 28.2241 57.6244 29.7021 58.0114C30.8241 58.3044 31.9601 59.3774 32.2261 60.3964C32.5921 61.7934 32.0121 62.4014 29.8611 62.8744C26.6881 63.5704 20.9271 69.5135 20.9271 72.0895C20.9271 73.0025 19.8341 74.8995 18.4981 76.3045C14.9001 80.0895 14.4001 83.4194 16.9431 86.6524C18.2131 88.2664 20.0521 89.3594 21.5001 89.3594C25.2831 89.3594 24.4511 92.2525 20.1771 93.9555C13.5621 96.5905 11.8021 97.7265 9.64906 100.749C3.12006 109.918 14.2061 123.552 26.9621 122.041C30.3661 121.638 32.7811 121.938 34.9861 123.038C37.1831 124.135 39.6071 124.439 42.9721 124.04C47.3711 123.519 47.8301 123.661 48.1151 125.629C48.2861 126.818 50.0021 128.862 51.9271 130.172C54.9881 132.254 56.2731 132.495 62.1621 132.091C65.8671 131.836 69.5301 131.104 70.3021 130.462C71.3951 129.556 72.4541 129.732 75.0671 131.255C83.1551 135.967 93.5811 134.705 100.058 128.228C102.186 126.1 104.737 124.359 105.727 124.359C106.717 124.359 108.067 123.819 108.728 123.158C109.647 122.239 110.689 122.227 113.178 123.111C125.791 127.586 146.751 123.249 153.792 114.707C156.343 111.611 156.765 111.452 159.972 112.372C176.503 117.113 197.927 105.9 197.927 92.5075C197.927 88.6075 197.426 87.5735 193.927 84.2445C191.727 82.1515 189.927 79.5144 189.927 78.3844C189.927 77.2544 188.423 74.6884 186.585 72.6824C182.798 68.5504 177.29 67.1655 170.446 68.6245C167.904 69.1665 166.344 69.1094 166.129 68.4664C165.368 66.1814 161.553 62.2174 158.692 60.7374C155.137 58.8994 145.961 58.7354 142.753 60.4524C140.99 61.3954 139.943 61.2845 137.324 59.8735C133.555 57.8445 133.795 55.9494 138.007 54.4814C139.873 53.8304 140.927 52.7674 140.927 51.5334C140.927 50.4724 141.602 49.0444 142.427 48.3594C143.252 47.6744 143.927 46.5384 143.927 45.8344C143.927 45.1314 145.327 44.0664 147.039 43.4704C149.337 42.6694 149.985 41.9524 149.515 40.7274C149.158 39.7984 149.591 38.2834 150.501 37.2774C151.393 36.2924 151.858 35.0564 151.534 34.5314C151.209 34.0074 152.065 32.8434 153.436 31.9454C154.806 31.0474 155.927 29.3824 155.927 28.2444C155.927 27.1064 156.827 25.0304 157.927 23.6324C159.027 22.2334 159.927 20.4574 159.927 19.6844C159.927 18.9114 160.888 16.9794 162.062 15.3914C163.305 13.7094 163.931 11.8135 163.562 10.8495C163.151 9.77945 164.213 7.62745 166.568 4.75245C168.571 2.30845 170.033 0.17845 169.818 0.0194501C169.603 -0.14055 166.727 0.704449 163.427 1.89645ZM163.927 5.85945C162.061 7.78445 158.896 10.4954 156.892 11.8834C153.629 14.1454 152.983 14.2704 150.696 13.0834C148.363 11.8734 148.255 11.5474 149.447 9.30944C150.428 7.46544 152.567 6.32945 158.089 4.71945C167.876 1.86445 167.811 1.85245 163.927 5.85945ZM147.446 10.3224C146.062 13.0524 143.476 16.9894 141.697 19.0724C138.891 22.3594 139.157 22.2255 143.708 18.0585C148.623 13.5565 150.927 12.8115 150.927 15.7225C150.927 17.2495 145.335 22.6494 141.927 24.4134C140.552 25.1254 137.953 25.7584 136.152 25.8204C133.589 25.9084 133.006 25.5984 133.472 24.3964C133.799 23.5514 134.319 21.6084 134.628 20.0804C135.003 18.2234 137.551 15.3265 142.308 11.3495C146.223 8.07645 149.547 5.38944 149.694 5.37844C149.841 5.36844 148.829 7.59244 147.446 10.3224ZM162.927 11.7814C162.927 13.7324 154.855 20.4925 152.96 20.1275C150.026 19.5625 151.458 16.8675 156.416 13.6235C161.977 9.98445 162.927 9.71644 162.927 11.7814ZM99.7791 16.9814C103.902 19.3694 104.212 19.4304 102.522 17.5164C100.838 15.6104 100.809 15.3594 102.272 15.3594C103.182 15.3594 103.927 15.8094 103.927 16.3594C103.927 16.9094 104.843 17.3594 105.962 17.3594C110.7 17.3594 115.8 23.4784 117.213 30.8594C117.528 32.5094 118.112 34.6994 118.509 35.7254C119.147 37.3764 118.981 37.4584 117.079 36.4404C115.895 35.8074 114.927 34.4314 114.927 33.3834C114.927 32.3354 114.429 31.1695 113.82 30.7935C113.098 30.3475 112.916 30.7624 113.297 31.9844C113.618 33.0154 113.449 34.5344 112.919 35.3594C112.143 36.5694 111.955 36.4244 111.942 34.6094C111.934 33.3714 111.477 32.3594 110.927 32.3594C110.377 32.3594 109.927 33.1114 109.927 34.0304C109.927 35.7654 107.184 39.3594 105.86 39.3594C105.443 39.3594 104.799 37.5594 104.427 35.3594C104.055 33.1594 103.355 31.3594 102.87 31.3594C102.386 31.3594 102.235 31.9994 102.535 32.7814C103.169 34.4324 101.308 38.3594 99.8921 38.3594C99.3611 38.3594 98.9271 37.2714 98.9271 35.9414C98.9271 33.1424 98.0011 30.3594 97.0701 30.3594C96.7161 30.3594 96.4671 32.8544 96.5151 35.9035C96.5991 41.1804 96.4181 41.5944 92.7651 44.4874C90.6541 46.1594 88.9271 48.2194 88.9271 49.0654C88.9271 50.3204 88.6501 50.3744 87.4271 49.3594C85.2271 47.5334 85.5991 43.7025 88.1501 41.9165C89.3721 41.0605 89.921 40.3594 89.37 40.3594C88.818 40.3594 86.9181 41.8954 85.1471 43.7734C81.2281 47.9284 80.584 53.3594 84.01 53.3594C85.233 53.3594 85.9211 53.8764 85.6771 54.6094C85.4481 55.2974 84.1731 55.8594 82.8441 55.8594C80.7231 55.8594 80.4271 55.4054 80.4271 52.1574C80.4271 48.6694 79.3311 48.0994 78.8921 51.3594C78.4181 54.8804 79.0741 56.4644 81.3661 57.3364C84.1331 58.3884 86.3601 61.8494 85.3361 63.5064C84.9351 64.1554 84.1101 63.3215 83.3381 61.4855C82.5121 59.5215 81.3081 58.3594 80.0981 58.3594C77.2571 58.3594 75.6011 55.8274 76.3461 52.6224C76.8221 50.5744 76.7251 50.2474 75.9731 51.3594C75.4141 52.1844 74.8911 53.7594 74.8111 54.8594C74.7301 55.9614 74.3161 55.2874 73.8891 53.3594L73.1151 49.8594L73.271 53.8594C73.36 56.1514 73.9251 57.8594 74.5941 57.8594C75.2351 57.8594 76.1351 58.2694 76.5941 58.7694C77.0781 59.2984 76.9031 59.3784 76.1771 58.9604C75.4901 58.5654 74.9271 58.6694 74.9271 59.1934C74.9271 60.5214 77.8701 61.5124 79.9011 60.8674C81.0421 60.5054 81.9661 61.1504 82.7391 62.8454C83.3691 64.2284 84.4341 65.3594 85.1061 65.3594C85.9491 65.3594 86.0061 65.6804 85.2901 66.3964C84.5831 67.1034 83.406 67.1115 81.59 66.4215C80.125 65.8645 78.9271 65.7744 78.9271 66.2204C78.9271 66.6664 81.7291 67.8105 85.1531 68.7625C93.5821 71.1065 105.322 77.3574 111.582 82.8374C116.453 87.0994 116.721 87.5844 116.426 91.6044C116.254 93.9444 116.052 96.0844 115.976 96.3594C115.9 96.6344 114.948 95.1724 113.859 93.1094C111.366 88.3864 110.561 88.2394 112.491 92.8594C114.377 97.3714 112.912 97.3394 109.445 92.7934C106.31 88.6834 105.21 88.7474 107.371 92.9154C109.178 96.3964 108.377 97.6014 106.08 94.8594C105.158 93.7594 102.236 91.1125 99.5871 88.9775C95.1371 85.3925 94.2601 85.0854 88.0981 84.9594C82.5321 84.8464 80.2621 84.2194 74.3951 81.1774C70.5281 79.1724 65.7291 77.2254 63.7311 76.8504C60.2191 76.1914 60.1311 76.0715 61.1161 73.2485C61.6751 71.6425 63.0871 69.6605 64.2531 68.8435C65.8871 67.6995 66.0061 67.3594 64.7721 67.3594C63.8921 67.3594 62.6121 68.0344 61.9271 68.8594C60.5551 70.5134 54.9271 70.9354 54.9271 69.3854C54.9271 68.8494 56.2481 67.7274 57.8641 66.8924C62.6891 64.3974 62.3541 63.2834 57.4331 65.4594C52.4181 67.6784 48.9271 67.2454 48.9271 64.4054C48.9271 63.0244 49.9781 62.4284 53.2921 61.9324C55.6931 61.5724 58.5051 60.5844 59.5421 59.7364C61.3741 58.2394 61.3701 58.2154 59.4271 58.8934C52.4161 61.3364 45.4271 61.0644 45.4271 58.3494C45.4271 57.2054 46.9961 56.7904 52.1771 56.5634C55.8901 56.4014 58.9271 55.9394 58.9271 55.5374C58.9271 55.1354 57.1761 54.9734 55.0351 55.1774C52.5821 55.4114 49.4411 54.7954 46.5351 53.5104C38.6501 50.0224 41.3981 47.0264 49.8941 49.8484C52.6671 50.7694 55.4961 51.2964 56.1811 51.0204C56.8671 50.7434 56.5271 50.4715 55.4271 50.4165C50.2351 50.1545 39.9271 43.6374 39.9271 40.6174C39.9271 38.6664 43.5601 39.8844 47.9271 43.2984C51.6631 46.2194 55.3121 48.3594 56.5571 48.3594C56.9761 48.3594 55.1991 47.0154 52.6091 45.3724C47.7171 42.2704 41.9271 34.4674 41.9271 30.9764C41.9271 29.1355 42.1341 29.1804 44.6771 31.5834C46.1891 33.0114 50.2031 35.7964 53.5971 37.7714C59.0681 40.9544 59.9371 41.8995 61.2701 46.1105C62.0971 48.7225 62.7281 51.7594 62.6721 52.8594C62.3661 58.8694 63.0931 61.6144 65.6621 64.1544C67.1661 65.6424 68.4041 67.3034 68.4121 67.8454C68.4361 69.4174 71.9741 69.6724 74.5581 68.2894C75.8611 67.5914 76.9271 66.2114 76.9271 65.2214C76.9271 62.8694 74.2991 63.8284 73.6191 66.4284C72.1871 71.9054 69.456 65.0624 70.426 58.4284C70.823 55.7144 70.723 55.3384 70.008 56.8594C69.133 58.7194 69.062 58.6844 68.982 56.3594C68.935 54.9844 68.4261 53.1844 67.8511 52.3594C67.0741 51.2444 66.9561 51.7574 67.3931 54.3594L67.9811 57.8594L65.5251 53.3594C62.3321 47.5084 61.4061 42.1794 63.0621 39.1844C63.7681 37.9054 64.226 36.2694 64.079 35.5494C63.148 30.9864 69.6771 22.3594 74.0631 22.3594C75.1851 22.3594 75.7651 21.9064 75.4001 21.3154C74.4511 19.7804 76.8841 17.2974 81.4271 15.1634C86.6611 12.7054 93.5801 13.3904 99.7791 16.9814ZM20.0471 18.5084C22.2881 19.3514 23.4981 20.8764 25.7631 25.7144C25.9831 26.1844 25.2081 26.2664 24.0401 25.8954C20.7961 24.8654 20.1801 27.9354 23.0241 30.9634C24.9691 33.0324 25.1271 33.6174 23.9411 34.3514C22.7341 35.0964 22.8181 35.5884 24.4671 37.4464L26.4271 39.6554L22.0851 38.9804C17.3821 38.2504 9.92706 34.8564 9.92706 33.4464C9.92706 32.2444 12.3531 31.4205 14.5811 31.8645C20.8451 33.1135 22.9741 33.2444 22.4181 32.3444C22.0831 31.8024 20.7921 31.3594 19.5491 31.3594C15.8851 31.3594 7.31306 28.4944 4.77606 26.4214C2.85806 24.8534 2.66306 24.2614 3.71206 23.1954C4.76706 22.1224 6.13706 22.2884 11.3991 24.1244C20.6691 27.3604 21.7241 26.7974 12.9271 23.3104C8.80206 21.6754 4.30206 19.4554 2.92706 18.3784L0.427061 16.4185L8.92706 16.9714C13.6021 17.2744 18.6061 17.9664 20.0471 18.5084ZM34.2191 24.7624C38.1231 26.9874 39.4691 28.5284 41.4821 33.0804C42.8411 36.1524 43.8241 38.7954 43.6661 38.9534C43.2741 39.3454 32.6331 35.7964 29.7551 34.3144C26.8511 32.8184 21.9271 28.2834 21.9271 27.1054C21.9271 25.5794 26.2181 27.5014 32.1591 31.6884C35.3121 33.9104 38.1451 35.4744 38.4541 35.1654C38.7641 34.8554 37.0851 33.4664 34.7221 32.0784C30.2921 29.4754 27.5131 26.3274 24.4961 20.4934L22.7551 17.1264L26.0911 19.5794C27.9261 20.9284 31.5831 23.2604 34.2191 24.7624ZM132.381 24.2034C131.534 27.0544 129.464 30.9565 127.78 32.8735C126.097 34.7905 125.195 36.3594 125.777 36.3594C126.358 36.3594 127.642 35.1794 128.63 33.7374C133.184 27.0934 136.927 24.5664 136.927 28.1364C136.927 30.7104 134.297 34.0794 129.671 37.4304C127.447 39.0414 126.064 40.3594 126.599 40.3594C127.133 40.3594 129.338 39.0224 131.499 37.3874C136.043 33.9484 137.927 33.6024 137.927 36.2044C137.927 38.7834 134.571 41.5654 129.09 43.5314C126.525 44.4514 125.229 45.2394 126.209 45.2814C127.189 45.3244 129.631 44.6744 131.636 43.8364C134.064 42.8214 135.615 42.6474 136.28 43.3124C137.872 44.9044 134.196 48.1664 129.553 49.2814C125.454 50.2664 125.461 50.2694 130.569 49.7374C134.068 49.3724 135.954 49.5944 136.472 50.4324C137.843 52.6504 133.831 54.3594 127.255 54.3594C121.371 54.3594 120.924 54.1974 120.334 51.8464C119.974 50.4124 120.229 48.7005 120.926 47.8605C121.705 46.9225 121.913 45.0185 121.5 42.6235C119.43 30.6305 119.044 31.9964 126.515 24.8844C130.254 21.3244 133.45 18.5484 133.617 18.7154C133.784 18.8824 133.227 21.3524 132.381 24.2034ZM157.927 20.8534C157.927 22.3024 150.519 28.3594 148.747 28.3594C147.272 28.3594 152.26 22.2624 154.927 20.8054C158.074 19.0864 157.927 19.0844 157.927 20.8534ZM150.927 21.6724C150.927 23.5144 146.09 27.9404 141.39 30.3994C137.26 32.5594 139.09 32.4704 144.639 30.2404C146.405 29.5304 148.103 29.2024 148.412 29.5114C149.523 30.6214 147.667 33.3564 144.46 35.3394C140.596 37.7274 138.927 37.8994 138.927 35.9094C138.927 35.1114 138.321 34.0994 137.581 33.6594C136.453 32.9894 136.453 32.3324 137.584 29.6094C138.326 27.8224 139.526 26.3594 140.252 26.3594C140.977 26.3594 143.338 25.0224 145.499 23.3874C149.874 20.0764 150.927 19.7444 150.927 21.6724ZM83.0001 27.9944C81.5091 29.8894 80.969 31.9244 81.077 35.2444C81.178 38.3744 81.3471 38.8944 81.6011 36.8594C82.3041 31.2234 82.978 29.3085 84.952 27.3345C86.038 26.2485 86.5101 25.3594 86.0001 25.3594C85.4891 25.3594 84.1391 26.5454 83.0001 27.9944ZM105.84 29.1874C106.523 30.4684 106.827 32.1784 106.515 32.9894C106.198 33.8174 106.383 34.1954 106.938 33.8524C108.48 32.8994 108.101 29.7484 106.263 28.2314C104.749 26.9834 104.711 27.0694 105.84 29.1874ZM154.927 28.0305C154.927 29.0395 151.74 32.3594 150.772 32.3594C149.138 32.3594 149.948 28.5004 151.677 28.0484C154.465 27.3204 154.927 27.3175 154.927 28.0305ZM92.6321 33.0484C91.7011 34.8024 89.9361 36.9404 88.7101 37.7984C87.4851 38.6574 86.8951 39.3594 87.4001 39.3594C87.9051 39.3594 89.5801 38.1504 91.1221 36.6724C93.7691 34.1364 95.2881 34.5984 92.7271 37.1594C91.8151 38.0714 91.8111 38.3594 92.7081 38.3594C94.0781 38.3594 95.282 34.3554 94.715 31.6884C94.403 30.2174 93.9951 30.4834 92.6321 33.0484ZM149.927 35.7524C149.927 36.5184 149.201 37.4234 148.314 37.7644C147.046 38.2514 146.953 38.6854 147.879 39.8014C148.814 40.9284 148.645 41.4394 147.057 42.2894C145.958 42.8784 144.579 43.3594 143.993 43.3594C142.15 43.3594 142.835 41.5234 144.926 40.8594C146.528 40.3514 146.726 39.8514 145.92 38.3454C145.144 36.8964 145.316 36.2314 146.67 35.4434C149.085 34.0374 149.927 34.1174 149.927 35.7524ZM33.3871 37.0654C38.0191 38.4914 38.9271 39.1504 38.9271 41.0844C38.9271 43.0964 38.5691 43.3144 36.1771 42.7554C32.3701 41.8674 25.6591 38.1214 25.1671 36.6094C24.6161 34.9164 26.8021 35.0374 33.3871 37.0654ZM73.4781 36.6094C72.6061 39.4314 72.1431 46.5384 72.8841 45.7304C73.7191 44.8204 74.986 35.3594 74.273 35.3594C74.048 35.3594 73.6901 35.9224 73.4781 36.6094ZM106.999 39.7904C109.495 37.3994 109.927 37.2574 109.927 38.8274C109.927 40.5524 110.044 40.5634 111.766 39.0054C113.52 37.4184 113.731 37.6644 116.364 44.3764C119.941 53.4944 120.556 58.2444 118.638 61.9464C115.981 67.0744 112.251 70.3594 109.086 70.3594C107.47 70.3594 105.093 71.2144 103.802 72.2594C101.54 74.0904 101.328 74.0954 97.9411 72.3944C96.0081 71.4244 92.6961 70.0694 90.5801 69.3854C87.0161 68.2324 86.768 67.9084 87.217 64.9994C87.517 63.0514 87.1441 61.2264 86.2341 60.1924C85.1151 58.9204 85.0241 58.0474 85.8471 56.5084C87.4361 53.5404 87.1741 52.3594 84.9271 52.3594C83.4731 52.3594 82.9271 51.6924 82.9271 49.9184C82.9271 46.4974 84.4221 45.9554 85.7591 48.8904C87.1631 51.9714 91.4081 52.4504 90.4461 49.4204C90.0071 48.0344 90.4871 47.1394 92.1291 46.2824C93.3931 45.6234 96.4521 43.0464 98.9271 40.5564L103.427 36.0294L103.749 39.3124L104.071 42.5954L106.999 39.7904ZM119.904 40.3164C121.211 42.7594 121.219 46.0614 119.919 46.8644C119.01 47.4264 114.927 39.5564 114.927 37.2414C114.927 35.7764 118.733 38.1284 119.904 40.3164ZM66.288 38.8614C65.514 40.8774 66.477 44.4124 68.465 46.8594L70.09 48.8594L69.3281 46.8594C68.9081 45.7594 68.5811 43.6354 68.6011 42.1404C68.6221 40.5304 68.2181 39.6795 67.6121 40.0545C66.9901 40.4385 66.8381 40.0344 67.2261 39.0234C67.5771 38.1084 67.6391 37.3594 67.3641 37.3594C67.0891 37.3594 66.605 38.0354 66.288 38.8614ZM144.357 38.2464C145.093 39.4374 143.024 41.0464 139.671 41.8874C136.057 42.7944 136.06 40.8934 139.677 38.9314C142.93 37.1664 143.627 37.0644 144.357 38.2464ZM29.3721 41.2704C29.5751 41.5994 28.9161 42.8894 27.9071 44.1354C26.1161 46.3474 25.9761 46.3624 22.0001 44.7714C15.9121 42.3364 16.6201 40.2654 23.4641 40.4894C26.5091 40.5894 29.1681 40.9404 29.3721 41.2704ZM93.368 41.8274C92.301 42.6354 91.9341 43.3104 92.5551 43.3274C93.1751 43.3454 94.2421 42.6844 94.9271 41.8594C96.5081 39.9544 95.862 39.9414 93.368 41.8274ZM41.9491 45.3714C45.5871 47.3184 42.7321 48.6584 35.9871 48.1704C29.6881 47.7144 27.1541 46.4194 28.4511 44.3204C29.3521 42.8634 38.6091 43.5834 41.9491 45.3714ZM142.743 45.0754C142.378 46.9704 137.412 50.1784 136.404 49.1694C136.054 48.8194 136.53 47.3684 137.462 45.9464C139.402 42.9864 143.268 42.3484 142.743 45.0754ZM107.907 45.8834C105.988 48.1964 107.125 48.4314 109.788 46.2734C111.396 44.9694 111.674 44.3594 110.66 44.3594C109.842 44.3594 108.603 45.0454 107.907 45.8834ZM29.6771 48.1834C30.6731 48.8164 30.6651 49.3354 29.6361 50.7424C28.5271 52.2594 27.9651 52.3344 25.6361 51.2724C22.0871 49.6554 22.1111 47.3544 25.6771 47.3744C27.1891 47.3834 28.9891 47.7474 29.6771 48.1834ZM111.066 50.4454C109.458 51.7494 109.18 52.3594 110.194 52.3594C111.691 52.3594 114.551 49.6474 113.82 48.9214C113.604 48.7074 112.365 49.3924 111.066 50.4454ZM41.6771 51.5714C44.3201 53.7554 42.9111 54.6364 37.7541 54.0254C31.9111 53.3334 29.5831 51.8414 31.9351 50.2964C33.6161 49.1924 39.7741 49.9984 41.6771 51.5714ZM139.927 51.3004C139.927 51.8184 139.477 52.5194 138.927 52.8594C138.377 53.1994 137.927 52.7754 137.927 51.9184C137.927 51.0614 138.377 50.3594 138.927 50.3594C139.477 50.3594 139.927 50.7824 139.927 51.3004ZM91.4271 54.3594C90.4011 55.4934 90.1171 56.3594 90.7721 56.3594C91.4071 56.3594 91.9271 55.9474 91.9271 55.4424C91.9271 54.9384 93.1651 54.0744 94.6771 53.5214C96.9711 52.6844 97.0791 52.5044 95.3321 52.4384C94.1801 52.3954 92.4221 53.2594 91.4271 54.3594ZM65.4141 56.3024C65.8891 58.4624 66.4851 59.0824 67.6551 58.6334C68.8731 58.1664 69.1241 58.4994 68.7191 60.0484C68.4271 61.1634 68.602 62.8144 69.107 63.7174C70.487 66.1824 68.5901 65.6934 65.9751 62.9104C64.5841 61.4294 63.9201 59.8194 64.2971 58.8374C64.6401 57.9454 64.4561 56.3474 63.8881 55.2874C63.2611 54.1144 63.2311 53.3594 63.8121 53.3594C64.3381 53.3594 65.0591 54.6834 65.4141 56.3024ZM35.7771 55.2454C36.5321 55.7234 38.9081 55.7014 41.1591 55.1954C46.1231 54.0804 46.9581 54.7304 43.9341 57.3534C41.3521 59.5924 36.9271 60.0534 36.9271 58.0834C36.9271 57.1974 35.7041 56.9234 32.9271 57.1884C29.2511 57.5384 27.9351 56.6855 29.5941 55.0265C30.5271 54.0935 34.1621 54.2224 35.7771 55.2454ZM136.244 60.7194C144.886 65.5534 148.885 69.0155 150.62 73.1665C152.741 78.2425 151.553 82.0754 147.612 82.8764C145.86 83.2324 143.036 84.0014 141.336 84.5844C138.89 85.4244 137.284 85.2795 133.638 83.8875C130.218 82.5805 127.152 82.2434 121.729 82.5774C114.544 83.0194 114.335 82.9624 108.677 79.0484C105.514 76.8604 102.927 74.7005 102.927 74.2495C102.927 71.5465 114.807 70.5004 115.683 73.1264C115.847 73.6194 118.557 72.7134 121.704 71.1124C126.753 68.5454 128.272 68.2434 134.607 68.5474C138.556 68.7364 141.256 68.5534 140.607 68.1404C139.958 67.7274 136.466 67.3835 132.846 67.3745C127.845 67.3635 125.118 67.9405 121.479 69.7835C117.379 71.8585 113.927 72.2755 113.927 70.6935C113.927 70.4455 115.249 68.5815 116.864 66.5505C118.48 64.5205 120.117 61.5094 120.502 59.8594C120.888 58.2094 121.357 56.5804 121.544 56.2394C122.288 54.8844 130.026 57.2424 136.244 60.7194ZM132.927 56.3594C132.927 56.9094 132.729 57.3594 132.486 57.3594C132.243 57.3594 131.767 56.9094 131.427 56.3594C131.087 55.8094 131.286 55.3594 131.868 55.3594C132.45 55.3594 132.927 55.8094 132.927 56.3594ZM98.437 57.3434C98.102 57.8844 96.3881 58.7444 94.6281 59.2534C92.3141 59.9224 92.0201 60.2044 93.5661 60.2694C94.7431 60.3184 96.7681 59.4744 98.0661 58.3924C99.3651 57.3114 100.116 56.4114 99.7361 56.3924C99.3561 56.3744 98.771 56.8024 98.437 57.3434ZM109.337 59.2134C109.769 59.9134 109.133 60.7465 107.741 61.3045C106.218 61.9155 105.983 62.2544 107.055 62.2964C109.356 62.3854 111.415 59.7784 109.821 58.7944C109.055 58.3204 108.879 58.4734 109.337 59.2134ZM37.4271 60.3594C37.7781 60.9264 36.9371 61.3594 35.4861 61.3594C34.0791 61.3594 32.9271 60.9094 32.9271 60.3594C32.9271 59.8094 33.8001 59.3594 34.8681 59.3594C35.9361 59.3594 37.0871 59.8094 37.4271 60.3594ZM47.9271 62.4134C47.9271 63.5414 45.1271 64.3594 41.2621 64.3594C37.2961 64.3594 37.1211 62.5954 40.8991 60.6964C43.2091 59.5344 47.9271 60.6874 47.9271 62.4134ZM102.927 61.3594C102.927 61.9094 103.404 62.3594 103.986 62.3594C104.568 62.3594 104.767 61.9094 104.427 61.3594C104.087 60.8094 103.611 60.3594 103.368 60.3594C103.125 60.3594 102.927 60.8094 102.927 61.3594ZM110.927 62.3605C107.319 64.1985 102.895 68.3594 104.55 68.3594C105.063 68.3594 106.28 67.4284 107.254 66.2904C108.229 65.1524 110.354 63.7584 111.977 63.1924C113.599 62.6264 114.927 61.7574 114.927 61.2614C114.927 60.7654 114.814 60.4084 114.677 60.4684C114.54 60.5284 112.852 61.3795 110.927 62.3605ZM161.555 64.6504C165.424 68.8724 165.687 69.9835 163.017 70.8305C161.967 71.1645 160.508 72.1595 159.776 73.0415C158.811 74.2035 159.663 74.0244 162.863 72.3924C168.32 69.6084 177.699 68.6084 181.926 70.3594C183.614 71.0584 185.88 72.7544 186.961 74.1294C189.462 77.3094 189.583 81.3575 187.177 81.3655C184.915 81.3725 177.625 83.3914 178.11 83.8764C178.314 84.0804 180.44 83.8064 182.835 83.2684C190.911 81.4544 196.927 85.2374 196.927 92.1314C196.927 98.6284 191.122 105.588 182.427 109.515C178.485 111.295 175.557 111.782 168.59 111.816C160.482 111.855 159.594 111.664 157.84 109.498C156.395 107.715 155.927 107.531 155.927 108.745C155.927 109.63 154.317 112.135 152.349 114.313C146.064 121.27 130.08 125.546 119.009 123.231C112.617 121.895 109.348 121.792 106.247 122.827C104.417 123.439 103.752 122.939 102.095 119.707C101.01 117.591 98.9531 114.768 97.5241 113.435C96.0961 112.101 94.9271 110.474 94.9271 109.82C94.9271 105.301 85.1161 99.8914 81.3031 102.307C79.5971 103.389 79.6451 103.45 81.8351 102.98C85.4541 102.204 90.7521 104.871 92.7001 108.45C93.6501 110.196 96.1151 113.617 98.1771 116.053C100.24 118.488 101.927 121.532 101.927 122.816C101.927 125.959 96.0591 130.977 90.6961 132.421C83.2231 134.434 71.3931 130.493 74.7691 127.117C77.2641 124.622 75.7621 124.143 73.1771 126.608C67.0031 132.498 55.8331 133.122 50.5821 127.871C48.6261 125.915 48.4101 121.353 50.1771 119.324C50.8651 118.535 50.2341 118.932 48.7751 120.206C43.9161 124.451 32.6781 123.923 34.4451 119.532C34.8161 118.612 35.3661 117.252 35.6681 116.509C35.9701 115.767 35.0661 116.311 33.6581 117.718C30.6141 120.763 27.0971 121.803 22.6701 120.966C15.1841 119.551 8.93806 113.032 8.93106 106.625C8.92606 102.458 13.0951 97.7404 18.4271 95.8794C21.9411 94.6524 22.5711 94.6694 23.6111 96.0214C24.5941 97.3004 24.8481 96.9264 25.1111 93.8114C25.5391 88.7304 30.8641 84.3464 37.5161 83.5964C41.4891 83.1484 42.1601 83.3094 41.6681 84.5914C41.2901 85.5764 43.0251 84.9504 46.5471 82.8294C54.3751 78.1154 60.18 76.9154 66.258 78.7524C72.102 80.5184 76.9951 83.7404 79.5051 87.4764C81.6221 90.6264 82.6631 90.6044 80.9731 87.4454C79.2281 84.1854 81.5551 84.8434 85.0931 88.6094C87.1641 90.8144 87.7891 91.1565 87.0371 89.6755C85.4191 86.4905 85.5361 86.3594 89.9941 86.3594C94.1261 86.3594 97.7211 88.3785 104.427 94.4645C106.921 96.7275 108.26 97.1594 112.364 97.0234C117.043 96.8684 117.345 96.6904 118.142 93.6134C118.739 91.3064 118.552 89.5345 117.495 87.4905C116.676 85.9075 116.289 84.3315 116.634 83.9865C117.87 82.7505 130.064 83.3894 133.625 84.8774C137.111 86.3344 137.181 86.4594 135.343 87.9404C133.076 89.7674 133.778 89.5485 140.427 86.3565C144.652 84.3275 146.9 83.9624 154.927 83.9974C160.152 84.0204 165.69 84.5594 167.234 85.1964C168.778 85.8324 169.787 85.9414 169.475 85.4374C168.78 84.3124 159.992 82.3594 155.628 82.3594C152.46 82.3594 152.427 82.3084 152.427 77.4324C152.427 71.8824 150.252 68.1334 145.132 64.8594C143.412 63.7594 141.987 62.5544 141.966 62.1824C141.897 60.9824 145.276 60.4844 151.805 60.7304C157.743 60.9534 158.415 61.2244 161.555 64.6504ZM37.0501 67.8584C38.8761 68.0004 39.3541 68.5444 39.1131 70.2074C38.9111 71.6024 39.4441 72.5804 40.6131 72.9564C41.6111 73.2784 43.4101 74.0104 44.6111 74.5834C45.8131 75.1574 47.7251 75.3844 48.8601 75.0874C49.9961 74.7904 51.2081 75.0045 51.5531 75.5635C51.8991 76.1225 53.6991 76.3334 55.5541 76.0324C57.4091 75.7314 58.9271 75.9064 58.9271 76.4224C58.9271 76.9374 58.1401 77.3635 57.1771 77.3695C56.2141 77.3745 52.9521 78.5474 49.9271 79.9754C46.2971 81.6884 42.5321 82.6204 38.8541 82.7154C34.6071 82.8254 32.2911 83.5144 29.1251 85.6094C23.1841 89.5414 18.5721 89.1875 16.8541 84.6665C15.8071 81.9135 17.8151 77.0005 20.3901 76.0125C21.2351 75.6875 21.9271 74.3834 21.9271 73.1134C21.9271 69.8934 24.6141 66.3984 28.3051 64.8184C31.1531 63.5994 31.5701 63.6664 33.0501 65.5784C33.9431 66.7314 35.7431 67.7574 37.0501 67.8584ZM38.9271 65.3594C40.0961 66.1144 39.8201 66.3324 37.6771 66.3444C36.1651 66.3524 34.9271 65.9094 34.9271 65.3594C34.9271 64.0954 36.9701 64.0954 38.9271 65.3594ZM47.9271 66.8594C47.9271 67.9074 46.8711 68.3594 44.4271 68.3594C39.0081 68.3594 40.1751 65.6315 45.6771 65.4385C47.0451 65.3905 47.9271 65.9474 47.9271 66.8594ZM109.799 67.0234C108.555 68.5314 108.637 68.5754 110.677 67.4884C113.004 66.2484 113.577 65.3594 112.049 65.3594C111.567 65.3594 110.554 66.1084 109.799 67.0234ZM53.9271 69.8334C53.9271 71.4044 49.0621 74.3594 46.4771 74.3594C44.1921 74.3594 44.5931 71.7065 47.1501 69.9165C49.9871 67.9285 53.9271 67.8804 53.9271 69.8334ZM43.9271 70.2524C43.9271 71.4794 41.1101 72.4645 40.4861 71.4555C40.2091 71.0065 40.2691 70.3505 40.6211 69.9985C41.5741 69.0455 43.9271 69.2264 43.9271 70.2524ZM59.9271 72.1984C59.9271 73.1964 55.4471 75.3594 53.3801 75.3594C51.3831 75.3594 51.5541 73.6764 53.6771 72.4394C55.8071 71.1994 59.9271 71.0404 59.9271 72.1984ZM114.427 89.3594C114.767 89.9094 115.243 90.3594 115.486 90.3594C115.729 90.3594 115.927 89.9094 115.927 89.3594C115.927 88.8094 115.45 88.3594 114.868 88.3594C114.286 88.3594 114.087 88.8094 114.427 89.3594Z" stroke="black" stroke-width="2" mask="url(#path-1-inside-1_1421_837)"/>
</svg>
