<svg width="1678" height="1137" viewBox="0 0 1678 1137" fill="none" xmlns="http://www.w3.org/2000/svg">
<mask id="path-1-inside-1_1450_951" fill="white">
<path fill-rule="evenodd" clip-rule="evenodd" d="M1385.13 16.28C1357.16 26.3825 1322.29 36.9427 1307.63 39.748C1283.37 44.3925 1281.41 43.172 1285.78 26.1706C1289.39 12.1525 1277.67 19.4158 1238.82 55.2748C1210.34 81.5482 1176.32 108.101 1163.2 114.271C1150.08 120.45 1110.74 156.673 1075.78 194.787C1040.82 232.891 1009.79 264.504 1006.8 265.03C1003.83 265.555 998.912 252.749 995.878 236.57C985.419 180.836 911.447 120.009 857.612 122.874C844.755 123.56 816.125 119.017 793.979 112.78C738.848 97.2529 686.207 111.678 638.932 155.249C619.507 173.158 595.446 192.176 585.47 197.516C565.002 208.466 533.364 265.047 533.364 290.676C533.364 299.965 529.05 317.026 523.787 328.594C514.329 349.333 513.913 349.41 492.005 334.383C479.792 326.009 449.705 306.754 425.143 291.583C400.582 276.421 373.088 254.605 364.036 243.104C354.993 231.603 343.882 224.476 339.356 227.272C334.83 230.078 328.703 228.433 325.728 223.628C322.762 218.822 305.167 207.152 286.623 197.694C268.088 188.235 237.831 166.877 219.397 150.215C193.717 127.018 185.877 123.357 185.877 134.553C185.877 145.393 180.953 148.011 166.808 144.672C156.315 142.206 114.371 137.528 73.5797 134.281C-6.7576 127.883 -16.6567 133.459 21.6008 163.555C40.204 178.183 41.5685 181.853 30.076 186.26C4.6756 196.015 14.7443 222.433 50.8998 240.884C78.2496 254.834 83.4449 260.885 75.8934 269.988C64.4348 283.794 93.1322 314.508 124.965 322.501C139.441 326.137 143.747 331.925 140.687 343.638C137.805 354.656 144.382 365.623 161.401 378.209C175.114 388.345 184.504 401.431 182.258 407.279C177.809 418.865 215.422 452.444 232.839 452.444C239.551 452.444 241.89 459.038 239.051 469.894C235.746 482.548 239.246 488.591 251.773 491.871C261.282 494.354 270.91 503.448 273.164 512.084C276.266 523.924 271.351 529.077 253.12 533.086C226.228 538.985 177.402 589.354 177.402 611.186C177.402 618.924 168.138 635.002 156.815 646.909C126.321 678.988 122.084 707.211 143.636 734.612C154.4 748.291 169.986 757.554 182.258 757.554C214.32 757.554 207.269 782.073 171.046 796.507C114.981 818.839 100.065 828.467 81.8177 854.088C26.4825 931.798 120.44 1047.35 228.55 1034.54C257.4 1031.13 277.868 1033.67 296.556 1042.99C315.176 1052.29 335.72 1054.87 364.24 1051.49C401.523 1047.07 405.413 1048.27 407.828 1064.95C409.277 1075.03 423.821 1092.35 440.136 1103.46C466.079 1121.1 476.97 1123.14 526.881 1119.72C558.282 1117.56 589.326 1111.36 595.869 1105.91C605.133 1098.24 614.108 1099.73 636.254 1112.64C704.802 1152.57 793.166 1141.87 848.06 1086.98C866.096 1068.94 887.716 1054.19 896.106 1054.19C904.497 1054.19 915.939 1049.61 921.541 1044.01C929.33 1036.22 938.161 1036.12 959.256 1043.61C1066.15 1081.54 1243.8 1044.78 1303.47 972.386C1325.09 946.146 1328.67 944.799 1355.85 952.596C1495.95 992.777 1677.53 897.744 1677.53 784.235C1677.53 751.181 1673.28 742.417 1643.63 714.203C1624.98 696.464 1609.73 674.115 1609.73 664.538C1609.73 654.961 1596.98 633.213 1581.4 616.212C1549.31 581.192 1502.62 569.454 1444.62 581.819C1423.07 586.413 1409.85 585.93 1408.03 580.48C1401.58 561.114 1369.25 527.518 1345 514.975C1314.87 499.397 1237.1 498.007 1209.91 512.559C1194.97 520.551 1186.1 519.611 1163.9 507.652C1131.96 490.456 1133.99 474.395 1169.69 461.953C1185.5 456.436 1194.44 447.426 1194.44 436.968C1194.44 427.976 1200.16 415.873 1207.15 410.067C1214.14 404.262 1219.86 394.634 1219.86 388.667C1219.86 382.709 1231.73 373.683 1246.24 368.632C1265.71 361.843 1271.21 355.766 1267.22 345.384C1264.2 337.51 1267.87 324.67 1275.58 316.144C1283.14 307.796 1287.08 297.321 1284.33 292.871C1281.58 288.43 1288.83 278.565 1300.45 270.954C1312.07 263.343 1321.57 249.232 1321.57 239.587C1321.57 229.942 1329.19 212.347 1338.52 200.499C1347.84 188.642 1355.47 173.59 1355.47 167.038C1355.47 160.487 1363.61 144.113 1373.56 130.654C1384.1 116.399 1389.4 100.329 1386.28 92.1593C1382.79 83.0907 1391.79 64.8519 1411.75 40.4854C1428.73 19.7718 1441.12 1.71945 1439.3 0.371876C1437.47 -0.98417 1413.1 6.17744 1385.13 16.28ZM1389.37 49.8675C1373.55 66.1825 1346.73 89.159 1329.74 100.923C1302.09 120.094 1296.62 121.153 1277.23 111.093C1257.46 100.838 1256.54 98.075 1266.65 79.1073C1274.96 63.4788 1293.09 53.8509 1339.89 40.2057C1422.84 16.0088 1422.29 15.907 1389.37 49.8675ZM1249.69 87.6927C1237.96 110.83 1216.04 144.197 1200.96 161.852C1177.18 189.71 1179.44 188.574 1218.01 153.258C1259.66 115.102 1279.19 108.788 1279.19 133.459C1279.19 146.401 1231.8 192.168 1202.91 207.118C1191.26 213.152 1169.23 218.517 1153.97 219.043C1132.25 219.789 1127.3 217.161 1131.25 206.974C1134.03 199.812 1138.43 183.345 1141.05 170.395C1144.23 154.656 1165.82 130.103 1206.14 96.3969C1239.32 68.6573 1267.49 45.8841 1268.74 45.7909C1269.99 45.7061 1261.41 64.5552 1249.69 87.6927ZM1380.89 100.058C1380.89 116.593 1312.48 173.887 1296.42 170.793C1271.55 166.004 1283.69 143.164 1325.71 115.67C1372.84 84.8282 1380.89 82.5567 1380.89 100.058ZM845.696 144.13C880.639 164.369 883.266 164.886 868.943 148.664C854.671 132.51 854.425 130.383 866.824 130.383C874.537 130.383 880.851 134.197 880.851 138.858C880.851 143.519 888.614 147.333 898.098 147.333C938.254 147.333 981.478 199.194 993.454 261.75C996.124 275.734 1001.07 294.295 1004.44 302.991C1009.84 316.983 1008.44 317.678 992.318 309.05C982.283 303.685 974.079 292.024 974.079 283.141C974.079 274.259 969.859 264.377 964.697 261.19C958.578 257.41 957.035 260.928 960.264 271.284C962.985 280.023 961.553 292.896 957.061 299.889C950.484 310.144 948.891 308.915 948.781 293.532C948.713 283.04 944.839 274.463 940.178 274.463C935.517 274.463 931.703 280.836 931.703 288.625C931.703 303.33 908.455 333.79 897.234 333.79C893.7 333.79 888.241 318.534 885.089 299.889C881.936 281.243 876.003 265.987 871.893 265.987C867.791 265.987 866.511 271.412 869.053 278.039C874.427 292.032 858.654 325.314 846.653 325.314C842.153 325.314 838.475 316.093 838.475 304.821C838.475 281.099 830.627 257.512 822.736 257.512C819.736 257.512 817.625 278.658 818.032 304.499C818.744 349.223 817.21 352.732 786.25 377.251C768.358 391.422 753.722 408.881 753.722 416.051C753.722 426.687 751.374 427.145 741.009 418.543C722.363 403.067 725.516 370.598 747.136 355.461C757.493 348.206 762.146 342.265 757.476 342.265C752.798 342.265 736.695 355.283 721.685 371.2C688.47 406.415 683.012 452.444 712.049 452.444C722.414 452.444 728.245 456.826 726.177 463.038C724.236 468.869 713.43 473.632 702.167 473.632C684.19 473.632 681.682 469.784 681.682 442.257C681.682 412.695 672.393 407.864 668.672 435.493C664.655 465.335 670.215 478.76 689.64 486.15C713.091 495.066 731.966 524.399 723.287 538.443C719.888 543.943 712.896 536.875 706.353 521.314C699.353 504.669 689.148 494.82 678.893 494.82C654.815 494.82 640.78 473.361 647.094 446.198C651.128 428.84 650.306 426.069 643.933 435.493C639.195 442.485 634.763 455.834 634.084 465.157C633.398 474.497 629.889 468.784 626.27 452.444L619.71 422.78L621.032 456.681C621.787 476.107 626.575 490.583 632.245 490.583C637.678 490.583 645.306 494.058 649.196 498.295C653.298 502.779 651.815 503.457 645.662 499.914C639.839 496.566 635.068 497.448 635.068 501.889C635.068 513.144 660.01 521.543 677.224 516.076C686.894 513.008 694.725 518.475 701.277 532.84C706.616 544.562 715.642 554.147 721.338 554.147C728.482 554.147 728.965 556.868 722.897 562.936C716.905 568.928 706.93 568.996 691.538 563.148C679.122 558.427 668.969 557.664 668.969 561.444C668.969 565.224 692.717 574.92 721.736 582.989C793.174 602.855 892.674 655.834 945.729 702.278C987.013 738.4 989.284 742.511 986.784 776.581C985.326 796.413 983.614 814.551 982.97 816.881C982.326 819.212 974.257 806.821 965.028 789.337C943.899 749.308 937.076 748.062 953.433 787.218C969.418 825.458 957.002 825.187 927.618 786.658C901.048 751.825 891.725 752.367 910.04 787.692C925.355 817.195 918.566 827.408 899.098 804.168C891.284 794.846 866.519 772.412 844.068 754.317C806.353 723.933 798.92 721.331 746.696 720.263C699.522 719.305 680.283 713.991 630.559 688.209C597.785 671.216 557.112 654.715 540.178 651.537C510.413 645.952 509.667 644.935 518.015 621.009C522.753 607.398 534.72 590.6 544.602 583.675C558.451 573.98 559.46 571.098 549.001 571.098C541.543 571.098 530.694 576.819 524.889 583.811C513.261 597.829 465.562 601.406 465.562 588.269C465.562 583.726 476.758 574.217 490.454 567.14C531.347 545.994 528.508 536.553 486.801 554.995C444.297 573.802 414.71 570.132 414.71 546.062C414.71 534.358 423.618 529.306 451.705 525.102C472.054 522.051 495.886 513.678 504.675 506.491C520.202 493.803 520.168 493.6 503.701 499.346C444.28 520.051 385.047 517.746 385.047 494.736C385.047 485.04 398.344 481.522 442.255 479.599C473.724 478.226 499.463 474.31 499.463 470.903C499.463 467.496 484.623 466.123 466.477 467.852C445.687 469.835 419.066 464.614 394.437 453.724C327.61 424.162 350.9 398.77 422.906 422.687C446.408 430.493 470.384 434.959 476.19 432.62C482.004 430.272 479.122 427.967 469.799 427.501C425.796 425.281 338.432 370.047 338.432 344.452C338.432 327.916 369.223 338.239 406.235 367.174C437.898 391.93 468.825 410.067 479.377 410.067C482.928 410.067 467.867 398.677 445.916 384.752C404.455 358.461 355.383 292.329 355.383 262.741C355.383 247.138 357.137 247.52 378.69 267.886C391.505 279.989 425.525 303.592 454.29 320.331C500.658 347.308 508.023 355.317 519.321 391.006C526.33 413.144 531.678 438.883 531.203 448.206C528.609 499.143 534.771 522.407 556.544 543.935C569.291 556.546 579.783 570.623 579.851 575.217C580.055 588.54 610.04 590.701 631.94 578.98C642.984 573.064 652.018 561.368 652.018 552.978C652.018 533.044 629.745 541.172 623.982 563.207C611.845 609.627 588.699 551.63 596.92 495.405C600.285 472.403 599.437 469.216 593.378 482.107C585.962 497.871 585.36 497.575 584.682 477.87C584.284 466.216 579.97 450.961 575.096 443.969C568.511 434.519 567.511 438.866 571.215 460.919L576.198 490.583L555.383 452.444C528.321 402.855 520.473 357.69 534.508 332.307C540.492 321.467 544.373 307.601 543.128 301.499C535.237 262.826 590.572 189.71 627.745 189.71C637.254 189.71 642.17 185.87 639.076 180.862C631.033 167.852 651.654 146.808 690.157 128.722C734.517 107.889 793.157 113.695 845.696 144.13ZM169.944 157.071C188.937 164.216 199.192 177.141 218.388 218.144C220.253 222.128 213.685 222.823 203.786 219.678C176.292 210.949 171.071 236.968 195.175 262.631C211.659 280.167 212.998 285.125 202.947 291.346C192.717 297.66 193.429 301.829 207.404 317.577L224.016 336.298L187.216 330.578C147.357 324.391 84.1738 295.626 84.1738 283.675C84.1738 273.488 104.735 266.504 123.618 270.267C176.707 280.853 194.751 281.963 190.039 274.336C187.199 269.742 176.258 265.987 165.723 265.987C134.67 265.987 62.0194 241.706 40.5176 224.136C24.262 210.847 22.6093 205.83 31.4999 196.795C40.4413 187.701 52.0524 189.108 96.6494 204.669C175.215 232.095 184.157 227.323 109.6 197.77C74.6391 183.913 36.5003 165.098 24.8468 155.97L3.65853 139.358L75.6985 144.045C115.32 146.613 157.731 152.478 169.944 157.071ZM290.056 210.076C323.143 228.933 334.551 241.994 351.611 280.573C363.129 306.609 371.461 329.01 370.122 330.349C366.799 333.671 276.614 303.592 252.222 291.032C227.61 278.353 185.877 239.917 185.877 229.934C185.877 217 222.245 233.29 272.596 268.776C299.319 287.608 323.329 300.863 325.948 298.244C328.576 295.617 314.346 283.845 294.319 272.081C256.773 250.02 233.22 223.34 207.65 173.895L192.895 145.359L221.168 166.149C236.721 177.582 267.715 197.346 290.056 210.076ZM1122.01 205.338C1114.83 229.501 1097.28 262.572 1083.01 278.819C1068.75 295.066 1061.1 308.364 1066.04 308.364C1070.96 308.364 1081.84 298.363 1090.22 286.142C1128.81 229.832 1160.54 208.415 1160.54 238.672C1160.54 260.487 1138.25 289.04 1099.04 317.441C1080.19 331.095 1068.47 342.265 1073 342.265C1077.53 342.265 1096.22 330.934 1114.53 317.076C1153.04 287.93 1169.01 284.998 1169.01 307.05C1169.01 328.908 1140.57 352.486 1094.11 369.149C1072.38 376.946 1061.39 383.624 1069.7 383.98C1078 384.345 1098.7 378.836 1115.69 371.734C1136.27 363.131 1149.42 361.657 1155.05 367.293C1168.54 380.785 1137.39 408.432 1098.04 417.882C1063.3 426.23 1063.36 426.255 1106.65 421.746C1136.3 418.653 1152.29 420.534 1156.68 427.637C1168.3 446.435 1134.3 460.919 1078.56 460.919C1028.69 460.919 1024.91 459.546 1019.91 439.621C1016.85 427.467 1019.02 412.957 1024.92 405.838C1031.52 397.888 1033.29 381.751 1029.79 361.453C1012.24 259.809 1008.97 271.386 1072.29 211.11C1103.98 180.938 1131.07 157.411 1132.48 158.826C1133.9 160.241 1129.18 181.175 1122.01 205.338ZM1338.52 176.946C1338.52 189.227 1275.73 240.562 1260.71 240.562C1248.21 240.562 1290.49 188.888 1313.09 176.539C1339.76 161.97 1338.52 161.953 1338.52 176.946ZM1279.19 183.887C1279.19 199.499 1238.19 237.01 1198.36 257.851C1163.36 276.158 1178.87 275.403 1225.9 256.504C1240.86 250.486 1255.26 247.706 1257.87 250.325C1267.29 259.733 1251.56 282.913 1224.38 299.719C1191.63 319.958 1177.49 321.416 1177.49 304.55C1177.49 297.787 1172.35 289.21 1166.08 285.481C1156.52 279.802 1156.52 274.234 1166.1 251.156C1172.39 236.01 1182.56 223.611 1188.72 223.611C1194.86 223.611 1214.87 212.28 1233.19 198.422C1270.27 170.361 1279.19 167.547 1279.19 183.887ZM703.489 237.468C690.852 253.529 686.275 270.776 687.191 298.914C688.047 325.442 689.479 329.849 691.632 312.602C697.59 264.835 703.302 248.605 720.032 231.874C729.237 222.67 733.237 215.136 728.914 215.136C724.584 215.136 713.142 225.187 703.489 237.468ZM897.064 247.579C902.853 258.436 905.429 272.929 902.785 279.802C900.099 286.82 901.666 290.023 906.37 287.116C919.439 279.039 916.227 252.334 900.649 239.477C887.818 228.9 887.496 229.628 897.064 247.579ZM1313.09 237.773C1313.09 246.325 1286.08 274.463 1277.88 274.463C1264.03 274.463 1270.89 241.757 1285.55 237.926C1309.18 231.756 1313.09 231.73 1313.09 237.773ZM785.123 280.302C777.232 295.168 762.273 313.288 751.883 320.56C741.5 327.84 736.5 333.79 740.78 333.79C745.06 333.79 759.256 323.543 772.325 311.017C794.759 289.523 807.633 293.439 785.928 315.144C778.198 322.874 778.164 325.314 785.767 325.314C797.378 325.314 807.582 291.379 802.777 268.776C800.132 256.309 796.674 258.563 785.123 280.302ZM1270.71 303.219C1270.71 309.711 1264.56 317.382 1257.04 320.272C1246.3 324.399 1245.51 328.077 1253.36 337.536C1261.28 347.087 1259.85 351.418 1246.39 358.622C1237.08 363.614 1225.39 367.691 1220.42 367.691C1204.8 367.691 1210.61 352.13 1228.33 346.503C1241.91 342.197 1243.59 337.96 1236.75 325.196C1230.18 312.915 1231.63 307.279 1243.11 300.601C1263.58 288.684 1270.71 289.362 1270.71 303.219ZM283.004 314.347C322.262 326.433 329.957 332.018 329.957 348.41C329.957 365.462 326.923 367.309 306.65 362.572C274.385 355.046 217.507 323.297 213.337 310.483C208.667 296.134 227.194 297.159 283.004 314.347ZM622.787 310.483C615.396 334.4 611.472 394.634 617.753 387.786C624.829 380.073 635.568 299.889 629.525 299.889C627.618 299.889 624.584 304.66 622.787 310.483ZM906.887 337.443C928.041 317.178 931.703 315.975 931.703 329.281C931.703 343.901 932.694 343.994 947.289 330.789C962.154 317.339 963.943 319.424 986.258 376.31C1016.57 453.588 1021.79 493.846 1005.53 525.221C983.012 568.682 951.399 596.524 924.575 596.524C910.879 596.524 890.733 603.77 879.792 612.627C860.621 628.145 858.824 628.187 830.118 613.771C813.735 605.55 785.665 594.066 767.731 588.269C737.525 578.497 735.423 575.751 739.229 551.096C741.771 534.586 738.61 519.119 730.898 510.355C721.414 499.575 720.643 492.176 727.618 479.133C741.085 453.978 738.864 443.969 719.821 443.969C707.497 443.969 702.87 438.316 702.87 423.28C702.87 394.286 715.54 389.693 726.872 414.568C738.771 440.68 774.749 444.74 766.596 419.06C762.875 407.313 766.943 399.728 780.86 392.464C791.572 386.879 817.498 365.038 838.475 343.935L876.613 305.567L879.342 333.391L882.072 361.216L906.887 337.443ZM1016.26 341.901C1027.34 362.606 1027.41 390.591 1016.39 397.397C1008.68 402.16 974.079 335.459 974.079 315.839C974.079 303.423 1006.34 323.357 1016.26 341.901ZM561.85 329.569C555.29 346.655 563.451 376.615 580.3 397.354L594.073 414.305L587.614 397.354C584.055 388.032 581.283 370.03 581.453 357.36C581.631 343.714 578.207 336.502 573.071 339.68C567.799 342.935 566.511 339.511 569.799 330.942C572.774 323.187 573.3 316.839 570.969 316.839C568.638 316.839 564.536 322.568 561.85 329.569ZM1223.51 324.357C1229.74 334.451 1212.21 348.088 1183.79 355.215C1153.16 362.902 1153.19 346.791 1183.84 330.162C1211.41 315.203 1217.32 314.339 1223.51 324.357ZM248.976 349.986C250.696 352.774 245.111 363.708 236.559 374.268C221.38 393.015 220.194 393.142 186.496 379.658C134.898 359.021 140.899 341.468 198.904 343.367C224.711 344.214 247.247 347.189 248.976 349.986ZM791.36 354.707C782.317 361.555 779.207 367.276 784.47 367.42C789.725 367.572 798.768 361.97 804.573 354.978C817.973 338.833 812.498 338.722 791.36 354.707ZM355.57 384.743C386.403 401.245 362.206 412.602 305.04 408.466C251.654 404.601 230.178 393.625 241.17 375.836C248.806 363.487 327.262 369.589 355.57 384.743ZM1209.83 382.235C1206.73 398.295 1164.65 425.484 1156.1 416.932C1153.14 413.966 1157.17 401.668 1165.07 389.617C1181.51 364.53 1214.28 359.122 1209.83 382.235ZM914.583 389.083C898.319 408.686 907.955 410.678 930.525 392.388C944.153 381.336 946.509 376.166 937.915 376.166C930.982 376.166 920.482 381.98 914.583 389.083ZM251.561 408.576C260.002 413.941 259.934 418.339 251.213 430.264C241.814 443.121 237.051 443.757 217.312 434.756C187.233 421.051 187.437 401.55 217.66 401.719C230.474 401.795 245.73 404.881 251.561 408.576ZM941.356 427.747C927.728 438.799 925.372 443.969 933.966 443.969C946.653 443.969 970.893 420.983 964.697 414.83C962.866 413.017 952.366 418.822 941.356 427.747ZM353.264 437.29C375.664 455.8 363.723 463.267 320.016 458.088C270.495 452.223 250.764 439.578 270.698 426.484C284.945 417.127 337.136 423.958 353.264 437.29ZM1185.96 434.993C1185.96 439.383 1182.15 445.325 1177.49 448.206C1172.82 451.088 1169.01 447.494 1169.01 440.231C1169.01 432.968 1172.82 427.018 1177.49 427.018C1182.15 427.018 1185.96 430.603 1185.96 434.993ZM774.91 460.919C766.214 470.53 763.807 477.87 769.359 477.87C774.74 477.87 779.148 474.378 779.148 470.098C779.148 465.826 789.64 458.504 802.455 453.817C821.897 446.723 822.812 445.197 808.006 444.638C798.242 444.274 783.343 451.596 774.91 460.919ZM554.442 477.387C558.468 495.693 563.519 500.948 573.435 497.143C583.758 493.185 585.886 496.007 582.453 509.135C579.978 518.585 581.461 532.578 585.741 540.231C597.437 561.122 581.36 556.978 559.197 533.391C547.408 520.839 541.78 507.194 544.975 498.871C547.882 491.311 546.323 477.768 541.509 468.784C536.195 458.843 535.941 452.444 540.865 452.444C545.323 452.444 551.433 463.665 554.442 477.387ZM303.26 468.428C309.659 472.479 329.796 472.293 348.874 468.004C390.945 458.554 398.022 464.063 372.393 486.294C350.51 505.27 313.007 509.177 313.007 492.481C313.007 484.972 302.641 482.65 279.105 484.896C247.95 487.862 236.797 480.633 250.857 466.572C258.765 458.665 289.572 459.758 303.26 468.428ZM1154.75 514.822C1227.99 555.792 1261.88 585.133 1276.59 620.314C1294.56 663.335 1284.5 695.82 1251.09 702.609C1236.25 705.626 1212.31 712.144 1197.9 717.085C1177.17 724.204 1163.56 722.975 1132.66 711.178C1103.67 700.1 1077.69 697.244 1031.73 700.075C970.833 703.821 969.062 703.338 921.109 670.165C894.301 651.622 872.376 633.315 872.376 629.493C872.376 606.584 973.062 597.719 980.487 619.975C981.877 624.153 1004.84 616.474 1031.52 602.906C1074.31 581.149 1087.18 578.59 1140.87 581.166C1174.34 582.768 1197.23 581.217 1191.72 577.717C1186.22 574.217 1156.63 571.301 1125.95 571.225C1083.56 571.132 1060.45 576.022 1029.61 591.642C994.861 609.228 965.604 612.763 965.604 599.355C965.604 597.253 976.808 581.455 990.496 564.241C1004.19 547.037 1018.07 521.517 1021.33 507.533C1024.6 493.549 1028.58 479.743 1030.16 476.853C1036.47 465.369 1102.05 485.353 1154.75 514.822ZM1126.63 477.87C1126.63 482.531 1124.96 486.345 1122.9 486.345C1120.84 486.345 1116.8 482.531 1113.92 477.87C1111.04 473.208 1112.73 469.394 1117.66 469.394C1122.59 469.394 1126.63 473.208 1126.63 477.87ZM834.322 486.209C831.482 490.794 816.956 498.083 802.039 502.397C782.428 508.067 779.936 510.457 793.039 511.008C803.014 511.423 820.176 504.27 831.177 495.1C842.187 485.938 848.552 478.31 845.331 478.149C842.111 477.997 837.152 481.624 834.322 486.209ZM926.702 502.058C930.364 507.991 924.973 515.051 913.176 519.78C900.268 524.958 898.276 527.831 907.362 528.187C926.863 528.942 944.314 506.847 930.804 498.507C924.312 494.49 922.821 495.786 926.702 502.058ZM317.244 511.771C320.219 516.576 313.091 520.246 300.794 520.246C288.869 520.246 279.105 516.432 279.105 511.771C279.105 507.109 286.504 503.296 295.556 503.296C304.608 503.296 314.363 507.109 317.244 511.771ZM406.235 529.179C406.235 538.739 382.504 545.672 349.747 545.672C316.134 545.672 314.651 530.722 346.67 514.627C366.248 504.779 406.235 514.551 406.235 529.179ZM872.376 520.246C872.376 524.908 876.418 528.721 881.351 528.721C886.284 528.721 887.97 524.908 885.089 520.246C882.207 515.585 878.173 511.771 876.113 511.771C874.054 511.771 872.376 515.585 872.376 520.246ZM940.178 528.73C909.599 544.308 872.104 579.573 886.131 579.573C890.479 579.573 900.793 571.683 909.048 562.038C917.312 552.393 935.322 540.578 949.077 535.781C962.824 530.984 974.079 523.619 974.079 519.415C974.079 515.212 973.122 512.186 971.96 512.695C970.799 513.203 956.493 520.416 940.178 528.73ZM1369.27 548.138C1402.06 583.921 1404.28 593.337 1381.66 600.516C1372.76 603.346 1360.39 611.779 1354.19 619.255C1346.01 629.103 1353.23 627.586 1380.35 613.754C1426.6 590.159 1506.09 581.684 1541.92 596.524C1556.22 602.448 1575.43 616.822 1584.59 628.475C1605.79 655.427 1606.81 689.735 1586.42 689.803C1567.25 689.862 1505.46 706.974 1509.57 711.084C1511.3 712.813 1529.32 710.491 1549.62 705.931C1618.07 690.557 1669.05 722.619 1669.05 781.048C1669.05 836.112 1619.85 895.1 1546.16 928.382C1512.75 943.468 1487.94 947.596 1428.89 947.884C1360.17 948.214 1352.65 946.596 1337.78 928.238C1325.53 913.127 1321.57 911.567 1321.57 921.856C1321.57 929.357 1307.92 950.588 1291.24 969.047C1237.97 1028.01 1102.51 1064.25 1008.68 1044.63C954.501 1033.31 926.796 1032.43 900.514 1041.21C885.004 1046.39 879.368 1042.15 865.324 1014.76C856.129 996.829 838.695 972.903 826.584 961.605C814.481 950.299 804.573 936.51 804.573 930.967C804.573 892.667 721.422 846.816 689.106 867.292C674.647 876.463 675.054 876.98 693.615 872.996C724.287 866.419 769.189 889.023 785.699 919.356C793.75 934.154 814.642 963.148 832.118 983.794C849.603 1004.43 863.9 1030.23 863.9 1041.11C863.9 1067.75 814.167 1110.28 768.714 1122.52C705.379 1139.58 605.116 1106.18 633.728 1077.56C654.874 1056.42 642.144 1052.36 620.236 1073.25C567.909 1123.17 473.24 1128.46 428.737 1083.95C412.159 1067.38 410.328 1028.71 425.304 1011.52C431.135 1004.83 425.787 1008.19 413.422 1018.99C372.24 1054.97 276.995 1050.49 291.971 1013.28C295.115 1005.48 299.777 993.955 302.336 987.658C304.896 981.37 297.234 985.98 285.301 997.905C259.502 1023.71 229.694 1032.53 192.174 1025.43C128.728 1013.44 75.7917 958.19 75.7324 903.889C75.69 868.572 111.024 828.586 156.214 812.813C185.996 802.414 191.335 802.558 200.15 814.017C208.481 824.856 210.634 821.687 212.863 795.286C216.49 752.223 261.621 715.068 317.999 708.711C351.671 704.914 357.358 706.279 353.188 717.144C349.984 725.492 364.689 720.187 394.539 702.211C460.883 662.258 510.082 652.088 561.595 667.657C611.125 682.624 652.595 709.932 673.868 741.595C691.81 768.292 700.632 768.106 686.309 741.333C671.52 713.703 691.242 719.28 721.227 751.198C738.78 769.886 744.077 772.784 737.703 760.233C723.99 733.239 724.982 732.128 762.765 732.128C797.785 732.128 828.253 749.24 885.089 800.821C906.226 820 917.575 823.662 952.357 822.509C992.013 821.195 994.572 819.687 1001.33 793.608C1006.39 774.056 1004.8 759.038 995.844 741.714C988.902 728.298 985.623 714.941 988.547 712.017C999.022 701.541 1102.37 706.957 1132.55 719.568C1162.1 731.917 1162.69 732.976 1147.11 745.528C1127.9 761.012 1133.85 759.156 1190.2 732.103C1226.01 714.907 1245.06 711.813 1313.09 712.11C1357.37 712.305 1404.31 716.873 1417.4 722.272C1430.48 727.662 1439.03 728.586 1436.39 724.314C1430.5 714.779 1356.02 698.227 1319.03 698.227C1292.18 698.227 1291.9 697.795 1291.9 656.469C1291.9 609.432 1273.47 577.658 1230.08 549.91C1215.5 540.587 1203.42 530.374 1203.24 527.221C1202.66 517.051 1231.3 512.83 1286.63 514.915C1336.96 516.805 1342.65 519.102 1369.27 548.138ZM314.049 575.327C329.525 576.53 333.576 581.141 331.534 595.235C329.822 607.058 334.339 615.347 344.247 618.534C352.705 621.263 367.952 627.467 378.131 632.323C388.318 637.188 404.523 639.112 414.142 636.595C423.77 634.078 434.042 635.892 436.966 640.629C439.899 645.367 455.154 647.155 470.876 644.604C486.597 642.053 499.463 643.536 499.463 647.909C499.463 652.274 492.793 655.885 484.631 655.936C476.47 655.978 448.823 665.919 423.185 678.022C392.42 692.54 360.511 700.439 329.339 701.244C293.344 702.177 273.715 708.016 246.882 725.772C196.531 759.097 157.443 756.097 142.882 717.78C134.009 694.447 151.027 652.808 172.851 644.435C180.012 641.68 185.877 630.628 185.877 619.865C185.877 592.574 208.65 562.953 239.933 549.562C264.07 539.231 267.605 539.799 280.148 556.003C287.716 565.775 302.972 574.471 314.049 575.327ZM329.957 554.147C339.865 560.546 337.526 562.394 319.363 562.495C306.548 562.563 296.056 558.809 296.056 554.147C296.056 543.435 313.371 543.435 329.957 554.147ZM406.235 566.86C406.235 575.742 397.285 579.573 376.571 579.573C330.644 579.573 340.534 556.453 387.165 554.817C398.76 554.41 406.235 559.131 406.235 566.86ZM930.618 568.25C920.075 581.031 920.77 581.404 938.059 572.191C957.781 561.682 962.638 554.147 949.687 554.147C945.602 554.147 937.017 560.495 930.618 568.25ZM457.087 592.066C457.087 605.38 415.854 630.425 393.946 630.425C374.58 630.425 377.978 607.94 399.65 592.769C423.694 575.92 457.087 575.513 457.087 592.066ZM372.334 595.617C372.334 606.016 348.459 614.364 343.17 605.813C340.823 602.007 341.331 596.448 344.314 593.464C352.391 585.387 372.334 586.921 372.334 595.617ZM507.938 612.11C507.938 620.568 469.969 638.9 452.451 638.9C435.525 638.9 436.975 624.636 454.968 614.152C473.02 603.643 507.938 602.295 507.938 612.11ZM969.842 757.554C972.723 762.216 976.757 766.03 978.817 766.03C980.876 766.03 982.555 762.216 982.555 757.554C982.555 752.893 978.512 749.079 973.579 749.079C968.647 749.079 966.96 752.893 969.842 757.554Z"/>
</mask>
<path fill-rule="evenodd" clip-rule="evenodd" d="M1385.13 16.28C1357.16 26.3825 1322.29 36.9427 1307.63 39.748C1283.37 44.3925 1281.41 43.172 1285.78 26.1706C1289.39 12.1525 1277.67 19.4158 1238.82 55.2748C1210.34 81.5482 1176.32 108.101 1163.2 114.271C1150.08 120.45 1110.74 156.673 1075.78 194.787C1040.82 232.891 1009.79 264.504 1006.8 265.03C1003.83 265.555 998.912 252.749 995.878 236.57C985.419 180.836 911.447 120.009 857.612 122.874C844.755 123.56 816.125 119.017 793.979 112.78C738.848 97.2529 686.207 111.678 638.932 155.249C619.507 173.158 595.446 192.176 585.47 197.516C565.002 208.466 533.364 265.047 533.364 290.676C533.364 299.965 529.05 317.026 523.787 328.594C514.329 349.333 513.913 349.41 492.005 334.383C479.792 326.009 449.705 306.754 425.143 291.583C400.582 276.421 373.088 254.605 364.036 243.104C354.993 231.603 343.882 224.476 339.356 227.272C334.83 230.078 328.703 228.433 325.728 223.628C322.762 218.822 305.167 207.152 286.623 197.694C268.088 188.235 237.831 166.877 219.397 150.215C193.717 127.018 185.877 123.357 185.877 134.553C185.877 145.393 180.953 148.011 166.808 144.672C156.315 142.206 114.371 137.528 73.5797 134.281C-6.7576 127.883 -16.6567 133.459 21.6008 163.555C40.204 178.183 41.5685 181.853 30.076 186.26C4.6756 196.015 14.7443 222.433 50.8998 240.884C78.2496 254.834 83.4449 260.885 75.8934 269.988C64.4348 283.794 93.1322 314.508 124.965 322.501C139.441 326.137 143.747 331.925 140.687 343.638C137.805 354.656 144.382 365.623 161.401 378.209C175.114 388.345 184.504 401.431 182.258 407.279C177.809 418.865 215.422 452.444 232.839 452.444C239.551 452.444 241.89 459.038 239.051 469.894C235.746 482.548 239.246 488.591 251.773 491.871C261.282 494.354 270.91 503.448 273.164 512.084C276.266 523.924 271.351 529.077 253.12 533.086C226.228 538.985 177.402 589.354 177.402 611.186C177.402 618.924 168.138 635.002 156.815 646.909C126.321 678.988 122.084 707.211 143.636 734.612C154.4 748.291 169.986 757.554 182.258 757.554C214.32 757.554 207.269 782.073 171.046 796.507C114.981 818.839 100.065 828.467 81.8177 854.088C26.4825 931.798 120.44 1047.35 228.55 1034.54C257.4 1031.13 277.868 1033.67 296.556 1042.99C315.176 1052.29 335.72 1054.87 364.24 1051.49C401.523 1047.07 405.413 1048.27 407.828 1064.95C409.277 1075.03 423.821 1092.35 440.136 1103.46C466.079 1121.1 476.97 1123.14 526.881 1119.72C558.282 1117.56 589.326 1111.36 595.869 1105.91C605.133 1098.24 614.108 1099.73 636.254 1112.64C704.802 1152.57 793.166 1141.87 848.06 1086.98C866.096 1068.94 887.716 1054.19 896.106 1054.19C904.497 1054.19 915.939 1049.61 921.541 1044.01C929.33 1036.22 938.161 1036.12 959.256 1043.61C1066.15 1081.54 1243.8 1044.78 1303.47 972.386C1325.09 946.146 1328.67 944.799 1355.85 952.596C1495.95 992.777 1677.53 897.744 1677.53 784.235C1677.53 751.181 1673.28 742.417 1643.63 714.203C1624.98 696.464 1609.73 674.115 1609.73 664.538C1609.73 654.961 1596.98 633.213 1581.4 616.212C1549.31 581.192 1502.62 569.454 1444.62 581.819C1423.07 586.413 1409.85 585.93 1408.03 580.48C1401.58 561.114 1369.25 527.518 1345 514.975C1314.87 499.397 1237.1 498.007 1209.91 512.559C1194.97 520.551 1186.1 519.611 1163.9 507.652C1131.96 490.456 1133.99 474.395 1169.69 461.953C1185.5 456.436 1194.44 447.426 1194.44 436.968C1194.44 427.976 1200.16 415.873 1207.15 410.067C1214.14 404.262 1219.86 394.634 1219.86 388.667C1219.86 382.709 1231.73 373.683 1246.24 368.632C1265.71 361.843 1271.21 355.766 1267.22 345.384C1264.2 337.51 1267.87 324.67 1275.58 316.144C1283.14 307.796 1287.08 297.321 1284.33 292.871C1281.58 288.43 1288.83 278.565 1300.45 270.954C1312.07 263.343 1321.57 249.232 1321.57 239.587C1321.57 229.942 1329.19 212.347 1338.52 200.499C1347.84 188.642 1355.47 173.59 1355.47 167.038C1355.47 160.487 1363.61 144.113 1373.56 130.654C1384.1 116.399 1389.4 100.329 1386.28 92.1593C1382.79 83.0907 1391.79 64.8519 1411.75 40.4854C1428.73 19.7718 1441.12 1.71945 1439.3 0.371876C1437.47 -0.98417 1413.1 6.17744 1385.13 16.28ZM1389.37 49.8675C1373.55 66.1825 1346.73 89.159 1329.74 100.923C1302.09 120.094 1296.62 121.153 1277.23 111.093C1257.46 100.838 1256.54 98.075 1266.65 79.1073C1274.96 63.4788 1293.09 53.8509 1339.89 40.2057C1422.84 16.0088 1422.29 15.907 1389.37 49.8675ZM1249.69 87.6927C1237.96 110.83 1216.04 144.197 1200.96 161.852C1177.18 189.71 1179.44 188.574 1218.01 153.258C1259.66 115.102 1279.19 108.788 1279.19 133.459C1279.19 146.401 1231.8 192.168 1202.91 207.118C1191.26 213.152 1169.23 218.517 1153.97 219.043C1132.25 219.789 1127.3 217.161 1131.25 206.974C1134.03 199.812 1138.43 183.345 1141.05 170.395C1144.23 154.656 1165.82 130.103 1206.14 96.3969C1239.32 68.6573 1267.49 45.8841 1268.74 45.7909C1269.99 45.7061 1261.41 64.5552 1249.69 87.6927ZM1380.89 100.058C1380.89 116.593 1312.48 173.887 1296.42 170.793C1271.55 166.004 1283.69 143.164 1325.71 115.67C1372.84 84.8282 1380.89 82.5567 1380.89 100.058ZM845.696 144.13C880.639 164.369 883.266 164.886 868.943 148.664C854.671 132.51 854.425 130.383 866.824 130.383C874.537 130.383 880.851 134.197 880.851 138.858C880.851 143.519 888.614 147.333 898.098 147.333C938.254 147.333 981.478 199.194 993.454 261.75C996.124 275.734 1001.07 294.295 1004.44 302.991C1009.84 316.983 1008.44 317.678 992.318 309.05C982.283 303.685 974.079 292.024 974.079 283.141C974.079 274.259 969.859 264.377 964.697 261.19C958.578 257.41 957.035 260.928 960.264 271.284C962.985 280.023 961.553 292.896 957.061 299.889C950.484 310.144 948.891 308.915 948.781 293.532C948.713 283.04 944.839 274.463 940.178 274.463C935.517 274.463 931.703 280.836 931.703 288.625C931.703 303.33 908.455 333.79 897.234 333.79C893.7 333.79 888.241 318.534 885.089 299.889C881.936 281.243 876.003 265.987 871.893 265.987C867.791 265.987 866.511 271.412 869.053 278.039C874.427 292.032 858.654 325.314 846.653 325.314C842.153 325.314 838.475 316.093 838.475 304.821C838.475 281.099 830.627 257.512 822.736 257.512C819.736 257.512 817.625 278.658 818.032 304.499C818.744 349.223 817.21 352.732 786.25 377.251C768.358 391.422 753.722 408.881 753.722 416.051C753.722 426.687 751.374 427.145 741.009 418.543C722.363 403.067 725.516 370.598 747.136 355.461C757.493 348.206 762.146 342.265 757.476 342.265C752.798 342.265 736.695 355.283 721.685 371.2C688.47 406.415 683.012 452.444 712.049 452.444C722.414 452.444 728.245 456.826 726.177 463.038C724.236 468.869 713.43 473.632 702.167 473.632C684.19 473.632 681.682 469.784 681.682 442.257C681.682 412.695 672.393 407.864 668.672 435.493C664.655 465.335 670.215 478.76 689.64 486.15C713.091 495.066 731.966 524.399 723.287 538.443C719.888 543.943 712.896 536.875 706.353 521.314C699.353 504.669 689.148 494.82 678.893 494.82C654.815 494.82 640.78 473.361 647.094 446.198C651.128 428.84 650.306 426.069 643.933 435.493C639.195 442.485 634.763 455.834 634.084 465.157C633.398 474.497 629.889 468.784 626.27 452.444L619.71 422.78L621.032 456.681C621.787 476.107 626.575 490.583 632.245 490.583C637.678 490.583 645.306 494.058 649.196 498.295C653.298 502.779 651.815 503.457 645.662 499.914C639.839 496.566 635.068 497.448 635.068 501.889C635.068 513.144 660.01 521.543 677.224 516.076C686.894 513.008 694.725 518.475 701.277 532.84C706.616 544.562 715.642 554.147 721.338 554.147C728.482 554.147 728.965 556.868 722.897 562.936C716.905 568.928 706.93 568.996 691.538 563.148C679.122 558.427 668.969 557.664 668.969 561.444C668.969 565.224 692.717 574.92 721.736 582.989C793.174 602.855 892.674 655.834 945.729 702.278C987.013 738.4 989.284 742.511 986.784 776.581C985.326 796.413 983.614 814.551 982.97 816.881C982.326 819.212 974.257 806.821 965.028 789.337C943.899 749.308 937.076 748.062 953.433 787.218C969.418 825.458 957.002 825.187 927.618 786.658C901.048 751.825 891.725 752.367 910.04 787.692C925.355 817.195 918.566 827.408 899.098 804.168C891.284 794.846 866.519 772.412 844.068 754.317C806.353 723.933 798.92 721.331 746.696 720.263C699.522 719.305 680.283 713.991 630.559 688.209C597.785 671.216 557.112 654.715 540.178 651.537C510.413 645.952 509.667 644.935 518.015 621.009C522.753 607.398 534.72 590.6 544.602 583.675C558.451 573.98 559.46 571.098 549.001 571.098C541.543 571.098 530.694 576.819 524.889 583.811C513.261 597.829 465.562 601.406 465.562 588.269C465.562 583.726 476.758 574.217 490.454 567.14C531.347 545.994 528.508 536.553 486.801 554.995C444.297 573.802 414.71 570.132 414.71 546.062C414.71 534.358 423.618 529.306 451.705 525.102C472.054 522.051 495.886 513.678 504.675 506.491C520.202 493.803 520.168 493.6 503.701 499.346C444.28 520.051 385.047 517.746 385.047 494.736C385.047 485.04 398.344 481.522 442.255 479.599C473.724 478.226 499.463 474.31 499.463 470.903C499.463 467.496 484.623 466.123 466.477 467.852C445.687 469.835 419.066 464.614 394.437 453.724C327.61 424.162 350.9 398.77 422.906 422.687C446.408 430.493 470.384 434.959 476.19 432.62C482.004 430.272 479.122 427.967 469.799 427.501C425.796 425.281 338.432 370.047 338.432 344.452C338.432 327.916 369.223 338.239 406.235 367.174C437.898 391.93 468.825 410.067 479.377 410.067C482.928 410.067 467.867 398.677 445.916 384.752C404.455 358.461 355.383 292.329 355.383 262.741C355.383 247.138 357.137 247.52 378.69 267.886C391.505 279.989 425.525 303.592 454.29 320.331C500.658 347.308 508.023 355.317 519.321 391.006C526.33 413.144 531.678 438.883 531.203 448.206C528.609 499.143 534.771 522.407 556.544 543.935C569.291 556.546 579.783 570.623 579.851 575.217C580.055 588.54 610.04 590.701 631.94 578.98C642.984 573.064 652.018 561.368 652.018 552.978C652.018 533.044 629.745 541.172 623.982 563.207C611.845 609.627 588.699 551.63 596.92 495.405C600.285 472.403 599.437 469.216 593.378 482.107C585.962 497.871 585.36 497.575 584.682 477.87C584.284 466.216 579.97 450.961 575.096 443.969C568.511 434.519 567.511 438.866 571.215 460.919L576.198 490.583L555.383 452.444C528.321 402.855 520.473 357.69 534.508 332.307C540.492 321.467 544.373 307.601 543.128 301.499C535.237 262.826 590.572 189.71 627.745 189.71C637.254 189.71 642.17 185.87 639.076 180.862C631.033 167.852 651.654 146.808 690.157 128.722C734.517 107.889 793.157 113.695 845.696 144.13ZM169.944 157.071C188.937 164.216 199.192 177.141 218.388 218.144C220.253 222.128 213.685 222.823 203.786 219.678C176.292 210.949 171.071 236.968 195.175 262.631C211.659 280.167 212.998 285.125 202.947 291.346C192.717 297.66 193.429 301.829 207.404 317.577L224.016 336.298L187.216 330.578C147.357 324.391 84.1738 295.626 84.1738 283.675C84.1738 273.488 104.735 266.504 123.618 270.267C176.707 280.853 194.751 281.963 190.039 274.336C187.199 269.742 176.258 265.987 165.723 265.987C134.67 265.987 62.0194 241.706 40.5176 224.136C24.262 210.847 22.6093 205.83 31.4999 196.795C40.4413 187.701 52.0524 189.108 96.6494 204.669C175.215 232.095 184.157 227.323 109.6 197.77C74.6391 183.913 36.5003 165.098 24.8468 155.97L3.65853 139.358L75.6985 144.045C115.32 146.613 157.731 152.478 169.944 157.071ZM290.056 210.076C323.143 228.933 334.551 241.994 351.611 280.573C363.129 306.609 371.461 329.01 370.122 330.349C366.799 333.671 276.614 303.592 252.222 291.032C227.61 278.353 185.877 239.917 185.877 229.934C185.877 217 222.245 233.29 272.596 268.776C299.319 287.608 323.329 300.863 325.948 298.244C328.576 295.617 314.346 283.845 294.319 272.081C256.773 250.02 233.22 223.34 207.65 173.895L192.895 145.359L221.168 166.149C236.721 177.582 267.715 197.346 290.056 210.076ZM1122.01 205.338C1114.83 229.501 1097.28 262.572 1083.01 278.819C1068.75 295.066 1061.1 308.364 1066.04 308.364C1070.96 308.364 1081.84 298.363 1090.22 286.142C1128.81 229.832 1160.54 208.415 1160.54 238.672C1160.54 260.487 1138.25 289.04 1099.04 317.441C1080.19 331.095 1068.47 342.265 1073 342.265C1077.53 342.265 1096.22 330.934 1114.53 317.076C1153.04 287.93 1169.01 284.998 1169.01 307.05C1169.01 328.908 1140.57 352.486 1094.11 369.149C1072.38 376.946 1061.39 383.624 1069.7 383.98C1078 384.345 1098.7 378.836 1115.69 371.734C1136.27 363.131 1149.42 361.657 1155.05 367.293C1168.54 380.785 1137.39 408.432 1098.04 417.882C1063.3 426.23 1063.36 426.255 1106.65 421.746C1136.3 418.653 1152.29 420.534 1156.68 427.637C1168.3 446.435 1134.3 460.919 1078.56 460.919C1028.69 460.919 1024.91 459.546 1019.91 439.621C1016.85 427.467 1019.02 412.957 1024.92 405.838C1031.52 397.888 1033.29 381.751 1029.79 361.453C1012.24 259.809 1008.97 271.386 1072.29 211.11C1103.98 180.938 1131.07 157.411 1132.48 158.826C1133.9 160.241 1129.18 181.175 1122.01 205.338ZM1338.52 176.946C1338.52 189.227 1275.73 240.562 1260.71 240.562C1248.21 240.562 1290.49 188.888 1313.09 176.539C1339.76 161.97 1338.52 161.953 1338.52 176.946ZM1279.19 183.887C1279.19 199.499 1238.19 237.01 1198.36 257.851C1163.36 276.158 1178.87 275.403 1225.9 256.504C1240.86 250.486 1255.26 247.706 1257.87 250.325C1267.29 259.733 1251.56 282.913 1224.38 299.719C1191.63 319.958 1177.49 321.416 1177.49 304.55C1177.49 297.787 1172.35 289.21 1166.08 285.481C1156.52 279.802 1156.52 274.234 1166.1 251.156C1172.39 236.01 1182.56 223.611 1188.72 223.611C1194.86 223.611 1214.87 212.28 1233.19 198.422C1270.27 170.361 1279.19 167.547 1279.19 183.887ZM703.489 237.468C690.852 253.529 686.275 270.776 687.191 298.914C688.047 325.442 689.479 329.849 691.632 312.602C697.59 264.835 703.302 248.605 720.032 231.874C729.237 222.67 733.237 215.136 728.914 215.136C724.584 215.136 713.142 225.187 703.489 237.468ZM897.064 247.579C902.853 258.436 905.429 272.929 902.785 279.802C900.099 286.82 901.666 290.023 906.37 287.116C919.439 279.039 916.227 252.334 900.649 239.477C887.818 228.9 887.496 229.628 897.064 247.579ZM1313.09 237.773C1313.09 246.325 1286.08 274.463 1277.88 274.463C1264.03 274.463 1270.89 241.757 1285.55 237.926C1309.18 231.756 1313.09 231.73 1313.09 237.773ZM785.123 280.302C777.232 295.168 762.273 313.288 751.883 320.56C741.5 327.84 736.5 333.79 740.78 333.79C745.06 333.79 759.256 323.543 772.325 311.017C794.759 289.523 807.633 293.439 785.928 315.144C778.198 322.874 778.164 325.314 785.767 325.314C797.378 325.314 807.582 291.379 802.777 268.776C800.132 256.309 796.674 258.563 785.123 280.302ZM1270.71 303.219C1270.71 309.711 1264.56 317.382 1257.04 320.272C1246.3 324.399 1245.51 328.077 1253.36 337.536C1261.28 347.087 1259.85 351.418 1246.39 358.622C1237.08 363.614 1225.39 367.691 1220.42 367.691C1204.8 367.691 1210.61 352.13 1228.33 346.503C1241.91 342.197 1243.59 337.96 1236.75 325.196C1230.18 312.915 1231.63 307.279 1243.11 300.601C1263.58 288.684 1270.71 289.362 1270.71 303.219ZM283.004 314.347C322.262 326.433 329.957 332.018 329.957 348.41C329.957 365.462 326.923 367.309 306.65 362.572C274.385 355.046 217.507 323.297 213.337 310.483C208.667 296.134 227.194 297.159 283.004 314.347ZM622.787 310.483C615.396 334.4 611.472 394.634 617.753 387.786C624.829 380.073 635.568 299.889 629.525 299.889C627.618 299.889 624.584 304.66 622.787 310.483ZM906.887 337.443C928.041 317.178 931.703 315.975 931.703 329.281C931.703 343.901 932.694 343.994 947.289 330.789C962.154 317.339 963.943 319.424 986.258 376.31C1016.57 453.588 1021.79 493.846 1005.53 525.221C983.012 568.682 951.399 596.524 924.575 596.524C910.879 596.524 890.733 603.77 879.792 612.627C860.621 628.145 858.824 628.187 830.118 613.771C813.735 605.55 785.665 594.066 767.731 588.269C737.525 578.497 735.423 575.751 739.229 551.096C741.771 534.586 738.61 519.119 730.898 510.355C721.414 499.575 720.643 492.176 727.618 479.133C741.085 453.978 738.864 443.969 719.821 443.969C707.497 443.969 702.87 438.316 702.87 423.28C702.87 394.286 715.54 389.693 726.872 414.568C738.771 440.68 774.749 444.74 766.596 419.06C762.875 407.313 766.943 399.728 780.86 392.464C791.572 386.879 817.498 365.038 838.475 343.935L876.613 305.567L879.342 333.391L882.072 361.216L906.887 337.443ZM1016.26 341.901C1027.34 362.606 1027.41 390.591 1016.39 397.397C1008.68 402.16 974.079 335.459 974.079 315.839C974.079 303.423 1006.34 323.357 1016.26 341.901ZM561.85 329.569C555.29 346.655 563.451 376.615 580.3 397.354L594.073 414.305L587.614 397.354C584.055 388.032 581.283 370.03 581.453 357.36C581.631 343.714 578.207 336.502 573.071 339.68C567.799 342.935 566.511 339.511 569.799 330.942C572.774 323.187 573.3 316.839 570.969 316.839C568.638 316.839 564.536 322.568 561.85 329.569ZM1223.51 324.357C1229.74 334.451 1212.21 348.088 1183.79 355.215C1153.16 362.902 1153.19 346.791 1183.84 330.162C1211.41 315.203 1217.32 314.339 1223.51 324.357ZM248.976 349.986C250.696 352.774 245.111 363.708 236.559 374.268C221.38 393.015 220.194 393.142 186.496 379.658C134.898 359.021 140.899 341.468 198.904 343.367C224.711 344.214 247.247 347.189 248.976 349.986ZM791.36 354.707C782.317 361.555 779.207 367.276 784.47 367.42C789.725 367.572 798.768 361.97 804.573 354.978C817.973 338.833 812.498 338.722 791.36 354.707ZM355.57 384.743C386.403 401.245 362.206 412.602 305.04 408.466C251.654 404.601 230.178 393.625 241.17 375.836C248.806 363.487 327.262 369.589 355.57 384.743ZM1209.83 382.235C1206.73 398.295 1164.65 425.484 1156.1 416.932C1153.14 413.966 1157.17 401.668 1165.07 389.617C1181.51 364.53 1214.28 359.122 1209.83 382.235ZM914.583 389.083C898.319 408.686 907.955 410.678 930.525 392.388C944.153 381.336 946.509 376.166 937.915 376.166C930.982 376.166 920.482 381.98 914.583 389.083ZM251.561 408.576C260.002 413.941 259.934 418.339 251.213 430.264C241.814 443.121 237.051 443.757 217.312 434.756C187.233 421.051 187.437 401.55 217.66 401.719C230.474 401.795 245.73 404.881 251.561 408.576ZM941.356 427.747C927.728 438.799 925.372 443.969 933.966 443.969C946.653 443.969 970.893 420.983 964.697 414.83C962.866 413.017 952.366 418.822 941.356 427.747ZM353.264 437.29C375.664 455.8 363.723 463.267 320.016 458.088C270.495 452.223 250.764 439.578 270.698 426.484C284.945 417.127 337.136 423.958 353.264 437.29ZM1185.96 434.993C1185.96 439.383 1182.15 445.325 1177.49 448.206C1172.82 451.088 1169.01 447.494 1169.01 440.231C1169.01 432.968 1172.82 427.018 1177.49 427.018C1182.15 427.018 1185.96 430.603 1185.96 434.993ZM774.91 460.919C766.214 470.53 763.807 477.87 769.359 477.87C774.74 477.87 779.148 474.378 779.148 470.098C779.148 465.826 789.64 458.504 802.455 453.817C821.897 446.723 822.812 445.197 808.006 444.638C798.242 444.274 783.343 451.596 774.91 460.919ZM554.442 477.387C558.468 495.693 563.519 500.948 573.435 497.143C583.758 493.185 585.886 496.007 582.453 509.135C579.978 518.585 581.461 532.578 585.741 540.231C597.437 561.122 581.36 556.978 559.197 533.391C547.408 520.839 541.78 507.194 544.975 498.871C547.882 491.311 546.323 477.768 541.509 468.784C536.195 458.843 535.941 452.444 540.865 452.444C545.323 452.444 551.433 463.665 554.442 477.387ZM303.26 468.428C309.659 472.479 329.796 472.293 348.874 468.004C390.945 458.554 398.022 464.063 372.393 486.294C350.51 505.27 313.007 509.177 313.007 492.481C313.007 484.972 302.641 482.65 279.105 484.896C247.95 487.862 236.797 480.633 250.857 466.572C258.765 458.665 289.572 459.758 303.26 468.428ZM1154.75 514.822C1227.99 555.792 1261.88 585.133 1276.59 620.314C1294.56 663.335 1284.5 695.82 1251.09 702.609C1236.25 705.626 1212.31 712.144 1197.9 717.085C1177.17 724.204 1163.56 722.975 1132.66 711.178C1103.67 700.1 1077.69 697.244 1031.73 700.075C970.833 703.821 969.062 703.338 921.109 670.165C894.301 651.622 872.376 633.315 872.376 629.493C872.376 606.584 973.062 597.719 980.487 619.975C981.877 624.153 1004.84 616.474 1031.52 602.906C1074.31 581.149 1087.18 578.59 1140.87 581.166C1174.34 582.768 1197.23 581.217 1191.72 577.717C1186.22 574.217 1156.63 571.301 1125.95 571.225C1083.56 571.132 1060.45 576.022 1029.61 591.642C994.861 609.228 965.604 612.763 965.604 599.355C965.604 597.253 976.808 581.455 990.496 564.241C1004.19 547.037 1018.07 521.517 1021.33 507.533C1024.6 493.549 1028.58 479.743 1030.16 476.853C1036.47 465.369 1102.05 485.353 1154.75 514.822ZM1126.63 477.87C1126.63 482.531 1124.96 486.345 1122.9 486.345C1120.84 486.345 1116.8 482.531 1113.92 477.87C1111.04 473.208 1112.73 469.394 1117.66 469.394C1122.59 469.394 1126.63 473.208 1126.63 477.87ZM834.322 486.209C831.482 490.794 816.956 498.083 802.039 502.397C782.428 508.067 779.936 510.457 793.039 511.008C803.014 511.423 820.176 504.27 831.177 495.1C842.187 485.938 848.552 478.31 845.331 478.149C842.111 477.997 837.152 481.624 834.322 486.209ZM926.702 502.058C930.364 507.991 924.973 515.051 913.176 519.78C900.268 524.958 898.276 527.831 907.362 528.187C926.863 528.942 944.314 506.847 930.804 498.507C924.312 494.49 922.821 495.786 926.702 502.058ZM317.244 511.771C320.219 516.576 313.091 520.246 300.794 520.246C288.869 520.246 279.105 516.432 279.105 511.771C279.105 507.109 286.504 503.296 295.556 503.296C304.608 503.296 314.363 507.109 317.244 511.771ZM406.235 529.179C406.235 538.739 382.504 545.672 349.747 545.672C316.134 545.672 314.651 530.722 346.67 514.627C366.248 504.779 406.235 514.551 406.235 529.179ZM872.376 520.246C872.376 524.908 876.418 528.721 881.351 528.721C886.284 528.721 887.97 524.908 885.089 520.246C882.207 515.585 878.173 511.771 876.113 511.771C874.054 511.771 872.376 515.585 872.376 520.246ZM940.178 528.73C909.599 544.308 872.104 579.573 886.131 579.573C890.479 579.573 900.793 571.683 909.048 562.038C917.312 552.393 935.322 540.578 949.077 535.781C962.824 530.984 974.079 523.619 974.079 519.415C974.079 515.212 973.122 512.186 971.96 512.695C970.799 513.203 956.493 520.416 940.178 528.73ZM1369.27 548.138C1402.06 583.921 1404.28 593.337 1381.66 600.516C1372.76 603.346 1360.39 611.779 1354.19 619.255C1346.01 629.103 1353.23 627.586 1380.35 613.754C1426.6 590.159 1506.09 581.684 1541.92 596.524C1556.22 602.448 1575.43 616.822 1584.59 628.475C1605.79 655.427 1606.81 689.735 1586.42 689.803C1567.25 689.862 1505.46 706.974 1509.57 711.084C1511.3 712.813 1529.32 710.491 1549.62 705.931C1618.07 690.557 1669.05 722.619 1669.05 781.048C1669.05 836.112 1619.85 895.1 1546.16 928.382C1512.75 943.468 1487.94 947.596 1428.89 947.884C1360.17 948.214 1352.65 946.596 1337.78 928.238C1325.53 913.127 1321.57 911.567 1321.57 921.856C1321.57 929.357 1307.92 950.588 1291.24 969.047C1237.97 1028.01 1102.51 1064.25 1008.68 1044.63C954.501 1033.31 926.796 1032.43 900.514 1041.21C885.004 1046.39 879.368 1042.15 865.324 1014.76C856.129 996.829 838.695 972.903 826.584 961.605C814.481 950.299 804.573 936.51 804.573 930.967C804.573 892.667 721.422 846.816 689.106 867.292C674.647 876.463 675.054 876.98 693.615 872.996C724.287 866.419 769.189 889.023 785.699 919.356C793.75 934.154 814.642 963.148 832.118 983.794C849.603 1004.43 863.9 1030.23 863.9 1041.11C863.9 1067.75 814.167 1110.28 768.714 1122.52C705.379 1139.58 605.116 1106.18 633.728 1077.56C654.874 1056.42 642.144 1052.36 620.236 1073.25C567.909 1123.17 473.24 1128.46 428.737 1083.95C412.159 1067.38 410.328 1028.71 425.304 1011.52C431.135 1004.83 425.787 1008.19 413.422 1018.99C372.24 1054.97 276.995 1050.49 291.971 1013.28C295.115 1005.48 299.777 993.955 302.336 987.658C304.896 981.37 297.234 985.98 285.301 997.905C259.502 1023.71 229.694 1032.53 192.174 1025.43C128.728 1013.44 75.7917 958.19 75.7324 903.889C75.69 868.572 111.024 828.586 156.214 812.813C185.996 802.414 191.335 802.558 200.15 814.017C208.481 824.856 210.634 821.687 212.863 795.286C216.49 752.223 261.621 715.068 317.999 708.711C351.671 704.914 357.358 706.279 353.188 717.144C349.984 725.492 364.689 720.187 394.539 702.211C460.883 662.258 510.082 652.088 561.595 667.657C611.125 682.624 652.595 709.932 673.868 741.595C691.81 768.292 700.632 768.106 686.309 741.333C671.52 713.703 691.242 719.28 721.227 751.198C738.78 769.886 744.077 772.784 737.703 760.233C723.99 733.239 724.982 732.128 762.765 732.128C797.785 732.128 828.253 749.24 885.089 800.821C906.226 820 917.575 823.662 952.357 822.509C992.013 821.195 994.572 819.687 1001.33 793.608C1006.39 774.056 1004.8 759.038 995.844 741.714C988.902 728.298 985.623 714.941 988.547 712.017C999.022 701.541 1102.37 706.957 1132.55 719.568C1162.1 731.917 1162.69 732.976 1147.11 745.528C1127.9 761.012 1133.85 759.156 1190.2 732.103C1226.01 714.907 1245.06 711.813 1313.09 712.11C1357.37 712.305 1404.31 716.873 1417.4 722.272C1430.48 727.662 1439.03 728.586 1436.39 724.314C1430.5 714.779 1356.02 698.227 1319.03 698.227C1292.18 698.227 1291.9 697.795 1291.9 656.469C1291.9 609.432 1273.47 577.658 1230.08 549.91C1215.5 540.587 1203.42 530.374 1203.24 527.221C1202.66 517.051 1231.3 512.83 1286.63 514.915C1336.96 516.805 1342.65 519.102 1369.27 548.138ZM314.049 575.327C329.525 576.53 333.576 581.141 331.534 595.235C329.822 607.058 334.339 615.347 344.247 618.534C352.705 621.263 367.952 627.467 378.131 632.323C388.318 637.188 404.523 639.112 414.142 636.595C423.77 634.078 434.042 635.892 436.966 640.629C439.899 645.367 455.154 647.155 470.876 644.604C486.597 642.053 499.463 643.536 499.463 647.909C499.463 652.274 492.793 655.885 484.631 655.936C476.47 655.978 448.823 665.919 423.185 678.022C392.42 692.54 360.511 700.439 329.339 701.244C293.344 702.177 273.715 708.016 246.882 725.772C196.531 759.097 157.443 756.097 142.882 717.78C134.009 694.447 151.027 652.808 172.851 644.435C180.012 641.68 185.877 630.628 185.877 619.865C185.877 592.574 208.65 562.953 239.933 549.562C264.07 539.231 267.605 539.799 280.148 556.003C287.716 565.775 302.972 574.471 314.049 575.327ZM329.957 554.147C339.865 560.546 337.526 562.394 319.363 562.495C306.548 562.563 296.056 558.809 296.056 554.147C296.056 543.435 313.371 543.435 329.957 554.147ZM406.235 566.86C406.235 575.742 397.285 579.573 376.571 579.573C330.644 579.573 340.534 556.453 387.165 554.817C398.76 554.41 406.235 559.131 406.235 566.86ZM930.618 568.25C920.075 581.031 920.77 581.404 938.059 572.191C957.781 561.682 962.638 554.147 949.687 554.147C945.602 554.147 937.017 560.495 930.618 568.25ZM457.087 592.066C457.087 605.38 415.854 630.425 393.946 630.425C374.58 630.425 377.978 607.94 399.65 592.769C423.694 575.92 457.087 575.513 457.087 592.066ZM372.334 595.617C372.334 606.016 348.459 614.364 343.17 605.813C340.823 602.007 341.331 596.448 344.314 593.464C352.391 585.387 372.334 586.921 372.334 595.617ZM507.938 612.11C507.938 620.568 469.969 638.9 452.451 638.9C435.525 638.9 436.975 624.636 454.968 614.152C473.02 603.643 507.938 602.295 507.938 612.11ZM969.842 757.554C972.723 762.216 976.757 766.03 978.817 766.03C980.876 766.03 982.555 762.216 982.555 757.554C982.555 752.893 978.512 749.079 973.579 749.079C968.647 749.079 966.96 752.893 969.842 757.554Z" stroke="black" stroke-width="16.9506" mask="url(#path-1-inside-1_1450_951)"/>
</svg>
